<svg width="438" height="311" viewBox="0 0 438 311" fill="none" xmlns="http://www.w3.org/2000/svg">
<path d="M61.9561 278.126C144.569 321.281 278.501 321.281 361.104 278.126C443.708 234.97 443.718 164.997 361.104 121.842C278.491 78.6868 144.559 78.6868 61.9561 121.842C-20.6471 164.997 -20.657 234.97 61.9561 278.126Z" fill="#FAFAFA"/>
<path d="M260.244 219.689C240.811 230.899 240.811 249.09 260.244 260.31C279.677 271.53 311.168 271.53 330.602 260.31C350.035 249.09 350.025 230.899 330.602 219.689C311.178 208.478 279.667 208.469 260.244 219.689Z" fill="#EBEBEB"/>
<path d="M55.6406 58.8944L107.699 42.7051L67.6495 70.4498L55.6406 58.8944Z" fill="#7459D9"/>
<path d="M107.696 42.7106L51.6246 51.9588L39.6157 40.3936L107.696 42.7106Z" fill="#7459D9"/>
<path d="M51.627 51.9533V65.8257L55.6398 58.8944L107.698 42.7051L51.627 51.9533Z" fill="#455A64"/>
<path d="M51.627 65.8238L59.6428 62.7477L55.6398 58.8926L51.627 65.8238Z" fill="#7459D9"/>
<path d="M55.6406 58.8926L59.6436 62.7477L58.3619 63.2308L55.6406 58.8926Z" fill="#455A64"/>
<path d="M43.0023 63.7345C42.8365 63.7376 42.6745 63.6849 42.5423 63.5849C42.4101 63.4848 42.3153 63.3432 42.2732 63.1829C42.2312 63.0225 42.2442 62.8526 42.3103 62.7005C42.3763 62.5485 42.4916 62.423 42.6375 62.3443C43.5249 61.8513 44.4221 61.3584 45.3094 60.9738C45.3974 60.9262 45.4942 60.897 45.5938 60.8879C45.6934 60.8787 45.7939 60.8899 45.889 60.9207C45.9842 60.9515 46.0722 61.0013 46.1475 61.0671C46.2229 61.1329 46.2841 61.2133 46.3275 61.3034C46.3709 61.3936 46.3956 61.4916 46.4 61.5915C46.4044 61.6915 46.3885 61.7913 46.3533 61.8849C46.318 61.9785 46.2641 62.064 46.1949 62.1362C46.1256 62.2084 46.0424 62.2658 45.9503 62.3049C45.0925 62.719 44.215 63.1627 43.3572 63.6458C43.2475 63.7028 43.1259 63.7332 43.0023 63.7345Z" fill="#E0E0E0"/>
<path d="M33.9036 143.366C33.7525 143.368 33.6046 143.323 33.4797 143.238C31.8762 142.108 30.3571 140.862 28.9344 139.511C28.8443 139.453 28.768 139.375 28.7108 139.284C28.6536 139.193 28.617 139.091 28.6035 138.984C28.5899 138.878 28.5998 138.769 28.6324 138.667C28.6649 138.564 28.7195 138.47 28.7921 138.391C28.8648 138.312 28.9539 138.25 29.0531 138.208C29.1524 138.167 29.2594 138.148 29.3668 138.152C29.4742 138.156 29.5794 138.184 29.675 138.233C29.7706 138.282 29.8543 138.352 29.9204 138.437C31.2926 139.739 32.7591 140.939 34.3079 142.025C34.4355 142.117 34.5308 142.246 34.58 142.395C34.6291 142.544 34.6295 142.705 34.5812 142.855C34.5329 143.004 34.4384 143.134 34.3112 143.226C34.1841 143.318 34.031 143.367 33.8741 143.366H33.9036ZM26.1738 136.189C26.0646 136.19 25.9565 136.167 25.8576 136.121C25.7586 136.074 25.6712 136.007 25.6019 135.922C24.3595 134.406 23.2293 132.801 22.2201 131.121C22.1181 130.952 22.0873 130.75 22.1344 130.559C22.1816 130.367 22.3028 130.202 22.4715 130.1C22.6402 129.998 22.8424 129.968 23.0338 130.015C23.2252 130.062 23.39 130.183 23.492 130.352C24.4641 131.972 25.5514 133.521 26.7456 134.986C26.8688 135.137 26.9275 135.33 26.909 135.524C26.8906 135.717 26.7964 135.896 26.647 136.021C26.5149 136.133 26.3467 136.192 26.1738 136.189ZM20.6228 127.216C20.4796 127.218 20.3391 127.178 20.2183 127.101C20.0975 127.023 20.0017 126.913 19.9425 126.783C19.1368 124.998 18.4453 123.163 17.872 121.291C17.83 121.109 17.8585 120.917 17.9518 120.755C18.0451 120.593 18.1964 120.473 18.3751 120.418C18.5538 120.363 18.7467 120.377 18.9149 120.459C19.0832 120.541 19.2143 120.683 19.2819 120.857C19.827 122.668 20.4856 124.443 21.2538 126.171C21.2952 126.26 21.3185 126.356 21.3225 126.454C21.3265 126.551 21.3111 126.649 21.2772 126.74C21.2432 126.832 21.1915 126.916 21.1249 126.988C21.0582 127.059 20.9781 127.117 20.889 127.157C20.8051 127.195 20.7146 127.215 20.6228 127.216ZM17.4185 117.15C17.2475 117.148 17.0823 117.088 16.9511 116.978C16.8198 116.868 16.7307 116.716 16.6987 116.548C16.3224 114.633 16.0557 112.697 15.9001 110.751C15.8844 110.555 15.9473 110.361 16.0749 110.211C16.2024 110.061 16.3843 109.968 16.5804 109.952C16.7765 109.937 16.9709 110 17.1206 110.127C17.2704 110.255 17.3634 110.437 17.379 110.633C17.5241 112.523 17.7809 114.403 18.1481 116.263C18.1681 116.358 18.1689 116.456 18.1503 116.552C18.1318 116.647 18.0943 116.738 18.0401 116.819C17.9859 116.9 17.9161 116.969 17.8347 117.022C17.7533 117.076 17.6621 117.112 17.5664 117.13L17.4185 117.15ZM16.4818 106.62C16.3843 106.62 16.2878 106.6 16.198 106.563C16.1082 106.525 16.0268 106.469 15.9588 106.399C15.8908 106.329 15.8375 106.247 15.802 106.156C15.7665 106.065 15.7496 105.968 15.7522 105.871C15.7753 103.919 15.9069 101.97 16.1466 100.034C16.1477 99.9297 16.1708 99.8272 16.2142 99.7327C16.2577 99.6383 16.3205 99.554 16.3987 99.4855C16.4769 99.417 16.5687 99.3657 16.6681 99.3351C16.7674 99.3045 16.8721 99.2951 16.9753 99.3077C17.0785 99.3202 17.1779 99.3544 17.267 99.408C17.3561 99.4615 17.4329 99.5333 17.4924 99.6185C17.5519 99.7038 17.5928 99.8006 17.6123 99.9028C17.6319 100.005 17.6296 100.11 17.6058 100.211C17.3779 102.096 17.2528 103.992 17.2312 105.89C17.2299 105.987 17.2095 106.083 17.1711 106.172C17.1328 106.262 17.0772 106.343 17.0076 106.41C16.938 106.478 16.8558 106.531 16.7656 106.567C16.6754 106.603 16.5789 106.621 16.4818 106.62ZM17.6847 96.1194C17.6292 96.129 17.5725 96.129 17.5171 96.1194C17.3265 96.077 17.1605 95.9609 17.0553 95.7965C16.95 95.6321 16.914 95.4328 16.9551 95.242C17.3871 93.3321 17.9404 91.4517 18.6115 89.6121C18.6442 89.5162 18.6962 89.4279 18.7644 89.3529C18.8327 89.2779 18.9156 89.2177 19.0081 89.1761C19.1005 89.1345 19.2006 89.1123 19.302 89.111C19.4034 89.1097 19.5039 89.1293 19.5974 89.1685C19.6926 89.2023 19.7799 89.2551 19.8541 89.3236C19.9283 89.392 19.988 89.4748 20.0294 89.5669C20.0709 89.659 20.0933 89.7585 20.0953 89.8595C20.0973 89.9604 20.0789 90.0608 20.0411 90.1544C19.3942 91.933 18.8607 93.7508 18.4439 95.5969C18.3952 95.7571 18.2936 95.896 18.1557 95.9909C18.0177 96.0858 17.8517 96.1312 17.6847 96.1194ZM21.1947 86.1613C21.081 86.1658 20.9683 86.1385 20.8693 86.0824C20.7811 86.0413 20.702 85.9829 20.6367 85.9108C20.5714 85.8386 20.5211 85.7541 20.489 85.6622C20.4568 85.5703 20.4434 85.4729 20.4494 85.3758C20.4555 85.2786 20.4809 85.1837 20.5242 85.0965C21.3848 83.3394 22.3529 81.637 23.4229 79.9991C23.5307 79.8464 23.6923 79.7401 23.8752 79.7017C24.0581 79.6633 24.2488 79.6956 24.4089 79.7921C24.5652 79.8967 24.675 80.0577 24.7154 80.2415C24.7558 80.4252 24.7237 80.6174 24.6258 80.778C23.5857 82.3601 22.6472 84.0067 21.8158 85.7078C21.7648 85.8337 21.6796 85.9429 21.5699 86.023C21.4601 86.1032 21.3302 86.1511 21.1947 86.1613ZM26.8639 77.2877C26.699 77.2894 26.5387 77.2336 26.4104 77.13C26.3335 77.0695 26.2694 76.9943 26.2218 76.9088C26.1742 76.8234 26.144 76.7293 26.133 76.6321C26.122 76.5349 26.1304 76.4365 26.1577 76.3426C26.185 76.2486 26.2307 76.161 26.2921 76.0849C27.5242 74.5628 28.8409 73.1111 30.2359 71.7368C30.3745 71.5983 30.5625 71.5205 30.7584 71.5205C30.9544 71.5205 31.1423 71.5983 31.281 71.7368C31.4195 71.8755 31.4973 72.0634 31.4973 72.2594C31.4973 72.4553 31.4195 72.6433 31.281 72.7819C29.9373 74.1224 28.6669 75.5344 27.4752 77.0117C27.3988 77.096 27.3038 77.1614 27.1976 77.2025C27.0915 77.2436 26.9772 77.2593 26.8639 77.2483V77.2877ZM34.2783 69.7156C34.1708 69.7154 34.0647 69.6914 33.9675 69.6454C33.8704 69.5994 33.7846 69.5324 33.7163 69.4494C33.5914 69.2982 33.5307 69.1041 33.5473 68.9087C33.5639 68.7133 33.6564 68.5322 33.805 68.4043C35.306 67.1561 36.8691 65.9846 38.4883 64.8943C38.6473 64.7968 38.8372 64.763 39.02 64.7995C39.2028 64.8361 39.3651 64.9404 39.4743 65.0915C39.5843 65.2552 39.6253 65.4558 39.5884 65.6496C39.5515 65.8434 39.4396 66.0149 39.2771 66.1267C37.6973 67.1875 36.1736 68.3294 34.7121 69.548C34.5883 69.6473 34.4367 69.7058 34.2783 69.7156Z" fill="#E0E0E0"/>
<path d="M40.6831 147.217C40.5772 147.218 40.4727 147.194 40.3774 147.148C39.4605 146.734 38.5534 146.29 37.6858 145.817C37.6009 145.772 37.5257 145.711 37.4644 145.637C37.4032 145.564 37.357 145.479 37.3286 145.387C37.3002 145.296 37.2902 145.199 37.299 145.104C37.3078 145.008 37.3354 144.916 37.3801 144.831C37.4722 144.661 37.6267 144.535 37.8109 144.477C37.9951 144.42 38.1943 144.438 38.3661 144.525C39.214 144.979 40.0915 145.413 40.9788 145.817C41.131 145.888 41.2546 146.008 41.3292 146.158C41.4039 146.309 41.4252 146.48 41.3896 146.644C41.3541 146.808 41.2638 146.955 41.1336 147.061C41.0034 147.167 40.841 147.225 40.6732 147.227L40.6831 147.217Z" fill="#E0E0E0"/>
<path d="M377.926 111.44L419.632 84.7402L438 90.6362L377.926 111.44Z" fill="#7459D9"/>
<path d="M377.926 111.444L413.972 81.3918L405.956 72.1436L377.926 111.444Z" fill="#7459D9"/>
<path d="M413.972 81.3779V88.3486L377.926 111.43L413.972 81.3779Z" fill="#455A64"/>
<path d="M422.111 78.4782C421.932 78.4789 421.759 78.412 421.627 78.2909C421.482 78.1602 421.393 77.9777 421.38 77.7824C421.367 77.5871 421.431 77.3945 421.558 77.2458C422.842 75.8136 423.982 74.2581 424.96 72.6019C425.059 72.432 425.222 72.3084 425.413 72.2585C425.603 72.2086 425.806 72.2364 425.976 72.3357C426.146 72.4351 426.269 72.5979 426.319 72.7884C426.369 72.9788 426.341 73.1813 426.242 73.3513C425.209 75.0874 424.014 76.7215 422.673 78.2317C422.602 78.3107 422.515 78.3735 422.418 78.416C422.321 78.4586 422.216 78.4798 422.111 78.4782ZM427.75 69.2891C427.662 69.3032 427.572 69.3032 427.484 69.2891C427.391 69.2535 427.306 69.1992 427.234 69.1297C427.162 69.0602 427.105 68.9769 427.066 68.8847C427.027 68.7925 427.008 68.6935 427.009 68.5936C427.009 68.4936 427.03 68.3948 427.07 68.3032C427.767 66.5073 428.288 64.6484 428.628 62.7523C428.663 62.5588 428.774 62.3872 428.936 62.2753C429.097 62.1635 429.297 62.1205 429.49 62.1558C429.684 62.1911 429.856 62.3018 429.967 62.4636C430.079 62.6254 430.122 62.825 430.087 63.0185C429.724 65.0053 429.172 66.9531 428.44 68.8356C428.385 68.9721 428.289 69.0885 428.166 69.1694C428.043 69.2504 427.898 69.2921 427.75 69.2891ZM429.86 58.7098C429.764 58.7086 429.668 58.6881 429.579 58.6496C429.491 58.6112 429.411 58.5554 429.344 58.4857C429.277 58.416 429.224 58.3337 429.189 58.2435C429.154 58.1533 429.138 58.0572 429.14 57.9605C429.14 57.7042 429.14 57.4478 429.14 57.1915C429.136 55.5176 429.004 53.8465 428.746 52.1927C428.718 51.9981 428.767 51.8002 428.883 51.6416C428.999 51.4829 429.173 51.3763 429.367 51.3448C429.561 51.3189 429.758 51.3691 429.916 51.4849C430.074 51.6006 430.181 51.773 430.215 51.9659C430.482 53.6951 430.617 55.4419 430.619 57.1915C430.619 57.4577 430.619 57.7239 430.619 57.9901C430.612 58.1854 430.528 58.3699 430.386 58.5044C430.244 58.6388 430.056 58.7126 429.86 58.7098ZM428.371 48.0221C428.213 48.0216 428.058 47.9693 427.932 47.8732C427.806 47.7771 427.714 47.6425 427.671 47.4897C427.106 45.6397 426.397 43.8365 425.552 42.0965C425.508 42.0093 425.483 41.9144 425.477 41.8172C425.471 41.7201 425.484 41.6227 425.516 41.5308C425.548 41.4389 425.599 41.3544 425.664 41.2822C425.729 41.2101 425.808 41.1517 425.897 41.1106C426.073 41.0258 426.276 41.0145 426.461 41.0792C426.646 41.1439 426.797 41.2793 426.883 41.4556C427.764 43.2638 428.5 45.1399 429.081 47.0657C429.11 47.1583 429.12 47.2556 429.111 47.3521C429.101 47.4486 429.073 47.5422 429.027 47.6276C428.981 47.713 428.919 47.7883 428.843 47.8493C428.768 47.9102 428.681 47.9556 428.588 47.9827C428.519 48.01 428.446 48.0234 428.371 48.0221ZM423.797 38.2316C423.672 38.2327 423.549 38.2015 423.44 38.141C423.332 38.0805 423.24 37.9928 423.175 37.8865C422.118 36.2639 420.956 34.7126 419.695 33.2426C419.631 33.1689 419.583 33.0834 419.552 32.9909C419.522 32.8984 419.51 32.8008 419.517 32.7037C419.525 32.6066 419.551 32.5119 419.595 32.425C419.639 32.3382 419.7 32.2609 419.774 32.1975C419.847 32.1342 419.932 32.0859 420.023 32.0555C420.115 32.0252 420.212 32.0133 420.308 32.0207C420.404 32.028 420.498 32.0544 420.584 32.0983C420.67 32.1422 420.747 32.2027 420.809 32.2764C422.118 33.798 423.323 35.4054 424.418 37.0879C424.509 37.2502 424.537 37.4403 424.497 37.6221C424.457 37.8039 424.352 37.9646 424.201 38.0738C424.083 38.1606 423.943 38.2119 423.797 38.2217V38.2316ZM416.895 29.9397C416.707 29.9391 416.526 29.8648 416.392 29.7326C414.972 28.4038 413.481 27.1531 411.926 25.986C411.848 25.9278 411.783 25.8548 411.733 25.7712C411.684 25.6876 411.651 25.5952 411.637 25.499C411.624 25.4029 411.629 25.305 411.653 25.2109C411.677 25.1169 411.72 25.0285 411.778 24.9508C411.836 24.8731 411.909 24.8076 411.993 24.7582C412.076 24.7087 412.169 24.6762 412.265 24.6624C412.361 24.6487 412.459 24.654 412.553 24.6781C412.647 24.7022 412.735 24.7446 412.813 24.8029C414.416 26.0007 415.95 27.2878 417.408 28.658C417.517 28.7596 417.594 28.8921 417.626 29.0379C417.659 29.1837 417.647 29.3361 417.592 29.4749C417.536 29.6137 417.44 29.7325 417.315 29.8154C417.191 29.8984 417.044 29.9417 416.895 29.9397ZM408.248 23.3732C408.108 23.3719 407.971 23.3309 407.854 23.2549C407.183 22.8408 406.483 22.4267 405.773 22.0225C404.787 21.4703 403.801 20.9182 402.756 20.3957C402.661 20.3574 402.575 20.2997 402.503 20.2262C402.431 20.1527 402.375 20.065 402.339 19.9687C402.303 19.8724 402.287 19.7697 402.293 19.6671C402.299 19.5645 402.326 19.4642 402.373 19.3727C402.42 19.2812 402.485 19.2004 402.565 19.1356C402.645 19.0707 402.737 19.0232 402.836 18.9961C402.935 18.9689 403.039 18.9628 403.141 18.978C403.243 18.9932 403.34 19.0294 403.427 19.0843C404.462 19.6168 405.497 20.1689 406.503 20.7407C407.233 21.145 407.942 21.5689 408.633 22.0028C408.792 22.1045 408.906 22.2633 408.952 22.4467C408.998 22.6301 408.972 22.824 408.879 22.9887C408.815 23.1013 408.724 23.1956 408.614 23.2629C408.503 23.3302 408.377 23.3682 408.248 23.3732ZM319.857 22.8704C319.727 22.869 319.6 22.8337 319.487 22.768C319.375 22.7023 319.282 22.6085 319.216 22.4957C319.123 22.3293 319.098 22.1328 319.148 21.9484C319.198 21.7641 319.318 21.6066 319.483 21.5098C321.198 20.5238 322.963 19.5379 324.748 18.7097C324.923 18.6242 325.125 18.6115 325.31 18.6743C325.494 18.7371 325.647 18.8703 325.734 19.0449C325.816 19.2218 325.826 19.4238 325.761 19.6079C325.697 19.792 325.563 19.9438 325.388 20.0309C323.634 20.8886 321.898 21.8056 320.212 22.7817C320.102 22.8354 319.98 22.8592 319.857 22.8507V22.8704ZM398.635 18.3646C398.532 18.3652 398.431 18.3416 398.339 18.2956C396.565 17.5167 394.731 16.7871 392.897 16.1363C392.711 16.0697 392.56 15.932 392.475 15.7535C392.391 15.5751 392.382 15.3706 392.448 15.1849C392.515 14.9992 392.653 14.8477 392.831 14.7635C393.009 14.6794 393.214 14.6696 393.4 14.7363C395.263 15.4067 397.127 16.1462 398.941 16.9448C399.099 17.0121 399.229 17.1323 399.308 17.2849C399.387 17.4375 399.41 17.6129 399.374 17.7809C399.338 17.949 399.244 18.0991 399.11 18.2057C398.975 18.3122 398.807 18.3684 398.635 18.3646ZM329.569 18.0589C329.423 18.0599 329.281 18.0173 329.159 17.9364C329.038 17.8556 328.944 17.7403 328.889 17.6054C328.848 17.515 328.826 17.4174 328.824 17.3183C328.822 17.2193 328.84 17.1209 328.877 17.029C328.914 16.937 328.969 16.8534 329.039 16.783C329.108 16.7127 329.191 16.6571 329.283 16.6195C331.107 15.8504 332.98 15.1405 334.854 14.4997C334.948 14.4606 335.049 14.4415 335.151 14.4435C335.253 14.4454 335.353 14.4684 335.446 14.511C335.538 14.5536 335.621 14.6149 335.689 14.691C335.757 14.767 335.808 14.8563 335.84 14.9532C335.875 15.0482 335.892 15.1495 335.888 15.251C335.884 15.3525 335.86 15.4522 335.816 15.5442C335.773 15.6361 335.712 15.7184 335.636 15.7863C335.561 15.8541 335.472 15.9061 335.376 15.9391C333.532 16.5702 331.679 17.2702 329.894 18.0195C329.788 18.049 329.678 18.0557 329.569 18.0392V18.0589ZM388.46 14.6475C388.391 14.6571 388.322 14.6571 388.253 14.6475C386.389 14.1053 384.477 13.6616 382.574 13.1982C382.479 13.1775 382.389 13.1382 382.309 13.0827C382.229 13.0271 382.16 12.9563 382.108 12.8744C382.055 12.7925 382.019 12.7009 382.002 12.6051C381.984 12.5092 381.986 12.4109 382.007 12.3158C382.028 12.2206 382.067 12.1304 382.122 12.0505C382.178 11.9705 382.249 11.9022 382.331 11.8495C382.413 11.7969 382.504 11.7609 382.6 11.7436C382.696 11.7264 382.794 11.7281 382.889 11.7488C384.861 12.1728 386.774 12.6756 388.667 13.2278C388.838 13.2776 388.985 13.3874 389.082 13.537C389.178 13.6866 389.217 13.866 389.192 14.0422C389.167 14.2184 389.079 14.3797 388.944 14.4963C388.81 14.6129 388.638 14.6771 388.46 14.6771V14.6475ZM339.803 14.4997C339.642 14.499 339.485 14.4457 339.357 14.3478C339.229 14.2499 339.136 14.1128 339.093 13.9574C339.066 13.8648 339.058 13.7678 339.068 13.6719C339.079 13.5761 339.109 13.4833 339.155 13.3989C339.202 13.3146 339.265 13.2403 339.341 13.1805C339.416 13.1207 339.503 13.0764 339.596 13.0503C341.499 12.5179 343.451 12.0643 345.394 11.6305C345.492 11.5991 345.596 11.5887 345.699 11.5999C345.801 11.6111 345.9 11.6437 345.99 11.6956C346.079 11.7475 346.157 11.8175 346.217 11.9012C346.278 11.9849 346.32 12.0803 346.342 12.1814C346.363 12.2825 346.363 12.3869 346.342 12.488C346.32 12.5891 346.278 12.6845 346.218 12.7683C346.157 12.852 346.08 12.9221 345.99 12.9741C345.901 13.026 345.802 13.0587 345.699 13.07C343.786 13.4743 341.874 13.9475 340 14.4701L339.803 14.4997ZM377.891 12.2714H377.743C375.82 11.9657 373.858 11.7193 371.926 11.5418C371.824 11.5407 371.723 11.5185 371.63 11.4768C371.537 11.435 371.454 11.3745 371.386 11.299C371.317 11.2236 371.265 11.1348 371.233 11.0383C371.2 10.9418 371.188 10.8396 371.197 10.7381C371.206 10.6366 371.236 10.5381 371.284 10.4487C371.333 10.3592 371.4 10.2808 371.48 10.2183C371.56 10.1559 371.653 10.1107 371.752 10.0856C371.85 10.0606 371.953 10.0562 372.054 10.0727C374.026 10.2502 375.998 10.4967 377.969 10.8122C378.162 10.846 378.333 10.9536 378.447 11.112C378.562 11.2703 378.609 11.467 378.581 11.6601C378.546 11.8197 378.46 11.9633 378.335 12.0685C378.21 12.1737 378.054 12.2347 377.891 12.2418V12.2714ZM350.392 12.2024C350.217 12.2023 350.047 12.1398 349.913 12.026C349.78 11.9122 349.691 11.7545 349.663 11.5812C349.634 11.3867 349.683 11.1887 349.8 11.0301C349.916 10.8715 350.09 10.7649 350.284 10.7333C352.256 10.4375 354.228 10.191 356.2 10.0234C356.297 10.015 356.394 10.0258 356.487 10.0552C356.58 10.0846 356.667 10.132 356.741 10.1947C356.816 10.2574 356.877 10.3342 356.922 10.4207C356.967 10.5072 356.995 10.6017 357.003 10.6988C357.012 10.7959 357.001 10.8937 356.971 10.9867C356.942 11.0796 356.895 11.1658 356.832 11.2405C356.769 11.3151 356.692 11.3766 356.606 11.4215C356.519 11.4665 356.425 11.4939 356.328 11.5024C354.356 11.67 352.433 11.8967 350.511 12.2024H350.392ZM367.104 11.2164C365.132 11.1474 363.16 11.1375 361.238 11.2164C361.141 11.2218 361.044 11.2074 360.953 11.1742C360.861 11.1411 360.778 11.0898 360.707 11.0235C360.636 10.9572 360.579 10.8772 360.54 10.7883C360.501 10.6995 360.48 10.6036 360.479 10.5065C360.475 10.4091 360.49 10.3118 360.525 10.2205C360.559 10.1292 360.611 10.0457 360.678 9.97493C360.745 9.90415 360.826 9.84755 360.915 9.80846C361.005 9.76937 361.101 9.74859 361.198 9.74735C363.17 9.67834 365.142 9.6882 367.114 9.74735C367.211 9.74991 367.307 9.77158 367.396 9.81112C367.484 9.85066 367.564 9.9073 367.631 9.97781C367.698 10.0483 367.75 10.1313 367.785 10.222C367.82 10.3127 367.836 10.4094 367.834 10.5065C367.819 10.6915 367.737 10.8645 367.602 10.9919C367.467 11.1194 367.29 11.1924 367.104 11.1967V11.2164Z" fill="#E0E0E0"/>
<path d="M363.39 125.85V124.273H363.005C362.42 123.204 361.531 122.333 360.451 121.768C358.249 120.65 355.813 120.067 353.343 120.067C350.872 120.067 348.437 120.65 346.234 121.768C345.154 122.333 344.266 123.204 343.68 124.273H343.296V125.801C343.296 127.309 344.282 128.828 346.254 129.981C348.458 131.094 350.893 131.674 353.362 131.674C355.832 131.674 358.267 131.094 360.471 129.981C362.423 128.867 363.4 127.349 363.39 125.85Z" fill="#37474F"/>
<path d="M353.343 130.081C358.892 130.081 363.39 127.481 363.39 124.274C363.39 121.067 358.892 118.467 353.343 118.467C347.794 118.467 343.296 121.067 343.296 124.274C343.296 127.481 347.794 130.081 353.343 130.081Z" fill="#455A64"/>
<path d="M350.761 75.9297V123.601C350.782 123.827 350.862 124.043 350.994 124.229C351.125 124.414 351.303 124.561 351.51 124.656C352.077 124.942 352.704 125.092 353.339 125.092C353.974 125.092 354.601 124.942 355.168 124.656C355.377 124.563 355.558 124.417 355.691 124.231C355.825 124.046 355.906 123.828 355.927 123.601V75.9297H350.761Z" fill="#37474F"/>
<path d="M364.923 40.2404C362.409 38.791 360.121 38.6727 358.406 39.6291L326.471 58.0861L342.492 90.2184L374.536 71.6824V57.6227C374.536 51.0859 370.227 43.3067 364.923 40.2404Z" fill="#455A64"/>
<path d="M342.489 76.1557V90.2253L323.272 79.1234V65.0637C323.272 58.5269 327.571 55.7169 332.876 58.7832C336.277 60.7551 339.265 64.6398 340.97 68.8991C341.925 71.2021 342.44 73.6633 342.489 76.1557Z" fill="#37474F"/>
<path d="M342.489 76.1512V90.2207L323.272 79.1189L340.97 68.8945C341.925 71.1975 342.44 73.6588 342.489 76.1512Z" fill="#263238"/>
<path d="M339.289 80.978C337.525 75.8708 331.786 69.2452 326.472 66.1887C321.158 63.1323 318.299 64.7788 320.063 69.8861L323.268 79.1343L342.494 90.2362C342.494 90.2362 341.064 86.0853 339.289 80.978Z" fill="#455A64"/>
<path d="M352.515 76.6881L351.44 76.067C351.21 75.961 350.955 75.9179 350.702 75.9421C350.449 75.9664 350.207 76.0571 350.001 76.205C349.407 76.5936 348.913 77.1165 348.558 77.7314C348.204 78.3462 347.999 79.0359 347.96 79.7446C347.933 79.9985 347.975 80.2549 348.081 80.4872C348.186 80.7195 348.352 80.9193 348.561 81.0658L349.547 81.6376L349.735 81.332C349.939 81.2878 350.136 81.2112 350.316 81.1052C350.91 80.7187 351.404 80.1977 351.759 79.5844C352.114 78.9711 352.319 78.2829 352.357 77.5755C352.356 77.3991 352.333 77.2235 352.288 77.0529L352.515 76.6881Z" fill="#263238"/>
<path d="M351.031 76.7924C350.437 77.1789 349.943 77.6999 349.589 78.3132C349.234 78.9265 349.029 79.6148 348.99 80.3222C348.99 81.6236 349.907 82.1462 351.031 81.4954C351.625 81.1095 352.12 80.5886 352.475 79.9752C352.829 79.3618 353.034 78.6733 353.072 77.9657C353.102 76.6643 352.116 76.1417 351.031 76.7924Z" fill="#37474F"/>
<path d="M351.02 79.708C350.943 79.708 350.866 79.6927 350.794 79.6629C350.722 79.6332 350.657 79.5896 350.602 79.5347C350.547 79.4798 350.503 79.4145 350.474 79.3428C350.444 79.271 350.429 79.1941 350.429 79.1164V58.7761C350.429 58.6193 350.491 58.4688 350.602 58.3578C350.713 58.2469 350.863 58.1846 351.02 58.1846C351.177 58.1846 351.328 58.2469 351.439 58.3578C351.55 58.4688 351.612 58.6193 351.612 58.7761V79.1164C351.612 79.2733 351.55 79.4237 351.439 79.5347C351.328 79.6456 351.177 79.708 351.02 79.708Z" fill="#263238"/>
<path d="M351.56 59.3078V64.6122L357.249 58.7754L351.56 59.3078Z" fill="#37474F"/>
<path d="M52.4541 235.255C51.9611 235.521 42.91 238.085 39.5578 233.658C36.2056 229.231 41.7762 222.329 38.631 219.786C35.4858 217.242 26.6714 219.786 24.5516 214.442C22.4318 209.098 28.7123 206.791 25.1826 201.398C22.9543 197.996 16.7231 196.123 17.009 192.958C17.4231 188.334 25.9418 187.042 33.3759 192.041C40.81 197.04 44.2805 192.938 46.637 192.603C48.9934 192.268 54.0809 193.007 53.9232 201.289C53.7654 209.571 52.4541 235.255 52.4541 235.255Z" fill="#7459D9"/>
<path d="M53.0547 223.51C52.9371 223.51 52.8233 223.468 52.7333 223.392C52.6432 223.317 52.5825 223.212 52.5617 223.096C49.9687 207.321 31.6989 194.572 22.1944 191.831C22.1315 191.815 22.0727 191.785 22.0215 191.745C21.9703 191.705 21.9277 191.654 21.8964 191.597C21.8651 191.54 21.8457 191.477 21.8393 191.413C21.8329 191.348 21.8396 191.282 21.8591 191.22C21.8957 191.095 21.9807 190.989 22.0953 190.926C22.21 190.863 22.3449 190.848 22.4704 190.885C32.1821 193.695 50.8758 206.798 53.5378 222.938C53.5578 223.066 53.5266 223.197 53.451 223.302C53.3753 223.407 53.2613 223.479 53.1336 223.5L53.0547 223.51Z" fill="white"/>
<path d="M31.5027 210.314C31.3943 210.315 31.2885 210.28 31.2018 210.215C31.1151 210.15 31.0523 210.058 31.0231 209.953C30.9939 209.849 30.9999 209.738 31.0403 209.637C31.0807 209.536 31.1531 209.452 31.2463 209.397C31.5421 209.219 38.5818 205.108 45.5032 207.03C45.634 207.064 45.7459 207.149 45.8143 207.265C45.8827 207.382 45.902 207.521 45.868 207.651C45.834 207.782 45.7495 207.894 45.633 207.963C45.5165 208.031 45.3776 208.05 45.2469 208.016C38.7199 206.202 31.8182 210.235 31.7492 210.274C31.6725 210.311 31.5869 210.324 31.5027 210.314Z" fill="white"/>
<path d="M310.204 151.952C314.089 152.484 320.705 150.236 321.178 143.768C321.651 137.3 324.323 135.545 329.223 134.49C334.124 133.435 335.563 131.73 336.125 128.654C336.687 125.577 332.96 121.9 334.005 117.266C335.05 112.632 338.541 112.642 341.972 107.406C344.17 104.034 339.665 98.8876 332.161 101.096C324.658 103.305 325.26 108.146 317.757 108.767C310.254 109.388 305.551 113.943 305.403 119.612C305.255 125.282 310.204 151.952 310.204 151.952Z" fill="#7459D9"/>
<path opacity="0.2" d="M310.204 151.952C314.089 152.484 320.705 150.236 321.178 143.768C321.651 137.3 324.323 135.545 329.223 134.49C334.124 133.435 335.563 131.73 336.125 128.654C336.687 125.577 332.96 121.9 334.005 117.266C335.05 112.632 338.541 112.642 341.972 107.406C344.17 104.034 339.665 98.8876 332.161 101.096C324.658 103.305 325.26 108.146 317.757 108.767C310.254 109.388 305.551 113.943 305.403 119.612C305.255 125.282 310.204 151.952 310.204 151.952Z" fill="black"/>
<path d="M308.783 139.544H308.724C308.66 139.531 308.6 139.506 308.546 139.469C308.493 139.433 308.447 139.387 308.411 139.333C308.375 139.279 308.35 139.218 308.338 139.154C308.326 139.091 308.326 139.026 308.339 138.962C311.967 121.028 331.756 104.611 336.577 102.935C336.708 102.892 336.85 102.903 336.973 102.965C337.096 103.027 337.189 103.135 337.232 103.266C337.276 103.396 337.265 103.539 337.203 103.662C337.141 103.785 337.033 103.878 336.902 103.921C332.189 105.558 312.855 121.668 309.295 139.209C309.259 139.313 309.189 139.403 309.096 139.463C309.003 139.524 308.893 139.552 308.783 139.544Z" fill="white"/>
<path d="M48.3105 133.179C48.3587 132.29 48.616 131.425 49.0614 130.654C49.5068 129.883 50.1279 129.228 50.874 128.742L181.917 53.0803C182.711 52.6814 183.587 52.4736 184.476 52.4736C185.364 52.4736 186.24 52.6814 187.034 53.0803L189.923 54.7564C190.671 55.2404 191.293 55.8949 191.739 56.6662C192.185 57.4375 192.441 58.3036 192.487 59.1932V159.642C192.436 160.531 192.178 161.395 191.733 162.166C191.288 162.936 190.668 163.592 189.923 164.079L58.88 239.731C58.0857 240.135 57.2074 240.345 56.3165 240.345C55.4256 240.345 54.5473 240.135 53.753 239.731L50.874 238.065C50.1289 237.578 49.5087 236.923 49.0634 236.152C48.6182 235.381 48.3603 234.517 48.3105 233.628V133.179Z" fill="#7459D9"/>
<path opacity="0.3" d="M48.3105 133.179C48.3587 132.29 48.616 131.425 49.0614 130.654C49.5068 129.883 50.1279 129.228 50.874 128.742L181.917 53.0803C182.711 52.6814 183.587 52.4736 184.476 52.4736C185.364 52.4736 186.24 52.6814 187.034 53.0803L189.923 54.7564C190.671 55.2404 191.293 55.8949 191.739 56.6662C192.185 57.4375 192.441 58.3036 192.487 59.1932V159.642C192.436 160.531 192.178 161.395 191.733 162.166C191.288 162.936 190.668 163.592 189.923 164.079L58.88 239.731C58.0857 240.135 57.2074 240.345 56.3165 240.345C55.4256 240.345 54.5473 240.135 53.753 239.731L50.874 238.065C50.1289 237.578 49.5087 236.923 49.0634 236.152C48.6182 235.381 48.3603 234.517 48.3105 233.628V133.179Z" fill="black"/>
<path d="M60.3195 137.165L49.0599 130.658C48.5996 131.422 48.3417 132.291 48.3105 133.182V233.631C48.3603 234.52 48.6182 235.385 49.0634 236.155C49.5087 236.926 50.1289 237.581 50.874 238.068L53.753 239.734C54.5473 240.138 55.4256 240.348 56.3165 240.348C57.2074 240.348 58.0857 240.138 58.88 239.734L60.3195 238.906V137.165Z" fill="#7459D9"/>
<path opacity="0.5" d="M60.3195 137.165L49.0599 130.658C48.5996 131.422 48.3417 132.291 48.3105 133.182V233.631C48.3603 234.52 48.6182 235.385 49.0634 236.155C49.5087 236.926 50.1289 237.581 50.874 238.068L53.753 239.734C54.5473 240.138 55.4256 240.348 56.3165 240.348C57.2074 240.348 58.0857 240.138 58.88 239.734L60.3195 238.906V137.165Z" fill="black"/>
<path d="M192.489 59.2019V159.651C192.456 160.57 192.18 161.465 191.69 162.244C191.312 162.9 190.801 163.471 190.192 163.92L190.093 163.979L189.925 164.088L58.8823 239.74C58.6315 239.917 58.3401 240.028 58.035 240.062C57.73 240.097 57.4211 240.054 57.1372 239.937C56.8642 239.765 56.6436 239.522 56.4993 239.233C56.355 238.945 56.2926 238.622 56.3188 238.3V137.812C56.2965 137.452 56.3618 137.093 56.509 136.764C56.6562 136.435 56.881 136.147 57.164 135.924C57.4471 135.701 57.78 135.55 58.1342 135.484C58.4884 135.418 58.8534 135.438 59.1978 135.544L114.303 148.648L121.52 150.363C122.372 150.523 123.251 150.446 124.063 150.142C124.874 149.838 125.587 149.318 126.124 148.638L134.485 136.994L190.764 58.6399C191.71 57.3187 192.489 57.5652 192.489 59.2019Z" fill="#7459D9"/>
<path opacity="0.2" d="M192.489 59.2019V159.651C192.456 160.57 192.18 161.465 191.69 162.244C191.312 162.9 190.801 163.471 190.192 163.92L190.093 163.979L189.925 164.088L58.8823 239.74C58.6315 239.917 58.3401 240.028 58.035 240.062C57.73 240.097 57.4211 240.054 57.1372 239.937C56.8642 239.765 56.6436 239.522 56.4993 239.233C56.355 238.945 56.2926 238.622 56.3188 238.3V137.812C56.2965 137.452 56.3618 137.093 56.509 136.764C56.6562 136.435 56.881 136.147 57.164 135.924C57.4471 135.701 57.78 135.55 58.1342 135.484C58.4884 135.418 58.8534 135.438 59.1978 135.544L114.303 148.648L121.52 150.363C122.372 150.523 123.251 150.446 124.063 150.142C124.874 149.838 125.587 149.318 126.124 148.638L134.485 136.994L190.764 58.6399C191.71 57.3187 192.489 57.5652 192.489 59.2019Z" fill="black"/>
<path d="M189.925 164.089L190.093 163.98L190.191 163.921C190.801 163.472 191.311 162.901 191.69 162.245C192.174 161.478 192.45 160.598 192.489 159.692L134.485 137.015L173.331 173.692L189.925 164.089Z" fill="#7459D9"/>
<path opacity="0.6" d="M189.925 164.089L190.093 163.98L190.191 163.921C190.801 163.472 191.311 162.901 191.69 162.245C192.174 161.478 192.45 160.598 192.489 159.692L134.485 137.015L173.331 173.692L189.925 164.089Z" fill="black"/>
<path d="M56.3206 238.302C56.283 238.63 56.3378 238.961 56.479 239.259C56.6201 239.557 56.8419 239.81 57.1193 239.988C57.4032 240.105 57.7121 240.148 58.0171 240.113C58.3222 240.079 58.6136 239.968 58.8644 239.791L104.001 213.653L114.305 148.58L56.3206 236.596V238.302Z" fill="#7459D9"/>
<path opacity="0.6" d="M56.3206 238.302C56.283 238.63 56.3378 238.961 56.479 239.259C56.6201 239.557 56.8419 239.81 57.1193 239.988C57.4032 240.105 57.7121 240.148 58.0171 240.113C58.3222 240.079 58.6136 239.968 58.8644 239.791L104.001 213.653L114.305 148.58L56.3206 236.596V238.302Z" fill="black"/>
<path d="M191.688 162.251C191.309 162.907 190.799 163.478 190.189 163.927L190.091 163.986L58.8799 239.747C58.6291 239.924 58.3377 240.035 58.0326 240.069C57.7276 240.104 57.4187 240.061 57.1348 239.944L119.891 139.761C121.152 137.754 123.094 136.269 125.361 135.578C127.628 134.886 130.068 135.034 132.235 135.995L191.688 162.251Z" fill="#7459D9"/>
<path opacity="0.2" d="M191.688 162.251C191.309 162.907 190.799 163.478 190.189 163.927L190.091 163.986L58.8799 239.747C58.6291 239.924 58.3377 240.035 58.0326 240.069C57.7276 240.104 57.4187 240.061 57.1348 239.944L119.891 139.761C121.152 137.754 123.094 136.269 125.361 135.578C127.628 134.886 130.068 135.034 132.235 135.995L191.688 162.251Z" fill="black"/>
<path d="M56.3193 134.858L116.591 161.478C118.761 162.437 121.203 162.58 123.471 161.883C125.738 161.186 127.678 159.694 128.935 157.683L192.223 56.3955L56.3193 134.858Z" fill="#7459D9"/>
<path opacity="0.6" d="M56.3193 134.858L116.591 161.478C118.761 162.437 121.203 162.58 123.471 161.883C125.738 161.186 127.678 159.694 128.935 157.683L192.223 56.3955L56.3193 134.858Z" fill="black"/>
<path d="M56.3193 134.858L117.015 157.535C119.112 158.318 121.414 158.364 123.541 157.665C125.668 156.966 127.494 155.564 128.718 153.689L192.223 56.3955L56.3193 134.858Z" fill="#7459D9"/>
<path opacity="0.2" d="M56.3193 134.858L117.015 157.535C119.112 158.318 121.414 158.364 123.541 157.665C125.668 156.966 127.494 155.564 128.718 153.689L192.223 56.3955L56.3193 134.858Z" fill="black"/>
<path d="M70.6924 145.553C70.7382 144.663 70.9944 143.797 71.4401 143.026C71.8857 142.254 72.508 141.6 73.2559 141.116L204.299 65.4537C205.093 65.0502 205.972 64.8398 206.863 64.8398C207.753 64.8398 208.632 65.0502 209.426 65.4537L212.315 67.12C213.059 67.6068 213.678 68.2623 214.122 69.0331C214.566 69.804 214.821 70.6686 214.868 71.5568V172.006C214.82 172.894 214.563 173.758 214.12 174.528C213.676 175.299 213.058 175.955 212.315 176.443L81.2618 252.095C80.4679 252.494 79.5917 252.701 78.7033 252.701C77.8148 252.701 76.9386 252.494 76.1447 252.095L73.2559 250.429C72.5113 249.941 71.8915 249.286 71.4463 248.515C71.0011 247.745 70.7429 246.88 70.6924 245.992V145.553Z" fill="#455A64"/>
<path d="M70.6924 145.553C70.7382 144.663 70.9944 143.797 71.4401 143.026C71.8857 142.254 72.508 141.6 73.2559 141.116L204.299 65.4537C205.093 65.0502 205.972 64.8398 206.863 64.8398C207.753 64.8398 208.632 65.0502 209.426 65.4537L212.315 67.12C213.059 67.6068 213.678 68.2623 214.122 69.0331C214.566 69.804 214.821 70.6686 214.868 71.5568V172.006C214.82 172.894 214.563 173.758 214.12 174.528C213.676 175.299 213.058 175.955 212.315 176.443L81.2618 252.095C80.4679 252.494 79.5917 252.701 78.7033 252.701C77.8148 252.701 76.9386 252.494 76.1447 252.095L73.2559 250.429C72.5113 249.941 71.8915 249.286 71.4463 248.515C71.0011 247.745 70.7429 246.88 70.6924 245.992V145.553Z" fill="#455A64"/>
<path d="M82.7112 149.56L71.4417 143.062C70.9802 143.826 70.7222 144.695 70.6924 145.587V246.006C70.7429 246.895 71.0011 247.759 71.4463 248.529C71.8915 249.3 72.5113 249.955 73.2559 250.443L76.1447 252.109C76.9386 252.508 77.8148 252.716 78.7033 252.716C79.5917 252.716 80.4679 252.508 81.2618 252.109L82.7112 251.271V149.56Z" fill="#263238"/>
<path d="M214.874 71.5618V172.011C214.841 172.93 214.565 173.825 214.075 174.604C213.697 175.26 213.186 175.831 212.577 176.28L212.478 176.339L212.31 176.448L81.2672 252.1C81.0164 252.277 80.725 252.388 80.42 252.422C80.1149 252.457 79.8061 252.414 79.5221 252.297C79.2448 252.119 79.023 251.866 78.8818 251.568C78.7406 251.27 78.6858 250.939 78.7235 250.611V150.172C78.7012 149.812 78.7664 149.453 78.9136 149.124C79.0608 148.795 79.2856 148.507 79.5687 148.284C79.8517 148.061 80.1846 147.91 80.5389 147.844C80.8931 147.777 81.258 147.798 81.6025 147.904L136.707 161.008L143.925 162.723C144.776 162.883 145.656 162.806 146.467 162.502C147.279 162.198 147.992 161.678 148.529 160.998L156.88 149.354L213.158 70.9998C214.065 69.6983 214.874 69.9251 214.874 71.5618Z" fill="#37474F"/>
<path d="M212.314 176.454L212.481 176.346L212.58 176.286C213.19 175.837 213.7 175.266 214.079 174.61C214.557 173.845 214.829 172.968 214.867 172.067L156.874 149.39L195.71 186.047L212.314 176.454Z" fill="#263238"/>
<path d="M78.7087 250.624C78.671 250.952 78.7259 251.283 78.867 251.581C79.0082 251.879 79.23 252.132 79.5073 252.31C79.7913 252.427 80.1001 252.47 80.4052 252.436C80.7102 252.401 81.0017 252.29 81.2524 252.113L126.37 226.064L136.673 160.991L78.689 248.938L78.7087 250.624Z" fill="#263238"/>
<path d="M214.072 174.611C213.693 175.267 213.183 175.838 212.573 176.287L212.474 176.346L81.2735 252.107C81.0227 252.284 80.7312 252.395 80.4262 252.429C80.1211 252.464 79.8123 252.421 79.5283 252.304L142.274 152.131C143.533 150.121 145.473 148.632 147.741 147.936C150.008 147.241 152.45 147.386 154.619 148.345L214.072 174.611Z" fill="#37474F"/>
<path d="M78.7051 147.224L138.976 173.845C141.145 174.801 143.586 174.943 145.851 174.246C148.116 173.548 150.054 172.059 151.311 170.049L214.599 68.7129L78.7051 147.224Z" fill="#263238"/>
<path d="M78.7051 147.224L139.391 169.901C141.489 170.687 143.793 170.734 145.922 170.035C148.051 169.336 149.879 167.933 151.104 166.056L214.599 68.7129L78.7051 147.224Z" fill="#37474F"/>
<path d="M166.813 225.302V124.853C166.905 122.947 167.5 121.1 168.539 119.499L231.039 32.4693C232.179 30.8793 233.767 29.6646 235.6 28.9799C237.433 28.2951 239.428 28.1713 241.332 28.6241L300.105 42.5951C301.999 43.0992 303.826 43.8273 305.547 44.7642L308.436 46.4304C309.179 46.919 309.797 47.5749 310.24 48.3454C310.684 49.1159 310.94 49.9796 310.99 50.8672V151.316C310.939 152.204 310.681 153.067 310.238 153.837C309.795 154.607 309.178 155.263 308.436 155.753L177.383 231.405C176.59 231.806 175.713 232.015 174.824 232.015C173.935 232.015 173.059 231.806 172.266 231.405L169.377 229.739C168.632 229.252 168.012 228.597 167.566 227.826C167.121 227.055 166.863 226.191 166.813 225.302Z" fill="#7459D9"/>
<path opacity="0.3" d="M166.813 225.302V124.853C166.905 122.947 167.5 121.1 168.539 119.499L231.039 32.4693C232.179 30.8793 233.767 29.6646 235.6 28.9799C237.433 28.2951 239.428 28.1713 241.332 28.6241L300.105 42.5951C301.999 43.0992 303.826 43.8273 305.547 44.7642L308.436 46.4304C309.179 46.919 309.797 47.5749 310.24 48.3454C310.684 49.1159 310.94 49.9796 310.99 50.8672V151.316C310.939 152.204 310.681 153.067 310.238 153.837C309.795 154.607 309.178 155.263 308.436 155.753L177.383 231.405C176.59 231.806 175.713 232.015 174.824 232.015C173.935 232.015 173.059 231.806 172.266 231.405L169.377 229.739C168.632 229.252 168.012 228.597 167.566 227.826C167.121 227.055 166.863 226.191 166.813 225.302Z" fill="white"/>
<path d="M178.817 76.2941V204.468C178.817 206.095 179.971 206.765 181.381 205.947L304.418 134.958C305.165 134.473 305.786 133.818 306.232 133.047C306.677 132.276 306.934 131.411 306.982 130.522V2.3476C306.982 0.710917 305.838 0.0503277 304.418 0.868669L181.381 71.8573C180.635 72.3431 180.014 72.9981 179.568 73.769C179.123 74.5399 178.866 75.4051 178.817 76.2941Z" fill="#FAFAFA"/>
<path d="M180.243 206.809C179.925 206.811 179.612 206.73 179.335 206.572C178.998 206.347 178.728 206.035 178.555 205.669C178.381 205.302 178.31 204.895 178.35 204.492V76.3178C178.396 75.3409 178.676 74.3893 179.164 73.5421C179.653 72.6949 180.337 71.9767 181.159 71.4472L304.197 0.458511C304.518 0.196916 304.911 0.0392365 305.324 0.00641765C305.737 -0.0264012 306.15 0.0671936 306.508 0.274773C306.867 0.482353 307.154 0.794087 307.331 1.16856C307.508 1.54303 307.567 1.96251 307.5 2.37126V130.545C307.454 131.521 307.175 132.472 306.686 133.317C306.197 134.163 305.512 134.879 304.69 135.406L181.652 206.395C181.228 206.655 180.741 206.798 180.243 206.809ZM305.567 0.96135C305.249 0.979564 304.94 1.07792 304.67 1.24728L181.633 72.2853C180.963 72.7298 180.405 73.3235 180.003 74.0197C179.601 74.7159 179.366 75.4958 179.316 76.2981V204.472C179.257 204.703 179.275 204.948 179.367 205.167C179.46 205.387 179.622 205.571 179.828 205.691C180.035 205.81 180.275 205.859 180.511 205.829C180.748 205.8 180.969 205.694 181.14 205.527L304.177 134.538C304.847 134.094 305.406 133.501 305.808 132.805C306.21 132.108 306.445 131.328 306.494 130.526V2.35155C306.522 2.12032 306.49 1.88582 306.402 1.67018C306.314 1.45454 306.173 1.26488 305.991 1.11911C305.867 1.0291 305.72 0.974572 305.567 0.96135Z" fill="#E0E0E0"/>
<path d="M176.167 127.286L167.294 122.159C167.006 123.025 166.847 123.929 166.82 124.841V225.29C166.87 226.179 167.128 227.043 167.573 227.814C168.019 228.585 168.639 229.24 169.384 229.727L172.263 231.393C173.055 231.796 173.932 232.007 174.821 232.007C175.711 232.007 176.587 231.796 177.38 231.393L178.612 230.693L176.167 127.286Z" fill="#7459D9"/>
<g opacity="0.1">
<path d="M176.174 127.299L167.3 122.172C167.013 123.038 166.854 123.941 166.827 124.854V225.303C166.877 226.191 167.135 227.056 167.58 227.827C168.025 228.597 168.646 229.253 169.391 229.739L172.27 231.406C173.062 231.809 173.939 232.019 174.828 232.019C175.717 232.019 176.594 231.809 177.387 231.406L178.619 230.706L176.174 127.299Z" fill="black"/>
</g>
<path d="M311.003 50.8538V151.303C310.97 152.222 310.694 153.117 310.204 153.896C309.826 154.552 309.315 155.123 308.706 155.572L308.607 155.631L308.439 155.74L177.396 231.392C177.145 231.569 176.854 231.68 176.549 231.714C176.244 231.749 175.935 231.706 175.651 231.589C175.374 231.411 175.152 231.158 175.011 230.86C174.87 230.562 174.815 230.231 174.852 229.903V129.464C174.83 129.104 174.895 128.745 175.043 128.416C175.19 128.087 175.415 127.799 175.698 127.576C175.981 127.353 176.314 127.202 176.668 127.136C177.022 127.069 177.387 127.09 177.731 127.196L232.807 140.3L240.024 142.015C240.877 142.177 241.759 142.101 242.572 141.797C243.386 141.493 244.1 140.971 244.638 140.29L252.999 128.646L309.277 50.2918C310.224 48.9903 311.003 49.2171 311.003 50.8538Z" fill="#7459D9"/>
<path opacity="0.3" d="M311.003 50.8538V151.303C310.97 152.222 310.694 153.117 310.204 153.896C309.826 154.552 309.315 155.123 308.706 155.572L308.607 155.631L308.439 155.74L177.396 231.392C177.145 231.569 176.854 231.68 176.549 231.714C176.244 231.749 175.935 231.706 175.651 231.589C175.374 231.411 175.152 231.158 175.011 230.86C174.87 230.562 174.815 230.231 174.852 229.903V129.464C174.83 129.104 174.895 128.745 175.043 128.416C175.19 128.087 175.415 127.799 175.698 127.576C175.981 127.353 176.314 127.202 176.668 127.136C177.022 127.069 177.387 127.09 177.731 127.196L232.807 140.3L240.024 142.015C240.877 142.177 241.759 142.101 242.572 141.797C243.386 141.493 244.1 140.971 244.638 140.29L252.999 128.646L309.277 50.2918C310.224 48.9903 311.003 49.2171 311.003 50.8538Z" fill="white"/>
<path d="M308.431 155.75L308.599 155.642L308.698 155.582C309.307 155.133 309.818 154.562 310.196 153.906C310.675 153.138 310.947 152.258 310.985 151.353L252.991 128.676L291.828 165.343L308.431 155.75Z" fill="#7459D9"/>
<path d="M174.827 229.925C174.79 230.253 174.845 230.584 174.986 230.882C175.127 231.18 175.349 231.433 175.626 231.611C175.91 231.728 176.219 231.771 176.524 231.736C176.829 231.702 177.12 231.591 177.371 231.414L222.488 205.365L232.792 140.292L174.808 228.239L174.827 229.925Z" fill="#7459D9"/>
<path d="M310.197 153.903C309.818 154.559 309.308 155.13 308.698 155.579L308.599 155.639L177.389 231.399C177.138 231.576 176.846 231.687 176.541 231.722C176.236 231.756 175.928 231.713 175.644 231.597L238.39 131.424C239.648 129.416 241.587 127.928 243.852 127.233C246.117 126.538 248.556 126.681 250.724 127.637L310.197 153.903Z" fill="#7459D9"/>
<path opacity="0.3" d="M310.197 153.903C309.818 154.559 309.308 155.13 308.698 155.579L308.599 155.639L177.389 231.399C177.138 231.576 176.846 231.687 176.541 231.722C176.236 231.756 175.928 231.713 175.644 231.597L238.39 131.424C239.648 129.416 241.587 127.928 243.852 127.233C246.117 126.538 248.556 126.681 250.724 127.637L310.197 153.903Z" fill="white"/>
<path d="M232.999 105.815C231.848 105.993 230.672 105.889 229.571 105.511C228.47 105.133 227.477 104.493 226.679 103.646C225.18 101.98 224.431 99.4063 224.431 95.9456C224.433 92.0409 225.27 88.1818 226.886 84.6269C228.544 80.9688 230.834 77.6314 233.649 74.7673C236.677 71.6278 240.128 68.9265 243.903 66.7417C247.604 64.612 250.762 63.4321 253.378 63.2021C256.011 62.9655 257.993 63.6458 259.353 65.2233C260.714 66.8008 261.384 69.2164 261.384 72.4503C261.441 75.6576 260.681 78.8267 259.176 81.6592C257.849 84.2243 255.826 86.3634 253.339 87.8312C252.48 88.4412 251.428 88.7149 250.381 88.6003C250.008 88.5266 249.665 88.3469 249.392 88.0828C249.119 87.8187 248.929 87.4814 248.843 87.1115C248.022 88.6644 246.979 90.0893 245.747 91.3412C244.501 92.6272 243.08 93.7324 241.527 94.6245C238.845 96.1428 236.706 96.5964 235.128 96.0738C233.551 95.5513 232.801 93.954 232.801 91.2919C232.824 87.9465 233.855 84.6857 235.759 81.9352C237.833 78.886 240.587 76.361 243.805 74.5603C245.148 73.76 246.609 73.1745 248.133 72.825C249.266 72.5179 250.461 72.5179 251.594 72.825V83.2071C251.594 84.0452 251.742 84.5579 252.028 84.7551C252.313 84.9522 252.787 84.8536 253.457 84.4691C254.706 83.6567 255.631 82.4321 256.07 81.0084C256.737 79.0853 257.054 77.0585 257.007 75.0237C257.007 72.4339 256.441 70.5507 255.311 69.3742C254.707 68.7835 253.97 68.3463 253.162 68.0993C252.354 67.8523 251.498 67.8026 250.667 67.9544C248.26 68.3221 245.954 69.1813 243.893 70.4784C239.534 72.8965 235.776 76.2666 232.9 80.338C230.242 84.1587 228.83 88.708 228.858 93.3624C228.858 96.1954 229.439 98.2626 230.603 99.5641C231.206 100.216 231.961 100.708 232.8 100.997C233.64 101.286 234.538 101.363 235.414 101.22C237.868 100.873 240.22 100.009 242.316 98.6866C243.762 97.85 245.132 96.8865 246.408 95.8076C247.596 94.8268 248.676 93.7229 249.632 92.5145C249.731 92.3873 249.847 92.2745 249.977 92.1793C250.065 92.13 250.154 92.1793 250.233 92.2976L251.318 94.2695C251.357 94.3477 251.387 94.4305 251.406 94.516C251.372 94.7356 251.264 94.9371 251.101 95.0879C249.909 96.5202 248.589 97.8403 247.157 99.0317C245.649 100.297 244.036 101.432 242.336 102.423C239.503 104.212 236.319 105.369 232.999 105.815ZM245.816 87.2791C246.755 86.1714 247.302 84.7854 247.374 83.3353V77.321C245.967 77.4398 244.611 77.9074 243.43 78.6816C241.549 79.7395 239.947 81.23 238.757 83.0296C237.64 84.6807 237.039 86.6266 237.031 88.62C237.031 90.2863 237.445 91.2821 238.283 91.5779C239.121 91.8736 240.413 91.5779 242.178 90.5229C243.607 89.6963 244.857 88.5936 245.855 87.2791H245.816Z" fill="#E0E0E0"/>
<path d="M107.43 115.696L97.8168 110.125H97.7478C94.4646 108.271 89.939 108.547 84.9304 111.436C74.8638 117.244 66.71 131.372 66.71 142.987C66.71 148.794 68.741 152.846 72.0243 154.818L80.9669 159.935L82.5838 157.244C84.4177 156.833 86.1793 156.148 87.8094 155.213C97.8661 149.396 106.03 135.267 106.03 123.662C106.024 122.094 105.832 120.532 105.458 119.008L107.43 115.696Z" fill="#F28F8F"/>
<path d="M107.43 115.696L97.8168 110.125H97.7478C94.4646 108.271 89.939 108.547 84.9304 111.436C74.8638 117.244 66.71 131.372 66.71 142.987C66.71 148.794 68.741 152.846 72.0243 154.818L80.9669 159.935L82.5838 157.244C84.4177 156.833 86.1793 156.148 87.8094 155.213C97.8661 149.396 106.03 135.267 106.03 123.662C106.024 122.094 105.832 120.532 105.458 119.008L107.43 115.696Z" fill="#7459D9"/>
<path opacity="0.4" d="M107.43 115.696L97.8168 110.125H97.7478C94.4646 108.271 89.939 108.547 84.9304 111.436C74.8638 117.244 66.71 131.372 66.71 142.987C66.71 148.794 68.741 152.846 72.0243 154.818L80.9669 159.935L82.5838 157.244C84.4177 156.833 86.1793 156.148 87.8094 155.213C97.8661 149.396 106.03 135.267 106.03 123.662C106.024 122.094 105.832 120.532 105.458 119.008L107.43 115.696Z" fill="black"/>
<path d="M94.1677 116.736C84.1011 122.553 75.9473 136.682 75.9473 148.287C75.9473 159.892 84.1011 164.614 94.1677 158.807C104.234 153 112.388 138.871 112.388 127.256C112.388 115.642 104.234 110.929 94.1677 116.736Z" fill="#7459D9"/>
<path d="M87.0501 151.065C86.8628 151.065 86.7642 150.956 86.7642 150.789C86.7836 150.603 86.8371 150.423 86.9219 150.256L87.8389 148.196C87.8996 147.994 88.0199 147.815 88.1839 147.683C88.3204 147.621 88.468 147.588 88.6178 147.584C89.4382 147.536 90.2478 147.373 91.0235 147.101C92.0549 146.754 93.0464 146.298 93.9813 145.741C95.4361 144.953 96.7117 143.872 97.728 142.566C98.4901 141.578 98.9152 140.372 98.9407 139.125C98.9407 136.946 97.6097 136.631 94.9476 138.139L92.3545 139.707C91.9306 139.943 91.6348 140.032 91.4573 139.953C91.2798 139.874 91.1911 139.638 91.1911 139.243V138.425C91.1771 138.077 91.27 137.733 91.4573 137.439C91.6947 137.118 92.0014 136.856 92.3545 136.67L94.9279 135.181C95.959 134.62 96.8334 133.81 97.4716 132.825C98.0064 131.998 98.3 131.039 98.3195 130.054C98.3195 127.944 96.834 127.747 93.863 129.463C92.0359 130.504 90.3908 131.836 88.9924 133.406C88.861 133.555 88.7158 133.69 88.5586 133.811C88.5006 133.838 88.435 133.845 88.3724 133.831C88.3098 133.817 88.2538 133.782 88.2135 133.732L87.336 132.746C87.2871 132.7 87.2478 132.646 87.2207 132.585C87.1936 132.524 87.1792 132.458 87.1783 132.391C87.1983 132.165 87.2958 131.952 87.4543 131.789C88.3277 130.697 89.3198 129.705 90.4122 128.832C91.6842 127.795 93.0396 126.865 94.4645 126.051C95.7508 125.251 97.1699 124.686 98.6548 124.385C99.122 124.271 99.6085 124.261 100.08 124.354C100.552 124.448 100.998 124.643 101.386 124.927C101.736 125.265 102.006 125.676 102.177 126.132C102.347 126.587 102.414 127.075 102.372 127.56C102.35 128.645 102.108 129.715 101.662 130.705C101.185 131.847 100.519 132.901 99.69 133.821C100.116 133.678 100.57 133.646 101.012 133.727C101.453 133.808 101.867 133.999 102.214 134.284C102.518 134.638 102.748 135.048 102.892 135.491C103.036 135.935 103.09 136.403 103.052 136.867C102.977 139.053 102.21 141.159 100.863 142.881C99.2096 145.099 97.0979 146.935 94.6715 148.265C91.201 150.296 88.6605 151.229 87.0501 151.065Z" fill="white"/>
<path d="M293.807 258.115L293.995 257.948C294.133 257.829 294.28 257.711 294.409 257.583L294.852 257.149L295.296 256.725C295.556 256.482 295.802 256.225 296.035 255.956L299.545 258.579L301.882 260.324C301.031 261.246 300.338 262.302 299.831 263.449C299.831 263.449 299.131 264.583 296.755 264.011C293.817 263.331 293.354 259.013 293.807 258.115Z" fill="#FFA8A7"/>
<path d="M259.438 256.903C256.756 253.787 259.142 248.611 261.745 241.896C264.605 234.512 269.022 221.96 269.022 221.96L300.385 215.483C300.385 215.483 333.799 214.842 336.865 221.231C339.35 226.348 317.343 234.048 314.188 234.324L294.873 235.34L292.842 236.326L279.276 253.491L259.438 256.903Z" fill="#7459D9"/>
<path d="M317.218 226.47C314.783 228.947 312.514 231.582 310.425 234.358C304.776 242.245 295.833 256.571 295.833 256.571C295.833 256.571 297.223 261.106 301.492 260.909C301.492 260.909 330.874 233.47 333.28 230.936C336.918 227.091 339.836 220.751 333.546 220.229C327.255 219.706 319.663 223.828 317.218 226.47Z" fill="#7459D9"/>
<path d="M310.26 234.519C310.26 234.519 315.505 226.849 320.938 223.674C320.938 223.674 315.535 224.739 307.352 234.697L310.26 234.519Z" fill="#7459D9"/>
<path opacity="0.1" d="M310.26 234.519C310.26 234.519 315.505 226.849 320.938 223.674C320.938 223.674 315.535 224.739 307.352 234.697L310.26 234.519Z" fill="black"/>
<path d="M313.841 244.224L311.78 244.619L313.693 251.688C313.693 251.688 315.547 251.511 316.187 251.55C317.121 251.328 318.02 250.98 318.859 250.515L318.366 246.196L316.099 243.83L313.841 244.224Z" fill="#FFA8A7"/>
<path d="M330.101 245.89C331.085 246.286 331.976 246.882 332.719 247.638C333.462 248.395 334.041 249.297 334.42 250.287C334.859 251.323 335.218 252.391 335.494 253.482C335.82 254.625 335.662 256.568 334.213 256.883C333.742 256.939 333.265 256.853 332.842 256.637C329.934 255.513 327.094 254.211 324.117 253.265C321.565 252.32 318.893 251.739 316.18 251.539C316.796 250.59 317.105 249.473 317.062 248.342C317.02 247.211 316.629 246.12 315.943 245.219C315.359 244.679 314.622 244.335 313.833 244.233C314.582 243.898 315.282 243.464 316.002 243.06C317.343 242.123 318.984 241.719 320.607 241.926C321.849 242.193 322.795 243.179 323.85 243.898C325.862 245.21 327.804 245.121 330.101 245.89Z" fill="#263238"/>
<path d="M263.669 250.139C266.262 249.34 270.403 248.63 282.688 247.999C294.973 247.368 311.784 244.607 311.784 244.607C314.643 247.358 313.696 251.677 313.696 251.677C313.696 251.677 291.877 258.578 284.768 259.495C273.45 260.955 269.545 260.846 264.438 259.752C258.7 258.519 255.081 252.771 263.669 250.139Z" fill="#7459D9"/>
<path d="M308.569 191.621L317.797 213.677L311.191 217.739L298.492 196.235L308.569 191.621Z" fill="#F28F8F"/>
<path d="M289.475 170.843C294.523 170.902 300.074 172.736 301.986 176.689L309.874 192.958C309.874 192.958 305.417 199.485 298.338 199.021L289.475 170.843Z" fill="#E0E0E0"/>
<path d="M255.911 205.116C255.971 204.259 257.203 200.068 258.524 195.553L268.108 198.866L265.534 206.98L257.459 214.641C255.71 211.793 255.154 208.371 255.911 205.116Z" fill="#FFA8A7"/>
<path d="M279.15 171.148C273.135 172.598 264.942 174.481 262.566 181.008C260.19 187.535 256.788 199.061 256.788 199.061C258.109 201.348 265.356 203.241 267.87 201.92L269.053 197.976V221.955C273.756 227.072 296.956 225.76 300.417 215.477V182.812C300.417 177.587 297.518 171.306 289.502 170.843L279.15 171.148Z" fill="#FAFAFA"/>
<path d="M269.028 197.978L272.045 188.483L269.028 202.228V197.978Z" fill="#E0E0E0"/>
<path d="M276.866 144.411C276.33 144.341 275.786 144.394 275.274 144.565C274.761 144.735 274.294 145.02 273.908 145.397C272.636 146.698 272.922 149.104 273.908 154.625L277.851 155.069L276.866 144.411Z" fill="#263238"/>
<path d="M299.739 142.815C300.584 142.819 301.42 142.648 302.194 142.313C303.397 141.622 303.713 142.993 303.052 144.176C302.615 145.029 301.968 145.756 301.17 146.288C300.373 146.819 299.452 147.138 298.497 147.213C298.497 147.045 297.373 144.147 297.373 144.147L299.739 142.815Z" fill="#263238"/>
<path d="M278.704 155.128C278.122 155.473 277.284 154.359 276.564 153.6C276.282 153.277 275.922 153.031 275.519 152.886C275.115 152.741 274.681 152.701 274.258 152.77C273.835 152.839 273.436 153.015 273.099 153.281C272.763 153.547 272.5 153.894 272.335 154.29C271.142 156.804 273.853 160.146 275.44 161.251C275.886 161.635 276.441 161.868 277.027 161.918C277.614 161.967 278.2 161.831 278.704 161.527L279.118 171.14C279.821 172.68 280.895 174.023 282.244 175.046C283.593 176.07 285.175 176.743 286.848 177.006C292.488 177.765 291.324 173.112 289.471 170.834V167.314C290.883 167.615 292.334 167.689 293.769 167.531C294.499 167.334 296.254 165.214 297.388 162.838C298.66 160.176 300.779 155.443 298.896 147.428C296.865 138.83 287.627 138.554 282.135 142.034C276.643 145.515 278.704 155.128 278.704 155.128Z" fill="#FFA8A7"/>
<path d="M278.704 156.103C278.408 156.103 277.294 154.259 276.564 153.598C275.578 152.681 276.86 144.409 276.86 144.409C276.86 144.409 275.874 141.264 277.846 139.184C279.818 137.103 283.683 137.448 286.503 137.35C289.958 137.369 293.38 136.681 296.559 135.329C300.562 133.593 300.858 133.357 301.351 135.141C301.844 136.926 302.041 140.919 299.655 143.611L298.354 145.73C298.354 145.73 297.141 146.716 293.424 147.209C289.707 147.702 283.338 145.661 282.579 145.553C281.494 145.405 281.267 146.45 280.685 149.309C280.133 151.824 279.69 156.083 278.704 156.103Z" fill="#263238"/>
<path d="M276.871 145.042L273.341 143.149C273.457 142.914 273.619 142.705 273.816 142.534C274.014 142.362 274.244 142.232 274.493 142.15C274.742 142.069 275.004 142.037 275.265 142.058C275.526 142.079 275.78 142.151 276.013 142.272C276.483 142.536 276.834 142.971 276.993 143.486C277.153 144.001 277.109 144.558 276.871 145.042Z" fill="#263238"/>
<path d="M289.468 167.308C289.468 167.308 284.243 166.253 282.419 165.336C281.345 164.774 280.466 163.901 279.895 162.832C280.172 163.904 280.661 164.91 281.334 165.79C282.665 167.496 289.468 168.748 289.468 168.748V167.308Z" fill="#F28F8F"/>
<path d="M289.625 154.922C289.617 155.127 289.549 155.325 289.43 155.492C289.31 155.659 289.144 155.786 288.953 155.859C288.761 155.933 288.553 155.948 288.353 155.903C288.152 155.858 287.97 155.756 287.828 155.608C287.685 155.461 287.59 155.274 287.553 155.073C287.515 154.871 287.538 154.663 287.618 154.474C287.698 154.286 287.832 154.125 288.003 154.012C288.174 153.898 288.375 153.838 288.58 153.838C288.719 153.84 288.857 153.871 288.986 153.926C289.114 153.982 289.23 154.063 289.327 154.164C289.424 154.264 289.5 154.383 289.551 154.513C289.602 154.644 289.627 154.783 289.625 154.922Z" fill="#263238"/>
<path d="M288.531 150.995L286.283 152.227C286.127 151.919 286.095 151.563 286.192 151.232C286.289 150.9 286.508 150.618 286.805 150.443C286.954 150.362 287.118 150.312 287.286 150.296C287.455 150.28 287.625 150.298 287.786 150.35C287.947 150.401 288.097 150.485 288.225 150.596C288.353 150.707 288.457 150.843 288.531 150.995Z" fill="#263238"/>
<path d="M289.015 161.934L291.411 162.841C291.358 163.001 291.273 163.148 291.162 163.275C291.051 163.402 290.916 163.505 290.764 163.578C290.612 163.652 290.447 163.694 290.279 163.703C290.111 163.712 289.943 163.687 289.784 163.629C289.461 163.501 289.201 163.253 289.057 162.937C288.914 162.62 288.899 162.261 289.015 161.934Z" fill="#F28F8F"/>
<path d="M298.963 151.845L296.922 150.268C297.019 150.131 297.142 150.015 297.285 149.927C297.428 149.839 297.587 149.781 297.752 149.756C297.918 149.731 298.087 149.74 298.25 149.782C298.412 149.824 298.564 149.899 298.697 150.002C298.969 150.216 299.149 150.527 299.198 150.87C299.248 151.214 299.164 151.563 298.963 151.845Z" fill="#263238"/>
<path d="M298.33 154.635C298.322 154.84 298.254 155.038 298.135 155.205C298.015 155.371 297.849 155.499 297.658 155.572C297.466 155.645 297.258 155.661 297.058 155.616C296.858 155.571 296.675 155.469 296.533 155.321C296.391 155.173 296.295 154.987 296.258 154.786C296.22 154.584 296.243 154.376 296.323 154.187C296.403 153.999 296.537 153.838 296.708 153.725C296.879 153.611 297.08 153.551 297.285 153.551C297.424 153.553 297.562 153.583 297.691 153.639C297.819 153.695 297.935 153.776 298.032 153.877C298.129 153.977 298.205 154.096 298.256 154.226C298.307 154.357 298.332 154.495 298.33 154.635Z" fill="#263238"/>
<path d="M293.405 154.502L292.419 160.733L295.87 160.329L293.405 154.502Z" fill="#F28F8F"/>
<path d="M329.376 225.27L308.128 213.005C307.942 212.899 307.731 212.843 307.517 212.843C307.303 212.843 307.092 212.899 306.906 213.005L269.646 234.519L291.495 247.178L329.376 225.27Z" fill="#37474F"/>
<path d="M291.292 245.336L279.835 238.73L313.338 219.386L324.854 225.962L291.292 245.336Z" fill="#263238"/>
<path d="M285.67 226.955L285.887 227.074L291.497 230.318L301.485 224.55L301.692 224.431L295.865 221.069L285.67 226.955Z" fill="#263238"/>
<path d="M285.887 227.082L291.497 230.326L301.485 224.558L295.865 221.314L285.887 227.082Z" fill="#263238"/>
<path d="M269.647 234.519V235.022C269.644 235.378 269.733 235.728 269.906 236.039C270.079 236.35 270.329 236.611 270.633 236.797L290.43 248.224C290.742 248.405 291.096 248.5 291.456 248.5C291.816 248.5 292.17 248.405 292.481 248.224L328.311 227.519C328.614 227.333 328.864 227.071 329.036 226.761C329.209 226.45 329.299 226.1 329.297 225.744V225.241L291.495 247.179L269.647 234.519Z" fill="#263238"/>
<path d="M291.499 247.169V248.529C291.846 248.526 292.186 248.43 292.485 248.253L328.315 227.548C328.617 227.362 328.867 227.101 329.04 226.79C329.213 226.479 329.302 226.129 329.301 225.773V225.271L291.499 247.169Z" fill="#263238"/>
<path d="M292.081 247.446C292.42 247.576 292.784 247.628 293.145 247.599C293.507 247.57 293.857 247.46 294.171 247.279L329.843 226.682C330.153 226.505 330.419 226.26 330.622 225.967C330.825 225.673 330.959 225.338 331.016 224.986L334.96 201.708C334.97 201.573 334.97 201.438 334.96 201.304C334.958 200.656 334.699 200.035 334.24 199.578L297.169 220.983C296.941 221.115 296.744 221.296 296.594 221.512C296.444 221.729 296.344 221.976 296.301 222.235L292.081 247.446Z" fill="#263238"/>
<path d="M291.499 247.179L291.746 247.317C291.854 247.379 291.966 247.435 292.081 247.485L296.301 222.274C296.344 222.014 296.444 221.767 296.594 221.551C296.744 221.334 296.94 221.154 297.168 221.022L334.24 199.617C334.089 199.476 333.924 199.35 333.747 199.242L296.606 220.647C296.377 220.779 296.18 220.959 296.028 221.176C295.877 221.392 295.774 221.639 295.729 221.899L291.499 247.179Z" fill="#455A64"/>
<path d="M312.16 225.935C312.721 223.989 314.01 222.333 315.759 221.311C317.484 220.325 318.667 220.769 318.411 222.297C317.85 224.243 316.561 225.899 314.812 226.921C313.087 227.957 311.904 227.454 312.16 225.935Z" fill="#37474F"/>
<path d="M265.537 206.963C265.537 206.963 271.936 231.612 274.637 233.377C277.339 235.142 282.367 236.434 284.773 237.321C287.179 238.208 288.273 239.421 287.859 239.756C287.445 240.091 283.974 240.456 282.771 240.88C281.569 241.304 283.126 243.246 285.788 245.307C288.45 247.368 290.718 247.18 290.422 248.551C290.127 249.921 284.191 251.292 279.182 248.354C274.174 245.416 272.655 241.452 269.668 238.09C266.681 234.728 259.858 220.757 257.462 214.644C257.462 214.644 257.689 203.286 261.406 204.005C265.123 204.725 265.537 206.963 265.537 206.963Z" fill="#FFA8A7"/>
<path d="M295.978 256.904C296.431 257.999 297.999 261.016 301.489 260.848L310.067 252.822L295.978 256.904Z" fill="#7459D9"/>
<path opacity="0.1" d="M295.978 256.904C296.431 257.999 297.999 261.016 301.489 260.848L310.067 252.822L295.978 256.904Z" fill="black"/>
<path d="M298.575 271.03C298.493 268.449 298.918 265.876 299.827 263.458C299.415 263.747 298.938 263.931 298.439 263.996C297.939 264.062 297.432 264.006 296.958 263.833C294.089 262.975 293.37 258.972 293.823 258.104C293.409 258.469 292.975 258.814 292.551 259.169C291.191 260.082 290.224 261.472 289.84 263.064C289.643 264.316 290.224 265.548 290.51 266.791C291.062 269.157 290.51 271.622 290.421 274.047C290.441 275.106 290.678 276.149 291.118 277.112C291.557 278.076 292.189 278.938 292.975 279.648C293.783 280.436 294.654 281.158 295.578 281.807C295.914 282.185 296.36 282.449 296.853 282.564C297.346 282.678 297.862 282.637 298.33 282.445C298.799 282.254 299.196 281.922 299.468 281.495C299.739 281.068 299.872 280.567 299.847 280.062C299.473 276.986 298.753 274.235 298.575 271.03Z" fill="#263238"/>
<path d="M301.826 260.334C301.56 260.837 301.323 261.32 301.116 261.803C301.363 261.33 301.599 260.837 301.826 260.334Z" fill="#37474F"/>
</svg>
