<svg width="502" height="91" viewBox="0 0 502 91" fill="none" xmlns="http://www.w3.org/2000/svg">
<path d="M51.9565 38.4298C51.9565 38.4298 42.6644 28.715 26.6138 28.715C11.8306 28.715 2.96031 38.4298 2.96031 38.4298C2.96031 38.4298 -4.59168 24.9137 5.07221 11.3974C10.5641 3.71622 17.1711 0.415555 26.6136 0.415527C36.3285 0.415499 43.0866 3.37219 48.9998 11.3974C57.7262 23.2406 51.9565 38.4298 51.9565 38.4298Z" fill="#EBF5EE"/>
<path d="M51.5219 51.8046C51.5219 51.8046 61.2367 42.5125 61.2367 26.4619C61.2367 11.6787 51.5219 2.80845 51.5219 2.80845C51.5219 2.80845 65.038 -4.74354 78.5542 4.92035C86.2354 10.4123 89.5361 17.0192 89.5361 26.4618C89.5362 36.1767 86.5795 42.9348 78.5542 48.848C66.7111 57.5743 51.5219 51.8046 51.5219 51.8046Z" fill="#EBF5EE"/>
<path d="M38.1954 52.3725C38.1954 52.3725 47.4875 62.0872 63.5381 62.0872C78.3213 62.0872 87.1915 52.3725 87.1915 52.3725C87.1915 52.3725 94.7435 65.8886 85.0796 79.4048C79.5877 87.086 72.9808 90.3867 63.5382 90.3867C53.8233 90.3867 47.0652 87.4301 41.152 79.4048C32.4257 67.5617 38.1954 52.3725 38.1954 52.3725Z" fill="#EBF5EE"/>
<path d="M38.0142 38.1954C38.0142 38.1954 28.2995 47.4875 28.2995 63.5381C28.2995 78.3213 38.0142 87.1915 38.0142 87.1915C38.0142 87.1915 24.4981 94.7435 10.9819 85.0796C3.30069 79.5877 2.73229e-05 72.9808 2.00446e-10 63.5382C-2.81105e-05 53.8233 2.95666 47.0652 10.9819 41.152C22.825 32.4257 38.0142 38.1954 38.0142 38.1954Z" fill="#EBF5EE"/>
<path d="M129.432 75H117.52V15.4834H129.432V45.2417L151.595 15.4834H165.125L146.324 40.5933L165.125 75H151.595L138.521 50.9277L129.432 63.0884V75ZM226.966 45.4907C226.966 48.313 226.592 51.0384 225.845 53.667C225.126 56.2679 224.102 58.7166 222.774 61.0132C221.446 63.2821 219.841 65.3573 217.959 67.2388C216.078 69.1203 214.003 70.7389 211.734 72.0947C209.465 73.4229 207.016 74.4466 204.388 75.166C201.759 75.9131 199.034 76.2866 196.211 76.2866C193.389 76.2866 190.664 75.9131 188.035 75.166C185.434 74.4466 182.986 73.4229 180.689 72.0947C178.42 70.7389 176.345 69.1203 174.463 67.2388C172.582 65.3573 170.963 63.2821 169.607 61.0132C168.279 58.7166 167.242 56.2679 166.495 53.667C165.775 51.0384 165.416 48.313 165.416 45.4907C165.416 42.6685 165.775 39.943 166.495 37.3145C167.242 34.6859 168.279 32.2371 169.607 29.9683C170.963 27.6994 172.582 25.6242 174.463 23.7427C176.345 21.8612 178.42 20.2563 180.689 18.9282C182.986 17.6001 185.434 16.5763 188.035 15.8569C190.664 15.1099 193.389 14.7363 196.211 14.7363C199.034 14.7363 201.759 15.1099 204.388 15.8569C207.016 16.5763 209.465 17.6001 211.734 18.9282C214.003 20.2563 216.078 21.8612 217.959 23.7427C219.841 25.6242 221.446 27.6994 222.774 29.9683C224.102 32.2371 225.126 34.6859 225.845 37.3145C226.592 39.943 226.966 42.6685 226.966 45.4907ZM215.137 45.4907C215.137 42.8898 214.639 40.4411 213.643 38.1445C212.647 35.8203 211.291 33.8143 209.576 32.1265C207.888 30.411 205.882 29.0552 203.558 28.0591C201.261 27.063 198.812 26.5649 196.211 26.5649C193.583 26.5649 191.12 27.063 188.824 28.0591C186.527 29.0552 184.521 30.411 182.806 32.1265C181.09 33.8143 179.734 35.8203 178.738 38.1445C177.742 40.4411 177.244 42.8898 177.244 45.4907C177.244 48.0916 177.742 50.5404 178.738 52.8369C179.734 55.1058 181.09 57.098 182.806 58.8135C184.521 60.529 186.527 61.8848 188.824 62.8809C191.12 63.877 193.583 64.375 196.211 64.375C198.812 64.375 201.261 63.877 203.558 62.8809C205.882 61.8848 207.888 60.529 209.576 58.8135C211.291 57.098 212.647 55.1058 213.643 52.8369C214.639 50.5404 215.137 48.0916 215.137 45.4907ZM282.498 45.2417C282.498 47.981 282.138 50.6234 281.419 53.1689C280.727 55.6868 279.731 58.0526 278.431 60.2661C277.13 62.452 275.581 64.458 273.782 66.2842C271.984 68.0827 269.978 69.6322 267.764 70.9326C265.551 72.2331 263.171 73.243 260.625 73.9624C258.108 74.6541 255.479 75 252.74 75H234.81V15.4834H252.74C255.479 15.4834 258.108 15.8431 260.625 16.5625C263.171 17.2542 265.551 18.2503 267.764 19.5508C269.978 20.8512 271.984 22.4146 273.782 24.2407C275.581 26.0392 277.13 28.0452 278.431 30.2588C279.731 32.4447 280.727 34.8104 281.419 37.356C282.138 39.8739 282.498 42.5024 282.498 45.2417ZM270.586 45.2417C270.586 42.7791 270.116 40.4688 269.175 38.3105C268.262 36.1523 266.989 34.2708 265.357 32.666C263.752 31.0335 261.857 29.7469 259.671 28.8062C257.513 27.8654 255.202 27.395 252.74 27.395H246.805V63.0884H252.74C255.202 63.0884 257.513 62.6318 259.671 61.7188C261.857 60.778 263.752 59.5052 265.357 57.9004C266.989 56.2679 268.262 54.3726 269.175 52.2144C270.116 50.0285 270.586 47.7043 270.586 45.2417ZM325.455 51.2183V39.3066C325.455 37.6742 325.136 36.1385 324.5 34.6997C323.891 33.2332 323.047 31.9604 321.968 30.8813C320.889 29.8022 319.616 28.9583 318.15 28.3496C316.711 27.7132 315.175 27.395 313.543 27.395C311.91 27.395 310.361 27.7132 308.895 28.3496C307.456 28.9583 306.197 29.8022 305.118 30.8813C304.039 31.9604 303.181 33.2332 302.544 34.6997C301.936 36.1385 301.631 37.6742 301.631 39.3066V51.2183H325.455ZM337.366 75H325.455V63.0884H301.631V75H289.761V39.3066C289.761 36.014 290.384 32.9289 291.629 30.0513C292.874 27.146 294.562 24.6143 296.692 22.4561C298.851 20.2979 301.368 18.5962 304.246 17.3511C307.151 16.106 310.25 15.4834 313.543 15.4834C316.836 15.4834 319.921 16.106 322.798 17.3511C325.704 18.5962 328.235 20.2979 330.394 22.4561C332.552 24.6143 334.253 27.146 335.499 30.0513C336.744 32.9289 337.366 36.014 337.366 39.3066V75Z" fill="#EBF5EE"/>
<path d="M129.432 75V78H132.432V75H129.432ZM117.52 75H114.52V78H117.52V75ZM117.52 15.4834V12.4834H114.52V15.4834H117.52ZM129.432 15.4834H132.432V12.4834H129.432V15.4834ZM129.432 45.2417H126.432V54.2923L131.838 47.0336L129.432 45.2417ZM151.595 15.4834V12.4834H150.088L149.189 13.6915L151.595 15.4834ZM165.125 15.4834L167.526 17.2815L171.119 12.4834H165.125V15.4834ZM146.324 40.5933L143.922 38.7952L142.766 40.3392L143.691 42.0318L146.324 40.5933ZM165.125 75V78H170.183L167.758 73.5614L165.125 75ZM151.595 75L148.958 76.4318L149.81 78H151.595V75ZM138.521 50.9277L141.157 49.496L138.922 45.3802L136.118 49.1317L138.521 50.9277ZM129.432 63.0884L127.029 61.2923L126.432 62.0911V63.0884H129.432ZM129.432 72H117.52V78H129.432V72ZM120.52 75V15.4834H114.52V75H120.52ZM117.52 18.4834H129.432V12.4834H117.52V18.4834ZM126.432 15.4834V45.2417H132.432V15.4834H126.432ZM131.838 47.0336L154.001 17.2753L149.189 13.6915L127.026 43.4498L131.838 47.0336ZM151.595 18.4834H165.125V12.4834H151.595V18.4834ZM162.724 13.6853L143.922 38.7952L148.725 42.3914L167.526 17.2815L162.724 13.6853ZM143.691 42.0318L162.492 76.4386L167.758 73.5614L148.956 39.1547L143.691 42.0318ZM165.125 72H151.595V78H165.125V72ZM154.231 73.5682L141.157 49.496L135.885 52.3595L148.958 76.4318L154.231 73.5682ZM136.118 49.1317L127.029 61.2923L131.835 64.8844L140.924 52.7238L136.118 49.1317ZM126.432 63.0884V75H132.432V63.0884H126.432ZM225.845 53.667L222.96 52.8468L222.957 52.857L222.954 52.8672L225.845 53.667ZM222.774 61.0132L225.363 62.5287L225.367 62.5219L225.371 62.5151L222.774 61.0132ZM211.734 72.0947L213.249 74.6838L213.261 74.6769L213.273 74.67L211.734 72.0947ZM204.388 75.166L203.596 72.2724L203.582 72.2763L203.568 72.2803L204.388 75.166ZM188.035 75.166L188.855 72.2803L188.845 72.2774L188.835 72.2746L188.035 75.166ZM180.689 72.0947L179.15 74.67L179.169 74.681L179.187 74.6917L180.689 72.0947ZM169.607 61.0132L167.01 62.5151L167.021 62.5336L167.032 62.5521L169.607 61.0132ZM166.495 53.667L163.601 54.4589L163.606 54.4771L163.611 54.4952L166.495 53.667ZM166.495 37.3145L163.609 36.4943L163.605 36.5084L163.601 36.5225L166.495 37.3145ZM169.607 29.9683L167.032 28.4294L167.025 28.441L167.018 28.4527L169.607 29.9683ZM180.689 18.9282L179.187 16.3312L179.18 16.3352L179.173 16.3392L180.689 18.9282ZM188.035 15.8569L188.835 18.7484L188.845 18.7455L188.855 18.7426L188.035 15.8569ZM204.388 15.8569L203.568 18.7426L203.582 18.7467L203.596 18.7505L204.388 15.8569ZM225.845 37.3145L222.952 38.1064L222.955 38.1205L222.96 38.1346L225.845 37.3145ZM213.643 38.1445L210.886 39.3263L210.891 39.3383L213.643 38.1445ZM209.576 32.1265L207.437 34.2305L207.454 34.2479L207.472 34.265L209.576 32.1265ZM203.558 28.0591L202.364 30.8114L202.376 30.8165L203.558 28.0591ZM182.806 32.1265L184.91 34.265L184.918 34.2564L184.927 34.2478L182.806 32.1265ZM178.738 38.1445L181.491 39.3383L181.496 39.3263L178.738 38.1445ZM178.738 52.8369L175.986 54.0307L175.991 54.0429L178.738 52.8369ZM182.806 58.8135L180.684 60.9348L182.806 58.8135ZM203.558 62.8809L202.376 60.1234L202.364 60.1286L203.558 62.8809ZM209.576 58.8135L207.454 56.6922L207.446 56.7008L207.437 56.7095L209.576 58.8135ZM213.643 52.8369L216.39 54.0429L216.395 54.0307L213.643 52.8369ZM223.966 45.4907C223.966 48.0448 223.628 50.4937 222.96 52.8468L228.731 54.4871C229.556 51.5831 229.966 48.5812 229.966 45.4907H223.966ZM222.954 52.8672C222.301 55.2268 221.375 57.4391 220.177 59.5113L225.371 62.5151C226.829 59.9941 227.95 57.309 228.737 54.4668L222.954 52.8672ZM220.185 59.4976C218.988 61.5428 217.541 63.4149 215.838 65.1175L220.081 69.3601C222.141 67.2997 223.904 65.0214 225.363 62.5287L220.185 59.4976ZM215.838 65.1175C214.13 66.8254 212.25 68.2913 210.195 69.5195L213.273 74.67C215.755 73.1866 218.026 71.4151 220.081 69.3601L215.838 65.1175ZM210.218 69.5057C208.184 70.6962 205.98 71.6199 203.596 72.2724L205.18 78.0596C208.052 77.2734 210.746 76.1495 213.249 74.6838L210.218 69.5057ZM203.568 72.2803C201.214 72.9491 198.765 73.2866 196.211 73.2866V79.2866C199.302 79.2866 202.304 78.8771 205.208 78.0517L203.568 72.2803ZM196.211 73.2866C193.657 73.2866 191.208 72.9491 188.855 72.2803L187.215 78.0517C190.119 78.8771 193.121 79.2866 196.211 79.2866V73.2866ZM188.835 72.2746C186.475 71.6219 184.263 70.6961 182.191 69.4977L179.187 74.6917C181.708 76.1496 184.393 77.2713 187.235 78.0574L188.835 72.2746ZM182.228 69.5195C180.172 68.2913 178.293 66.8254 176.585 65.1175L172.342 69.3601C174.397 71.4151 176.668 73.1866 179.15 74.67L182.228 69.5195ZM176.585 65.1175C174.877 63.4095 173.411 61.5297 172.183 59.4743L167.032 62.5521C168.516 65.0345 170.287 67.305 172.342 69.3601L176.585 65.1175ZM172.204 59.5113C171.001 57.431 170.059 55.209 169.378 52.8388L163.611 54.4952C164.425 57.3268 165.557 60.0023 167.01 62.5151L172.204 59.5113ZM169.388 52.8751C168.742 50.5136 168.416 48.055 168.416 45.4907H162.416C162.416 48.571 162.809 51.5632 163.601 54.4589L169.388 52.8751ZM168.416 45.4907C168.416 42.9264 168.742 40.4678 169.388 38.1064L163.601 36.5225C162.809 39.4182 162.416 42.4105 162.416 45.4907H168.416ZM169.38 38.1346C170.061 35.7398 171.001 33.5259 172.196 31.4838L167.018 28.4527C165.557 30.9484 164.422 33.632 163.609 36.4943L169.38 38.1346ZM172.183 31.5071C173.411 29.4518 174.877 27.572 176.585 25.864L172.342 21.6214C170.287 23.6764 168.516 25.947 167.032 28.4294L172.183 31.5071ZM176.585 25.864C178.287 24.1614 180.159 22.7144 182.205 21.5173L179.173 16.3392C176.681 17.7983 174.402 19.5609 172.342 21.6214L176.585 25.864ZM182.191 21.5252C184.263 20.3268 186.475 19.401 188.835 18.7484L187.235 12.9655C184.393 13.7517 181.708 14.8733 179.187 16.3312L182.191 21.5252ZM188.855 18.7426C191.208 18.0739 193.657 17.7363 196.211 17.7363V11.7363C193.121 11.7363 190.119 12.1459 187.215 12.9712L188.855 18.7426ZM196.211 17.7363C198.765 17.7363 201.214 18.0739 203.568 18.7426L205.208 12.9712C202.304 12.1459 199.302 11.7363 196.211 11.7363V17.7363ZM203.596 18.7505C205.98 19.4031 208.184 20.3267 210.218 21.5173L213.249 16.3392C210.746 14.8735 208.052 13.7496 205.18 12.9633L203.596 18.7505ZM210.218 21.5173C212.263 22.7144 214.136 24.1614 215.838 25.864L220.081 21.6214C218.02 19.5609 215.742 17.7983 213.249 16.3392L210.218 21.5173ZM215.838 25.864C217.541 27.5666 218.988 29.4387 220.185 31.4838L225.363 28.4527C223.904 25.9601 222.141 23.6818 220.081 21.6214L215.838 25.864ZM220.185 31.4838C221.375 33.5177 222.299 35.722 222.952 38.1064L228.739 36.5225C227.953 33.6498 226.829 30.9566 225.363 28.4527L220.185 31.4838ZM222.96 38.1346C223.628 40.4877 223.966 42.9367 223.966 45.4907H229.966C229.966 42.4003 229.556 39.3983 228.731 36.4943L222.96 38.1346ZM218.137 45.4907C218.137 42.4955 217.561 39.6388 216.395 36.9508L210.891 39.3383C211.717 41.2433 212.137 43.2841 212.137 45.4907H218.137ZM216.401 36.9628C215.259 34.2987 213.687 31.963 211.68 29.988L207.472 34.265C208.895 35.6656 210.035 37.3419 210.886 39.3263L216.401 36.9628ZM211.714 30.0225C209.739 28.0151 207.403 26.4434 204.739 25.3016L202.376 30.8165C204.36 31.667 206.037 32.8069 207.437 34.2305L211.714 30.0225ZM204.751 25.3068C202.063 24.1409 199.207 23.5649 196.211 23.5649V29.5649C198.418 29.5649 200.459 29.9851 202.364 30.8113L204.751 25.3068ZM196.211 23.5649C193.193 23.5649 190.322 24.1392 187.63 25.3068L190.017 30.8113C191.919 29.9868 193.973 29.5649 196.211 29.5649V23.5649ZM187.63 25.3068C184.999 26.4482 182.675 28.0144 180.684 30.0051L184.927 34.2478C186.367 32.8076 188.056 31.6622 190.017 30.8113L187.63 25.3068ZM180.702 29.988C178.694 31.963 177.123 34.2987 175.981 36.9628L181.496 39.3263C182.346 37.3419 183.486 35.6656 184.91 34.265L180.702 29.988ZM175.986 36.9508C174.82 39.6388 174.244 42.4955 174.244 45.4907H180.244C180.244 43.2841 180.664 41.2433 181.491 39.3383L175.986 36.9508ZM174.244 45.4907C174.244 48.4859 174.82 51.3426 175.986 54.0307L181.491 51.6432C180.664 49.7381 180.244 47.6973 180.244 45.4907H174.244ZM175.991 54.0429C177.134 56.6457 178.7 58.95 180.684 60.9348L184.927 56.6922C183.481 55.2459 182.335 53.5659 181.485 51.6309L175.991 54.0429ZM180.684 60.9348C182.675 62.9256 184.999 64.4918 187.63 65.6331L190.017 60.1286C188.056 59.2778 186.367 58.1324 184.927 56.6922L180.684 60.9348ZM187.63 65.6331C190.322 66.8008 193.193 67.375 196.211 67.375V61.375C193.973 61.375 191.919 60.9531 190.017 60.1286L187.63 65.6331ZM196.211 67.375C199.207 67.375 202.063 66.799 204.751 65.6331L202.364 60.1286C200.459 60.9549 198.418 61.375 196.211 61.375V67.375ZM204.739 65.6383C207.403 64.4965 209.739 62.9249 211.714 60.9175L207.437 56.7095C206.037 58.1331 204.36 59.273 202.376 60.1234L204.739 65.6383ZM211.697 60.9348C213.682 58.95 215.247 56.6457 216.39 54.0429L210.896 51.6309C210.047 53.5659 208.901 55.2459 207.454 56.6922L211.697 60.9348ZM216.395 54.0307C217.561 51.3426 218.137 48.4859 218.137 45.4907H212.137C212.137 47.6973 211.717 49.7381 210.891 51.6432L216.395 54.0307ZM281.419 53.1689L278.532 52.3531L278.529 52.3636L278.526 52.3742L281.419 53.1689ZM278.431 60.2661L281.009 61.8L281.013 61.7929L281.017 61.7858L278.431 60.2661ZM273.782 66.2842L275.904 68.4055L275.912 68.3974L275.92 68.3892L273.782 66.2842ZM260.625 73.9624L261.42 76.8552L261.431 76.8523L261.441 76.8493L260.625 73.9624ZM234.81 75H231.81V78H234.81V75ZM234.81 15.4834V12.4834H231.81V15.4834H234.81ZM260.625 16.5625L259.801 19.4471L259.82 19.4524L259.839 19.4575L260.625 16.5625ZM273.782 24.2407L271.645 26.3458L271.653 26.3539L271.661 26.362L273.782 24.2407ZM278.431 30.2588L275.844 31.7784L275.848 31.7856L275.852 31.7927L278.431 30.2588ZM281.419 37.356L278.524 38.1426L278.529 38.1614L278.534 38.1801L281.419 37.356ZM269.175 38.3105L266.412 39.4795L266.419 39.4944L266.425 39.5093L269.175 38.3105ZM265.357 32.666L263.218 34.7691L263.236 34.7874L263.254 34.8054L265.357 32.666ZM259.671 28.8062L258.472 31.5563L258.485 31.5618L259.671 28.8062ZM246.805 27.395V24.395H243.805V27.395H246.805ZM246.805 63.0884H243.805V66.0884H246.805V63.0884ZM259.671 61.7188L260.84 64.4817L260.848 64.478L260.857 64.4744L259.671 61.7188ZM265.357 57.9004L263.236 55.7791L265.357 57.9004ZM269.175 52.2144L266.42 51.0284L266.416 51.0369L266.412 51.0454L269.175 52.2144ZM279.498 45.2417C279.498 47.7149 279.174 50.0823 278.532 52.3531L284.306 53.9848C285.103 51.1645 285.498 48.247 285.498 45.2417H279.498ZM278.526 52.3742C277.903 54.6425 277.009 56.764 275.844 58.7465L281.017 61.7858C282.453 59.3412 283.551 56.7312 284.312 53.9637L278.526 52.3742ZM275.852 58.7322C274.676 60.7091 273.275 62.5236 271.645 64.1791L275.92 68.3892C277.886 66.3924 279.584 64.1949 281.009 61.8L275.852 58.7322ZM271.661 64.1629C270.044 65.7797 268.241 67.1733 266.245 68.346L269.284 73.5192C271.715 72.0911 273.923 70.3857 275.904 68.4055L271.661 64.1629ZM266.245 68.346C264.258 69.5128 262.116 70.4236 259.81 71.0755L261.441 76.8493C264.226 76.0624 266.843 74.9533 269.284 73.5192L266.245 68.346ZM259.831 71.0696C257.584 71.6868 255.224 72 252.74 72V78C255.734 78 258.631 77.6215 261.42 76.8552L259.831 71.0696ZM252.74 72H234.81V78H252.74V72ZM237.81 75V15.4834H231.81V75H237.81ZM234.81 18.4834H252.74V12.4834H234.81V18.4834ZM252.74 18.4834C255.213 18.4834 257.564 18.8077 259.801 19.4471L261.45 13.6779C258.652 12.8785 255.745 12.4834 252.74 12.4834V18.4834ZM259.839 19.4575C262.135 20.0814 264.267 20.9755 266.245 22.1374L269.284 16.9641C266.834 15.5251 264.208 14.4271 261.412 13.6675L259.839 19.4575ZM266.245 22.1374C268.232 23.3053 270.031 24.7068 271.645 26.3458L275.92 22.1357C273.937 20.1223 271.723 18.3972 269.284 16.9641L266.245 22.1374ZM271.661 26.362C273.278 27.9788 274.671 29.7823 275.844 31.7784L281.017 28.7391C279.589 26.3082 277.884 24.0996 275.904 22.1194L271.661 26.362ZM275.852 31.7927C277.009 33.7364 277.901 35.8496 278.524 38.1426L284.314 36.5693C283.554 33.7712 282.453 31.1529 281.009 28.7249L275.852 31.7927ZM278.534 38.1801C279.174 40.4179 279.498 42.7683 279.498 45.2417H285.498C285.498 42.2366 285.103 39.3298 284.304 36.5318L278.534 38.1801ZM273.586 45.2417C273.586 42.386 273.039 39.6655 271.925 37.1118L266.425 39.5093C267.194 41.272 267.586 43.1723 267.586 45.2417H273.586ZM271.938 37.1416C270.875 34.6285 269.381 32.415 267.46 30.5266L263.254 34.8054C264.598 36.1267 265.649 37.6762 266.412 39.4795L271.938 37.1416ZM267.496 30.5629C265.608 28.6422 263.385 27.1388 260.857 26.0505L258.485 31.5618C260.328 32.355 261.896 33.4248 263.218 34.7691L267.496 30.5629ZM260.87 26.0561C258.316 24.9429 255.595 24.395 252.74 24.395V30.395C254.809 30.395 256.709 30.7879 258.472 31.5562L260.87 26.0561ZM252.74 24.395H246.805V30.395H252.74V24.395ZM243.805 27.395V63.0884H249.805V27.395H243.805ZM246.805 66.0884H252.74V60.0884H246.805V66.0884ZM252.74 66.0884C255.583 66.0884 258.293 65.5591 260.84 64.4817L258.502 58.9558C256.732 59.7046 254.822 60.0884 252.74 60.0884V66.0884ZM260.857 64.4744C263.375 63.3908 265.592 61.9082 267.478 60.0217L263.236 55.7791C261.913 57.1022 260.339 58.1652 258.485 58.9631L260.857 64.4744ZM267.478 60.0217C269.388 58.1119 270.877 55.8918 271.938 53.3833L266.412 51.0454C265.648 52.8533 264.591 54.424 263.236 55.7791L267.478 60.0217ZM271.931 53.4003C273.039 50.8267 273.586 48.0976 273.586 45.2417H267.586C267.586 47.311 267.194 49.2302 266.42 51.0284L271.931 53.4003ZM325.455 51.2183V54.2183H328.455V51.2183H325.455ZM324.5 34.6997L321.729 35.8498L321.742 35.8817L321.756 35.9132L324.5 34.6997ZM318.15 28.3496L316.936 31.0932L316.968 31.1072L317 31.1204L318.15 28.3496ZM308.895 28.3496L310.063 31.1125L310.076 31.1071L310.089 31.1016L308.895 28.3496ZM302.544 34.6997L299.792 33.5054L299.787 33.5181L299.782 33.5308L302.544 34.6997ZM301.631 51.2183H298.631V54.2183H301.631V51.2183ZM337.366 75V78H340.366V75H337.366ZM325.455 75H322.455V78H325.455V75ZM325.455 63.0884H328.455V60.0884H325.455V63.0884ZM301.631 63.0884V60.0884H298.631V63.0884H301.631ZM301.631 75V78H304.631V75H301.631ZM289.761 75H286.761V78H289.761V75ZM291.629 30.0513L294.382 31.2426L294.386 31.233L291.629 30.0513ZM296.692 22.4561L294.571 20.3347L294.564 20.3416L294.557 20.3485L296.692 22.4561ZM304.246 17.3511L303.064 14.5936L303.055 14.5978L304.246 17.3511ZM322.798 17.3511L321.607 20.1044L321.617 20.1085L322.798 17.3511ZM335.499 30.0513L332.741 31.233L332.745 31.2426L335.499 30.0513ZM328.455 51.2183V39.3066H322.455V51.2183H328.455ZM328.455 39.3066C328.455 37.2723 328.055 35.3217 327.244 33.4862L321.756 35.9132C322.217 36.9553 322.455 38.076 322.455 39.3066H328.455ZM327.271 33.5496C326.518 31.7349 325.458 30.1284 324.09 28.76L319.847 33.0027C320.637 33.7925 321.265 34.7316 321.729 35.8498L327.271 33.5496ZM324.09 28.76C322.721 27.3917 321.115 26.3321 319.3 25.5788L317 31.1204C318.118 31.5846 319.057 32.2128 319.847 33.0027L324.09 28.76ZM319.363 25.606C317.528 24.7942 315.577 24.395 313.543 24.395V30.395C314.774 30.395 315.894 30.6323 316.936 31.0932L319.363 25.606ZM313.543 24.395C311.509 24.395 309.552 24.7941 307.7 25.5976L310.089 31.1016C311.17 30.6323 312.312 30.395 313.543 30.395V24.395ZM307.726 25.5867C305.94 26.3423 304.355 27.4012 302.996 28.76L307.239 33.0027C308.038 32.2033 308.972 31.5743 310.063 31.1125L307.726 25.5867ZM302.996 28.76C301.638 30.1183 300.572 31.7097 299.792 33.5054L305.296 35.894C305.79 34.7567 306.439 33.8026 307.239 33.0027L302.996 28.76ZM299.782 33.5308C299.009 35.356 298.631 37.291 298.631 39.3066H304.631C304.631 38.0573 304.862 36.921 305.307 35.8686L299.782 33.5308ZM298.631 39.3066V51.2183H304.631V39.3066H298.631ZM301.631 54.2183H325.455V48.2183H301.631V54.2183ZM337.366 72H325.455V78H337.366V72ZM328.455 75V63.0884H322.455V75H328.455ZM325.455 60.0884H301.631V66.0884H325.455V60.0884ZM298.631 63.0884V75H304.631V63.0884H298.631ZM301.631 72H289.761V78H301.631V72ZM292.761 75V39.3066H286.761V75H292.761ZM292.761 39.3066C292.761 36.4029 293.308 33.7254 294.382 31.2426L288.876 28.8599C287.46 32.1324 286.761 35.6251 286.761 39.3066H292.761ZM294.386 31.233C295.49 28.6578 296.971 26.4436 298.827 24.5636L294.557 20.3485C292.152 22.7849 290.258 25.6342 288.871 28.8695L294.386 31.233ZM298.814 24.5774C300.697 22.6939 302.897 21.2035 305.437 20.1044L303.055 14.5978C299.84 15.9889 297.004 17.9018 294.571 20.3347L298.814 24.5774ZM305.428 20.1085C307.944 19.0301 310.639 18.4834 313.543 18.4834V12.4834C309.861 12.4834 306.359 13.1818 303.064 14.5936L305.428 20.1085ZM313.543 18.4834C316.447 18.4834 319.124 19.0301 321.607 20.1044L323.99 14.5978C320.717 13.1818 317.224 12.4834 313.543 12.4834V18.4834ZM321.617 20.1085C324.184 21.2087 326.394 22.6987 328.272 24.5774L332.515 20.3347C330.077 17.897 327.223 15.9836 323.98 14.5936L321.617 20.1085ZM328.272 24.5774C330.151 26.4561 331.641 28.6658 332.741 31.233L338.256 28.8695C336.866 25.6262 334.953 22.7724 332.515 20.3347L328.272 24.5774ZM332.745 31.2426C333.819 33.7254 334.366 36.4029 334.366 39.3066H340.366C340.366 35.6251 339.668 32.1324 338.252 28.8599L332.745 31.2426ZM334.366 39.3066V75H340.366V39.3066H334.366ZM395.057 68.9819L397 71.2677L398.057 70.3693V68.9819H395.057ZM385.801 74.4189L386.832 77.2363L386.842 77.2326L386.852 77.2289L385.801 74.4189ZM367 75.166L367.82 72.2803L367.81 72.2774L367.8 72.2746L367 75.166ZM359.695 72.0947L358.156 74.67L358.168 74.6769L358.18 74.6838L359.695 72.0947ZM353.47 67.2803L351.348 69.4016L351.356 69.4095L351.364 69.4172L353.47 67.2803ZM348.655 61.0547L346.058 62.5566L346.062 62.5634L346.066 62.5702L348.655 61.0547ZM345.542 53.667L342.649 54.4589L342.653 54.4731L342.657 54.4871L345.542 53.667ZM345.542 37.356L342.659 36.5277L342.655 36.542L342.651 36.5562L345.542 37.356ZM348.655 30.0513L351.244 31.5668L351.248 31.56L351.252 31.5531L348.655 30.0513ZM353.47 23.8257L355.575 25.9627L355.583 25.9549L355.591 25.947L353.47 23.8257ZM359.695 19.0112L358.18 16.4222L359.695 19.0112ZM367 15.9399L367.8 18.8314L367.81 18.8286L367.82 18.8257L367 15.9399ZM385.801 16.7285L384.75 19.5384L384.76 19.5422L384.771 19.5459L385.801 16.7285ZM395.057 22.124L397.629 23.6675L398.938 21.4859L397 19.8382L395.057 22.124ZM388.831 32.5L386.694 34.6051L389.411 37.3643L391.404 34.0435L388.831 32.5ZM382.605 28.2251L381.381 30.9639L381.395 30.9699L381.408 30.9758L382.605 28.2251ZM367.83 28.1421L366.636 25.3898L366.624 25.3952L367.83 28.1421ZM361.854 32.2095L363.958 34.348L363.966 34.3394L363.975 34.3308L361.854 32.2095ZM357.786 38.186L360.533 39.392L360.538 39.3798L357.786 38.186ZM357.786 52.8784L355.034 54.0722L357.786 52.8784ZM361.854 58.8965L359.732 61.0178L361.854 58.8965ZM367.83 62.9639L366.624 65.7108L366.636 65.7161L367.83 62.9639ZM383.56 62.4243L384.902 65.1076L386.56 64.2784V62.4243H383.56ZM383.56 45.4907V42.4907H380.56V45.4907H383.56ZM395.057 45.4907H398.057V42.4907H395.057V45.4907ZM393.114 66.6961C390.612 68.8228 387.828 70.4579 384.75 71.609L386.852 77.2289C390.581 75.8344 393.968 73.8448 397 71.2677L393.114 66.6961ZM384.771 71.6016C381.703 72.724 378.51 73.2866 375.176 73.2866V79.2866C379.202 79.2866 383.093 78.6041 386.832 77.2363L384.771 71.6016ZM375.176 73.2866C372.622 73.2866 370.173 72.9491 367.82 72.2803L366.18 78.0517C369.084 78.8771 372.086 79.2866 375.176 79.2866V73.2866ZM367.8 72.2746C365.443 71.6227 363.249 70.699 361.211 69.5057L358.18 74.6838C360.679 76.1467 363.355 77.2706 366.2 78.0574L367.8 72.2746ZM361.234 69.5195C359.171 68.2865 357.286 66.8288 355.575 65.1433L351.364 69.4172C353.417 71.4394 355.682 73.1913 358.156 74.67L361.234 69.5195ZM355.591 65.159C353.888 63.4564 352.441 61.5843 351.244 59.5392L346.066 62.5702C347.525 65.0629 349.288 67.3412 351.348 69.4016L355.591 65.159ZM351.252 59.5528C350.052 57.4771 349.11 55.2443 348.428 52.8468L342.657 54.4871C343.47 57.3468 344.602 60.0392 346.058 62.5566L351.252 59.5528ZM348.436 52.8751C347.79 50.5136 347.463 48.055 347.463 45.4907H341.463C341.463 48.571 341.856 51.5632 342.649 54.4589L348.436 52.8751ZM347.463 45.4907C347.463 42.9263 347.79 40.4844 348.434 38.1557L342.651 36.5562C341.856 39.4293 341.463 42.4106 341.463 45.4907H347.463ZM348.426 38.1842C349.106 35.8167 350.046 33.6135 351.244 31.5668L346.066 28.5357C344.608 31.0268 343.473 33.6934 342.659 36.5277L348.426 38.1842ZM351.252 31.5531C352.446 29.4883 353.886 27.6269 355.575 25.9627L351.364 21.6887C349.29 23.7321 347.52 26.0211 346.058 28.5494L351.252 31.5531ZM355.591 25.947C357.294 24.2444 359.166 22.7974 361.211 21.6003L358.18 16.4222C355.687 17.8813 353.409 19.6439 351.348 21.7044L355.591 25.947ZM361.211 21.6003C363.249 20.407 365.443 19.4833 367.8 18.8314L366.2 13.0485C363.355 13.8354 360.679 14.9592 358.18 16.4222L361.211 21.6003ZM367.82 18.8257C370.173 18.1569 372.622 17.8193 375.176 17.8193V11.8193C372.086 11.8193 369.084 12.2289 366.18 13.0542L367.82 18.8257ZM375.176 17.8193C378.502 17.8193 381.688 18.393 384.75 19.5384L386.852 13.9186C383.108 12.5185 379.21 11.8193 375.176 11.8193V17.8193ZM384.771 19.5459C387.84 20.6689 390.616 22.2872 393.114 24.4098L397 19.8382C393.963 17.2571 390.569 15.2784 386.832 13.9111L384.771 19.5459ZM392.484 20.5805L386.259 30.9565L391.404 34.0435L397.629 23.6675L392.484 20.5805ZM390.969 30.3949C388.901 28.2952 386.506 26.6512 383.803 25.4744L381.408 30.9758C383.409 31.8466 385.165 33.0524 386.694 34.6051L390.969 30.3949ZM383.83 25.4863C381.089 24.261 378.195 23.6479 375.176 23.6479V29.6479C377.359 29.6479 379.418 30.0863 381.381 30.9639L383.83 25.4863ZM375.176 23.6479C372.181 23.6479 369.324 24.2239 366.636 25.3898L369.024 30.8944C370.929 30.0681 372.97 29.6479 375.176 29.6479V23.6479ZM366.624 25.3952C364.021 26.5378 361.717 28.1034 359.732 30.0882L363.975 34.3308C365.421 32.8846 367.101 31.7385 369.036 30.889L366.624 25.3952ZM359.75 30.071C357.748 32.04 356.177 34.3566 355.034 36.9923L360.538 39.3798C361.387 37.4224 362.528 35.7546 363.958 34.348L359.75 30.071ZM355.039 36.9801C353.868 39.6479 353.292 42.4957 353.292 45.4907H359.292C359.292 43.284 359.712 41.2619 360.533 39.392L355.039 36.9801ZM353.292 45.4907C353.292 48.509 353.866 51.3801 355.034 54.0722L360.538 51.6847C359.714 49.7836 359.292 47.7296 359.292 45.4907H353.292ZM355.034 54.0722C356.175 56.7036 357.741 59.027 359.732 61.0178L363.975 56.7752C362.535 55.3349 361.389 53.6463 360.538 51.6847L355.034 54.0722ZM359.732 61.0178C361.717 63.0026 364.021 64.5681 366.624 65.7108L369.036 60.2169C367.101 59.3674 365.421 58.2214 363.975 56.7752L359.732 61.0178ZM366.636 65.7161C369.324 66.882 372.181 67.458 375.176 67.458V61.458C372.97 61.458 370.929 61.0379 369.024 60.2116L366.636 65.7161ZM375.176 67.458C376.914 67.458 378.616 67.2485 380.275 66.8255L378.793 61.0114C377.63 61.3078 376.427 61.458 375.176 61.458V67.458ZM380.275 66.8255C381.889 66.4141 383.433 65.842 384.902 65.1076L382.218 59.741C381.142 60.2794 380.002 60.7034 378.793 61.0114L380.275 66.8255ZM386.56 62.4243V45.4907H380.56V62.4243H386.56ZM383.56 48.4907H395.057V42.4907H383.56V48.4907ZM392.057 45.4907V68.9819H398.057V45.4907H392.057ZM416.141 27.395V24.395H413.141V27.395H416.141ZM416.141 51.2183H413.141V54.2183H416.141V51.2183ZM432.659 50.3052L433.828 53.0681L433.85 53.0586L433.873 53.0488L432.659 50.3052ZM438.968 43.9551L436.216 42.7608L436.21 42.7735L436.205 42.7862L438.968 43.9551ZM438.968 34.6997L436.197 35.8498L436.21 35.8817L436.224 35.9132L438.968 34.6997ZM432.659 28.3496L431.446 31.0932L431.468 31.103L431.49 31.1125L432.659 28.3496ZM416.141 75V78H419.141V75H416.141ZM404.229 75H401.229V78H404.229V75ZM404.229 15.4834V12.4834H401.229V15.4834H404.229ZM434.361 16.355L433.531 19.2381L433.55 19.2433L433.568 19.2484L434.361 16.355ZM440.005 18.7622L438.456 21.3311L438.48 21.3455L438.504 21.3594L440.005 18.7622ZM444.82 22.4976L442.678 24.5986L442.698 24.619L442.719 24.639L444.82 22.4976ZM448.555 27.312L445.958 28.8135L445.967 28.8286L445.976 28.8436L448.555 27.312ZM450.962 32.998L448.069 33.7908L448.074 33.8091L448.079 33.8274L450.962 32.998ZM449.966 48.562L452.72 49.7534L452.724 49.7438L449.966 48.562ZM437.266 61.2207L436.084 58.4633L436.075 58.4674L437.266 61.2207ZM416.141 63.0884V60.0884H413.141V63.0884H416.141ZM413.141 27.395V51.2183H419.141V27.395H413.141ZM416.141 54.2183H428.052V48.2183H416.141V54.2183ZM428.052 54.2183C430.068 54.2183 432.003 53.8403 433.828 53.0681L431.49 47.5423C430.438 47.9875 429.302 48.2183 428.052 48.2183V54.2183ZM433.873 53.0488C435.639 52.2674 437.208 51.2021 438.557 49.8533L434.315 45.6106C433.505 46.42 432.557 47.0701 431.446 47.5616L433.873 53.0488ZM438.557 49.8533C439.916 48.4944 440.975 46.91 441.731 45.124L436.205 42.7862C435.743 43.8778 435.114 44.8112 434.315 45.6106L438.557 49.8533ZM441.72 45.1494C442.523 43.2979 442.922 41.3411 442.922 39.3066H436.922C436.922 40.5372 436.685 41.6794 436.216 42.7608L441.72 45.1494ZM442.922 39.3066C442.922 37.2723 442.523 35.3217 441.711 33.4862L436.224 35.9132C436.685 36.9553 436.922 38.076 436.922 39.3066H442.922ZM441.739 33.5496C440.985 31.7349 439.926 30.1284 438.557 28.76L434.315 33.0027C435.105 33.7925 435.733 34.7316 436.197 35.8498L441.739 33.5496ZM438.557 28.76C437.199 27.4012 435.614 26.3423 433.828 25.5867L431.49 31.1125C432.582 31.5743 433.515 32.2033 434.315 33.0027L438.557 28.76ZM433.873 25.606C432.037 24.7942 430.087 24.395 428.052 24.395V30.395C429.283 30.395 430.404 30.6323 431.446 31.0932L433.873 25.606ZM428.052 24.395H416.141V30.395H428.052V24.395ZM416.141 72H404.229V78H416.141V72ZM407.229 75V15.4834H401.229V75H407.229ZM404.229 18.4834H428.052V12.4834H404.229V18.4834ZM428.052 18.4834C429.969 18.4834 431.792 18.7376 433.531 19.2381L435.19 13.4719C432.89 12.8102 430.507 12.4834 428.052 12.4834V18.4834ZM433.568 19.2484C435.33 19.731 436.956 20.4262 438.456 21.3311L441.555 16.1933C439.569 14.9954 437.432 14.0857 435.154 13.4616L433.568 19.2484ZM438.504 21.3594C440.039 22.2469 441.429 23.3248 442.678 24.5986L446.961 20.3965C445.333 18.7374 443.513 17.3251 441.507 16.165L438.504 21.3594ZM442.719 24.639C443.993 25.8887 445.071 27.2785 445.958 28.8135L451.152 25.8105C449.992 23.8039 448.58 21.984 446.921 20.3561L442.719 24.639ZM445.976 28.8436C446.887 30.3794 447.585 32.0257 448.069 33.7908L453.856 32.2053C453.233 29.9307 452.326 27.7863 451.135 25.7804L445.976 28.8436ZM448.079 33.8274C448.58 35.567 448.834 37.3901 448.834 39.3066H454.834C454.834 36.8515 454.507 34.4688 453.845 32.1687L448.079 33.8274ZM448.834 39.3066C448.834 42.179 448.289 44.8608 447.209 47.3803L452.724 49.7438C454.134 46.4527 454.834 42.9642 454.834 39.3066H448.834ZM447.213 47.3707C446.114 49.9109 444.623 52.1109 442.74 53.9944L446.983 58.237C449.416 55.8041 451.329 52.9683 452.72 49.7533L447.213 47.3707ZM442.74 53.9944C440.861 55.8731 438.652 57.363 436.084 58.4633L438.448 63.9781C441.691 62.5881 444.545 60.6747 446.983 58.237L442.74 53.9944ZM436.075 58.4674C433.589 59.543 430.925 60.0884 428.052 60.0884V66.0884C431.71 66.0884 435.188 65.3886 438.457 63.974L436.075 58.4674ZM428.052 60.0884H416.141V66.0884H428.052V60.0884ZM413.141 63.0884V75H419.141V63.0884H413.141ZM483.335 75V78H486.335V75H483.335ZM471.465 75H468.465V78H471.465V75ZM471.465 27.395H474.465V24.395H471.465V27.395ZM453.577 27.395H450.577V30.395H453.577V27.395ZM453.577 15.4834V12.4834H450.577V15.4834H453.577ZM501.182 15.4834H504.182V12.4834H501.182V15.4834ZM501.182 27.395V30.395H504.182V27.395H501.182ZM483.335 27.395V24.395H480.335V27.395H483.335ZM483.335 72H471.465V78H483.335V72ZM474.465 75V27.395H468.465V75H474.465ZM471.465 24.395H453.577V30.395H471.465V24.395ZM456.577 27.395V15.4834H450.577V27.395H456.577ZM453.577 18.4834H501.182V12.4834H453.577V18.4834ZM498.182 15.4834V27.395H504.182V15.4834H498.182ZM501.182 24.395H483.335V30.395H501.182V24.395ZM480.335 27.395V75H486.335V27.395H480.335Z" fill="#EBF5EE"/>
</svg>
