<?xml version="1.0" encoding="UTF-8"?>
<svg xmlns="http://www.w3.org/2000/svg" xmlns:xlink="http://www.w3.org/1999/xlink" width="140px" height="25px" viewBox="0 0 137 25" version="1.1">
<g id="surface1">
<path style=" stroke:none;fill-rule:nonzero;fill:rgb(25.490196%,13.333333%,55.686275%);fill-opacity:1;" d="M 14.179688 10.558594 C 14.179688 10.558594 11.644531 7.890625 7.261719 7.890625 C 3.230469 7.890625 0.808594 10.558594 0.808594 10.558594 C 0.808594 10.558594 -1.253906 6.84375 1.382812 3.132812 C 2.882812 1.019531 4.6875 0.113281 7.261719 0.113281 C 9.914062 0.113281 11.757812 0.925781 13.371094 3.132812 C 15.753906 6.386719 14.179688 10.558594 14.179688 10.558594 Z M 14.179688 10.558594 "/>
<path style=" stroke:none;fill-rule:nonzero;fill:rgb(25.490196%,13.333333%,55.686275%);fill-opacity:1;" d="M 14.0625 14.230469 C 14.0625 14.230469 16.710938 11.679688 16.710938 7.269531 C 16.710938 3.207031 14.0625 0.773438 14.0625 0.773438 C 14.0625 0.773438 17.75 -1.304688 21.4375 1.351562 C 23.535156 2.859375 24.433594 4.675781 24.433594 7.269531 C 24.433594 9.9375 23.628906 11.796875 21.4375 13.417969 C 18.207031 15.816406 14.0625 14.230469 14.0625 14.230469 Z M 14.0625 14.230469 "/>
<path style=" stroke:none;fill-rule:nonzero;fill:rgb(25.490196%,13.333333%,55.686275%);fill-opacity:1;" d="M 10.425781 14.386719 C 10.425781 14.386719 12.960938 17.058594 17.339844 17.058594 C 21.375 17.058594 23.796875 14.386719 23.796875 14.386719 C 23.796875 14.386719 25.855469 18.101562 23.21875 21.816406 C 21.71875 23.925781 19.917969 24.832031 17.339844 24.832031 C 14.6875 24.832031 12.84375 24.019531 11.230469 21.816406 C 8.847656 18.5625 10.425781 14.386719 10.425781 14.386719 Z M 10.425781 14.386719 "/>
<path style=" stroke:none;fill-rule:nonzero;fill:rgb(25.490196%,13.333333%,55.686275%);fill-opacity:1;" d="M 10.375 10.492188 C 10.375 10.492188 7.722656 13.046875 7.722656 17.457031 C 7.722656 21.515625 10.375 23.953125 10.375 23.953125 C 10.375 23.953125 6.6875 26.027344 2.996094 23.375 C 0.902344 21.863281 0 20.050781 0 17.457031 C 0 14.785156 0.808594 12.929688 2.996094 11.304688 C 6.230469 8.90625 10.375 10.492188 10.375 10.492188 Z M 10.375 10.492188 "/>
<path style=" stroke:none;fill-rule:nonzero;fill:rgb(25.490196%,13.333333%,55.686275%);fill-opacity:1;" d="M 35.324219 20.605469 L 32.070312 20.605469 L 32.070312 4.253906 L 35.324219 4.253906 L 35.324219 12.429688 L 41.371094 4.253906 L 45.0625 4.253906 L 39.933594 11.152344 L 45.0625 20.605469 L 41.371094 20.605469 L 37.804688 13.992188 L 35.324219 17.332031 Z M 61.941406 12.496094 C 61.941406 13.273438 61.839844 14.023438 61.636719 14.742188 C 61.4375 15.457031 61.160156 16.132812 60.796875 16.761719 C 60.433594 17.386719 59.996094 17.957031 59.484375 18.472656 C 58.96875 18.988281 58.402344 19.433594 57.785156 19.804688 C 57.164062 20.171875 56.496094 20.453125 55.777344 20.648438 C 55.0625 20.855469 54.316406 20.957031 53.546875 20.957031 C 52.777344 20.957031 52.035156 20.855469 51.316406 20.648438 C 50.605469 20.453125 49.9375 20.171875 49.3125 19.804688 C 48.691406 19.433594 48.125 18.988281 47.613281 18.472656 C 47.097656 17.957031 46.65625 17.386719 46.289062 16.761719 C 45.925781 16.132812 45.640625 15.457031 45.4375 14.742188 C 45.242188 14.023438 45.144531 13.273438 45.144531 12.496094 C 45.144531 11.722656 45.242188 10.972656 45.4375 10.25 C 45.640625 9.527344 45.925781 8.855469 46.289062 8.234375 C 46.65625 7.609375 47.097656 7.039062 47.613281 6.523438 C 48.125 6.003906 48.691406 5.566406 49.3125 5.199219 C 49.9375 4.835938 50.605469 4.554688 51.316406 4.355469 C 52.035156 4.152344 52.777344 4.046875 53.546875 4.046875 C 54.316406 4.046875 55.0625 4.152344 55.777344 4.355469 C 56.496094 4.554688 57.164062 4.835938 57.785156 5.199219 C 58.402344 5.566406 58.96875 6.003906 59.484375 6.523438 C 59.996094 7.039062 60.433594 7.609375 60.796875 8.234375 C 61.160156 8.855469 61.4375 9.527344 61.636719 10.25 C 61.839844 10.972656 61.941406 11.722656 61.941406 12.496094 Z M 58.710938 12.496094 C 58.710938 11.78125 58.578125 11.109375 58.304688 10.480469 C 58.03125 9.839844 57.664062 9.289062 57.195312 8.824219 C 56.734375 8.355469 56.1875 7.980469 55.550781 7.707031 C 54.925781 7.433594 54.257812 7.296875 53.546875 7.296875 C 52.832031 7.296875 52.160156 7.433594 51.53125 7.707031 C 50.90625 7.980469 50.355469 8.355469 49.890625 8.824219 C 49.421875 9.289062 49.050781 9.839844 48.777344 10.480469 C 48.507812 11.109375 48.371094 11.78125 48.371094 12.496094 C 48.371094 13.210938 48.507812 13.882812 48.777344 14.515625 C 49.050781 15.140625 49.421875 15.6875 49.890625 16.15625 C 50.355469 16.628906 50.90625 17 51.53125 17.273438 C 52.160156 17.546875 52.832031 17.683594 53.546875 17.683594 C 54.257812 17.683594 54.925781 17.546875 55.550781 17.273438 C 56.1875 17 56.734375 16.628906 57.195312 16.15625 C 57.664062 15.6875 58.03125 15.140625 58.304688 14.515625 C 58.578125 13.882812 58.710938 13.210938 58.710938 12.496094 Z M 77.097656 12.429688 C 77.097656 13.179688 76.996094 13.90625 76.800781 14.605469 C 76.613281 15.296875 76.339844 15.949219 75.984375 16.554688 C 75.632812 17.15625 75.207031 17.707031 74.71875 18.210938 C 74.226562 18.703125 73.679688 19.128906 73.074219 19.488281 C 72.472656 19.84375 71.820312 20.121094 71.125 20.320312 C 70.441406 20.507812 69.722656 20.605469 68.976562 20.605469 L 64.082031 20.605469 L 64.082031 4.253906 L 68.976562 4.253906 C 69.722656 4.253906 70.441406 4.351562 71.125 4.550781 C 71.820312 4.738281 72.472656 5.015625 73.074219 5.371094 C 73.679688 5.726562 74.226562 6.15625 74.71875 6.660156 C 75.207031 7.152344 75.632812 7.703125 75.984375 8.3125 C 76.339844 8.914062 76.613281 9.5625 76.800781 10.261719 C 76.996094 10.953125 77.097656 11.675781 77.097656 12.429688 Z M 73.84375 12.429688 C 73.84375 11.753906 73.71875 11.117188 73.460938 10.523438 C 73.210938 9.933594 72.863281 9.414062 72.417969 8.972656 C 71.980469 8.527344 71.464844 8.171875 70.867188 7.914062 C 70.277344 7.65625 69.648438 7.527344 68.976562 7.527344 L 67.355469 7.527344 L 67.355469 17.332031 L 68.976562 17.332031 C 69.648438 17.332031 70.277344 17.207031 70.867188 16.957031 C 71.464844 16.695312 71.980469 16.347656 72.417969 15.90625 C 72.863281 15.457031 73.210938 14.9375 73.460938 14.34375 C 73.71875 13.742188 73.84375 13.105469 73.84375 12.429688 Z M 88.820312 14.070312 L 88.820312 10.796875 C 88.820312 10.351562 88.730469 9.929688 88.558594 9.53125 C 88.390625 9.128906 88.164062 8.78125 87.867188 8.484375 C 87.574219 8.1875 87.226562 7.957031 86.824219 7.789062 C 86.433594 7.613281 86.015625 7.527344 85.570312 7.527344 C 85.121094 7.527344 84.699219 7.613281 84.300781 7.789062 C 83.90625 7.957031 83.5625 8.1875 83.269531 8.484375 C 82.976562 8.78125 82.742188 9.128906 82.566406 9.53125 C 82.402344 9.929688 82.316406 10.351562 82.316406 10.796875 L 82.316406 14.070312 Z M 92.070312 20.605469 L 88.820312 20.605469 L 88.820312 17.332031 L 82.316406 17.332031 L 82.316406 20.605469 L 79.078125 20.605469 L 79.078125 10.796875 C 79.078125 9.894531 79.25 9.046875 79.589844 8.253906 C 79.929688 7.457031 80.386719 6.761719 80.96875 6.167969 C 81.558594 5.578125 82.246094 5.109375 83.03125 4.765625 C 83.824219 4.425781 84.667969 4.253906 85.570312 4.253906 C 86.46875 4.253906 87.308594 4.425781 88.09375 4.765625 C 88.886719 5.109375 89.578125 5.578125 90.167969 6.167969 C 90.757812 6.761719 91.21875 7.457031 91.558594 8.253906 C 91.898438 9.046875 92.070312 9.894531 92.070312 10.796875 Z M 92.070312 20.605469 "/>
<path style=" stroke:none;fill-rule:nonzero;fill:rgb(25.490196%,13.333333%,55.686275%);fill-opacity:1;" d="M 35.324219 20.605469 L 35.324219 21.429688 L 36.140625 21.429688 L 36.140625 20.605469 Z M 32.070312 20.605469 L 31.253906 20.605469 L 31.253906 21.429688 L 32.070312 21.429688 Z M 32.070312 4.253906 L 32.070312 3.429688 L 31.253906 3.429688 L 31.253906 4.253906 Z M 35.324219 4.253906 L 36.140625 4.253906 L 36.140625 3.429688 L 35.324219 3.429688 Z M 35.324219 12.429688 L 34.503906 12.429688 L 34.503906 14.914062 L 35.980469 12.921875 Z M 41.371094 4.253906 L 41.371094 3.429688 L 40.960938 3.429688 L 40.714844 3.761719 Z M 45.0625 4.253906 L 45.71875 4.746094 L 46.699219 3.429688 L 45.0625 3.429688 Z M 39.933594 11.152344 L 39.277344 10.65625 L 38.960938 11.082031 L 39.214844 11.546875 Z M 45.0625 20.605469 L 45.0625 21.429688 L 46.445312 21.429688 L 45.78125 20.210938 Z M 41.371094 20.605469 L 40.652344 20.996094 L 40.882812 21.429688 L 41.371094 21.429688 Z M 37.804688 13.992188 L 38.523438 13.597656 L 37.914062 12.46875 L 37.148438 13.496094 Z M 35.324219 17.332031 L 34.667969 16.839844 L 34.503906 17.058594 L 34.503906 17.332031 Z M 35.324219 19.78125 L 32.070312 19.78125 L 32.070312 21.429688 L 35.324219 21.429688 Z M 32.890625 20.605469 L 32.890625 4.253906 L 31.253906 4.253906 L 31.253906 20.605469 Z M 32.070312 5.078125 L 35.324219 5.078125 L 35.324219 3.429688 L 32.070312 3.429688 Z M 34.503906 4.253906 L 34.503906 12.429688 L 36.140625 12.429688 L 36.140625 4.253906 Z M 35.980469 12.921875 L 42.027344 4.746094 L 40.714844 3.761719 L 34.667969 11.9375 Z M 41.371094 5.078125 L 45.0625 5.078125 L 45.0625 3.429688 L 41.371094 3.429688 Z M 44.410156 3.757812 L 39.277344 10.65625 L 40.589844 11.644531 L 45.71875 4.746094 Z M 39.214844 11.546875 L 44.34375 21 L 45.78125 20.210938 L 40.652344 10.757812 Z M 45.0625 19.78125 L 41.371094 19.78125 L 41.371094 21.429688 L 45.0625 21.429688 Z M 42.089844 20.210938 L 38.523438 13.597656 L 37.085938 14.382812 L 40.652344 20.996094 Z M 37.148438 13.496094 L 34.667969 16.839844 L 35.980469 17.824219 L 38.460938 14.484375 Z M 34.503906 17.332031 L 34.503906 20.605469 L 36.140625 20.605469 L 36.140625 17.332031 Z M 61.636719 14.742188 L 60.847656 14.519531 L 60.847656 14.523438 Z M 60.796875 16.761719 L 61.503906 17.179688 L 61.503906 17.175781 Z M 57.785156 19.804688 L 58.199219 20.515625 L 58.203125 20.515625 Z M 55.777344 20.648438 L 55.5625 19.855469 L 55.554688 19.855469 Z M 51.316406 20.648438 L 51.539062 19.855469 L 51.535156 19.855469 Z M 49.3125 19.804688 L 48.890625 20.515625 L 48.898438 20.515625 L 48.902344 20.519531 Z M 46.289062 16.761719 L 45.578125 17.175781 L 45.585938 17.183594 Z M 45.4375 14.742188 L 44.648438 14.960938 L 44.648438 14.964844 L 44.652344 14.972656 Z M 45.4375 10.25 L 44.648438 10.027344 L 44.648438 10.035156 Z M 46.289062 8.234375 L 45.585938 7.808594 L 45.582031 7.8125 L 45.582031 7.816406 Z M 49.3125 5.199219 L 48.902344 4.488281 L 48.898438 4.488281 Z M 51.316406 4.355469 L 51.535156 5.152344 L 51.539062 5.148438 Z M 55.777344 4.355469 L 55.554688 5.148438 L 55.558594 5.148438 L 55.5625 5.152344 Z M 61.636719 10.25 L 60.84375 10.46875 L 60.847656 10.472656 L 60.847656 10.476562 Z M 58.304688 10.480469 L 57.550781 10.804688 L 57.554688 10.808594 Z M 57.195312 8.824219 L 56.609375 9.402344 L 56.621094 9.414062 Z M 55.550781 7.707031 L 55.226562 8.464844 L 55.230469 8.464844 Z M 49.890625 8.824219 L 50.464844 9.414062 L 50.464844 9.410156 L 50.46875 9.410156 Z M 48.777344 10.480469 L 49.53125 10.808594 L 49.53125 10.804688 Z M 48.777344 14.515625 L 48.027344 14.84375 L 48.03125 14.847656 Z M 49.890625 16.15625 L 49.308594 16.742188 Z M 55.550781 17.273438 L 55.230469 16.515625 L 55.226562 16.519531 Z M 57.195312 16.15625 L 56.617188 15.574219 L 56.613281 15.578125 L 56.609375 15.578125 Z M 58.304688 14.515625 L 59.054688 14.847656 L 59.054688 14.84375 Z M 61.121094 12.496094 C 61.121094 13.199219 61.03125 13.871094 60.847656 14.519531 L 62.421875 14.96875 C 62.648438 14.171875 62.757812 13.347656 62.757812 12.496094 Z M 60.847656 14.523438 C 60.667969 15.171875 60.414062 15.78125 60.089844 16.347656 L 61.503906 17.175781 C 61.902344 16.480469 62.210938 15.746094 62.425781 14.964844 Z M 60.089844 16.34375 C 59.761719 16.90625 59.367188 17.421875 58.902344 17.890625 L 60.0625 19.054688 C 60.625 18.488281 61.105469 17.863281 61.503906 17.179688 Z M 58.902344 17.890625 C 58.4375 18.359375 57.925781 18.761719 57.363281 19.097656 L 58.203125 20.515625 C 58.882812 20.105469 59.5 19.621094 60.0625 19.054688 Z M 57.371094 19.09375 C 56.816406 19.421875 56.214844 19.675781 55.5625 19.855469 L 55.996094 21.445312 C 56.777344 21.230469 57.515625 20.921875 58.199219 20.515625 Z M 55.554688 19.855469 C 54.914062 20.039062 54.246094 20.132812 53.546875 20.132812 L 53.546875 21.78125 C 54.390625 21.78125 55.210938 21.667969 56.003906 21.441406 Z M 53.546875 20.132812 C 52.851562 20.132812 52.183594 20.039062 51.539062 19.855469 L 51.09375 21.441406 C 51.886719 21.667969 52.703125 21.78125 53.546875 21.78125 Z M 51.535156 19.855469 C 50.890625 19.675781 50.285156 19.421875 49.722656 19.09375 L 48.902344 20.519531 C 49.589844 20.921875 50.324219 21.226562 51.097656 21.445312 Z M 49.730469 19.097656 C 49.171875 18.761719 48.65625 18.359375 48.191406 17.890625 L 47.035156 19.054688 C 47.59375 19.621094 48.214844 20.105469 48.890625 20.515625 Z M 48.191406 17.890625 C 47.726562 17.421875 47.324219 16.902344 46.988281 16.339844 L 45.585938 17.183594 C 45.988281 17.867188 46.472656 18.492188 47.035156 19.054688 Z M 46.996094 16.347656 C 46.667969 15.777344 46.410156 15.167969 46.226562 14.515625 L 44.652344 14.972656 C 44.871094 15.75 45.183594 16.484375 45.578125 17.175781 Z M 46.226562 14.527344 C 46.050781 13.878906 45.960938 13.203125 45.960938 12.496094 L 44.324219 12.496094 C 44.324219 13.34375 44.433594 14.164062 44.648438 14.960938 Z M 45.960938 12.496094 C 45.960938 11.792969 46.050781 11.117188 46.226562 10.46875 L 44.648438 10.035156 C 44.433594 10.828125 44.324219 11.652344 44.324219 12.496094 Z M 46.226562 10.476562 C 46.410156 9.820312 46.667969 9.210938 46.992188 8.648438 L 45.582031 7.816406 C 45.183594 8.503906 44.871094 9.238281 44.648438 10.027344 Z M 46.988281 8.65625 C 47.324219 8.089844 47.726562 7.574219 48.191406 7.105469 L 47.035156 5.941406 C 46.472656 6.503906 45.988281 7.128906 45.585938 7.808594 Z M 48.191406 7.105469 C 48.65625 6.636719 49.167969 6.238281 49.726562 5.910156 L 48.898438 4.488281 C 48.21875 4.890625 47.597656 5.375 47.035156 5.941406 Z M 49.722656 5.914062 C 50.285156 5.585938 50.890625 5.328125 51.535156 5.152344 L 51.097656 3.5625 C 50.324219 3.777344 49.589844 4.085938 48.902344 4.488281 Z M 51.539062 5.148438 C 52.183594 4.964844 52.851562 4.871094 53.546875 4.871094 L 53.546875 3.222656 C 52.703125 3.222656 51.886719 3.335938 51.09375 3.5625 Z M 53.546875 4.871094 C 54.246094 4.871094 54.914062 4.964844 55.554688 5.148438 L 56.003906 3.5625 C 55.210938 3.335938 54.390625 3.222656 53.546875 3.222656 Z M 55.5625 5.152344 C 56.214844 5.332031 56.816406 5.585938 57.371094 5.910156 L 58.199219 4.488281 C 57.515625 4.085938 56.777344 3.777344 55.996094 3.5625 Z M 57.371094 5.910156 C 57.929688 6.238281 58.441406 6.636719 58.902344 7.105469 L 60.0625 5.941406 C 59.5 5.375 58.878906 4.890625 58.199219 4.488281 Z M 58.902344 7.105469 C 59.367188 7.574219 59.761719 8.085938 60.089844 8.648438 L 61.503906 7.816406 C 61.105469 7.132812 60.625 6.507812 60.0625 5.941406 Z M 60.089844 8.648438 C 60.414062 9.207031 60.667969 9.8125 60.84375 10.46875 L 62.425781 10.035156 C 62.210938 9.246094 61.902344 8.503906 61.503906 7.816406 Z M 60.847656 10.476562 C 61.03125 11.121094 61.121094 11.796875 61.121094 12.496094 L 62.757812 12.496094 C 62.757812 11.648438 62.648438 10.824219 62.421875 10.027344 Z M 59.53125 12.496094 C 59.53125 11.675781 59.375 10.890625 59.054688 10.152344 L 57.554688 10.808594 C 57.78125 11.332031 57.894531 11.890625 57.894531 12.496094 Z M 59.058594 10.15625 C 58.746094 9.421875 58.316406 8.78125 57.769531 8.238281 L 56.621094 9.414062 C 57.007812 9.796875 57.320312 10.257812 57.550781 10.804688 Z M 57.777344 8.246094 C 57.238281 7.695312 56.601562 7.265625 55.875 6.949219 L 55.230469 8.464844 C 55.773438 8.699219 56.230469 9.011719 56.609375 9.402344 Z M 55.878906 6.953125 C 55.144531 6.632812 54.367188 6.472656 53.546875 6.472656 L 53.546875 8.121094 C 54.148438 8.121094 54.707031 8.238281 55.226562 8.464844 Z M 53.546875 6.472656 C 52.722656 6.472656 51.941406 6.632812 51.207031 6.953125 L 51.855469 8.464844 C 52.375 8.238281 52.9375 8.121094 53.546875 8.121094 Z M 51.207031 6.953125 C 50.488281 7.265625 49.855469 7.695312 49.308594 8.242188 L 50.46875 9.410156 C 50.859375 9.011719 51.320312 8.699219 51.855469 8.464844 Z M 49.316406 8.238281 C 48.765625 8.78125 48.339844 9.421875 48.027344 10.15625 L 49.53125 10.804688 C 49.765625 10.257812 50.074219 9.796875 50.464844 9.414062 Z M 48.027344 10.152344 C 47.710938 10.890625 47.550781 11.675781 47.550781 12.496094 L 49.191406 12.496094 C 49.191406 11.890625 49.304688 11.332031 49.53125 10.808594 Z M 47.550781 12.496094 C 47.550781 13.320312 47.710938 14.105469 48.027344 14.84375 L 49.53125 14.1875 C 49.304688 13.664062 49.191406 13.105469 49.191406 12.496094 Z M 48.03125 14.847656 C 48.339844 15.5625 48.769531 16.195312 49.308594 16.742188 L 50.46875 15.574219 C 50.074219 15.175781 49.761719 14.714844 49.527344 14.183594 Z M 49.308594 16.742188 C 49.855469 17.289062 50.488281 17.71875 51.207031 18.03125 L 51.855469 16.519531 C 51.320312 16.285156 50.859375 15.96875 50.46875 15.574219 Z M 51.207031 18.03125 C 51.941406 18.351562 52.722656 18.507812 53.546875 18.507812 L 53.546875 16.859375 C 52.9375 16.859375 52.375 16.746094 51.855469 16.519531 Z M 53.546875 18.507812 C 54.367188 18.507812 55.144531 18.351562 55.878906 18.03125 L 55.226562 16.519531 C 54.707031 16.746094 54.148438 16.859375 53.546875 16.859375 Z M 55.875 18.03125 C 56.601562 17.71875 57.238281 17.285156 57.777344 16.734375 L 56.609375 15.578125 C 56.230469 15.96875 55.773438 16.285156 55.230469 16.515625 Z M 57.773438 16.742188 C 58.316406 16.195312 58.742188 15.5625 59.054688 14.847656 L 57.554688 14.183594 C 57.324219 14.714844 57.011719 15.175781 56.617188 15.574219 Z M 59.054688 14.84375 C 59.375 14.105469 59.53125 13.320312 59.53125 12.496094 L 57.894531 12.496094 C 57.894531 13.105469 57.78125 13.664062 57.554688 14.1875 Z M 76.800781 14.605469 L 76.015625 14.382812 L 76.011719 14.386719 Z M 75.984375 16.554688 L 76.691406 16.976562 L 76.691406 16.972656 Z M 74.71875 18.210938 L 75.296875 18.792969 L 75.296875 18.789062 L 75.300781 18.789062 Z M 71.125 20.320312 L 71.34375 21.113281 L 71.347656 21.113281 Z M 64.082031 20.605469 L 63.261719 20.605469 L 63.261719 21.429688 L 64.082031 21.429688 Z M 64.082031 4.253906 L 64.082031 3.429688 L 63.261719 3.429688 L 63.261719 4.253906 Z M 71.125 4.550781 L 70.902344 5.34375 L 70.914062 5.34375 Z M 74.71875 6.660156 L 74.132812 7.238281 L 74.136719 7.238281 L 74.136719 7.242188 Z M 75.984375 8.3125 L 75.28125 8.730469 L 75.28125 8.734375 Z M 76.800781 10.261719 L 76.011719 10.480469 L 76.011719 10.484375 L 76.015625 10.488281 Z M 73.460938 10.523438 L 72.707031 10.847656 L 72.707031 10.851562 L 72.710938 10.855469 Z M 72.417969 8.972656 L 71.835938 9.550781 L 71.839844 9.558594 L 71.84375 9.5625 Z M 70.867188 7.914062 L 70.539062 8.667969 L 70.542969 8.671875 Z M 67.355469 7.527344 L 67.355469 6.703125 L 66.535156 6.703125 L 66.535156 7.527344 Z M 67.355469 17.332031 L 66.535156 17.332031 L 66.535156 18.15625 L 67.355469 18.15625 Z M 70.867188 16.957031 L 71.183594 17.714844 L 71.1875 17.714844 L 71.191406 17.710938 Z M 72.417969 15.90625 L 71.839844 15.324219 Z M 73.460938 14.34375 L 72.707031 14.019531 L 72.707031 14.023438 Z M 76.277344 12.429688 C 76.277344 13.109375 76.1875 13.757812 76.015625 14.382812 L 77.589844 14.832031 C 77.808594 14.054688 77.914062 13.253906 77.914062 12.429688 Z M 76.011719 14.386719 C 75.84375 15.011719 75.597656 15.59375 75.28125 16.140625 L 76.691406 16.972656 C 77.082031 16.300781 77.382812 15.585938 77.589844 14.824219 Z M 75.28125 16.136719 C 74.960938 16.679688 74.578125 17.175781 74.132812 17.632812 L 75.300781 18.789062 C 75.835938 18.238281 76.300781 17.636719 76.691406 16.976562 Z M 74.136719 17.628906 C 73.699219 18.070312 73.207031 18.453125 72.660156 18.777344 L 73.488281 20.199219 C 74.152344 19.804688 74.757812 19.335938 75.296875 18.792969 Z M 72.660156 18.777344 C 72.117188 19.097656 71.535156 19.347656 70.90625 19.527344 L 71.347656 21.113281 C 72.109375 20.894531 72.824219 20.589844 73.488281 20.199219 Z M 70.910156 19.523438 C 70.296875 19.695312 69.652344 19.78125 68.976562 19.78125 L 68.976562 21.429688 C 69.792969 21.429688 70.582031 21.324219 71.34375 21.113281 Z M 68.976562 19.78125 L 64.082031 19.78125 L 64.082031 21.429688 L 68.976562 21.429688 Z M 64.898438 20.605469 L 64.898438 4.253906 L 63.261719 4.253906 L 63.261719 20.605469 Z M 64.082031 5.078125 L 68.976562 5.078125 L 68.976562 3.429688 L 64.082031 3.429688 Z M 68.976562 5.078125 C 69.648438 5.078125 70.292969 5.167969 70.902344 5.34375 L 71.351562 3.757812 C 70.589844 3.539062 69.796875 3.429688 68.976562 3.429688 Z M 70.914062 5.34375 C 71.539062 5.515625 72.121094 5.761719 72.660156 6.082031 L 73.488281 4.660156 C 72.820312 4.265625 72.105469 3.964844 71.339844 3.753906 Z M 72.660156 6.082031 C 73.203125 6.402344 73.695312 6.789062 74.132812 7.238281 L 75.300781 6.082031 C 74.757812 5.527344 74.15625 5.054688 73.488281 4.660156 Z M 74.136719 7.242188 C 74.578125 7.6875 74.960938 8.183594 75.28125 8.730469 L 76.691406 7.894531 C 76.300781 7.226562 75.835938 6.621094 75.296875 6.078125 Z M 75.28125 8.734375 C 75.597656 9.269531 75.839844 9.847656 76.011719 10.480469 L 77.589844 10.046875 C 77.382812 9.277344 77.082031 8.558594 76.691406 7.890625 Z M 76.015625 10.488281 C 76.1875 11.105469 76.277344 11.75 76.277344 12.429688 L 77.914062 12.429688 C 77.914062 11.601562 77.808594 10.804688 77.589844 10.035156 Z M 74.664062 12.429688 C 74.664062 11.644531 74.515625 10.898438 74.210938 10.195312 L 72.710938 10.855469 C 72.917969 11.339844 73.027344 11.859375 73.027344 12.429688 Z M 74.214844 10.203125 C 73.925781 9.511719 73.515625 8.90625 72.992188 8.386719 L 71.84375 9.5625 C 72.210938 9.925781 72.496094 10.351562 72.707031 10.847656 Z M 73 8.394531 C 72.488281 7.867188 71.878906 7.457031 71.191406 7.15625 L 70.542969 8.671875 C 71.046875 8.890625 71.472656 9.183594 71.835938 9.550781 Z M 71.195312 7.160156 C 70.496094 6.851562 69.753906 6.703125 68.976562 6.703125 L 68.976562 8.351562 C 69.539062 8.351562 70.058594 8.457031 70.539062 8.667969 Z M 68.976562 6.703125 L 67.355469 6.703125 L 67.355469 8.351562 L 68.976562 8.351562 Z M 66.535156 7.527344 L 66.535156 17.332031 L 68.175781 17.332031 L 68.175781 7.527344 Z M 67.355469 18.15625 L 68.976562 18.15625 L 68.976562 16.507812 L 67.355469 16.507812 Z M 68.976562 18.15625 C 69.75 18.15625 70.492188 18.011719 71.183594 17.714844 L 70.546875 16.195312 C 70.0625 16.402344 69.542969 16.507812 68.976562 16.507812 Z M 71.191406 17.710938 C 71.878906 17.414062 72.480469 17.007812 72.996094 16.488281 L 71.839844 15.324219 C 71.476562 15.6875 71.046875 15.980469 70.542969 16.199219 Z M 72.996094 16.488281 C 73.519531 15.964844 73.925781 15.355469 74.214844 14.664062 L 72.707031 14.023438 C 72.496094 14.519531 72.210938 14.953125 71.839844 15.324219 Z M 74.210938 14.671875 C 74.515625 13.964844 74.664062 13.214844 74.664062 12.429688 L 73.027344 12.429688 C 73.027344 12.996094 72.917969 13.523438 72.707031 14.019531 Z M 88.820312 14.070312 L 88.820312 14.894531 L 89.636719 14.894531 L 89.636719 14.070312 Z M 88.558594 9.53125 L 87.800781 9.847656 L 87.804688 9.859375 L 87.808594 9.867188 Z M 86.824219 7.789062 L 86.496094 8.542969 L 86.511719 8.550781 Z M 84.300781 7.789062 L 84.617188 8.546875 L 84.621094 8.546875 L 84.625 8.542969 Z M 82.566406 9.53125 L 81.816406 9.203125 L 81.8125 9.207031 L 81.8125 9.210938 Z M 82.316406 14.070312 L 81.5 14.070312 L 81.5 14.894531 L 82.316406 14.894531 Z M 92.070312 20.605469 L 92.070312 21.429688 L 92.890625 21.429688 L 92.890625 20.605469 Z M 88.820312 20.605469 L 88 20.605469 L 88 21.429688 L 88.820312 21.429688 Z M 88.820312 17.332031 L 89.636719 17.332031 L 89.636719 16.507812 L 88.820312 16.507812 Z M 82.316406 17.332031 L 82.316406 16.507812 L 81.5 16.507812 L 81.5 17.332031 Z M 82.316406 20.605469 L 82.316406 21.429688 L 83.136719 21.429688 L 83.136719 20.605469 Z M 79.078125 20.605469 L 78.257812 20.605469 L 78.257812 21.429688 L 79.078125 21.429688 Z M 79.589844 8.253906 L 80.339844 8.582031 Z M 80.96875 6.167969 L 80.390625 5.585938 L 80.390625 5.589844 L 80.386719 5.589844 Z M 83.03125 4.765625 L 82.707031 4.007812 L 82.707031 4.011719 Z M 88.09375 4.765625 L 87.769531 5.523438 L 87.773438 5.523438 Z M 91.558594 8.253906 L 90.808594 8.582031 Z M 89.636719 14.070312 L 89.636719 10.796875 L 88 10.796875 L 88 14.070312 Z M 89.636719 10.796875 C 89.636719 10.238281 89.527344 9.703125 89.308594 9.199219 L 87.808594 9.867188 C 87.9375 10.152344 88 10.460938 88 10.796875 Z M 89.316406 9.21875 C 89.109375 8.71875 88.820312 8.277344 88.445312 7.902344 L 87.289062 9.066406 C 87.503906 9.285156 87.675781 9.542969 87.800781 9.847656 Z M 88.445312 7.902344 C 88.074219 7.523438 87.636719 7.234375 87.140625 7.027344 L 86.511719 8.550781 C 86.816406 8.675781 87.074219 8.851562 87.289062 9.066406 Z M 87.15625 7.035156 C 86.65625 6.8125 86.125 6.703125 85.570312 6.703125 L 85.570312 8.351562 C 85.90625 8.351562 86.210938 8.414062 86.496094 8.542969 Z M 85.570312 6.703125 C 85.011719 6.703125 84.480469 6.8125 83.972656 7.03125 L 84.625 8.542969 C 84.921875 8.414062 85.234375 8.351562 85.570312 8.351562 Z M 83.980469 7.03125 C 83.492188 7.238281 83.0625 7.527344 82.691406 7.902344 L 83.847656 9.066406 C 84.066406 8.847656 84.320312 8.675781 84.617188 8.546875 Z M 82.691406 7.902344 C 82.320312 8.273438 82.027344 8.710938 81.816406 9.203125 L 83.316406 9.859375 C 83.453125 9.546875 83.628906 9.285156 83.847656 9.066406 Z M 81.8125 9.210938 C 81.601562 9.714844 81.5 10.246094 81.5 10.796875 L 83.136719 10.796875 C 83.136719 10.457031 83.199219 10.144531 83.320312 9.855469 Z M 81.5 10.796875 L 81.5 14.070312 L 83.136719 14.070312 L 83.136719 10.796875 Z M 82.316406 14.894531 L 88.820312 14.894531 L 88.820312 13.246094 L 82.316406 13.246094 Z M 92.070312 19.78125 L 88.820312 19.78125 L 88.820312 21.429688 L 92.070312 21.429688 Z M 89.636719 20.605469 L 89.636719 17.332031 L 88 17.332031 L 88 20.605469 Z M 88.820312 16.507812 L 82.316406 16.507812 L 82.316406 18.15625 L 88.820312 18.15625 Z M 81.5 17.332031 L 81.5 20.605469 L 83.136719 20.605469 L 83.136719 17.332031 Z M 82.316406 19.78125 L 79.078125 19.78125 L 79.078125 21.429688 L 82.316406 21.429688 Z M 79.898438 20.605469 L 79.898438 10.796875 L 78.257812 10.796875 L 78.257812 20.605469 Z M 79.898438 10.796875 C 79.898438 10 80.046875 9.265625 80.339844 8.582031 L 78.835938 7.929688 C 78.449219 8.828125 78.257812 9.789062 78.257812 10.796875 Z M 80.339844 8.582031 C 80.640625 7.871094 81.046875 7.265625 81.550781 6.75 L 80.386719 5.589844 C 79.730469 6.257812 79.214844 7.042969 78.835938 7.929688 Z M 81.550781 6.753906 C 82.0625 6.234375 82.664062 5.824219 83.355469 5.523438 L 82.707031 4.011719 C 81.828125 4.390625 81.054688 4.917969 80.390625 5.585938 Z M 83.355469 5.523438 C 84.039062 5.226562 84.777344 5.078125 85.570312 5.078125 L 85.570312 3.429688 C 84.5625 3.429688 83.609375 3.621094 82.707031 4.007812 Z M 85.570312 5.078125 C 86.359375 5.078125 87.089844 5.226562 87.769531 5.523438 L 88.417969 4.011719 C 87.527344 3.621094 86.574219 3.429688 85.570312 3.429688 Z M 87.773438 5.523438 C 88.472656 5.828125 89.074219 6.234375 89.589844 6.753906 L 90.746094 5.585938 C 90.082031 4.917969 89.300781 4.390625 88.417969 4.007812 Z M 89.589844 6.753906 C 90.101562 7.269531 90.507812 7.875 90.808594 8.582031 L 92.3125 7.929688 C 91.933594 7.039062 91.410156 6.257812 90.746094 5.585938 Z M 90.808594 8.582031 C 91.101562 9.265625 91.25 10 91.25 10.796875 L 92.890625 10.796875 C 92.890625 9.789062 92.699219 8.828125 92.3125 7.929688 Z M 91.25 10.796875 L 91.25 20.605469 L 92.890625 20.605469 L 92.890625 10.796875 Z M 107.8125 18.949219 L 108.34375 19.578125 L 108.632812 19.332031 L 108.632812 18.949219 Z M 105.289062 20.445312 L 105.570312 21.21875 L 105.574219 21.21875 L 105.574219 21.214844 Z M 100.15625 20.648438 L 100.382812 19.855469 L 100.375 19.855469 Z M 98.164062 19.804688 L 97.742188 20.515625 L 97.75 20.515625 Z M 96.464844 18.484375 L 95.886719 19.066406 L 95.886719 19.070312 L 95.890625 19.070312 Z M 95.152344 16.773438 L 94.441406 17.1875 L 94.445312 17.191406 Z M 94.300781 14.742188 L 93.511719 14.960938 L 93.511719 14.964844 L 93.515625 14.96875 Z M 94.300781 10.261719 L 93.515625 10.035156 L 93.511719 10.039062 L 93.511719 10.042969 Z M 95.152344 8.253906 L 95.859375 8.671875 L 95.859375 8.667969 Z M 96.464844 6.546875 L 97.039062 7.132812 L 97.042969 7.128906 Z M 98.164062 5.222656 L 97.75 4.511719 Z M 100.15625 4.378906 L 100.375 5.171875 L 100.382812 5.171875 Z M 105.289062 4.597656 L 105 5.367188 L 105.003906 5.367188 L 105.007812 5.371094 Z M 107.8125 6.078125 L 108.515625 6.503906 L 108.875 5.902344 L 108.34375 5.449219 Z M 106.113281 8.929688 L 105.53125 9.507812 L 106.273438 10.265625 L 106.816406 9.351562 Z M 104.417969 7.753906 L 104.082031 8.507812 L 104.085938 8.507812 L 104.089844 8.511719 Z M 100.382812 7.730469 L 100.058594 6.976562 L 100.054688 6.976562 Z M 98.753906 8.847656 L 99.328125 9.4375 L 99.328125 9.433594 L 99.332031 9.429688 Z M 97.644531 10.492188 L 98.390625 10.820312 L 98.394531 10.820312 Z M 97.644531 14.527344 L 96.890625 14.855469 Z M 98.753906 16.179688 L 98.175781 16.761719 Z M 100.382812 17.296875 L 100.054688 18.050781 L 100.058594 18.054688 Z M 104.675781 17.148438 L 105.042969 17.886719 L 105.496094 17.660156 L 105.496094 17.148438 Z M 104.675781 12.496094 L 104.675781 11.671875 L 103.859375 11.671875 L 103.859375 12.496094 Z M 107.8125 12.496094 L 108.632812 12.496094 L 108.632812 11.671875 L 107.8125 11.671875 Z M 107.285156 18.324219 C 106.601562 18.90625 105.839844 19.355469 105 19.671875 L 105.574219 21.214844 C 106.59375 20.832031 107.515625 20.285156 108.34375 19.578125 Z M 105.007812 19.671875 C 104.171875 19.980469 103.296875 20.132812 102.386719 20.132812 L 102.386719 21.78125 C 103.488281 21.78125 104.550781 21.59375 105.570312 21.21875 Z M 102.386719 20.132812 C 101.691406 20.132812 101.023438 20.039062 100.382812 19.855469 L 99.933594 21.441406 C 100.726562 21.667969 101.546875 21.78125 102.386719 21.78125 Z M 100.375 19.855469 C 99.734375 19.675781 99.132812 19.421875 98.578125 19.09375 L 97.75 20.515625 C 98.433594 20.917969 99.164062 21.226562 99.9375 21.445312 Z M 98.582031 19.097656 C 98.019531 18.761719 97.507812 18.359375 97.039062 17.898438 L 95.890625 19.070312 C 96.449219 19.625 97.070312 20.109375 97.742188 20.515625 Z M 97.042969 17.902344 C 96.578125 17.433594 96.183594 16.917969 95.859375 16.355469 L 94.445312 17.191406 C 94.84375 17.875 95.324219 18.5 95.886719 19.066406 Z M 95.859375 16.359375 C 95.53125 15.789062 95.273438 15.175781 95.089844 14.519531 L 93.515625 14.96875 C 93.734375 15.753906 94.042969 16.496094 94.441406 17.1875 Z M 95.089844 14.527344 C 94.914062 13.878906 94.824219 13.203125 94.824219 12.496094 L 93.1875 12.496094 C 93.1875 13.34375 93.296875 14.164062 93.511719 14.960938 Z M 94.824219 12.496094 C 94.824219 11.792969 94.914062 11.121094 95.089844 10.480469 L 93.511719 10.042969 C 93.296875 10.832031 93.1875 11.652344 93.1875 12.496094 Z M 95.089844 10.488281 C 95.273438 9.839844 95.53125 9.234375 95.859375 8.671875 L 94.445312 7.839844 C 94.046875 8.523438 93.738281 9.257812 93.515625 10.035156 Z M 95.859375 8.667969 C 96.183594 8.101562 96.578125 7.589844 97.039062 7.132812 L 95.890625 5.957031 C 95.324219 6.519531 94.839844 7.148438 94.441406 7.84375 Z M 97.042969 7.128906 C 97.507812 6.660156 98.019531 6.261719 98.578125 5.933594 L 97.75 4.511719 C 97.070312 4.914062 96.449219 5.398438 95.886719 5.960938 Z M 98.578125 5.933594 C 99.132812 5.605469 99.734375 5.351562 100.375 5.171875 L 99.9375 3.585938 C 99.164062 3.800781 98.433594 4.109375 97.75 4.511719 Z M 100.382812 5.171875 C 101.023438 4.988281 101.691406 4.894531 102.386719 4.894531 L 102.386719 3.246094 C 101.546875 3.246094 100.726562 3.359375 99.933594 3.585938 Z M 102.386719 4.894531 C 103.296875 4.894531 104.164062 5.054688 105 5.367188 L 105.574219 3.824219 C 104.554688 3.4375 103.488281 3.246094 102.386719 3.246094 Z M 105.007812 5.371094 C 105.84375 5.679688 106.601562 6.121094 107.285156 6.707031 L 108.34375 5.449219 C 107.515625 4.742188 106.589844 4.199219 105.570312 3.820312 Z M 107.113281 5.652344 L 105.414062 8.503906 L 106.816406 9.351562 L 108.515625 6.503906 Z M 106.699219 8.351562 C 106.132812 7.773438 105.480469 7.320312 104.742188 7 L 104.089844 8.511719 C 104.636719 8.75 105.113281 9.082031 105.53125 9.507812 Z M 104.75 7 C 104.003906 6.664062 103.210938 6.496094 102.386719 6.496094 L 102.386719 8.144531 C 102.984375 8.144531 103.546875 8.265625 104.082031 8.507812 Z M 102.386719 6.496094 C 101.570312 6.496094 100.792969 6.65625 100.058594 6.976562 L 100.710938 8.488281 C 101.230469 8.261719 101.785156 8.144531 102.386719 8.144531 Z M 100.054688 6.976562 C 99.34375 7.289062 98.714844 7.722656 98.175781 8.265625 L 99.332031 9.429688 C 99.726562 9.035156 100.183594 8.71875 100.714844 8.484375 Z M 98.179688 8.261719 C 97.632812 8.800781 97.203125 9.4375 96.890625 10.164062 L 98.394531 10.820312 C 98.625 10.28125 98.9375 9.824219 99.328125 9.4375 Z M 96.894531 10.160156 C 96.574219 10.890625 96.417969 11.675781 96.417969 12.496094 L 98.054688 12.496094 C 98.054688 11.890625 98.167969 11.335938 98.390625 10.820312 Z M 96.417969 12.496094 C 96.417969 13.328125 96.574219 14.117188 96.890625 14.855469 L 98.394531 14.199219 C 98.167969 13.675781 98.054688 13.113281 98.054688 12.496094 Z M 96.890625 14.855469 C 97.203125 15.578125 97.628906 16.214844 98.175781 16.761719 L 99.332031 15.597656 C 98.9375 15.203125 98.625 14.738281 98.394531 14.199219 Z M 98.175781 16.761719 C 98.714844 17.308594 99.34375 17.738281 100.054688 18.050781 L 100.714844 16.542969 C 100.183594 16.308594 99.726562 15.996094 99.332031 15.597656 Z M 100.058594 18.054688 C 100.792969 18.375 101.570312 18.53125 102.386719 18.53125 L 102.386719 16.882812 C 101.785156 16.882812 101.230469 16.769531 100.710938 16.542969 Z M 102.386719 18.53125 C 102.863281 18.53125 103.328125 18.476562 103.78125 18.359375 L 103.375 16.761719 C 103.058594 16.84375 102.730469 16.882812 102.386719 16.882812 Z M 103.78125 18.359375 C 104.222656 18.246094 104.640625 18.089844 105.042969 17.886719 L 104.308594 16.414062 C 104.015625 16.558594 103.707031 16.675781 103.375 16.761719 Z M 105.496094 17.148438 L 105.496094 12.496094 L 103.859375 12.496094 L 103.859375 17.148438 Z M 104.675781 13.320312 L 107.8125 13.320312 L 107.8125 11.671875 L 104.675781 11.671875 Z M 106.996094 12.496094 L 106.996094 18.949219 L 108.632812 18.949219 L 108.632812 12.496094 Z M 113.570312 7.527344 L 113.570312 6.703125 L 112.75 6.703125 L 112.75 7.527344 Z M 113.570312 14.070312 L 112.75 14.070312 L 112.75 14.894531 L 113.570312 14.894531 Z M 118.078125 13.820312 L 118.394531 14.578125 L 118.402344 14.578125 L 118.40625 14.574219 Z M 119.796875 12.074219 L 119.046875 11.746094 L 119.046875 11.75 L 119.042969 11.753906 Z M 119.796875 9.53125 L 119.042969 9.847656 L 119.046875 9.859375 L 119.050781 9.867188 Z M 118.078125 7.789062 L 117.746094 8.542969 L 117.75 8.542969 L 117.757812 8.546875 Z M 113.570312 20.605469 L 113.570312 21.429688 L 114.386719 21.429688 L 114.386719 20.605469 Z M 110.316406 20.605469 L 109.5 20.605469 L 109.5 21.429688 L 110.316406 21.429688 Z M 110.316406 4.253906 L 110.316406 3.429688 L 109.5 3.429688 L 109.5 4.253906 Z M 118.539062 4.492188 L 118.3125 5.285156 L 118.320312 5.285156 L 118.324219 5.289062 Z M 120.082031 5.15625 L 119.660156 5.859375 L 119.664062 5.863281 L 119.671875 5.867188 Z M 121.394531 6.179688 L 120.808594 6.757812 L 120.816406 6.761719 L 120.820312 6.769531 Z M 122.414062 7.503906 L 121.707031 7.914062 L 121.707031 7.921875 L 121.710938 7.925781 Z M 123.070312 9.066406 L 122.28125 9.28125 L 122.28125 9.289062 L 122.285156 9.292969 Z M 122.800781 13.339844 L 123.550781 13.667969 L 123.550781 13.664062 Z M 119.332031 16.820312 L 119.011719 16.0625 L 119.007812 16.0625 Z M 113.570312 17.332031 L 113.570312 16.507812 L 112.75 16.507812 L 112.75 17.332031 Z M 112.75 7.527344 L 112.75 14.070312 L 114.386719 14.070312 L 114.386719 7.527344 Z M 113.570312 14.894531 L 116.820312 14.894531 L 116.820312 13.246094 L 113.570312 13.246094 Z M 116.820312 14.894531 C 117.371094 14.894531 117.898438 14.792969 118.394531 14.578125 L 117.757812 13.0625 C 117.46875 13.183594 117.160156 13.246094 116.820312 13.246094 Z M 118.40625 14.574219 C 118.890625 14.359375 119.316406 14.066406 119.6875 13.695312 L 118.527344 12.53125 C 118.308594 12.753906 118.046875 12.929688 117.746094 13.066406 Z M 119.6875 13.695312 C 120.058594 13.324219 120.347656 12.886719 120.550781 12.398438 L 119.042969 11.753906 C 118.917969 12.054688 118.746094 12.3125 118.527344 12.53125 Z M 120.550781 12.402344 C 120.769531 11.894531 120.878906 11.359375 120.878906 10.796875 L 119.238281 10.796875 C 119.238281 11.136719 119.175781 11.449219 119.046875 11.746094 Z M 120.878906 10.796875 C 120.878906 10.238281 120.769531 9.703125 120.546875 9.199219 L 119.050781 9.867188 C 119.175781 10.152344 119.238281 10.460938 119.238281 10.796875 Z M 120.554688 9.21875 C 120.347656 8.71875 120.058594 8.277344 119.6875 7.902344 L 118.527344 9.066406 C 118.742188 9.285156 118.914062 9.542969 119.042969 9.847656 Z M 119.6875 7.902344 C 119.316406 7.527344 118.882812 7.238281 118.394531 7.03125 L 117.757812 8.546875 C 118.054688 8.675781 118.308594 8.847656 118.527344 9.066406 Z M 118.40625 7.035156 C 117.90625 6.8125 117.375 6.703125 116.820312 6.703125 L 116.820312 8.351562 C 117.15625 8.351562 117.460938 8.414062 117.746094 8.542969 Z M 116.820312 6.703125 L 113.570312 6.703125 L 113.570312 8.351562 L 116.820312 8.351562 Z M 113.570312 19.78125 L 110.316406 19.78125 L 110.316406 21.429688 L 113.570312 21.429688 Z M 111.136719 20.605469 L 111.136719 4.253906 L 109.5 4.253906 L 109.5 20.605469 Z M 110.316406 5.078125 L 116.820312 5.078125 L 116.820312 3.429688 L 110.316406 3.429688 Z M 116.820312 5.078125 C 117.34375 5.078125 117.839844 5.148438 118.3125 5.285156 L 118.765625 3.699219 C 118.140625 3.519531 117.488281 3.429688 116.820312 3.429688 Z M 118.324219 5.289062 C 118.804688 5.421875 119.25 5.613281 119.660156 5.859375 L 120.503906 4.449219 C 119.960938 4.121094 119.378906 3.871094 118.757812 3.699219 Z M 119.671875 5.867188 C 120.089844 6.113281 120.46875 6.40625 120.808594 6.757812 L 121.980469 5.601562 C 121.535156 5.148438 121.039062 4.757812 120.492188 4.441406 Z M 120.820312 6.769531 C 121.167969 7.113281 121.464844 7.492188 121.707031 7.914062 L 123.125 7.089844 C 122.804688 6.539062 122.421875 6.039062 121.96875 5.59375 Z M 121.710938 7.925781 C 121.960938 8.347656 122.148438 8.796875 122.28125 9.28125 L 123.859375 8.847656 C 123.691406 8.222656 123.445312 7.632812 123.117188 7.082031 Z M 122.285156 9.292969 C 122.421875 9.769531 122.492188 10.273438 122.492188 10.796875 L 124.128906 10.796875 C 124.128906 10.125 124.039062 9.46875 123.859375 8.835938 Z M 122.492188 10.796875 C 122.492188 11.585938 122.34375 12.324219 122.046875 13.015625 L 123.550781 13.664062 C 123.9375 12.761719 124.128906 11.804688 124.128906 10.796875 Z M 122.046875 13.015625 C 121.75 13.710938 121.339844 14.316406 120.828125 14.832031 L 121.984375 16 C 122.648438 15.332031 123.171875 14.550781 123.550781 13.667969 Z M 120.828125 14.832031 C 120.316406 15.351562 119.710938 15.757812 119.011719 16.0625 L 119.65625 17.578125 C 120.542969 17.195312 121.320312 16.667969 121.984375 16 Z M 119.007812 16.0625 C 118.328125 16.359375 117.601562 16.507812 116.820312 16.507812 L 116.820312 18.15625 C 117.816406 18.15625 118.765625 17.964844 119.660156 17.574219 Z M 116.820312 16.507812 L 113.570312 16.507812 L 113.570312 18.15625 L 116.820312 18.15625 Z M 112.75 17.332031 L 112.75 20.605469 L 114.386719 20.605469 L 114.386719 17.332031 Z M 131.90625 20.605469 L 131.90625 21.429688 L 132.726562 21.429688 L 132.726562 20.605469 Z M 128.667969 20.605469 L 127.847656 20.605469 L 127.847656 21.429688 L 128.667969 21.429688 Z M 128.667969 7.527344 L 129.484375 7.527344 L 129.484375 6.703125 L 128.667969 6.703125 Z M 123.785156 7.527344 L 122.964844 7.527344 L 122.964844 8.351562 L 123.785156 8.351562 Z M 123.785156 4.253906 L 123.785156 3.429688 L 122.964844 3.429688 L 122.964844 4.253906 Z M 136.777344 4.253906 L 137.59375 4.253906 L 137.59375 3.429688 L 136.777344 3.429688 Z M 136.777344 7.527344 L 136.777344 8.351562 L 137.59375 8.351562 L 137.59375 7.527344 Z M 131.90625 7.527344 L 131.90625 6.703125 L 131.085938 6.703125 L 131.085938 7.527344 Z M 131.90625 19.78125 L 128.667969 19.78125 L 128.667969 21.429688 L 131.90625 21.429688 Z M 129.484375 20.605469 L 129.484375 7.527344 L 127.847656 7.527344 L 127.847656 20.605469 Z M 128.667969 6.703125 L 123.785156 6.703125 L 123.785156 8.351562 L 128.667969 8.351562 Z M 124.605469 7.527344 L 124.605469 4.253906 L 122.964844 4.253906 L 122.964844 7.527344 Z M 123.785156 5.078125 L 136.777344 5.078125 L 136.777344 3.429688 L 123.785156 3.429688 Z M 135.957031 4.253906 L 135.957031 7.527344 L 137.59375 7.527344 L 137.59375 4.253906 Z M 136.777344 6.703125 L 131.90625 6.703125 L 131.90625 8.351562 L 136.777344 8.351562 Z M 131.085938 7.527344 L 131.085938 20.605469 L 132.726562 20.605469 L 132.726562 7.527344 Z M 131.085938 7.527344 "/>
</g>
</svg>
