<svg width="221" height="85" viewBox="0 0 221 85" fill="none" xmlns="http://www.w3.org/2000/svg">
<path fill-rule="evenodd" clip-rule="evenodd" d="M20.3125 69.0749L73.125 2.44971C73.125 2.44971 90.1875 2.4498 101.563 2.44971C108.875 2.44964 116.188 9.76222 116.188 19.5123C116.188 28.4498 109.688 34.1373 109.688 34.1373C109.688 34.1373 119.438 39.8248 119.438 49.5748C119.438 64.1999 106.438 69.0749 106.438 69.0749H75.5625V55.2623H46.3125L36.5625 69.0749H20.3125ZM75.5625 19.5123L56.875 42.2623H75.5625V19.5123ZM91 29.2623V13.8247C91 13.8247 104 13.0122 104 20.3248C104 30.0748 91 29.2623 91 29.2623ZM91 58.5124V42.2623C91 42.2623 106.438 39.8248 106.438 49.5748C106.438 60.1374 91 58.5124 91 58.5124Z" fill="#29316E"/>
<path d="M119.438 14.6377V49.5753V69.0754H133.25V42.2628H154.375V69.0754H167.375V1.6377H154.375V30.8878H133.25V14.6377H119.438Z" fill="#29316E"/>
<path d="M125.938 0.0121743C122.354 0.222978 119.438 2.92232 119.438 6.51218C119.438 10.102 122.354 12.8014 125.938 13.0122C129.752 13.2366 133.25 10.333 133.25 6.51218C133.25 2.69136 129.752 -0.212191 125.938 0.0121743Z" fill="#29316E"/>
<path d="M174.688 55.3875C182 57.8125 189.313 59.4375 189.313 63.5003C189.313 70 173.063 73.25 166.563 74.0625C133.382 78.2102 122.803 78.8839 89.3751 79.7501C54.4606 80.6547 0 76.5 0 76.5C0 76.5 54.3669 84.7101 89.3751 83.8126C126.613 83.8126 160.919 80.8393 185.25 76.5C195.77 74.6238 204.75 70.813 204.75 63.5003C204.75 54.5625 167.375 52.9624 174.688 55.3875Z" fill="#1EA8D1"/>
<path d="M180.578 40.625V14.625H195.66V16.7578H182.952V26.5458H194.86V28.6787H182.952V38.4922H195.915V40.625H180.578ZM215.922 21.125C215.777 19.6778 215.139 18.5266 214.004 17.6719C212.87 16.8171 211.445 16.3896 209.726 16.3896C208.517 16.3896 207.449 16.5969 206.528 17.0116C205.613 17.4265 204.895 18.0019 204.37 18.7382C203.853 19.4662 203.595 20.2956 203.595 21.2266C203.595 21.9122 203.742 22.5131 204.038 23.0293C204.336 23.5456 204.734 23.9899 205.233 24.3623C205.74 24.7262 206.299 25.0395 206.908 25.3017C207.525 25.5642 208.148 25.7842 208.775 25.962L211.516 26.749C212.345 26.9776 213.176 27.2695 214.004 27.625C214.835 27.9804 215.592 28.4291 216.278 28.9707C216.972 29.5038 217.526 30.1599 217.94 30.9386C218.364 31.7086 218.575 32.6354 218.575 33.7188C218.575 35.1068 218.215 36.3552 217.496 37.4639C216.777 38.5727 215.745 39.4528 214.399 40.1045C213.052 40.7477 211.44 41.0693 209.562 41.0693C207.792 41.0693 206.256 40.7773 204.953 40.1934C203.65 39.601 202.626 38.7842 201.88 37.7433C201.136 36.7021 200.717 35.496 200.624 34.125H203.062C203.146 35.1491 203.484 36.0167 204.077 36.7276C204.67 37.4386 205.439 37.9802 206.388 38.3526C207.335 38.7165 208.393 38.8985 209.562 38.8985C210.857 38.8985 212.007 38.6827 213.015 38.2511C214.03 37.8109 214.827 37.2015 215.402 36.4229C215.985 35.6358 216.278 34.7217 216.278 33.6807C216.278 32.8005 216.049 32.0642 215.592 31.4717C215.135 30.8708 214.495 30.3672 213.674 29.961C212.862 29.5547 211.918 29.1949 210.844 28.8818L207.733 27.9677C205.694 27.3583 204.111 26.5163 202.985 25.4413C201.859 24.3666 201.297 22.9954 201.297 21.3281C201.297 19.9316 201.669 18.7044 202.415 17.6465C203.167 16.58 204.183 15.7507 205.462 15.1582C206.747 14.5573 208.19 14.2568 209.791 14.2568C211.406 14.2568 212.838 14.5531 214.081 15.1455C215.325 15.738 216.312 16.5547 217.04 17.5957C217.776 18.6282 218.169 19.8047 218.22 21.125H215.922Z" fill="#1EA8D1"/>
</svg>
