<svg width="296" height="63" viewBox="0 0 296 63" fill="none" xmlns="http://www.w3.org/2000/svg">
<path fill-rule="evenodd" clip-rule="evenodd" d="M0 0H296V62.8673H0V0ZM43.2212 9.1675L32.7434 51.0791H44.531L48.4602 35.3622H64.177L66.7965 27.5038H51.0796L53.6991 18.3357H70.7257L73.3451 9.1675H43.2212ZM68.1062 51.0791L78.5841 9.1675H91.6814L79.8938 51.0791H68.1062ZM86.4425 51.0791L98.2301 9.1675H113.947L120.496 40.6012L128.354 9.1675H138.832L127.044 51.0791H111.327L104.779 20.9551L96.9204 51.0791H86.4425ZM146.69 9.1675L134.903 51.0791C134.903 51.0791 179.434 58.938 183.363 28.8141C185.982 3.92919 146.69 9.1675 146.69 9.1675ZM183.363 51.0791L193.841 9.1675H226.584L223.965 18.3357H204.319L201.699 26.1941H220.035L217.416 35.3622H199.08L196.46 43.2207H217.416L214.796 51.0791H183.363ZM263.257 22.2649H251.469C251.469 22.2649 251.469 18.3363 246.23 18.3357C243.943 18.3354 241.832 18.8277 240.991 20.9551C239.788 24.0011 244.363 25.3994 247.54 26.1941C252.779 27.5045 260.637 28.1672 260.637 34.0531C260.637 37.9824 259.865 41.534 256.708 45.8408C251.54 52.8898 244.92 52.3884 235.752 52.3888C221.345 52.3895 223.965 37.9817 223.965 37.9817L234.442 37.9824C234.442 37.9824 233.133 43.2226 240.991 43.2213C244.92 43.2207 247.54 41.1435 247.54 39.2914C247.54 37.4394 247.54 36.6733 242.301 35.3629C235.056 32.9469 227.894 32.7434 229.204 22.2655C229.445 20.3341 231.823 9.1675 246.23 9.1675C269.805 9.1675 263.257 22.2649 263.257 22.2649ZM23.5752 9.1675H7.85841V11.7876H23.5752V9.1675ZM23.5752 19.6454H7.85841V22.2655H23.5752V19.6454ZM23.5752 48.4589H7.85841V51.0791H23.5752V48.4589ZM23.5752 37.9811H7.85841V40.6012H23.5752V37.9811ZM23.5752 28.8135H7.85841V31.4337H23.5752V28.8135ZM288.142 9.1675H272.425V11.7876H288.142V9.1675ZM288.142 19.6454H272.425V22.2655H288.142V19.6454ZM288.142 48.4589H272.425V51.0791H288.142V48.4589ZM288.142 37.9811H272.425V40.6012H288.142V37.9811ZM288.142 28.8135H272.425V31.4337H288.142V28.8135Z" fill="#005DAA"/>
<path d="M157.168 18.3363L150.619 43.2213C150.619 43.2213 167.355 43.2213 170.265 30.1239C172.885 18.3363 157.168 18.3363 157.168 18.3363Z" fill="#005DAA"/>
</svg>
