<svg width="200" height="109" viewBox="0 0 200 109" fill="none" xmlns="http://www.w3.org/2000/svg">
<g clip-path="url(#clip0_755_724)">
<path opacity="0.997" fill-rule="evenodd" clip-rule="evenodd" d="M76.8311 -0.0244141C97.9087 -0.0244141 118.986 -0.0244141 140.063 -0.0244141C139.295 3.86796 138.514 7.75796 137.72 11.6455C116.642 11.6943 95.5649 11.7106 74.4873 11.6943C75.2622 7.78682 76.0435 3.88058 76.8311 -0.0244141Z" fill="#006EB3"/>
<path opacity="0.997" fill-rule="evenodd" clip-rule="evenodd" d="M72.9736 18.0908C94.0513 18.0908 115.128 18.0908 136.206 18.0908C135.45 21.9858 134.668 25.8758 133.862 29.7607C112.785 29.8096 91.7075 29.8258 70.6299 29.8096C71.4048 25.902 72.186 21.9958 72.9736 18.0908Z" fill="#006EB3"/>
<path opacity="0.996" fill-rule="evenodd" clip-rule="evenodd" d="M69.2139 36.7428C75.6592 36.7347 82.1045 36.7428 88.5498 36.7672C90.4321 36.9064 92.1577 37.4924 93.7256 38.525C95.7817 40.1184 96.604 42.2099 96.1914 44.7995C95.7251 47.6469 94.2685 49.8195 91.8213 51.318C90.2861 52.1989 88.6582 52.8498 86.9385 53.2711C88.6714 53.5441 90.25 54.1789 91.6748 55.1754C92.7817 56.0783 93.4409 57.2423 93.6523 58.6667C93.9487 61.9606 92.956 64.7926 90.6738 67.1628C88.4033 69.4128 85.6611 70.6579 82.4463 70.8981C81.3428 71.0251 80.2363 71.1061 79.126 71.1423C73.3804 71.1667 67.6352 71.175 61.8896 71.1667C64.3062 59.6867 66.7476 48.212 69.2139 36.7428ZM77.3193 42.8952C79.3052 42.887 81.2905 42.8952 83.2763 42.9196C85.4604 43.0522 86.4453 44.1997 86.2304 46.362C85.666 49.2623 83.8999 50.6378 80.9326 50.4879C79.1909 50.5285 77.4492 50.5207 75.708 50.4635C76.2637 47.9446 76.8008 45.4218 77.3193 42.8952ZM74.3896 56.6647C76.2778 56.6564 78.1655 56.6647 80.0537 56.6891C83.623 56.9235 84.7378 58.7057 83.3984 62.0358C82.6474 63.5011 81.4512 64.3722 79.8096 64.6481C79.4057 64.7243 78.999 64.7731 78.5889 64.7946C76.6196 64.819 74.6499 64.8273 72.6807 64.819C73.2563 62.1022 73.8262 59.3839 74.3896 56.6647Z" fill="#006EB3"/>
<path opacity="0.994" fill-rule="evenodd" clip-rule="evenodd" d="M-0.0244141 63.7942C-0.0244141 63.1433 -0.0244141 62.492 -0.0244141 61.8411C0.072401 61.2127 0.170057 60.5779 0.268555 59.9368C3.47494 59.9368 6.68131 59.9368 9.88771 59.9368C9.17223 62.9754 10.3604 64.66 13.4522 64.9905C14.923 65.1482 16.3553 64.9856 17.749 64.5022C19.4753 63.7459 20.403 62.4197 20.5322 60.5227C20.4816 59.6316 20.0584 58.9886 19.2627 58.594C18.9323 58.4349 18.5905 58.305 18.2373 58.2034C15.2892 57.43 12.3433 56.6487 9.39942 55.8597C3.99139 54.1497 2.27426 50.6263 4.24805 45.2884C5.02007 43.4104 6.2001 41.8398 7.78809 40.5764C10.177 38.7239 12.8788 37.5764 15.8936 37.1341C18.4235 36.7682 20.9625 36.695 23.5108 36.9143C25.0526 37.0404 26.55 37.3659 28.003 37.8909C31.5309 39.3217 33.0039 41.934 32.4219 45.7278C32.3481 46.252 32.2586 46.7728 32.1534 47.2903C28.9307 47.2903 25.708 47.2903 22.4854 47.2903C22.5327 46.9475 22.5897 46.6057 22.6563 46.2649C22.8942 44.3217 22.0559 43.1742 20.1416 42.8225C18.2946 42.5154 16.6182 42.906 15.1123 43.9944C14.0573 44.8804 13.5934 46.0115 13.7207 47.388C13.8501 47.892 14.1187 48.307 14.5264 48.6331C14.8548 48.8787 15.2128 49.074 15.6006 49.219C18.1821 49.9417 20.77 50.6414 23.3643 51.3186C24.9682 51.739 26.4982 52.3416 27.9541 53.1253C29.7721 54.3191 30.6836 56.012 30.6885 58.2034C30.4604 62.8948 28.312 66.3777 24.2432 68.6526C21.1335 70.2395 17.8295 71.0696 14.3311 71.1429C11.9509 71.2605 9.59093 71.0975 7.25098 70.6546C5.46075 70.3206 3.8494 69.6043 2.41699 68.5061C0.988956 67.2532 0.175154 65.6824 -0.0244141 63.7942Z" fill="#006EB3"/>
<path opacity="0.996" fill-rule="evenodd" clip-rule="evenodd" d="M38.9893 36.8408C47.7132 36.8408 56.437 36.8408 65.1611 36.8408C64.7129 39.0397 64.2573 41.237 63.794 43.4326C58.2603 43.4326 52.7261 43.4326 47.1924 43.4326C46.6753 45.8062 46.1708 48.1826 45.6787 50.5615C50.8706 50.5615 56.063 50.5615 61.2549 50.5615C60.7891 52.7602 60.3169 54.9575 59.8389 57.1533C54.6304 57.1372 49.4219 57.1533 44.2139 57.2021C43.696 59.6211 43.1751 62.0381 42.6514 64.4531C48.3155 64.4614 53.9795 64.4858 59.6436 64.5264C59.1553 66.7236 58.667 68.9209 58.1787 71.1182C49.3247 71.1831 40.4704 71.1831 31.6162 71.1182C34.0864 59.6948 36.5441 48.2691 38.9893 36.8408Z" fill="#006EB3"/>
<path opacity="0.995" fill-rule="evenodd" clip-rule="evenodd" d="M102.173 36.8405C108.602 36.8323 115.031 36.8405 121.46 36.8649C123.198 36.8155 124.875 37.1085 126.489 37.7438C128.515 38.7638 129.614 40.4158 129.785 42.6998C129.912 48.839 126.974 52.5421 120.972 53.8082C120.438 53.9249 119.901 54.0226 119.36 54.1012C119.292 54.1193 119.243 54.1598 119.214 54.2233C120.288 54.2731 121.346 54.4274 122.388 54.6871C124.23 55.173 125.231 56.3693 125.391 58.276C125.44 58.7628 125.465 59.2511 125.464 59.7409C125.354 62.1178 125.232 64.4938 125.098 66.8698C125.051 68.255 125.067 69.6383 125.146 71.0202C132.166 59.7003 139.172 48.3721 146.167 37.0358C150.122 36.9869 154.077 36.9707 158.032 36.9869C160.129 48.3836 162.245 59.777 164.38 71.1666C160.734 71.1828 157.088 71.1666 153.442 71.1178C153.121 68.8576 152.812 66.5953 152.515 64.3307C147.876 64.3146 143.237 64.3307 138.599 64.3795C137.323 66.63 136.053 68.8839 134.79 71.1422C128.068 71.1666 121.346 71.1749 114.624 71.1666C114.614 70.2706 114.639 69.3751 114.697 68.4811C114.927 65.8776 115.146 63.2736 115.356 60.6686C115.384 59.9865 115.23 59.3517 114.893 58.7643C114.576 58.382 114.177 58.1295 113.696 58.0075C113.278 57.9108 112.855 57.8453 112.427 57.8121C111.597 57.8038 110.767 57.796 109.937 57.7877C109.087 57.7882 108.25 57.8204 107.422 57.8854C106.46 62.3112 105.508 66.7384 104.565 71.1666C101.31 71.1828 98.0547 71.1666 94.7998 71.1178C97.273 59.695 99.7305 48.2694 102.173 36.8405ZM110.571 43.1881C112.444 43.1698 114.315 43.1942 116.187 43.2614C116.889 43.297 117.572 43.4272 118.237 43.652C119.361 44.1318 119.93 44.9863 119.946 46.2155C119.715 49.6945 117.859 51.4601 114.38 51.5133C112.524 51.5377 110.669 51.546 108.813 51.5377C109.399 48.7545 109.985 45.9713 110.571 43.1881ZM150.122 43.7252C150.171 43.7252 150.22 43.7252 150.269 43.7252C150.718 48.4785 151.173 53.2311 151.636 57.983C148.511 57.9913 145.386 57.983 142.261 57.9586C144.914 53.2311 147.534 48.4867 150.122 43.7252Z" fill="#006EB3"/>
<path opacity="0.996" fill-rule="evenodd" clip-rule="evenodd" d="M199.976 36.8408C199.976 36.9222 199.976 37.0036 199.976 37.085C199.506 39.192 199.05 41.3079 198.608 43.4326C193.075 43.4326 187.541 43.4326 182.007 43.4326C181.502 45.8088 180.998 48.1852 180.493 50.5615C185.685 50.5615 190.877 50.5615 196.069 50.5615C195.623 52.7476 195.15 54.9287 194.653 57.1045C189.445 57.1533 184.237 57.1694 179.028 57.1533C178.511 59.5923 178.007 62.0337 177.515 64.4776C183.163 64.4776 188.81 64.4776 194.458 64.4776C193.985 66.7036 193.497 68.9253 192.993 71.1426C184.139 71.1753 175.285 71.1753 166.431 71.1426C168.91 59.7144 171.368 48.2805 173.804 36.8408C182.528 36.8408 191.251 36.8408 199.976 36.8408Z" fill="#006EB3"/>
<path opacity="0.997" fill-rule="evenodd" clip-rule="evenodd" d="M60.3271 78.2471C81.4048 78.2471 102.482 78.2471 123.56 78.2471C122.791 82.1396 122.01 86.0293 121.216 89.917C100.138 89.9658 79.061 89.9819 57.9834 89.9658C58.7583 86.0581 59.5396 82.1519 60.3271 78.2471Z" fill="#006EB3"/>
<path opacity="0.997" fill-rule="evenodd" clip-rule="evenodd" d="M117.358 108.081C96.2808 108.081 75.2036 108.081 54.126 108.081C54.9009 104.173 55.6821 100.267 56.4697 96.3623C77.5474 96.3623 98.6245 96.3623 119.702 96.3623C118.939 100.272 118.158 104.179 117.358 108.081Z" fill="#006EB3"/>
</g>
<defs>
<clipPath id="clip0_755_724">
<rect width="200" height="108.105" fill="white"/>
</clipPath>
</defs>
</svg>
