<svg width="567" height="513" viewBox="0 0 567 513" fill="none" xmlns="http://www.w3.org/2000/svg">
<path d="M200.012 505.072C297.51 505.072 376.548 426.034 376.548 328.536C376.548 231.038 297.51 152 200.012 152C102.514 152 23.4767 231.038 23.4767 328.536C23.4767 426.034 102.514 505.072 200.012 505.072Z" fill="#D9EBFF"/>
<path d="M245.604 452.826H206.075V492.354H245.604V452.826Z" fill="#A9C0FF"/>
<g opacity="0.19">
<path d="M495.674 447.669L489.456 480.969C488.161 487.893 484.869 494.288 479.987 499.367C475.105 504.445 468.844 507.985 461.976 509.552C459.344 510.156 456.651 510.46 453.95 510.455C452.286 510.454 450.624 510.341 448.975 510.115C447.722 509.944 446.481 509.701 445.256 509.387C442.604 508.735 440.037 507.778 437.605 506.536C432.662 504.032 428.363 500.423 425.04 495.989C421.717 491.555 419.461 486.416 418.445 480.969L412.226 447.669L495.674 447.669Z" fill="#AAAAAA"/>
</g>
<path d="M523.94 486.726H474.519C471.491 486.723 468.589 485.519 466.449 483.379C464.308 481.238 463.104 478.336 463.101 475.309V467.706C463.104 464.679 464.308 461.776 466.449 459.636C468.589 457.495 471.491 456.291 474.519 456.288H523.94C526.967 456.291 529.869 457.495 532.01 459.636C534.15 461.776 535.354 464.679 535.358 467.706V475.309C535.354 478.336 534.15 481.238 532.01 483.379C529.869 485.519 526.967 486.723 523.94 486.726ZM474.519 458.848C472.17 458.851 469.919 459.785 468.258 461.445C466.598 463.106 465.664 465.357 465.661 467.706V475.309C465.664 477.657 466.598 479.909 468.258 481.569C469.919 483.23 472.17 484.164 474.519 484.166H523.94C526.289 484.164 528.54 483.23 530.201 481.569C531.861 479.909 532.795 477.657 532.798 475.309V467.706C532.795 465.357 531.861 463.106 530.201 461.445C528.54 459.785 526.289 458.851 523.94 458.848H474.519Z" fill="#4D76B8"/>
<path d="M512.019 442.925L505.8 476.224C504.505 483.149 501.214 489.543 496.332 494.622C491.449 499.7 485.189 503.24 478.321 504.807C475.688 505.412 472.996 505.715 470.295 505.71C468.631 505.709 466.968 505.596 465.32 505.37C464.067 505.199 462.825 504.956 461.6 504.643C458.949 503.99 456.382 503.033 453.95 501.791C449.007 499.287 444.708 495.678 441.385 491.244C438.062 486.81 435.805 481.671 434.789 476.224L428.57 442.925L512.019 442.925Z" fill="#D9EBFF"/>
<path d="M444.382 494.739C447.747 498.21 451.774 500.969 456.225 502.853C460.677 504.737 465.461 505.708 470.295 505.708C475.128 505.708 479.913 504.737 484.364 502.853C488.815 500.969 492.842 498.21 496.207 494.739H444.382Z" fill="#4D76B8"/>
<path d="M429.571 448.275H511.019L512.019 442.925H428.571L429.571 448.275Z" fill="#4D76B8"/>
<g opacity="0.5">
<path d="M473.181 442.925C474.352 464.13 470.379 485.304 461.6 504.643C460.271 504.316 458.961 503.912 457.678 503.433C456.405 502.957 455.161 502.409 453.95 501.791C463.65 483.79 467.513 463.218 465.003 442.925L473.181 442.925Z" fill="white"/>
</g>
<g opacity="0.5">
<path d="M489.937 442.925C490.367 464.132 486.413 485.199 478.321 504.807C475.687 505.406 472.995 505.709 470.295 505.71C468.631 505.709 466.969 505.596 465.32 505.37C473.52 485.595 477.508 464.327 477.03 442.925H489.937Z" fill="white"/>
</g>
<path d="M61.0898 388.755H25.5952V390.462H61.0898V388.755Z" fill="#A9C0FF"/>
<path d="M59.799 378.286H24.3044V379.993H59.799V378.286Z" fill="#A9C0FF"/>
<path d="M62.3173 400.132H26.8228V401.839H62.3173V400.132Z" fill="#A9C0FF"/>
<path d="M318.839 209.493H283.344V211.2H318.839V209.493Z" fill="#A9C0FF"/>
<path d="M317.548 199.024H282.053V200.731H317.548V199.024Z" fill="#A9C0FF"/>
<path d="M320.066 220.871H284.572V222.577H320.066V220.871Z" fill="#A9C0FF"/>
<path d="M451.385 379.669C451.515 380.71 451.409 381.767 451.073 382.76C450.684 383.745 450.151 384.665 449.49 385.492C448.885 386.229 448.392 387.05 448.026 387.931C447.423 389.624 447.507 391.486 448.262 393.116C448.699 393.924 449.249 394.665 449.896 395.318C450.673 396.127 451.321 397.051 451.817 398.058C452.299 399.136 452.548 400.305 452.547 401.486C452.547 402.667 452.297 403.835 451.814 404.914C451.317 405.919 450.669 406.843 449.894 407.653C449.248 408.306 448.699 409.047 448.263 409.854C447.894 410.653 447.683 411.515 447.64 412.394C447.594 413.292 447.727 414.191 448.031 415.038C448.396 415.919 448.889 416.741 449.494 417.477C450.154 418.304 450.687 419.226 451.075 420.21C451.41 421.204 451.516 422.262 451.385 423.302C451.271 422.311 450.967 421.352 450.488 420.476C449.973 419.642 449.346 418.882 448.625 418.219C447.839 417.473 447.171 416.613 446.642 415.668C446.139 414.647 445.86 413.531 445.824 412.394C445.766 411.238 445.965 410.084 446.405 409.014C446.872 408.002 447.483 407.062 448.218 406.224C448.829 405.549 449.342 404.792 449.744 403.975C450.38 402.375 450.381 400.594 449.748 398.994C449.346 398.177 448.834 397.42 448.225 396.743C447.49 395.906 446.879 394.967 446.411 393.956C445.969 392.887 445.77 391.733 445.828 390.577C445.862 389.441 446.141 388.325 446.644 387.305C447.172 386.359 447.84 385.499 448.626 384.754C449.347 384.09 449.974 383.33 450.489 382.496C450.968 381.62 451.272 380.66 451.385 379.669Z" fill="#D9EBFF"/>
<path d="M475.707 360.568C475.838 361.609 475.731 362.666 475.396 363.659C475.007 364.644 474.473 365.564 473.813 366.391C473.208 367.128 472.715 367.949 472.349 368.83C471.745 370.523 471.83 372.384 472.585 374.015C473.022 374.823 473.572 375.564 474.218 376.217C474.996 377.026 475.644 377.95 476.14 378.957C476.621 380.035 476.87 381.204 476.87 382.385C476.869 383.566 476.619 384.734 476.137 385.813C475.639 386.818 474.992 387.742 474.217 388.552C473.571 389.205 473.022 389.946 472.585 390.753C471.833 392.384 471.75 394.246 472.353 395.937C472.718 396.818 473.211 397.64 473.816 398.376C474.476 399.203 475.01 400.125 475.398 401.109C475.733 402.104 475.839 403.161 475.708 404.202C475.594 403.21 475.289 402.251 474.81 401.375C474.295 400.541 473.669 399.781 472.947 399.118C472.162 398.372 471.493 397.512 470.964 396.567C470.462 395.546 470.183 394.43 470.147 393.293C470.089 392.137 470.287 390.983 470.728 389.913C471.195 388.901 471.805 387.961 472.54 387.123C473.151 386.448 473.665 385.691 474.067 384.873C474.702 383.274 474.704 381.493 474.071 379.893C473.669 379.076 473.156 378.319 472.547 377.642C471.812 376.805 471.201 375.866 470.733 374.855C470.292 373.786 470.093 372.632 470.15 371.476C470.185 370.34 470.463 369.224 470.967 368.204C471.494 367.259 472.163 366.399 472.948 365.653C473.67 364.989 474.297 364.229 474.811 363.395C475.29 362.519 475.594 361.559 475.707 360.568Z" fill="#D9EBFF"/>
<path d="M494.508 385.812C494.651 386.955 494.534 388.115 494.166 389.205C493.739 390.285 493.154 391.295 492.429 392.202C491.765 393.011 491.224 393.913 490.823 394.879C490.16 396.737 490.253 398.78 491.082 400.57C491.561 401.456 492.165 402.269 492.874 402.985C493.727 403.874 494.438 404.888 494.983 405.992C495.512 407.176 495.784 408.458 495.784 409.755C495.783 411.051 495.509 412.333 494.98 413.516C494.433 414.619 493.723 415.633 492.872 416.522C492.164 417.238 491.561 418.052 491.082 418.938C490.257 420.728 490.165 422.77 490.827 424.627C491.228 425.593 491.769 426.495 492.433 427.303C493.157 428.211 493.742 429.222 494.168 430.303C494.536 431.394 494.652 432.554 494.508 433.696C494.383 432.608 494.049 431.555 493.524 430.594C492.959 429.679 492.271 428.845 491.479 428.117C490.617 427.298 489.884 426.355 489.303 425.317C488.751 424.198 488.445 422.973 488.406 421.725C488.342 420.457 488.56 419.19 489.044 418.016C489.557 416.905 490.226 415.874 491.032 414.954C491.703 414.213 492.267 413.382 492.708 412.485C493.405 410.73 493.407 408.775 492.712 407.019C492.272 406.123 491.709 405.292 491.041 404.55C490.234 403.631 489.563 402.601 489.05 401.491C488.565 400.318 488.347 399.051 488.41 397.783C488.448 396.536 488.754 395.311 489.306 394.192C489.885 393.155 490.618 392.211 491.481 391.393C492.272 390.664 492.96 389.83 493.525 388.915C494.051 387.954 494.384 386.9 494.508 385.812Z" fill="#D9EBFF"/>
<path d="M566.387 504.643H22.0287V512.323H566.387V504.643Z" fill="#456BA3"/>
<path d="M225.486 223.18C242.334 223.18 255.991 209.522 255.991 192.675C255.991 175.827 242.334 162.17 225.486 162.17C208.639 162.17 194.981 175.827 194.981 192.675C194.981 209.522 208.639 223.18 225.486 223.18Z" fill="white"/>
<path d="M228.83 212.712C228.83 214.756 227.091 215.826 225.371 215.826C223.651 215.826 221.912 214.756 221.912 212.712C221.912 212.633 221.927 212.555 221.957 212.483C221.987 212.41 222.032 212.344 222.087 212.288C222.143 212.232 222.209 212.188 222.282 212.158C222.355 212.128 222.433 212.112 222.512 212.112H228.23C228.309 212.112 228.387 212.128 228.46 212.158C228.533 212.188 228.599 212.232 228.655 212.288C228.71 212.344 228.755 212.41 228.785 212.483C228.815 212.555 228.83 212.633 228.83 212.712Z" fill="#92B1EF"/>
<path d="M231.659 205.712V209.967C231.658 210.828 231.316 211.653 230.707 212.262C230.099 212.87 229.273 213.212 228.413 213.213H222.33C221.469 213.212 220.643 212.87 220.035 212.262C219.426 211.653 219.084 210.828 219.083 209.967V205.712C219.083 205.621 219.101 205.532 219.136 205.448C219.171 205.364 219.221 205.288 219.286 205.224C219.35 205.16 219.426 205.109 219.51 205.074C219.593 205.04 219.683 205.022 219.774 205.022H230.968C231.059 205.022 231.149 205.04 231.233 205.074C231.316 205.109 231.392 205.16 231.457 205.224C231.521 205.288 231.572 205.364 231.606 205.448C231.641 205.532 231.659 205.621 231.659 205.712Z" fill="#4D76B8"/>
<path d="M237.782 190.55C237.792 193.793 236.523 196.909 234.25 199.223C233.506 200.344 233.08 201.646 233.016 202.99C233.016 205.733 231.259 206.344 231.184 206.367C231.114 206.391 231.042 206.403 230.968 206.403H219.958C219.86 206.403 219.762 206.382 219.673 206.341C219.272 206.157 217.966 205.381 217.966 203.014V202.86C217.966 201.479 217.966 200.835 217.1 199.809C215.555 198.43 214.379 196.686 213.68 194.735C212.981 192.785 212.781 190.691 213.099 188.644C213.416 186.597 214.241 184.661 215.497 183.015C216.754 181.368 218.403 180.061 220.294 179.215C222.185 178.368 224.257 178.008 226.323 178.168C228.388 178.327 230.381 179.001 232.12 180.128C233.858 181.255 235.287 182.799 236.276 184.619C237.265 186.439 237.783 188.478 237.782 190.55Z" fill="#92B1EF"/>
<path d="M245.566 191.103H240.233C240.143 191.103 240.053 191.085 239.969 191.051C239.885 191.016 239.809 190.965 239.745 190.901C239.681 190.837 239.63 190.761 239.595 190.677C239.561 190.593 239.543 190.503 239.543 190.413C239.543 190.322 239.561 190.232 239.595 190.148C239.63 190.065 239.681 189.989 239.745 189.925C239.809 189.86 239.885 189.81 239.969 189.775C240.053 189.74 240.143 189.722 240.233 189.722H245.566C245.749 189.722 245.925 189.795 246.054 189.925C246.184 190.054 246.257 190.23 246.257 190.413C246.257 190.596 246.184 190.771 246.054 190.901C245.925 191.03 245.749 191.103 245.566 191.103ZM235.496 180.373C235.359 180.373 235.226 180.332 235.113 180.256C234.999 180.18 234.911 180.073 234.859 179.947C234.806 179.82 234.793 179.682 234.819 179.548C234.846 179.414 234.911 179.291 235.008 179.195L238.847 175.356C238.911 175.291 238.987 175.24 239.071 175.205C239.155 175.17 239.244 175.152 239.335 175.152C239.426 175.152 239.516 175.17 239.6 175.205C239.684 175.239 239.76 175.29 239.824 175.355C239.889 175.419 239.94 175.495 239.974 175.579C240.009 175.663 240.027 175.753 240.027 175.844C240.027 175.935 240.009 176.024 239.974 176.108C239.939 176.192 239.888 176.268 239.823 176.332L235.981 180.17C235.852 180.299 235.678 180.372 235.496 180.373ZM210.739 191.103H205.406C205.223 191.103 205.047 191.03 204.918 190.901C204.788 190.771 204.716 190.596 204.716 190.413C204.716 190.23 204.788 190.054 204.918 189.925C205.047 189.795 205.223 189.722 205.406 189.722H210.739C210.922 189.722 211.098 189.795 211.227 189.925C211.357 190.054 211.43 190.23 211.43 190.413C211.43 190.596 211.357 190.771 211.227 190.901C211.098 191.03 210.922 191.103 210.739 191.103ZM215.477 180.373C215.386 180.373 215.296 180.355 215.212 180.32C215.129 180.285 215.053 180.234 214.989 180.17L211.15 176.331C211.02 176.202 210.948 176.026 210.948 175.843C210.948 175.66 211.02 175.484 211.15 175.355C211.279 175.225 211.455 175.152 211.638 175.152C211.821 175.152 211.997 175.225 212.126 175.355L215.965 179.193C216.062 179.29 216.127 179.413 216.154 179.547C216.181 179.681 216.167 179.819 216.115 179.945C216.063 180.072 215.974 180.179 215.861 180.255C215.747 180.331 215.614 180.372 215.478 180.372L215.477 180.373Z" fill="#92B1EF"/>
<path d="M225.605 176.238C225.422 176.237 225.246 176.165 225.117 176.035C224.987 175.906 224.914 175.73 224.914 175.547V170.214C224.914 170.123 224.932 170.033 224.966 169.949C225.001 169.865 225.052 169.789 225.116 169.724C225.18 169.66 225.256 169.609 225.34 169.574C225.424 169.539 225.514 169.521 225.605 169.521C225.696 169.521 225.786 169.539 225.87 169.574C225.954 169.609 226.03 169.66 226.094 169.724C226.158 169.789 226.209 169.865 226.243 169.949C226.278 170.033 226.296 170.123 226.295 170.214V175.547C226.295 175.638 226.277 175.728 226.243 175.811C226.208 175.895 226.157 175.971 226.093 176.035C226.029 176.099 225.953 176.15 225.869 176.185C225.785 176.22 225.695 176.238 225.605 176.238Z" fill="#92B1EF"/>
<path d="M235.085 191.052C235.025 191.052 234.965 191.041 234.909 191.017C234.853 190.994 234.802 190.96 234.76 190.918C234.717 190.875 234.683 190.824 234.66 190.768C234.637 190.712 234.625 190.653 234.625 190.592C234.622 188.179 233.662 185.865 231.956 184.159C230.249 182.452 227.935 181.492 225.522 181.489C225.4 181.489 225.283 181.441 225.197 181.355C225.11 181.268 225.062 181.151 225.062 181.029C225.062 180.907 225.11 180.79 225.197 180.704C225.283 180.617 225.4 180.569 225.522 180.569C228.18 180.572 230.727 181.629 232.606 183.508C234.486 185.387 235.543 187.935 235.545 190.592C235.545 190.653 235.534 190.712 235.51 190.768C235.487 190.824 235.453 190.875 235.411 190.918C235.368 190.96 235.317 190.994 235.261 191.017C235.205 191.041 235.146 191.052 235.085 191.052Z" fill="#D9EBFF"/>
<path d="M225.486 224.46C219.2 224.46 213.054 222.595 207.827 219.103C202.6 215.61 198.526 210.646 196.121 204.838C193.715 199.03 193.085 192.639 194.312 186.474C195.538 180.308 198.566 174.644 203.011 170.199C207.456 165.754 213.119 162.727 219.285 161.5C225.451 160.274 231.842 160.903 237.65 163.309C243.458 165.715 248.422 169.789 251.914 175.016C255.407 180.243 257.271 186.388 257.271 192.675C257.261 201.102 253.91 209.181 247.951 215.139C241.992 221.098 233.913 224.45 225.486 224.46ZM225.486 163.45C219.706 163.45 214.056 165.164 209.25 168.375C204.444 171.586 200.698 176.151 198.486 181.491C196.274 186.831 195.695 192.707 196.823 198.376C197.95 204.045 200.734 209.253 204.821 213.34C208.908 217.427 214.116 220.21 219.785 221.338C225.454 222.466 231.33 221.887 236.67 219.675C242.01 217.463 246.574 213.717 249.786 208.911C252.997 204.105 254.711 198.455 254.711 192.675C254.702 184.926 251.62 177.498 246.142 172.019C240.663 166.54 233.234 163.458 225.486 163.45Z" fill="#4D76B8"/>
<path d="M206.075 489.794V455.386C206.075 454.707 205.806 454.056 205.326 453.575C204.845 453.095 204.194 452.826 203.515 452.826H196.347C195.669 452.826 195.017 453.095 194.537 453.575C194.057 454.056 193.787 454.707 193.787 455.386V502.083C193.787 502.761 194.057 503.413 194.537 503.893C195.017 504.373 195.669 504.643 196.347 504.643H243.044C243.723 504.643 244.374 504.373 244.855 503.893C245.335 503.413 245.604 502.761 245.604 502.083V494.915C245.604 494.236 245.335 493.584 244.855 493.104C244.374 492.624 243.723 492.355 243.044 492.355H208.635C208.299 492.355 207.966 492.288 207.656 492.16C207.345 492.031 207.063 491.842 206.825 491.605C206.587 491.367 206.399 491.085 206.27 490.774C206.142 490.464 206.075 490.131 206.075 489.794Z" fill="#6299E8"/>
<path d="M231.984 492.354V504.642H268.953C269.632 504.642 270.283 504.373 270.763 503.893C271.243 503.413 271.513 502.761 271.513 502.082V494.914C271.513 494.236 271.243 493.584 270.763 493.104C270.283 492.624 269.632 492.354 268.953 492.354H231.984Z" fill="#C2D5FF"/>
<path d="M318.794 288.249H101.706C98.8782 288.249 96.5859 290.541 96.5859 293.369V447.706C96.5859 450.533 98.8782 452.826 101.706 452.826H318.794C321.622 452.826 323.914 450.533 323.914 447.706V293.369C323.914 290.541 321.622 288.249 318.794 288.249Z" fill="#6299E8"/>
<path d="M318.794 454.106H101.706C100.009 454.104 98.3825 453.429 97.1827 452.229C95.9829 451.029 95.308 449.403 95.306 447.706V293.369C95.308 291.672 95.9829 290.046 97.1827 288.846C98.3825 287.646 100.009 286.971 101.706 286.969H318.794C320.491 286.971 322.118 287.646 323.317 288.846C324.517 290.046 325.192 291.672 325.194 293.369V447.706C325.192 449.403 324.517 451.03 323.317 452.229C322.118 453.429 320.491 454.104 318.794 454.106ZM101.706 289.529C100.688 289.53 99.7119 289.935 98.992 290.655C98.2721 291.375 97.8671 292.351 97.866 293.369V447.706C97.8671 448.724 98.2721 449.7 98.992 450.42C99.7119 451.14 100.688 451.545 101.706 451.546H318.794C319.812 451.545 320.788 451.14 321.508 450.42C322.228 449.7 322.633 448.724 322.634 447.706V293.369C322.633 292.351 322.228 291.375 321.508 290.655C320.788 289.935 319.812 289.53 318.794 289.529H101.706Z" fill="#4D76B8"/>
<path d="M333.051 288.249H115.963C113.136 288.249 110.843 290.541 110.843 293.369V447.706C110.843 450.533 113.136 452.826 115.963 452.826H333.051C335.879 452.826 338.171 450.533 338.171 447.706V293.369C338.171 290.541 335.879 288.249 333.051 288.249Z" fill="white"/>
<path d="M315.857 305.14H133.158C130.331 305.14 128.038 307.432 128.038 310.26V430.815C128.038 433.643 130.331 435.935 133.158 435.935H315.857C318.684 435.935 320.977 433.643 320.977 430.815V310.26C320.977 307.432 318.684 305.14 315.857 305.14Z" fill="#D9EBFF"/>
<path d="M333.051 454.106H115.964C114.267 454.104 112.64 453.429 111.44 452.229C110.24 451.029 109.565 449.403 109.564 447.706V293.369C109.565 291.672 110.24 290.046 111.44 288.846C112.64 287.646 114.267 286.971 115.964 286.969H333.051C334.748 286.971 336.375 287.646 337.575 288.846C338.775 290.046 339.45 291.672 339.451 293.369V447.706C339.45 449.403 338.775 451.03 337.575 452.229C336.375 453.429 334.748 454.104 333.051 454.106ZM115.964 289.529C114.945 289.53 113.969 289.935 113.249 290.655C112.53 291.375 112.125 292.351 112.124 293.369V447.706C112.125 448.724 112.53 449.7 113.249 450.42C113.969 451.14 114.945 451.545 115.964 451.546H333.051C334.07 451.545 335.046 451.14 335.766 450.42C336.485 449.7 336.89 448.724 336.891 447.706V293.369C336.89 292.351 336.485 291.375 335.766 290.655C335.046 289.935 334.07 289.53 333.051 289.529H115.964Z" fill="#4D76B8"/>
<path d="M315.857 305.14H133.158C131.8 305.14 130.498 305.679 129.538 306.639C128.578 307.599 128.038 308.902 128.038 310.26V324.358H320.977V310.26C320.977 308.902 320.437 307.599 319.477 306.639C318.517 305.679 317.214 305.14 315.857 305.14Z" fill="#A9C0FF"/>
<path d="M128.038 419.597V430.815C128.038 432.173 128.578 433.476 129.538 434.436C130.498 435.396 131.8 435.935 133.158 435.935H315.857C317.214 435.935 318.517 435.396 319.477 434.436C320.437 433.476 320.977 432.173 320.977 430.815V419.597H128.038Z" fill="#A9C0FF"/>
<path d="M209.83 335.522H142.246V337.229H209.83V335.522Z" fill="#456BA3"/>
<path d="M209.83 350.1H142.246V351.807H209.83V350.1Z" fill="#456BA3"/>
<path d="M307.042 364.677H142.246V366.384H307.042V364.677Z" fill="#456BA3"/>
<path d="M307.042 379.255H142.246V380.962H307.042V379.255Z" fill="#456BA3"/>
<path d="M307.042 393.833H142.246V395.539H307.042V393.833Z" fill="#456BA3"/>
<path d="M307.042 408.41H142.246V410.117H307.042V408.41Z" fill="#456BA3"/>
<g opacity="0.28">
<path d="M362.635 256.221H238.547C235.719 256.221 233.427 258.513 233.427 261.341V348.349C233.427 351.177 235.719 353.469 238.547 353.469H362.635C365.462 353.469 367.755 351.177 367.755 348.349V261.341C367.755 258.513 365.462 256.221 362.635 256.221Z" fill="#6299E8"/>
</g>
<path d="M375.537 243.588H251.449C248.621 243.588 246.329 245.88 246.329 248.708V335.716C246.329 338.544 248.621 340.836 251.449 340.836H375.537C378.365 340.836 380.657 338.544 380.657 335.716V248.708C380.657 245.88 378.365 243.588 375.537 243.588Z" fill="white"/>
<path d="M380.657 265.028H246.329V267.588H380.657V265.028Z" fill="#A9C0FF"/>
<path d="M375.537 342.116H251.449C249.752 342.114 248.125 341.439 246.926 340.239C245.726 339.04 245.051 337.413 245.049 335.716V248.708C245.051 247.011 245.726 245.384 246.926 244.185C248.125 242.985 249.752 242.31 251.449 242.308H375.537C377.234 242.31 378.86 242.985 380.06 244.185C381.26 245.384 381.935 247.011 381.937 248.708V335.716C381.935 337.413 381.26 339.04 380.06 340.239C378.86 341.439 377.234 342.114 375.537 342.116ZM251.449 244.868C250.431 244.869 249.455 245.274 248.735 245.994C248.015 246.714 247.61 247.69 247.609 248.708V335.716C247.61 336.734 248.015 337.71 248.735 338.43C249.455 339.15 250.431 339.555 251.449 339.556H375.537C376.555 339.555 377.531 339.15 378.251 338.43C378.971 337.71 379.376 336.734 379.377 335.716V248.708C379.376 247.69 378.971 246.714 378.251 245.994C377.531 245.274 376.555 244.869 375.537 244.868H251.449Z" fill="#4D76B8"/>
<path d="M302.626 273.414H263.283C262.34 273.414 261.576 274.178 261.576 275.12V314.464C261.576 315.406 262.34 316.17 263.283 316.17H302.626C303.569 316.17 304.333 315.406 304.333 314.464V275.12C304.333 274.178 303.569 273.414 302.626 273.414Z" fill="#D9EBFF"/>
<path d="M360.324 273.414H312.128C311.185 273.414 310.421 274.178 310.421 275.12V283.033C310.421 283.975 311.185 284.74 312.128 284.74H360.324C361.267 284.74 362.031 283.975 362.031 283.033V275.12C362.031 274.178 361.267 273.414 360.324 273.414Z" fill="#A9C0FF"/>
<path d="M323.506 325.29H297.336C296.394 325.29 295.63 326.054 295.63 326.997V330.075C295.63 331.018 296.394 331.782 297.336 331.782H323.506C324.448 331.782 325.212 331.018 325.212 330.075V326.997C325.212 326.054 324.448 325.29 323.506 325.29Z" fill="#A9C0FF"/>
<path d="M360.324 289.129H312.128C311.185 289.129 310.421 289.893 310.421 290.836V298.748C310.421 299.691 311.185 300.455 312.128 300.455H360.324C361.267 300.455 362.031 299.691 362.031 298.748V290.836C362.031 289.893 361.267 289.129 360.324 289.129Z" fill="#A9C0FF"/>
<path d="M360.324 304.845H312.128C311.185 304.845 310.421 305.609 310.421 306.551V314.464C310.421 315.406 311.185 316.17 312.128 316.17H360.324C361.267 316.17 362.031 315.406 362.031 314.464V306.551C362.031 305.609 361.267 304.845 360.324 304.845Z" fill="#A9C0FF"/>
<g opacity="0.28">
<path d="M172.887 213.092H48.7995C45.9718 213.092 43.6795 215.384 43.6795 218.212V305.22C43.6795 308.048 45.9718 310.34 48.7995 310.34H172.887C175.715 310.34 178.007 308.048 178.007 305.22V218.212C178.007 215.384 175.715 213.092 172.887 213.092Z" fill="#6299E8"/>
</g>
<path d="M153.497 200.459H29.4092C26.5815 200.459 24.2892 202.751 24.2892 205.579V292.587C24.2892 295.415 26.5815 297.707 29.4092 297.707H153.497C156.325 297.707 158.617 295.415 158.617 292.587V205.579C158.617 202.751 156.325 200.459 153.497 200.459Z" fill="white"/>
<path d="M158.617 221.899H24.2894V224.459H158.617V221.899Z" fill="#A9C0FF"/>
<path d="M153.497 298.987H29.4094C27.7126 298.985 26.0858 298.31 24.886 297.111C23.6861 295.911 23.0113 294.284 23.0094 292.587V205.579C23.0113 203.882 23.6861 202.256 24.886 201.056C26.0858 199.856 27.7126 199.181 29.4094 199.179H153.497C155.194 199.181 156.821 199.856 158.021 201.056C159.221 202.256 159.895 203.882 159.897 205.579V292.587C159.895 294.284 159.221 295.911 158.021 297.111C156.821 298.31 155.194 298.985 153.497 298.987ZM29.4094 201.739C28.3913 201.74 27.4152 202.145 26.6953 202.865C25.9754 203.585 25.5705 204.561 25.5694 205.579V292.587C25.5705 293.605 25.9754 294.581 26.6953 295.301C27.4152 296.021 28.3913 296.426 29.4094 296.427H153.497C154.515 296.426 155.491 296.021 156.211 295.301C156.931 294.581 157.336 293.605 157.337 292.587V205.579C157.336 204.561 156.931 203.585 156.211 202.865C155.491 202.145 154.515 201.74 153.497 201.739H29.4094Z" fill="#4D76B8"/>
<path d="M138.522 232.845H44.3846C43.442 232.845 42.6779 233.609 42.6779 234.552V242.464C42.6779 243.407 43.442 244.171 44.3846 244.171H138.522C139.464 244.171 140.228 243.407 140.228 242.464V234.552C140.228 233.609 139.464 232.845 138.522 232.845Z" fill="#A9C0FF"/>
<path d="M138.522 248.561H44.3846C43.442 248.561 42.6779 249.325 42.6779 250.267V258.18C42.6779 259.122 43.442 259.886 44.3846 259.886H138.522C139.464 259.886 140.228 259.122 140.228 258.18V250.267C140.228 249.325 139.464 248.561 138.522 248.561Z" fill="#A9C0FF"/>
<path d="M140.229 267.588H42.6777V270.148H140.229V267.588Z" fill="#4D76B8"/>
<path d="M140.229 274.694H42.6777V277.254H140.229V274.694Z" fill="#4D76B8"/>
<path d="M140.229 281.8H42.6777V284.36H140.229V281.8Z" fill="#4D76B8"/>
<path d="M476.87 325.239C521.642 325.239 557.938 288.944 557.938 244.171C557.938 199.398 521.642 163.102 476.87 163.102C432.097 163.102 395.801 199.398 395.801 244.171C395.801 288.944 432.097 325.239 476.87 325.239Z" fill="#D9EBFF"/>
<path d="M354.569 286.038C353.204 286.037 351.869 285.633 350.734 284.874C349.598 284.115 348.713 283.037 348.191 281.775C347.668 280.514 347.531 279.125 347.798 277.786C348.064 276.447 348.722 275.217 349.687 274.251C350.653 273.285 351.883 272.628 353.223 272.361C354.562 272.095 355.95 272.232 357.212 272.754C358.473 273.277 359.552 274.162 360.31 275.297C361.069 276.433 361.474 277.767 361.474 279.133C361.472 280.964 360.744 282.719 359.449 284.013C358.155 285.307 356.4 286.036 354.569 286.038ZM354.569 274.789C353.71 274.789 352.87 275.044 352.156 275.521C351.441 275.998 350.885 276.677 350.556 277.471C350.227 278.265 350.141 279.138 350.309 279.981C350.476 280.824 350.89 281.598 351.498 282.205C352.105 282.813 352.879 283.227 353.722 283.394C354.565 283.562 355.438 283.476 356.232 283.147C357.026 282.818 357.705 282.261 358.182 281.547C358.659 280.832 358.914 279.992 358.914 279.133C358.913 277.981 358.454 276.877 357.64 276.062C356.825 275.248 355.721 274.79 354.569 274.789Z" fill="#4D76B8"/>
<path d="M461.35 276.813C458.598 276.813 455.909 275.997 453.621 274.468C451.333 272.939 449.549 270.766 448.496 268.224C447.443 265.682 447.168 262.885 447.705 260.186C448.241 257.487 449.566 255.008 451.512 253.062C453.458 251.116 455.937 249.791 458.636 249.254C461.335 248.718 464.132 248.993 466.674 250.046C469.217 251.099 471.39 252.882 472.918 255.17C474.447 257.458 475.263 260.148 475.263 262.9C475.259 266.589 473.792 270.125 471.184 272.733C468.575 275.342 465.039 276.809 461.35 276.813ZM461.35 251.547C459.105 251.547 456.91 252.213 455.043 253.46C453.176 254.708 451.721 256.481 450.861 258.555C450.002 260.63 449.777 262.913 450.215 265.115C450.653 267.317 451.735 269.34 453.322 270.928C454.91 272.515 456.933 273.597 459.135 274.035C461.338 274.473 463.62 274.248 465.695 273.389C467.769 272.529 469.542 271.074 470.79 269.207C472.037 267.34 472.703 265.145 472.703 262.9C472.7 259.89 471.502 257.004 469.374 254.876C467.246 252.748 464.36 251.55 461.35 251.547Z" fill="#4D76B8"/>
<path d="M461.35 269.996C459.947 269.996 458.575 269.58 457.408 268.8C456.241 268.021 455.331 266.912 454.794 265.616C454.257 264.319 454.116 262.892 454.39 261.516C454.664 260.139 455.34 258.875 456.332 257.882C457.325 256.89 458.589 256.214 459.966 255.94C461.342 255.666 462.769 255.807 464.066 256.344C465.362 256.881 466.471 257.791 467.25 258.957C468.03 260.124 468.446 261.496 468.446 262.9C468.444 264.781 467.696 266.585 466.366 267.915C465.035 269.246 463.232 269.994 461.35 269.996ZM461.35 258.364C460.453 258.364 459.576 258.63 458.83 259.128C458.084 259.627 457.503 260.335 457.159 261.164C456.816 261.993 456.726 262.905 456.901 263.785C457.076 264.665 457.508 265.473 458.143 266.108C458.777 266.742 459.585 267.174 460.465 267.349C461.345 267.524 462.257 267.434 463.086 267.091C463.915 266.748 464.623 266.166 465.122 265.42C465.62 264.674 465.886 263.797 465.886 262.9C465.885 261.697 465.407 260.544 464.556 259.694C463.706 258.843 462.553 258.365 461.35 258.364Z" fill="#4D76B8"/>
<path d="M424.457 288.748H421.015C419.429 288.746 417.909 288.116 416.788 286.995C415.667 285.874 415.036 284.353 415.035 282.768C415.036 282.313 414.946 281.862 414.77 281.442C414.593 281.022 414.334 280.642 414.008 280.325C413.682 280.008 413.296 279.759 412.874 279.591C412.451 279.424 411.999 279.341 411.544 279.349L360.221 280.413L360.167 277.853L411.491 276.79C412.287 276.773 413.077 276.916 413.817 277.209C414.557 277.502 415.231 277.939 415.799 278.496C416.368 279.053 416.819 279.717 417.128 280.451C417.436 281.185 417.595 281.972 417.595 282.768C417.596 283.675 417.956 284.544 418.598 285.185C419.239 285.826 420.108 286.187 421.015 286.188H424.457C425.364 286.187 426.233 285.826 426.874 285.185C427.516 284.544 427.876 283.675 427.877 282.768V267.6C427.879 266.014 428.51 264.494 429.631 263.374C430.752 262.253 432.271 261.622 433.857 261.62H449.537V264.18H433.857C432.95 264.181 432.081 264.542 431.44 265.183C430.799 265.824 430.438 266.693 430.437 267.6V282.768C430.435 284.353 429.805 285.874 428.684 286.995C427.563 288.116 426.043 288.746 424.457 288.748Z" fill="#4D76B8"/>
<g opacity="0.28">
<path d="M524.437 271.054H483.225C481.811 271.054 480.665 272.2 480.665 273.614V336.665C480.665 338.078 481.811 339.225 483.225 339.225H524.437C525.851 339.225 526.997 338.078 526.997 336.665V273.614C526.997 272.2 525.851 271.054 524.437 271.054Z" fill="#6299E8"/>
</g>
<path d="M535.087 263.611H492.528C491.115 263.611 489.968 264.757 489.968 266.171V329.222C489.968 330.636 491.115 331.782 492.528 331.782H535.087C536.5 331.782 537.647 330.636 537.647 329.222V266.171C537.647 264.757 536.5 263.611 535.087 263.611Z" fill="#A9C0FF"/>
<path d="M517.484 281.285H498.081V282.991H517.484V281.285Z" fill="#4D76B8"/>
<path d="M521.253 275.003H498.081V276.71H521.253V275.003Z" fill="#4D76B8"/>
<path d="M530.257 287.566H498.081V289.273H530.257V287.566Z" fill="#456BA3"/>
<path d="M517.665 308.162H510.673V324.06H517.665V308.162Z" fill="#FAFAFA"/>
<path d="M506.186 305.073H499.194V324.06H506.186V305.073Z" fill="#FAFAFA"/>
<path d="M529.144 297.697H522.153V324.06H529.144V297.697Z" fill="#FAFAFA"/>
<path d="M114.204 162.457C158.977 162.457 195.273 126.161 195.273 81.3885C195.273 36.6156 158.977 0.320068 114.204 0.320068C69.4317 0.320068 33.1361 36.6156 33.1361 81.3885C33.1361 126.161 69.4317 162.457 114.204 162.457Z" fill="#D9EBFF"/>
<path d="M48.7105 214.694C48.7106 216.059 49.1155 217.394 49.8742 218.529C50.6329 219.665 51.7112 220.55 52.9728 221.072C54.2344 221.595 55.6226 221.732 56.9619 221.465C58.3012 221.199 59.5315 220.541 60.497 219.576C61.4626 218.61 62.1202 217.38 62.3866 216.041C62.653 214.701 62.5163 213.313 61.9938 212.051C61.4712 210.79 60.5863 209.712 59.4509 208.953C58.3155 208.194 56.9807 207.789 55.6151 207.789C53.7845 207.791 52.0295 208.519 50.7351 209.814C49.4406 211.108 48.7125 212.863 48.7105 214.694ZM59.9593 214.694C59.9592 215.553 59.7044 216.393 59.227 217.107C58.7496 217.822 58.0711 218.378 57.2772 218.707C56.4834 219.036 55.6099 219.122 54.7672 218.954C53.9244 218.787 53.1504 218.373 52.5428 217.765C51.9353 217.158 51.5215 216.384 51.354 215.541C51.1864 214.698 51.2724 213.825 51.6013 213.031C51.9302 212.237 52.487 211.558 53.2015 211.081C53.9159 210.604 54.7559 210.349 55.6151 210.349C56.7669 210.35 57.8712 210.809 58.6856 211.623C59.5 212.438 59.9581 213.542 59.9593 214.694Z" fill="#4D76B8"/>
<path d="M57.9351 107.913C57.9351 110.664 58.7511 113.354 60.2799 115.642C61.8087 117.93 63.9816 119.714 66.5238 120.767C69.0661 121.82 71.8635 122.095 74.5623 121.558C77.2612 121.022 79.7402 119.696 81.686 117.751C83.6317 115.805 84.9568 113.326 85.4936 110.627C86.0305 107.928 85.755 105.131 84.7019 102.589C83.6489 100.046 81.8656 97.8734 79.5777 96.3446C77.2897 94.8158 74.5998 93.9999 71.8481 93.9999C68.1594 94.004 64.623 95.4712 62.0147 98.0794C59.4064 100.688 57.9393 104.224 57.9351 107.913ZM83.201 107.913C83.201 110.158 82.5351 112.353 81.2877 114.22C80.0402 116.087 78.2671 117.542 76.1926 118.402C74.1182 119.261 71.8355 119.486 69.6332 119.048C67.431 118.61 65.4081 117.528 63.8203 115.94C62.2326 114.353 61.1513 112.33 60.7133 110.128C60.2752 107.925 60.5001 105.643 61.3593 103.568C62.2186 101.494 63.6737 99.7207 65.5407 98.4732C67.4077 97.2257 69.6027 96.5599 71.8481 96.5599C74.858 96.5633 77.7437 97.7605 79.872 99.8888C82.0004 102.017 83.1976 104.903 83.201 107.913Z" fill="#4D76B8"/>
<path d="M64.7518 107.913C64.7518 109.317 65.168 110.688 65.9478 111.855C66.7275 113.022 67.8358 113.932 69.1325 114.469C70.4291 115.006 71.8559 115.147 73.2325 114.873C74.609 114.599 75.8735 113.923 76.8659 112.931C77.8583 111.938 78.5342 110.674 78.808 109.297C79.0818 107.921 78.9413 106.494 78.4042 105.197C77.8671 103.901 76.9575 102.792 75.7905 102.013C74.6236 101.233 73.2516 100.817 71.8481 100.817C69.9667 100.819 68.163 101.567 66.8326 102.898C65.5023 104.228 64.7539 106.032 64.7518 107.913ZM76.3843 107.913C76.3843 108.81 76.1183 109.687 75.6198 110.433C75.1214 111.179 74.4129 111.761 73.584 112.104C72.7551 112.447 71.843 112.537 70.9631 112.362C70.0831 112.187 69.2749 111.755 68.6405 111.121C68.0061 110.486 67.574 109.678 67.399 108.798C67.224 107.918 67.3138 107.006 67.6571 106.177C68.0005 105.348 68.5819 104.64 69.3279 104.141C70.0738 103.643 70.9509 103.377 71.8481 103.377C73.0507 103.378 74.2038 103.857 75.0542 104.707C75.9046 105.557 76.383 106.71 76.3843 107.913Z" fill="#4D76B8"/>
<path d="M46 144.806V148.248C46.0018 149.834 46.6324 151.354 47.7535 152.475C48.8745 153.596 50.3946 154.226 51.98 154.228C52.4353 154.227 52.8863 154.317 53.306 154.493C53.7258 154.67 54.1057 154.929 54.4233 155.255C54.7402 155.581 54.9895 155.967 55.157 156.389C55.3245 156.812 55.4068 157.264 55.3992 157.719L54.3354 209.042L56.8946 209.096L57.9583 157.772C57.9749 156.976 57.8325 156.186 57.5395 155.446C57.2465 154.706 56.8088 154.032 56.252 153.464C55.6952 152.895 55.0306 152.443 54.297 152.135C53.5634 151.827 52.7757 151.668 51.98 151.668C51.0733 151.667 50.204 151.307 49.5628 150.665C48.9216 150.024 48.561 149.155 48.56 148.248V144.806C48.561 143.899 48.9216 143.03 49.5628 142.389C50.204 141.747 51.0733 141.387 51.98 141.386H67.1483C68.7337 141.384 70.2535 140.753 71.3745 139.632C72.4955 138.511 73.1261 136.991 73.1279 135.406V119.726H70.5679V135.406C70.5669 136.313 70.2062 137.182 69.5652 137.823C68.9241 138.464 68.0549 138.825 67.1483 138.826H51.98C50.3946 138.827 48.8745 139.458 47.7535 140.579C46.6324 141.7 46.0018 143.22 46 144.806Z" fill="#4D76B8"/>
<g opacity="0.28">
<path d="M161.772 108.272H120.56C119.146 108.272 118 109.418 118 110.832V173.882C118 175.296 119.146 176.442 120.56 176.442H161.772C163.186 176.442 164.332 175.296 164.332 173.882V110.832C164.332 109.418 163.186 108.272 161.772 108.272Z" fill="#6299E8"/>
</g>
<path d="M172.421 100.829H129.863C128.449 100.829 127.303 101.975 127.303 103.389V166.439C127.303 167.853 128.449 168.999 129.863 168.999H172.421C173.835 168.999 174.981 167.853 174.981 166.439V103.389C174.981 101.975 173.835 100.829 172.421 100.829Z" fill="#A9C0FF"/>
<path d="M154.819 118.502H135.416V120.209H154.819V118.502Z" fill="#4D76B8"/>
<path d="M158.588 112.221H135.416V113.927H158.588V112.221Z" fill="#4D76B8"/>
<path d="M167.592 124.784H135.416V126.49H167.592V124.784Z" fill="#456BA3"/>
<path d="M155 145.38H148.008V161.278H155V145.38Z" fill="#FAFAFA"/>
<path d="M143.521 142.291H136.529V161.277H143.521V142.291Z" fill="#FAFAFA"/>
<path d="M166.479 134.914H159.487V161.277H166.479V134.914Z" fill="#FAFAFA"/>
<path d="M13.5676 334.581C13.0976 334.239 12.7032 333.803 12.4088 333.302C12.1144 332.8 11.9263 332.243 11.8563 331.666C11.7863 331.089 11.8359 330.503 12.0019 329.946C12.168 329.389 12.4469 328.872 12.8214 328.427L31.1052 306.32C31.4228 305.939 31.8733 305.694 32.3652 305.634C32.8571 305.574 33.3534 305.704 33.753 305.997L41.7215 311.823C42.1233 312.114 42.3986 312.549 42.4911 313.037C42.5835 313.525 42.4861 314.03 42.2188 314.448L26.6869 338.553C26.3772 339.043 25.9703 339.464 25.4915 339.79C25.0126 340.116 24.472 340.341 23.9029 340.45C23.3338 340.559 22.7485 340.55 22.1829 340.424C21.6173 340.298 21.0836 340.058 20.6147 339.717L13.5676 334.581Z" fill="#618AC6"/>
<path d="M13.5721 334.575C13.1021 334.233 12.7074 333.798 12.4126 333.297C12.1177 332.796 11.9289 332.24 11.8579 331.663C11.7869 331.086 11.8353 330.501 12 329.943C12.1646 329.386 12.4421 328.868 12.8152 328.422L31.1107 306.319C31.4273 305.938 31.8777 305.693 32.3693 305.635C32.8609 305.576 33.3563 305.707 33.7538 306.003L41.7207 311.817C41.934 311.975 42.1152 312.172 42.2547 312.397L39.2443 310.195C38.8442 309.905 38.3487 309.778 37.8583 309.84C37.3679 309.902 36.9194 310.148 36.6037 310.528L18.3083 332.632C17.6803 333.374 17.3285 334.311 17.3124 335.283C17.2964 336.255 17.6172 337.203 18.2203 337.966L13.5721 334.575Z" fill="#92B1EF"/>
<path d="M45.78 305.295L41.7377 311.75L34.1663 306.122L39.005 300.406L45.78 305.295Z" fill="#4469A0"/>
<path d="M91.1176 273.061C90.1692 266.985 87.4403 261.327 83.276 256.801C79.1117 252.276 73.6991 249.088 67.7226 247.639C61.7462 246.19 55.4742 246.546 49.7 248.661C43.9257 250.777 38.9086 254.557 35.2829 259.525C31.6572 264.492 29.5859 270.422 29.3308 276.567C29.0758 282.711 30.6485 288.793 33.8501 294.043C37.0517 299.294 41.7383 303.477 47.3174 306.064C52.8964 308.651 59.1173 309.525 65.1933 308.577C73.3388 307.301 80.6447 302.843 85.5057 296.184C90.3666 289.525 92.3851 281.208 91.1176 273.061ZM63.8962 300.607C59.3934 301.31 54.7829 300.663 50.6479 298.747C46.5129 296.83 43.039 293.731 40.6657 289.84C38.2923 285.949 37.1259 281.442 37.3141 276.888C37.5023 272.334 39.0366 267.939 41.723 264.257C44.4093 260.575 48.1271 257.773 52.4062 256.204C56.6852 254.636 61.3334 254.371 65.7628 255.444C70.1923 256.517 74.2041 258.879 77.2909 262.232C80.3778 265.585 82.401 269.778 83.1048 274.281C83.5721 277.271 83.446 280.324 82.7336 283.265C82.0212 286.206 80.7365 288.978 78.9528 291.422C77.1691 293.867 74.9213 295.936 72.3379 297.512C69.7545 299.088 66.8861 300.139 63.8962 300.607Z" fill="#618AC6"/>
<path d="M113.785 89.2899C130.632 89.2899 144.29 75.6324 144.29 58.785C144.29 41.9376 130.632 28.28 113.785 28.28C96.9376 28.28 83.2801 41.9376 83.2801 58.785C83.2801 75.6324 96.9376 89.2899 113.785 89.2899Z" fill="white"/>
<path d="M117.129 78.8226C117.129 80.8662 115.39 81.9361 113.67 81.9361C111.95 81.9361 110.211 80.8662 110.211 78.8226C110.21 78.7438 110.226 78.6658 110.256 78.5929C110.286 78.5201 110.33 78.4539 110.386 78.3982C110.442 78.3425 110.508 78.2983 110.581 78.2681C110.654 78.2379 110.732 78.2224 110.811 78.2224H116.529C116.608 78.2224 116.686 78.2379 116.759 78.2681C116.832 78.2983 116.898 78.3425 116.954 78.3982C117.009 78.4539 117.054 78.5201 117.084 78.5929C117.114 78.6658 117.129 78.7438 117.129 78.8226Z" fill="#92B1EF"/>
<path d="M119.958 71.8225V76.0773C119.957 76.9381 119.615 77.7634 119.006 78.3721C118.398 78.9807 117.572 79.3227 116.712 79.3231H110.628C109.768 79.3227 108.942 78.9807 108.334 78.3721C107.725 77.7634 107.383 76.9381 107.382 76.0773V71.8225C107.382 71.7319 107.4 71.6421 107.435 71.5583C107.469 71.4745 107.52 71.3984 107.584 71.3343C107.649 71.2702 107.725 71.2193 107.808 71.1846C107.892 71.1499 107.982 71.1321 108.073 71.1321H119.267C119.358 71.1321 119.448 71.1499 119.532 71.1846C119.615 71.2193 119.691 71.2702 119.755 71.3343C119.82 71.3984 119.87 71.4745 119.905 71.5583C119.94 71.6421 119.958 71.7319 119.958 71.8225Z" fill="#4D76B8"/>
<path d="M126.081 56.6601C126.091 59.9033 124.822 63.0196 122.549 65.3331C121.805 66.4545 121.379 67.7562 121.314 69.1003C121.314 71.8434 119.558 72.454 119.483 72.4778C119.413 72.5011 119.34 72.5131 119.267 72.5131H108.257C108.158 72.513 108.061 72.4919 107.972 72.4512C107.571 72.2671 106.265 71.491 106.265 69.124V68.9705C106.265 67.5896 106.265 66.9452 105.399 65.9196C103.854 64.5401 102.678 62.7959 101.979 60.8457C101.28 58.8955 101.08 56.8014 101.397 54.7542C101.715 52.707 102.54 50.7718 103.796 49.1249C105.053 47.478 106.702 46.1718 108.593 45.3253C110.484 44.4788 112.556 44.1188 114.622 44.2783C116.687 44.4378 118.68 45.1116 120.419 46.2383C122.157 47.3651 123.586 48.9089 124.575 50.7292C125.564 52.5495 126.082 54.5884 126.081 56.6601Z" fill="#92B1EF"/>
<path d="M133.865 57.2135H128.532C128.441 57.2135 128.352 57.1956 128.268 57.161C128.184 57.1263 128.108 57.0754 128.044 57.0113C127.98 56.9472 127.929 56.8711 127.894 56.7873C127.86 56.7035 127.842 56.6137 127.842 56.5231C127.842 56.4324 127.86 56.3426 127.894 56.2588C127.929 56.1751 127.98 56.099 128.044 56.0349C128.108 55.9707 128.184 55.9199 128.268 55.8852C128.352 55.8505 128.441 55.8326 128.532 55.8326H133.865C134.048 55.8326 134.224 55.9054 134.353 56.0349C134.483 56.1643 134.556 56.3399 134.556 56.5231C134.556 56.7062 134.483 56.8818 134.353 57.0113C134.224 57.1408 134.048 57.2135 133.865 57.2135ZM123.795 46.4833C123.658 46.4831 123.525 46.4425 123.411 46.3666C123.298 46.2907 123.21 46.1829 123.158 46.0569C123.105 45.9308 123.092 45.7921 123.118 45.6583C123.145 45.5244 123.21 45.4015 123.307 45.3049L127.146 41.4661C127.21 41.4017 127.286 41.3506 127.37 41.3157C127.453 41.2808 127.543 41.2628 127.634 41.2627C127.725 41.2626 127.815 41.2804 127.899 41.3151C127.983 41.3498 128.059 41.4007 128.123 41.465C128.188 41.5292 128.238 41.6055 128.273 41.6894C128.308 41.7733 128.326 41.8633 128.326 41.9541C128.325 42.0449 128.307 42.1348 128.273 42.2187C128.238 42.3025 128.187 42.3787 128.122 42.4427L124.28 46.2804C124.151 46.4095 123.977 46.4825 123.795 46.4833ZM99.038 57.2135H93.705C93.5219 57.2135 93.3463 57.1408 93.2168 57.0113C93.0873 56.8818 93.0146 56.7062 93.0146 56.5231C93.0146 56.34 93.0873 56.1644 93.2168 56.0349C93.3463 55.9054 93.5219 55.8327 93.705 55.8327H99.038C99.2211 55.8327 99.3967 55.9054 99.5262 56.0349C99.6557 56.1644 99.7285 56.34 99.7285 56.5231C99.7285 56.7062 99.6557 56.8818 99.5262 57.0113C99.3967 57.1408 99.2211 57.2135 99.038 57.2135ZM103.775 46.4833C103.685 46.4833 103.595 46.4654 103.511 46.4305C103.427 46.3957 103.351 46.3447 103.287 46.2804L99.4487 42.4416C99.3192 42.3121 99.2464 42.1365 99.2464 41.9533C99.2464 41.7702 99.3192 41.5945 99.4487 41.465C99.5782 41.3355 99.7539 41.2627 99.937 41.2627C100.12 41.2627 100.296 41.3355 100.425 41.465L104.264 45.3038C104.361 45.4003 104.426 45.5232 104.453 45.6571C104.48 45.791 104.466 45.9297 104.414 46.0558C104.362 46.1819 104.273 46.2898 104.16 46.3657C104.046 46.4415 103.913 46.4821 103.776 46.4822L103.775 46.4833Z" fill="#92B1EF"/>
<path d="M113.904 42.3479C113.721 42.3478 113.545 42.2751 113.416 42.1456C113.286 42.0161 113.213 41.8405 113.213 41.6574V36.3245C113.213 36.2336 113.231 36.1435 113.265 36.0595C113.3 35.9754 113.35 35.899 113.415 35.8347C113.479 35.7703 113.555 35.7192 113.639 35.6844C113.723 35.6495 113.813 35.6316 113.904 35.6316C113.995 35.6316 114.085 35.6495 114.168 35.6844C114.252 35.7192 114.329 35.7703 114.393 35.8347C114.457 35.899 114.508 35.9754 114.542 36.0595C114.577 36.1435 114.594 36.2336 114.594 36.3245V41.6575C114.594 41.7481 114.576 41.8379 114.542 41.9217C114.507 42.0054 114.456 42.0816 114.392 42.1457C114.328 42.2098 114.252 42.2606 114.168 42.2953C114.084 42.33 113.994 42.3479 113.904 42.3479Z" fill="#92B1EF"/>
<path d="M123.384 57.1628C123.324 57.1628 123.264 57.1509 123.208 57.1278C123.152 57.1047 123.101 57.0708 123.059 57.028C123.016 56.9853 122.982 56.9345 122.959 56.8787C122.936 56.8228 122.924 56.7629 122.924 56.7025C122.921 54.2892 121.961 51.9756 120.254 50.2692C118.548 48.5627 116.234 47.6027 113.821 47.5998C113.699 47.5998 113.582 47.5513 113.496 47.465C113.409 47.3787 113.361 47.2616 113.361 47.1395C113.361 47.0174 113.409 46.9003 113.496 46.814C113.582 46.7277 113.699 46.6792 113.821 46.6792C116.479 46.6821 119.026 47.7391 120.905 49.6182C122.784 51.4973 123.841 54.0451 123.844 56.7025C123.844 56.7629 123.832 56.8228 123.809 56.8787C123.786 56.9345 123.752 56.9853 123.71 57.028C123.667 57.0707 123.616 57.1046 123.56 57.1278C123.504 57.1509 123.445 57.1628 123.384 57.1628Z" fill="#D9EBFF"/>
<path d="M113.785 90.5699C107.498 90.5699 101.353 88.7058 96.1262 85.2132C90.8992 81.7206 86.8252 76.7565 84.4195 70.9485C82.0138 65.1406 81.3843 58.7497 82.6108 52.584C83.8372 46.4183 86.8644 40.7548 91.3096 36.3096C95.7548 31.8644 101.418 28.8372 107.584 27.6107C113.75 26.3843 120.141 27.0138 125.949 29.4195C131.757 31.8252 136.721 35.8992 140.213 41.1262C143.706 46.3532 145.57 52.4985 145.57 58.785C145.56 67.2119 142.209 75.291 136.25 81.2498C130.291 87.2086 122.212 90.5604 113.785 90.5699ZM113.785 29.5599C108.005 29.5599 102.354 31.274 97.5484 34.4853C92.7424 37.6965 88.9966 42.2609 86.7846 47.601C84.5727 52.9412 83.9939 58.8173 85.1216 64.4864C86.2492 70.1555 89.0326 75.3629 93.1198 79.4501C97.207 83.5373 102.414 86.3207 108.083 87.4483C113.753 88.576 119.629 87.9972 124.969 85.7852C130.309 83.5733 134.873 79.8274 138.085 75.0214C141.296 70.2154 143.01 64.565 143.01 58.7849C143.001 51.0367 139.919 43.6083 134.44 38.1295C128.962 32.6506 121.533 29.5687 113.785 29.5599Z" fill="#4D76B8"/>
</svg>
