<svg width="1081" height="1023" viewBox="0 0 1081 1023" fill="none" xmlns="http://www.w3.org/2000/svg">
<path fill-rule="evenodd" clip-rule="evenodd" d="M1050 505C1050 579.887 1028.25 651.016 989.661 713.46L1013.15 734.614C1056.38 666.62 1081 588.326 1081 505C1081 472.51 1077.26 440.785 1070.13 410.137L1041.78 425.85C1047.18 451.594 1050 478.054 1050 505ZM540.5 947C657.909 947 764.944 912.875 850.27 855.967L873.948 877.287C782.098 940.378 666.32 978 540.5 978C408.8 978 288.101 936.779 194.332 868.275L223.621 852.04L222.81 850.576C309.389 910.713 419.429 947 540.5 947ZM953.897 246.837C862.046 136.145 712.392 63 540.5 63C416.659 63 304.361 100.966 216.906 163.587L189.637 145.194C284.056 74.6153 406.591 32 540.5 32C722.568 32 883.611 110.78 981.545 231.512L953.897 246.837ZM24.3933 364.082C8.54103 408.591 0 455.923 0 505C0 581.089 20.5303 652.982 57.0078 716.668L84.2537 701.565C50.1016 642.046 31 575.173 31 505C31 462.523 37.9991 421.255 51.0988 382.095L24.3933 364.082Z" fill="#3B434F" fill-opacity="0.2"/>
<g filter="url(#filter0_d_618_3198)">
<rect x="271" y="6" width="524" height="1003" rx="79" fill="#7459D9"/>
<rect x="280" y="15" width="506" height="985" rx="70" stroke="#3B434F" stroke-width="18"/>
</g>
<g filter="url(#filter1_d_618_3198)">
<rect width="437" height="171" rx="85.5" transform="matrix(-1 0 0 1 553 484)" fill="#B4A0FF"/>
<path d="M486 650.5V637H516.5C516.5 637 514.754 648.24 517 654C519.246 659.76 528 666.5 528 666.5C528 666.5 512.944 665.5 500.5 661.5C488.056 657.5 486 650.5 486 650.5Z" fill="#B4A0FF"/>
</g>
<rect width="244" height="17" rx="8.5" transform="matrix(-1 0 0 1 419 539)" fill="#3B434F"/>
<rect width="61" height="17" rx="8.5" transform="matrix(-1 0 0 1 236 570)" fill="#3B434F"/>
<rect width="106" height="17" rx="8.5" transform="matrix(-1 0 0 1 358 570)" fill="#3B434F"/>
<circle cx="661.5" cy="569.5" r="87.5" fill="white"/>
<path d="M669.727 562.699C669.727 562.699 659.402 551.905 641.568 551.905C625.142 551.905 615.287 562.699 615.287 562.699C615.287 562.699 606.895 547.681 617.633 532.663C623.735 524.128 631.076 520.461 641.568 520.461C652.362 520.461 659.871 523.746 666.442 532.663C676.137 545.822 669.727 562.699 669.727 562.699Z" fill="#3B434F"/>
<path d="M669.244 577.561C669.244 577.561 680.038 567.236 680.038 549.402C680.038 532.976 669.244 523.121 669.244 523.121C669.244 523.121 684.262 514.729 699.28 525.467C707.815 531.569 711.482 538.91 711.482 549.402C711.482 560.196 708.197 567.705 699.28 574.276C686.121 583.971 669.244 577.561 669.244 577.561Z" fill="#3B434F"/>
<path d="M654.439 578.211C654.439 578.211 664.764 589.005 682.598 589.005C699.024 589.005 708.879 578.211 708.879 578.211C708.879 578.211 717.271 593.229 706.533 608.247C700.431 616.782 693.09 620.449 682.598 620.449C671.804 620.449 664.295 617.164 657.724 608.247C648.029 595.088 654.439 578.211 654.439 578.211Z" fill="#3B434F"/>
<path d="M654.238 562.439C654.238 562.439 643.444 572.764 643.444 590.598C643.444 607.024 654.238 616.879 654.238 616.879C654.238 616.879 639.22 625.271 624.202 614.533C615.667 608.431 612 601.09 612 590.598C612 579.804 615.285 572.295 624.202 565.724C637.361 556.029 654.238 562.439 654.238 562.439Z" fill="#3B434F"/>
<g filter="url(#filter2_d_618_3198)">
<rect x="516" y="148" width="437" height="171" rx="85.5" fill="#B4A0FF"/>
<path d="M583 314.5V301H552.5C552.5 301 554.246 312.24 552 318C549.754 323.76 541 330.5 541 330.5C541 330.5 556.056 329.5 568.5 325.5C580.944 321.5 583 314.5 583 314.5Z" fill="#B4A0FF"/>
</g>
<rect x="559" y="193" width="83" height="17" rx="8.5" fill="#3B434F"/>
<rect x="748" y="257" width="119" height="17" rx="8.5" fill="#3B434F"/>
<rect x="559" y="257" width="171" height="17" rx="8.5" fill="#3B434F"/>
<rect x="662" y="193" width="225" height="17" rx="8.5" fill="#3B434F"/>
<rect x="559" y="225" width="298" height="17" rx="8.5" fill="#3B434F"/>
<circle cx="398.5" cy="231.5" r="87.5" fill="white"/>
<path d="M357.886 284.451C357.886 284.451 363.471 245.398 361.432 227.089C359.381 208.665 365.158 178 401.539 178C433.624 178 437.207 213.104 436.443 219.587C435.593 226.803 429.164 272.326 436.566 288.242C443.886 303.983 412.888 297.637 412.888 297.637L371.288 296.789L357.886 284.451Z" fill="#3B434F"/>
<path d="M353.965 304.018C353.965 304.018 351.927 276.287 378.027 273.699H389.729V268.309C389.729 268.309 397.96 271.844 406.295 268.703L406.558 273.699H420.233C420.233 273.699 443.648 274.619 442.585 304.281L353.965 304.018Z" fill="white"/>
<path d="M353.854 304.635C353.854 304.635 350.68 276.804 378.027 273.699H389.729V268.309C389.729 268.309 397.96 271.844 406.295 268.703L406.558 273.699H420.233C420.233 273.699 444.045 276.077 442.605 304.635H353.854Z" fill="white"/>
<path d="M354.5 307L353 306L353.424 297.872C354.253 283.715 365.408 272.91 378.173 272.91H387.888V274.356H378.948C366.645 274.356 355.894 284.756 355.095 298.384L354.801 303.414L354.5 307Z" fill="#3B434F"/>
<path d="M442.5 306L441.983 298.384C441.184 284.756 430.433 274.356 418.13 274.356H406.164V272.91H418.827C431.592 272.91 442.747 283.715 443.576 297.872L444 306L442.5 307V306Z" fill="#3B434F"/>
<path d="M391.043 267.699V275.809C391.043 280.017 394.457 283.428 398.669 283.428C402.881 283.428 406.295 280.017 406.295 275.809V267.867C406.738 267.732 407.176 267.586 407.61 267.427V275.864C407.61 280.84 403.577 284.874 398.603 284.874C393.629 284.874 389.597 280.84 389.597 275.864V267.178C390.073 267.366 390.556 267.539 391.043 267.699Z" fill="#3B434F"/>
<path d="M389.531 283.298C390.003 283.298 390.386 283.68 390.386 284.152V297.038C390.386 297.51 390.003 297.892 389.531 297.892C389.059 297.892 388.677 297.51 388.677 297.038V284.152C388.677 283.68 389.059 283.298 389.531 283.298Z" fill="#3B434F"/>
<path d="M407.479 283.166C407.987 283.166 408.399 283.578 408.399 284.086V292.107C408.399 292.615 407.987 293.027 407.479 293.027C406.971 293.027 406.559 292.615 406.559 292.107V284.086C406.559 283.578 406.971 283.166 407.479 283.166Z" fill="#3B434F"/>
<path d="M389.531 296.972C389.785 296.972 389.991 297.178 389.991 297.432V300.719C389.991 300.973 389.785 301.179 389.531 301.179C389.277 301.179 389.071 300.973 389.071 300.719V297.432C389.071 297.178 389.277 296.972 389.531 296.972Z" fill="#3B434F"/>
<path d="M407.545 292.108C407.799 292.108 408.005 292.314 408.005 292.569V295.856C408.005 296.11 407.799 296.316 407.545 296.316C407.291 296.316 407.084 296.11 407.084 295.856V292.569C407.084 292.314 407.291 292.108 407.545 292.108Z" fill="#3B434F"/>
<path d="M384.599 264.461L376.272 266.373C376.272 266.373 366.074 268.683 372.858 275.556C379.643 282.429 397.092 283.643 397.092 283.643C397.092 283.643 392.479 281.458 390.518 278.384L389.861 267.339L384.599 264.461Z" fill="white"/>
<path fill-rule="evenodd" clip-rule="evenodd" d="M397.355 284.305C396.838 284.959 382.308 284.509 372.241 275.758C364.953 269.422 375.923 265.766 375.923 265.766L383.943 263.925L390.912 267.475L391.438 278.125C394.371 282.725 398.186 283.252 397.355 284.305ZM390.123 278.651L389.334 267.475L385.127 265.108L377.106 267.08C377.106 267.08 367.392 269.073 373.556 274.838C380.209 281.06 392.517 282.73 393.805 282.595C395.139 282.456 393.057 283.251 390.123 278.651Z" fill="#3B434F"/>
<path d="M412.73 264.772L421.063 266.69C421.063 266.69 431.267 269.007 424.478 275.901C417.689 282.795 400.229 284.012 400.229 284.012C400.229 284.012 404.846 281.82 406.808 278.737L407.465 267.659L412.73 264.772Z" fill="white"/>
<path fill-rule="evenodd" clip-rule="evenodd" d="M399.968 284.542C400.485 285.198 415.023 284.747 425.096 275.97C432.389 269.615 421.412 265.948 421.412 265.948L413.387 264.102L406.414 267.662L405.888 278.344C402.953 282.958 399.135 283.486 399.968 284.542ZM407.203 278.872L407.993 267.662L412.203 265.288L420.228 267.267C420.228 267.267 429.948 269.265 423.78 275.047C417.123 281.288 404.808 282.963 403.52 282.828C402.184 282.688 404.268 283.485 407.203 278.872Z" fill="#3B434F"/>
<path d="M398.605 185.212C414.961 185.212 427.871 200.497 427.452 218.863L427.006 238.382C426.61 255.684 413.899 269.361 398.605 269.361C383.31 269.361 370.599 255.684 370.204 238.382L369.758 218.863C369.338 200.497 382.248 185.212 398.605 185.212Z" fill="white"/>
<path fill-rule="evenodd" clip-rule="evenodd" d="M428.765 218.254L428.298 238.566C427.883 256.572 414.564 270.804 398.538 270.804C382.512 270.804 369.193 256.572 368.779 238.566L368.311 218.254C367.871 199.143 381.399 183.236 398.538 183.236C415.677 183.236 429.205 199.143 428.765 218.254ZM398.473 185.34C382.34 185.34 369.606 200.506 370.02 218.728L370.46 238.095C370.85 255.262 383.387 268.831 398.473 268.831C413.558 268.831 426.095 255.262 426.485 238.095L426.925 218.728C427.339 200.506 414.606 185.34 398.473 185.34Z" fill="#3B434F"/>
<path d="M412.738 250.191C410.348 252.266 404.95 254.24 398.67 254.24C392.389 254.24 386.991 252.266 384.601 250.191C384.601 250.191 384.356 249.518 384.715 249.159C385.081 248.794 385.653 248.873 385.653 248.873C388.04 250.95 392.386 252.662 398.67 252.662C404.953 252.662 409.299 250.95 411.686 248.873C411.686 248.873 412.27 248.656 412.554 248.94C413.1 249.486 412.738 250.191 412.738 250.191Z" fill="#3B434F"/>
<path d="M394.331 257.396H402.745V258.71H394.331V257.396Z" fill="#3B434F"/>
<path d="M367.971 221.218C367.967 221.218 367.648 220.963 367.045 220.773C366.744 220.679 366.369 220.601 365.943 220.582C365.836 220.577 365.726 220.576 365.614 220.579C365.502 220.582 365.387 220.59 365.27 220.602C365.037 220.627 364.796 220.672 364.554 220.742C363.582 221.021 362.592 221.699 362.01 223.1C361.718 223.8 361.525 224.681 361.474 225.783C361.462 226.058 361.458 226.348 361.463 226.651C361.469 226.955 361.484 227.273 361.509 227.607C361.56 228.274 361.651 229.001 361.786 229.793C361.783 229.792 361.66 232.187 362.516 234.94C363.321 237.631 365.254 240.936 368.823 241.881C368.413 235.046 368.4 228.083 367.971 221.218Z" fill="white"/>
<path d="M368.685 221.495C368.685 221.495 362.468 219.568 362.686 225.96C362.686 225.96 363.612 235.229 364.014 236.083C364.014 236.083 366.456 241.48 370.486 241.719L370.535 243.458C370.535 243.458 363.452 242.55 362.084 234.388L361.004 226.973C361.004 226.973 360.166 217.159 368.298 219.654L368.685 221.495Z" fill="#3B434F"/>
<path d="M366.634 234.373C366.634 234.373 366.286 234.635 365.987 234.635C365.688 234.635 365.344 234.373 365.344 234.373L364.703 227.906C364.703 227.906 365.588 224.722 369.345 226.405L369.434 228.254C369.434 228.254 366.138 227.085 366.206 228.54C366.271 229.942 366.634 234.373 366.634 234.373Z" fill="#3B434F"/>
<path d="M428.679 221.234C428.683 221.234 429.003 220.98 429.609 220.79C429.911 220.695 430.287 220.617 430.716 220.598C430.823 220.593 430.933 220.592 431.046 220.596C431.159 220.599 431.274 220.606 431.391 220.619C431.625 220.644 431.867 220.688 432.111 220.758C433.086 221.037 434.081 221.715 434.666 223.114C434.959 223.814 435.152 224.694 435.204 225.796C435.216 226.071 435.22 226.36 435.215 226.664C435.209 226.967 435.194 227.285 435.169 227.619C435.118 228.285 435.027 229.012 434.891 229.803C434.894 229.803 435.018 232.196 434.157 234.947C433.349 237.636 431.407 240.939 427.823 241.883C428.235 235.053 428.248 228.094 428.679 221.234Z" fill="white"/>
<path d="M428.271 221.51C428.271 221.51 434.516 219.585 434.296 225.972C434.296 225.972 433.367 235.235 432.963 236.088C432.963 236.088 430.51 241.481 426.463 241.72L426.414 243.459C426.414 243.459 433.528 242.551 434.902 234.394L435.986 226.984C435.986 226.984 436.828 217.177 428.66 219.671L428.271 221.51Z" fill="#3B434F"/>
<path d="M430.331 234.377C430.331 234.377 430.68 234.639 430.98 234.639C431.28 234.639 431.626 234.377 431.626 234.377L432.27 227.915C432.27 227.915 431.381 224.733 427.608 226.414L427.519 228.262C427.519 228.262 430.829 227.094 430.761 228.548C430.695 229.949 430.331 234.377 430.331 234.377Z" fill="#3B434F"/>
<path fill-rule="evenodd" clip-rule="evenodd" d="M400.97 233.859C401.123 233.859 401.277 233.859 401.43 233.859C402.381 235.151 402.768 237.137 403.271 238.856C403.426 239.388 403.275 240.32 403.139 240.696C402.641 242.076 401.075 242.051 399.786 242.669C399.44 242.835 399.183 243.121 398.735 243.195C398.442 242.937 398.089 242.887 397.946 242.471C397.591 241.983 398.048 241.677 398.406 241.485C399.055 241.137 401.059 240.794 401.298 240.171C401.595 239.833 401.398 238.818 401.298 238.461C401.044 237.548 400.921 236.786 400.575 235.963C400.345 235.416 399.942 234.84 400.181 234.188C400.379 234.103 400.807 234.006 400.97 233.859Z" fill="#3B434F"/>
<path d="M384.074 222.684C385.527 222.684 386.704 223.861 386.704 225.313C386.704 226.766 385.527 227.943 384.074 227.943C382.622 227.943 381.445 226.766 381.445 225.313C381.445 223.861 382.622 222.684 384.074 222.684Z" fill="#3B434F"/>
<path d="M413.263 222.684C414.716 222.684 415.893 223.861 415.893 225.313C415.893 226.766 414.716 227.943 413.263 227.943C411.811 227.943 410.634 226.766 410.634 225.313C410.634 223.861 411.811 222.684 413.263 222.684Z" fill="#3B434F"/>
<path d="M383.944 232.413C386.485 232.413 388.546 232.559 388.546 235.437C388.546 238.406 386.485 238.461 383.944 238.461C381.402 238.461 379.342 237.921 379.342 235.437C379.342 232.536 381.402 232.413 383.944 232.413Z" fill="white"/>
<path d="M414.448 232.413C416.989 232.413 419.049 232.559 419.049 235.437C419.049 238.406 416.989 238.461 414.448 238.461C411.906 238.461 409.846 237.921 409.846 235.437C409.846 232.536 411.906 232.413 414.448 232.413Z" fill="white"/>
<path d="M405.626 217.921L406.388 218.889L406.86 219.488C406.86 219.488 415.227 214.868 421.034 220.198L421.653 220.502C421.653 220.502 420.223 212.774 407.699 217.294C407.038 217.474 406.349 217.681 405.626 217.921Z" fill="#3B434F"/>
<path d="M391.142 217.926L390.38 218.891L389.908 219.489C389.908 219.489 381.541 214.879 375.734 220.198L375.115 220.501C375.115 220.501 376.545 212.79 389.069 217.3C389.73 217.479 390.419 217.686 391.142 217.926Z" fill="#3B434F"/>
<path d="M369.349 218.348C369.349 218.348 369.383 226.014 369.48 225.842C370.361 224.278 369.241 206.367 394.462 206.909C408.523 207.211 410.634 198.691 410.634 198.691C410.634 198.691 414.255 200.104 419.838 205.857C425.823 212.024 426.938 219.794 426.938 219.794L431.803 202.175L413.79 183.505L400.378 182.716L388.677 184.557L379.999 188.633L370.4 200.86" fill="#3B434F"/>
<rect x="333" y="897" width="400" height="58" rx="29" fill="white"/>
<path fill-rule="evenodd" clip-rule="evenodd" d="M116 760.675C112.773 760.673 109.567 761.204 106.513 762.246C105.656 762.55 104.954 763.178 104.558 763.996C104.162 764.814 104.105 765.754 104.399 766.614C104.692 767.474 105.313 768.183 106.127 768.588C106.94 768.992 107.88 769.06 108.743 768.776C113.737 767.066 119.173 767.172 124.096 769.077C129.019 770.981 133.112 774.56 135.656 779.185C138.2 783.81 139.03 789.184 138.002 794.361C136.973 799.538 134.152 804.187 130.033 807.488C125.915 810.79 120.764 812.533 115.487 812.411C110.211 812.288 105.146 810.309 101.185 806.82C97.2239 803.332 94.6205 798.558 93.8327 793.338C93.045 788.119 94.1235 782.79 96.8784 778.287C97.3312 777.509 97.4615 776.584 97.2415 775.71C97.0214 774.837 96.4685 774.084 95.7009 773.613C94.9332 773.141 94.0116 772.989 93.1332 773.188C92.2547 773.387 91.4889 773.922 90.9996 774.679C87.6095 780.211 86.1501 786.711 86.8497 793.162C87.5493 799.613 90.3685 805.649 94.8659 810.326C99.3632 815.003 105.285 818.056 111.703 819.008C118.121 819.959 124.674 818.756 130.335 815.585C135.996 812.414 140.445 807.455 142.986 801.485C145.527 795.515 146.017 788.871 144.378 782.593C142.739 776.315 139.064 770.757 133.929 766.791C128.794 762.825 122.488 760.674 116 760.675ZM181.55 777.925H171.643C170.201 771.263 167.567 764.916 163.867 759.192L170.877 752.178C171.524 751.531 171.888 750.653 171.888 749.739C171.888 748.824 171.524 747.946 170.877 747.299L158.701 735.121C158.054 734.474 157.176 734.111 156.261 734.111C155.347 734.111 154.469 734.474 153.822 735.121L146.802 742.14C141.088 738.427 134.74 735.796 128.075 734.377V724.45C128.075 723.535 127.712 722.657 127.065 722.01C126.418 721.363 125.54 721 124.625 721H107.375C106.46 721 105.582 721.363 104.935 722.01C104.288 722.657 103.925 723.535 103.925 724.45V734.379C97.2601 735.798 90.9125 738.429 85.1984 742.142L78.1777 735.123C77.5307 734.476 76.6533 734.112 75.7385 734.112C74.8237 734.112 73.9463 734.476 73.2994 735.123L61.1209 747.301C60.4741 747.948 60.1107 748.825 60.1107 749.74C60.1107 750.655 60.4741 751.532 61.1209 752.179L68.133 759.193C64.4323 764.917 61.7972 771.263 60.355 777.925H50.45C49.535 777.925 48.6575 778.288 48.0105 778.935C47.3635 779.582 47 780.46 47 781.375V798.625C47 799.54 47.3635 800.418 48.0105 801.065C48.6575 801.712 49.535 802.075 50.45 802.075H60.355C61.797 808.737 64.4321 815.084 68.133 820.808L61.1209 827.822C60.4741 828.469 60.1107 829.347 60.1107 830.261C60.1107 831.176 60.4741 832.054 61.1209 832.701L73.2994 844.879C73.9585 845.502 74.8313 845.85 75.7385 845.85C76.6457 845.85 77.5185 845.502 78.1777 844.879L85.1984 837.86C90.9125 841.573 97.2601 844.204 103.925 845.623V855.55C103.925 856.465 104.288 857.343 104.935 857.99C105.582 858.637 106.46 859 107.375 859H124.625C125.54 859 126.418 858.637 127.065 857.99C127.712 857.343 128.075 856.465 128.075 855.55V845.621C134.74 844.202 141.088 841.571 146.802 837.858L153.822 844.877C154.482 845.501 155.354 845.848 156.261 845.848C157.169 845.848 158.041 845.501 158.701 844.877L170.877 832.699C171.524 832.052 171.888 831.175 171.888 830.26C171.888 829.345 171.524 828.468 170.877 827.821L163.867 820.807C167.567 815.083 170.201 808.737 171.643 802.075H181.55C182.465 802.075 183.343 801.712 183.99 801.065C184.637 800.418 185 799.54 185 798.625V781.375C185 780.46 184.637 779.582 183.99 778.935C183.343 778.288 182.465 777.925 181.55 777.925ZM178.1 795.175H168.785C167.965 795.175 167.172 795.467 166.547 795.998C165.923 796.53 165.509 797.267 165.378 798.076C164.143 805.703 161.14 812.935 156.61 819.194C156.126 819.858 155.895 820.672 155.958 821.491C156.022 822.31 156.375 823.08 156.955 823.662L163.553 830.261L156.255 837.562L149.655 830.962C149.076 830.383 148.311 830.029 147.496 829.963C146.681 829.896 145.869 830.121 145.204 830.598C138.951 835.138 131.714 838.134 124.082 839.342C123.271 839.471 122.533 839.886 122 840.51C121.467 841.135 121.175 841.929 121.175 842.75V852.1H110.825V842.75C110.825 841.928 110.532 841.133 109.998 840.508C109.463 839.883 108.724 839.47 107.911 839.342C100.279 838.133 93.0409 835.137 86.7871 830.598C86.1225 830.121 85.3102 829.896 84.4951 829.963C83.6799 830.029 82.9149 830.383 82.3366 830.962L75.7385 837.562L68.4383 830.261L75.0381 823.662C75.6181 823.08 75.9715 822.31 76.0347 821.491C76.098 820.672 75.8669 819.858 75.3832 819.194C70.8527 812.935 67.8494 805.703 66.6132 798.076C66.4831 797.268 66.0698 796.533 65.4473 796.001C64.8248 795.47 64.0336 795.177 63.215 795.175H53.9V784.825H63.215C64.035 784.825 64.8284 784.533 65.4527 784.002C66.077 783.47 66.4915 782.733 66.6219 781.924C67.858 774.297 70.8614 767.065 75.3918 760.806C75.8756 760.142 76.1066 759.328 76.0434 758.509C75.9801 757.69 75.6267 756.92 75.0468 756.338L68.4469 749.739L75.7471 742.438L82.3452 749.038C82.9235 749.617 83.6885 749.971 84.5037 750.037C85.3189 750.104 86.1312 749.879 86.7958 749.402C93.0496 744.863 100.288 741.867 107.92 740.658C108.731 740.528 109.468 740.114 110.001 739.489C110.533 738.864 110.825 738.07 110.825 737.25V727.9H121.175V737.25C121.175 738.072 121.468 738.867 122.002 739.492C122.537 740.117 123.276 740.53 124.089 740.658C131.72 741.866 138.958 744.862 145.211 749.402C145.876 749.879 146.688 750.104 147.503 750.037C148.318 749.971 149.083 749.617 149.662 749.038L156.261 742.438L163.56 749.739L156.962 756.338C156.382 756.92 156.029 757.69 155.965 758.509C155.902 759.328 156.133 760.142 156.617 760.806C161.147 767.065 164.149 774.297 165.385 781.924C165.515 782.732 165.929 783.468 166.552 783.999C167.175 784.531 167.966 784.824 168.785 784.825H178.1V795.175Z" fill="#3B434F" fill-opacity="0.2"/>
<path fill-rule="evenodd" clip-rule="evenodd" d="M940.588 386.036C937.401 385.529 934.151 385.552 930.971 386.104C930.078 386.27 929.286 386.781 928.767 387.526C928.249 388.272 928.045 389.192 928.201 390.087C928.356 390.982 928.858 391.78 929.598 392.307C930.338 392.834 931.256 393.048 932.153 392.902C937.353 391.994 942.706 392.95 947.27 395.601C951.835 398.252 955.318 402.427 957.106 407.393C958.895 412.359 958.875 417.797 957.049 422.749C955.223 427.702 951.709 431.852 947.125 434.468C942.541 437.085 937.181 438.001 931.988 437.055C926.796 436.109 922.103 433.361 918.737 429.296C915.37 425.23 913.546 420.108 913.584 414.83C913.622 409.552 915.521 404.456 918.947 400.44C919.516 399.742 919.789 398.849 919.708 397.952C919.628 397.055 919.199 396.225 918.515 395.639C917.83 395.054 916.944 394.759 916.045 394.818C915.146 394.878 914.306 395.286 913.705 395.956C909.491 400.89 907.033 407.083 906.715 413.563C906.396 420.044 908.237 426.447 911.947 431.77C915.657 437.093 921.028 441.035 927.219 442.979C933.409 444.923 940.069 444.759 946.156 442.512C952.244 440.266 957.414 436.064 960.858 430.565C964.302 425.066 965.824 418.58 965.188 412.123C964.551 405.666 961.791 399.603 957.339 394.882C952.888 390.161 946.997 387.05 940.588 386.036ZM1002.63 413.328L992.848 411.778C992.466 404.973 990.857 398.292 988.098 392.059L996.119 386.228C996.859 385.69 997.355 384.881 997.498 383.977C997.641 383.074 997.42 382.15 996.882 381.41L986.76 367.477C986.223 366.736 985.413 366.24 984.509 366.097C983.606 365.954 982.682 366.176 981.942 366.713L973.91 372.548C968.847 367.987 962.989 364.395 956.628 361.951L958.181 352.146C958.324 351.242 958.103 350.319 957.565 349.579C957.027 348.838 956.217 348.342 955.313 348.199L938.276 345.5C937.372 345.357 936.448 345.579 935.708 346.117C934.968 346.655 934.472 347.464 934.329 348.368L932.775 358.175C925.97 358.534 919.289 360.14 913.065 362.913L907.229 354.882C906.691 354.142 905.881 353.646 904.977 353.502C904.074 353.359 903.151 353.581 902.41 354.119L888.477 364.242C887.737 364.78 887.241 365.589 887.097 366.493C886.954 367.397 887.176 368.32 887.714 369.06L893.542 377.085C888.992 382.159 885.396 388.015 882.93 394.369L873.147 392.82C872.243 392.676 871.319 392.898 870.579 393.436C869.839 393.974 869.342 394.784 869.199 395.687L866.501 412.725C866.358 413.629 866.579 414.552 867.117 415.293C867.655 416.033 868.465 416.529 869.369 416.672L879.152 418.222C879.534 425.028 881.144 431.708 883.903 437.941L875.88 443.772C875.14 444.31 874.644 445.119 874.501 446.023C874.358 446.926 874.58 447.85 875.117 448.59L885.241 462.524C885.794 463.243 886.602 463.722 887.498 463.864C888.394 464.006 889.31 463.799 890.059 463.287L898.091 457.453C903.154 462.013 909.012 465.605 915.373 468.049L913.82 477.854C913.677 478.758 913.899 479.681 914.436 480.422C914.974 481.162 915.784 481.658 916.688 481.801L933.725 484.5C934.629 484.643 935.553 484.421 936.293 483.883C937.033 483.346 937.529 482.536 937.673 481.632L939.226 471.825C946.031 471.467 952.712 469.861 958.936 467.088L964.773 475.119C965.326 475.837 966.134 476.317 967.03 476.459C967.926 476.601 968.842 476.394 969.591 475.882L983.523 465.758C984.263 465.22 984.759 464.411 984.902 463.507C985.045 462.603 984.823 461.68 984.286 460.94L978.459 452.916C983.009 447.841 986.603 441.985 989.07 435.631L998.855 437.181C999.758 437.324 1000.68 437.102 1001.42 436.564C1002.16 436.027 1002.66 435.217 1002.8 434.313L1005.5 417.275C1005.64 416.372 1005.42 415.448 1004.88 414.708C1004.35 413.967 1003.54 413.471 1002.63 413.328ZM996.526 429.826L987.326 428.369C986.516 428.24 985.687 428.405 984.987 428.832C984.287 429.26 983.763 429.922 983.507 430.702C981.094 438.041 976.997 444.714 971.544 450.187C970.962 450.767 970.606 451.536 970.541 452.355C970.475 453.174 970.704 453.989 971.185 454.654L976.67 462.205L968.319 468.273L962.833 460.722C962.352 460.061 961.652 459.591 960.858 459.398C960.063 459.205 959.225 459.3 958.494 459.667C951.608 463.172 943.991 464.999 936.264 464.999C935.443 465 934.649 465.293 934.025 465.827C933.401 466.361 932.988 467.1 932.86 467.911L931.397 477.145L921.175 475.526L922.637 466.292C922.766 465.48 922.601 464.648 922.171 463.948C921.741 463.247 921.075 462.723 920.293 462.469C912.944 460.081 906.263 455.99 900.796 450.528C900.215 449.953 899.447 449.604 898.632 449.542C897.816 449.481 897.005 449.711 896.344 450.192L888.794 455.678L882.726 447.326L890.277 441.84C890.941 441.356 891.41 440.651 891.601 439.852C891.792 439.053 891.691 438.212 891.317 437.481C887.821 430.59 885.986 422.978 885.958 415.251C885.956 414.433 885.663 413.642 885.131 413.019C884.6 412.397 883.864 411.984 883.056 411.854L873.856 410.397L875.475 400.174L884.675 401.631C885.485 401.76 886.314 401.596 887.014 401.168C887.714 400.741 888.238 400.078 888.494 399.299C890.908 391.959 895.006 385.286 900.459 379.813C901.041 379.233 901.397 378.465 901.462 377.646C901.528 376.827 901.299 376.012 900.817 375.346L895.331 367.795L903.684 361.727L909.168 369.278C909.649 369.94 910.349 370.409 911.144 370.602C911.938 370.796 912.776 370.7 913.507 370.334C920.394 366.829 928.012 365.002 935.739 365.002C936.56 365 937.353 364.707 937.977 364.173C938.6 363.639 939.013 362.9 939.141 362.09L940.604 352.855L950.826 354.474L949.364 363.709C949.235 364.521 949.401 365.352 949.83 366.053C950.26 366.753 950.926 367.278 951.708 367.531C959.057 369.918 965.737 374.01 971.203 379.472C971.785 380.047 972.552 380.396 973.367 380.458C974.183 380.519 974.994 380.289 975.656 379.808L983.207 374.322L989.273 382.674L981.724 388.161C981.06 388.645 980.591 389.349 980.4 390.148C980.21 390.947 980.31 391.788 980.684 392.52C984.179 399.41 986.014 407.023 986.041 414.749C986.043 415.567 986.336 416.359 986.869 416.981C987.401 417.604 988.137 418.017 988.945 418.146L998.146 419.603L996.526 429.826Z" fill="#3B434F" fill-opacity="0.2"/>
<path fill-rule="evenodd" clip-rule="evenodd" d="M991.613 300.514C989.612 299.863 987.516 299.546 985.412 299.577C984.82 299.592 984.257 299.841 983.847 300.268C983.437 300.696 983.212 301.268 983.221 301.86C983.23 302.452 983.472 303.017 983.895 303.432C984.318 303.847 984.887 304.079 985.479 304.076C988.921 304.022 992.272 305.184 994.942 307.357C997.611 309.53 999.429 312.575 1000.07 315.957C1000.72 319.338 1000.15 322.839 998.471 325.842C996.79 328.846 994.103 331.161 990.883 332.379C987.663 333.596 984.117 333.64 980.869 332.5C977.621 331.361 974.878 329.112 973.124 326.15C971.371 323.188 970.718 319.702 971.281 316.307C971.844 312.911 973.587 309.822 976.204 307.585C976.641 307.193 976.909 306.646 976.948 306.06C976.988 305.473 976.796 304.895 976.415 304.448C976.034 304.001 975.493 303.721 974.908 303.667C974.323 303.614 973.74 303.791 973.284 304.162C970.067 306.91 967.852 310.648 966.985 314.79C966.119 318.932 966.651 323.244 968.498 327.051C970.345 330.859 973.403 333.946 977.192 335.83C980.981 337.713 985.288 338.287 989.438 337.461C993.588 336.635 997.348 334.456 1000.13 331.266C1002.91 328.075 1004.55 324.052 1004.8 319.828C1005.05 315.604 1003.89 311.416 1001.5 307.921C999.115 304.426 995.638 301.821 991.613 300.514ZM1028.79 324.424L1022.65 322.428C1023.1 318.005 1022.74 313.537 1021.6 309.241L1027.36 306.303C1027.9 306.032 1028.3 305.562 1028.48 304.994C1028.67 304.427 1028.62 303.809 1028.35 303.278L1023.25 293.27C1022.98 292.738 1022.51 292.336 1021.94 292.152C1021.37 291.967 1020.75 292.016 1020.22 292.287L1014.45 295.225C1011.66 291.771 1008.25 288.86 1004.4 286.637L1006.4 280.479C1006.59 279.912 1006.54 279.294 1006.27 278.762C1006 278.231 1005.53 277.828 1004.96 277.644L994.259 274.168C993.692 273.983 993.074 274.032 992.543 274.303C992.011 274.574 991.609 275.045 991.424 275.612L989.423 281.771C985.003 281.307 980.536 281.66 976.244 282.811L973.303 277.043C973.032 276.511 972.562 276.109 971.994 275.925C971.427 275.74 970.809 275.789 970.278 276.06L960.27 281.159C959.738 281.43 959.336 281.901 959.151 282.469C958.967 283.036 959.016 283.653 959.286 284.185L962.222 289.948C958.773 292.753 955.86 296.158 953.623 299.999L947.479 298.003C946.912 297.819 946.294 297.867 945.762 298.138C945.231 298.409 944.828 298.88 944.644 299.448L941.168 310.147C940.983 310.715 941.032 311.332 941.303 311.864C941.574 312.396 942.045 312.798 942.612 312.982L948.756 314.979C948.307 319.402 948.663 323.869 949.805 328.166L944.042 331.103C943.51 331.374 943.108 331.845 942.924 332.412C942.739 332.98 942.788 333.597 943.059 334.129L948.158 344.137C948.441 344.656 948.913 345.048 949.475 345.23C950.038 345.413 950.649 345.374 951.184 345.12L956.953 342.181C959.749 345.636 963.156 348.547 967.004 350.77L965.003 356.927C964.819 357.495 964.867 358.113 965.138 358.644C965.409 359.176 965.88 359.578 966.448 359.763L977.147 363.239C977.715 363.423 978.332 363.375 978.864 363.104C979.396 362.833 979.798 362.362 979.982 361.794L981.983 355.636C986.403 356.099 990.871 355.747 995.163 354.595L998.103 360.364C998.386 360.883 998.858 361.274 999.42 361.457C999.983 361.64 1000.59 361.601 1001.13 361.347L1011.14 356.247C1011.67 355.976 1012.07 355.505 1012.25 354.938C1012.44 354.37 1012.39 353.753 1012.12 353.221L1009.18 347.458C1012.63 344.653 1015.55 341.248 1017.78 337.407L1023.93 339.403C1024.49 339.588 1025.11 339.539 1025.64 339.268C1026.18 338.997 1026.58 338.526 1026.76 337.959L1030.24 327.259C1030.42 326.692 1030.37 326.074 1030.1 325.543C1029.83 325.011 1029.36 324.609 1028.79 324.424ZM1023.18 334.428L1017.4 332.551C1016.89 332.386 1016.34 332.407 1015.85 332.611C1015.35 332.815 1014.95 333.188 1014.7 333.664C1012.4 338.146 1009.08 342.026 1005.01 344.995C1004.57 345.309 1004.27 345.768 1004.14 346.289C1004.02 346.81 1004.08 347.358 1004.32 347.836L1007.08 353.259L1001.09 356.316L998.323 350.893C998.081 350.417 997.677 350.044 997.185 349.838C996.693 349.632 996.144 349.608 995.636 349.77C990.842 351.326 985.749 351.725 980.772 350.937C980.243 350.853 979.702 350.962 979.245 351.242C978.789 351.522 978.447 351.956 978.282 352.465L976.398 358.264L969.978 356.178L971.863 350.379C972.028 349.869 972.007 349.317 971.801 348.822C971.596 348.326 971.22 347.921 970.742 347.678C966.252 345.39 962.366 342.073 959.402 337.997C959.086 337.567 958.627 337.264 958.108 337.141C957.589 337.018 957.044 337.084 956.568 337.326L951.146 340.09L948.089 334.09L953.513 331.327C953.99 331.083 954.364 330.677 954.568 330.182C954.772 329.686 954.793 329.135 954.627 328.625C953.078 323.83 952.673 318.739 953.443 313.76C953.525 313.232 953.417 312.693 953.138 312.238C952.859 311.782 952.428 311.441 951.92 311.275L946.143 309.398L948.228 302.978L954.006 304.856C954.515 305.021 955.066 305 955.56 304.796C956.054 304.592 956.46 304.218 956.704 303.743C959.008 299.261 962.328 295.381 966.399 292.412C966.833 292.098 967.141 291.639 967.267 291.118C967.392 290.597 967.328 290.049 967.086 289.571L964.322 284.147L970.322 281.091L973.084 286.514C973.326 286.989 973.729 287.363 974.221 287.569C974.714 287.774 975.263 287.798 975.771 287.637C980.565 286.082 985.658 285.682 990.636 286.47C991.165 286.553 991.706 286.445 992.162 286.165C992.618 285.885 992.959 285.451 993.124 284.942L995.009 279.143L1001.43 281.228L999.544 287.028C999.378 287.537 999.4 288.09 999.605 288.585C999.811 289.08 1000.19 289.486 1000.66 289.729C1005.15 292.016 1009.04 295.333 1012 299.409C1012.32 299.839 1012.78 300.142 1013.3 300.265C1013.82 300.388 1014.36 300.323 1014.84 300.08L1020.26 297.317L1023.32 303.316L1017.89 306.08C1017.42 306.324 1017.04 306.73 1016.84 307.225C1016.63 307.72 1016.61 308.272 1016.78 308.781C1018.33 313.576 1018.73 318.667 1017.96 323.647C1017.88 324.174 1017.99 324.714 1018.27 325.169C1018.55 325.624 1018.98 325.965 1019.49 326.131L1025.26 328.009L1023.18 334.428Z" fill="#3B434F" fill-opacity="0.2"/>
<path d="M1022.34 48.7846L934.421 11.4631C927.322 8.44993 919.148 11.6611 916.2 18.6048L886.538 88.4841C883.535 95.5605 886.905 104.037 893.87 106.994L981.794 144.316C988.65 147.226 996.71 143.731 999.76 136.544L1029.42 66.6647C1032.43 59.5884 1029.31 51.7414 1022.34 48.7846ZM990.915 132.789C989.929 135.111 987.517 136.306 985.549 135.47L897.625 98.1488C895.524 97.257 894.455 94.428 895.384 92.2388L925.046 22.3595C925.928 20.2808 928.455 19.3699 930.666 20.3085L1018.59 57.6301C1020.69 58.5218 1021.52 60.6987 1020.58 62.9101L990.915 132.789Z" fill="url(#paint0_linear_618_3198)" fill-opacity="0.2"/>
<path d="M943.064 63.7787C944.117 63.5732 944.914 63.4158 945.488 63.294C946.742 63.0436 948.835 62.601 949.83 60.257C950.863 57.8245 949.718 54.9894 947.285 53.9569C946.179 53.4875 945.015 53.4632 943.96 53.7981C942.422 54.163 933.185 55.8795 920.679 58.1657C919.008 58.4743 917.589 59.5422 916.888 61.0714C916.165 62.5912 916.243 64.3732 917.069 65.8719L929.55 88.2379C930.083 89.195 930.925 89.9176 931.875 90.3212C933.202 90.8844 934.76 90.8411 936.092 90.1015C938.413 88.8159 939.241 85.8794 937.956 83.5591L928.456 66.5296C930.691 66.1212 933.266 65.6486 935.735 65.1826C938.821 64.6136 941.298 64.1255 943.064 63.7787ZM943.708 53.8999C943.519 53.9762 943.33 54.0526 943.163 54.1384C943.339 54.0305 943.528 53.9541 943.708 53.8999Z" fill="url(#paint1_linear_618_3198)" fill-opacity="0.2"/>
<path d="M997.799 91.2414C990.734 80.648 985.584 72.7986 984.768 71.4608C984.276 70.4689 983.45 69.6484 982.344 69.1791C979.912 68.1466 977.077 69.292 976.044 71.7245C975.049 74.0686 976.185 75.8816 976.876 76.958C977.187 77.4553 977.628 78.1383 978.211 79.0385C979.188 80.5492 980.59 82.6578 982.337 85.3047C983.716 87.4039 985.143 89.5755 986.424 91.4764L967.575 96.4721C965.013 97.1592 963.486 99.7733 964.163 102.358C964.547 103.851 965.608 104.98 966.934 105.543C967.885 105.947 968.968 106.041 970.049 105.769L994.807 99.2104C996.459 98.7631 997.795 97.5819 998.386 96.0057C998.933 94.4108 998.724 92.6261 997.799 91.2414ZM984.867 71.6592C984.953 71.8261 984.997 72.0278 985.074 72.2168C985.02 72.0372 984.943 71.8482 984.867 71.6592Z" fill="url(#paint2_linear_618_3198)" fill-opacity="0.2"/>
<path d="M974.238 57.2291C972.144 55.5834 969.133 55.9756 967.497 58.0474L938.796 94.7985C937.15 96.8924 937.542 99.9036 939.614 101.54C939.943 101.81 940.322 102.023 940.698 102.183C942.644 103.009 944.989 102.464 946.355 100.722L975.057 63.9705C976.702 61.8765 976.342 58.8527 974.238 57.2291Z" fill="#3B434F" fill-opacity="0.2"/>
<path fill-rule="evenodd" clip-rule="evenodd" d="M195.874 219.395C205.398 217.447 214.639 223.508 216.63 232.874C218.63 242.284 212.586 251.624 203.013 253.659C198.286 254.664 195.269 259.31 196.274 264.037L201.731 289.713C202.736 294.44 207.382 297.458 212.109 296.453C216.836 295.448 219.854 290.802 218.849 286.075L214.983 267.886C228.997 260.951 237.147 245.231 233.747 229.235C229.758 210.467 211.397 198.512 192.646 202.194C192.555 202.21 192.464 202.228 192.373 202.248L192.098 202.306C192.007 202.325 191.916 202.346 191.826 202.368C173.199 206.632 161.288 225.021 165.277 243.789C166.282 248.516 170.928 251.533 175.655 250.528C180.382 249.524 183.399 244.877 182.394 240.15C180.404 230.785 186.381 221.49 195.874 219.395ZM217.704 322.1C222.431 321.095 225.449 316.449 224.444 311.722C223.439 306.995 218.793 303.978 214.066 304.982C209.339 305.987 206.322 310.633 207.326 315.36C208.331 320.087 212.977 323.105 217.704 322.1Z" fill="#3B434F" fill-opacity="0.2"/>
<path fill-rule="evenodd" clip-rule="evenodd" d="M53.9701 320.186C57.3097 313.471 65.3825 310.732 72.0215 313.97C78.6923 317.224 81.4992 325.334 78.1897 332.119C76.5555 335.47 77.9468 339.511 81.2976 341.145L99.4982 350.022C102.849 351.656 106.89 350.265 108.524 346.914C110.158 343.563 108.767 339.523 105.416 337.888L92.5235 331.6C94.9638 319.787 89.2779 307.366 77.9395 301.836C64.6361 295.348 48.6485 300.831 41.9809 313.978C41.9475 314.042 41.9152 314.105 41.8835 314.17L41.7885 314.365C41.757 314.43 41.7264 314.495 41.6973 314.56C35.4422 327.908 40.964 343.883 54.2675 350.371C57.6182 352.005 61.6592 350.614 63.2933 347.263C64.9276 343.913 63.5362 339.872 60.1855 338.237C53.5465 334.999 50.7348 326.952 53.9701 320.186ZM126.772 355.694C128.406 352.343 127.015 348.302 123.664 346.668C120.314 345.034 116.273 346.425 114.638 349.776C113.004 353.127 114.396 357.167 117.746 358.802C121.097 360.436 125.138 359.045 126.772 355.694Z" fill="#3B434F" fill-opacity="0.2"/>
<path fill-rule="evenodd" clip-rule="evenodd" d="M82.0386 185.784C94.3371 179.637 109.179 184.533 115.327 196.599C121.504 208.723 116.666 223.694 104.334 229.978C98.2441 233.081 95.8229 240.533 98.9258 246.622L115.78 279.701C118.883 285.791 126.335 288.212 132.425 285.109C138.514 282.006 140.936 274.554 137.833 268.465L125.894 245.033C142.5 230.429 147.879 205.97 137.379 185.363C125.06 161.185 95.6014 151.574 71.3336 163.467C71.2148 163.522 71.097 163.58 70.9791 163.64L70.6251 163.821C70.5077 163.881 70.3911 163.942 70.2767 164.005C46.3904 176.648 36.8504 206.13 49.1698 230.308C52.2727 236.398 59.7249 238.819 65.8141 235.716C71.9039 232.613 74.3251 225.161 71.2222 219.072C65.0743 207.006 69.8368 192.12 82.0386 185.784ZM149.456 318.097C155.546 314.995 157.967 307.543 154.864 301.453C151.761 295.363 144.309 292.942 138.22 296.045C132.13 299.148 129.709 306.6 132.812 312.689C135.914 318.779 143.366 321.2 149.456 318.097Z" fill="#3B434F" fill-opacity="0.2"/>
<path fill-rule="evenodd" clip-rule="evenodd" d="M945.792 732.878C953.392 744.335 950.34 759.664 939.114 767.236C927.833 774.845 912.384 771.867 904.644 760.393C900.822 754.727 893.131 753.231 887.464 757.053L856.686 777.813C851.02 781.635 849.525 789.327 853.347 794.993C857.169 800.659 864.86 802.154 870.526 798.332L892.329 783.626C908.847 798.33 933.78 800.688 952.954 787.755C975.45 772.581 981.399 742.17 966.638 719.533C966.568 719.422 966.496 719.312 966.422 719.202L966.2 718.873C966.126 718.763 966.051 718.655 965.974 718.549C950.515 696.382 920.09 690.506 897.594 705.68C891.927 709.502 890.433 717.194 894.254 722.859C898.076 728.526 905.767 730.021 911.434 726.199C922.66 718.626 938.015 721.539 945.792 732.878ZM822.68 815.917C826.502 821.584 834.193 823.079 839.86 819.257C845.526 815.435 847.021 807.744 843.199 802.077C839.377 796.411 831.686 794.916 826.02 798.738C820.353 802.56 818.858 810.251 822.68 815.917Z" fill="#3B434F" fill-opacity="0.2"/>
<defs>
<filter id="filter0_d_618_3198" x="265" y="0" width="544" height="1023" filterUnits="userSpaceOnUse" color-interpolation-filters="sRGB">
<feFlood flood-opacity="0" result="BackgroundImageFix"/>
<feColorMatrix in="SourceAlpha" type="matrix" values="0 0 0 0 0 0 0 0 0 0 0 0 0 0 0 0 0 0 127 0" result="hardAlpha"/>
<feOffset dx="4" dy="4"/>
<feGaussianBlur stdDeviation="5"/>
<feComposite in2="hardAlpha" operator="out"/>
<feColorMatrix type="matrix" values="0 0 0 0 0 0 0 0 0 0 0 0 0 0 0 0 0 0 0.25 0"/>
<feBlend mode="normal" in2="BackgroundImageFix" result="effect1_dropShadow_618_3198"/>
<feBlend mode="normal" in="SourceGraphic" in2="effect1_dropShadow_618_3198" result="shape"/>
</filter>
<filter id="filter1_d_618_3198" x="110" y="478" width="457" height="202.5" filterUnits="userSpaceOnUse" color-interpolation-filters="sRGB">
<feFlood flood-opacity="0" result="BackgroundImageFix"/>
<feColorMatrix in="SourceAlpha" type="matrix" values="0 0 0 0 0 0 0 0 0 0 0 0 0 0 0 0 0 0 127 0" result="hardAlpha"/>
<feOffset dx="4" dy="4"/>
<feGaussianBlur stdDeviation="5"/>
<feComposite in2="hardAlpha" operator="out"/>
<feColorMatrix type="matrix" values="0 0 0 0 0 0 0 0 0 0 0 0 0 0 0 0 0 0 0.25 0"/>
<feBlend mode="normal" in2="BackgroundImageFix" result="effect1_dropShadow_618_3198"/>
<feBlend mode="normal" in="SourceGraphic" in2="effect1_dropShadow_618_3198" result="shape"/>
</filter>
<filter id="filter2_d_618_3198" x="510" y="142" width="457" height="202.5" filterUnits="userSpaceOnUse" color-interpolation-filters="sRGB">
<feFlood flood-opacity="0" result="BackgroundImageFix"/>
<feColorMatrix in="SourceAlpha" type="matrix" values="0 0 0 0 0 0 0 0 0 0 0 0 0 0 0 0 0 0 127 0" result="hardAlpha"/>
<feOffset dx="4" dy="4"/>
<feGaussianBlur stdDeviation="5"/>
<feComposite in2="hardAlpha" operator="out"/>
<feColorMatrix type="matrix" values="0 0 0 0 0 0 0 0 0 0 0 0 0 0 0 0 0 0 0.25 0"/>
<feBlend mode="normal" in2="BackgroundImageFix" result="effect1_dropShadow_618_3198"/>
<feBlend mode="normal" in="SourceGraphic" in2="effect1_dropShadow_618_3198" result="shape"/>
</filter>
<linearGradient id="paint0_linear_618_3198" x1="905.477" y1="55.5491" x2="1012.95" y2="101.168" gradientUnits="userSpaceOnUse">
<stop stop-color="#3B434F"/>
<stop offset="0.0001" stop-color="#3B434F"/>
</linearGradient>
<linearGradient id="paint1_linear_618_3198" x1="904.718" y1="57.3409" x2="1012.19" y2="102.96" gradientUnits="userSpaceOnUse">
<stop stop-color="#3B434F"/>
</linearGradient>
<linearGradient id="paint2_linear_618_3198" x1="904.594" y1="57.6289" x2="1012.07" y2="103.248" gradientUnits="userSpaceOnUse">
<stop stop-color="#3B434F"/>
</linearGradient>
</defs>
</svg>
