<svg width="487" height="512" viewBox="0 0 487 512" fill="none" xmlns="http://www.w3.org/2000/svg">
<path opacity="0.18" d="M76 124C67.4218 156.332 31.1387 194.929 24.7909 227.767C18.9063 258.196 38.8934 288.092 63.2125 307.32C87.5316 326.548 116.68 338.992 140.656 358.632C164.332 378.04 182.029 403.7 203.989 425.037C225.949 446.375 254.943 463.999 285.387 460.731C337.86 455.088 363.38 395.681 401.295 358.983C433.223 328.109 481.741 305.022 485.987 260.794C488.561 234.028 472.897 209.251 457.568 187.159C427.716 144.08 386.823 103.313 339 80.5C303.817 52.52 252.163 60.0576 193.5 69C146.285 76.1974 91.1177 67.0231 76 124Z" fill="white"/>
<path d="M280.849 93.6436L257.637 115.239C256.049 116.718 254.167 117.848 252.115 118.554C250.062 119.26 247.884 119.527 245.722 119.338L205.481 115.779L202.968 140.573C202.968 140.573 248.063 147.614 254.497 145.718C260.931 143.823 300.759 113.643 300.759 113.643L306.635 80.5392C298.186 80.5049 286.048 87.5374 280.849 93.6436Z" fill="white"/>
<path d="M280.849 93.6436L257.637 115.239C256.049 116.718 254.167 117.848 252.115 118.554C250.062 119.26 247.884 119.527 245.722 119.338L205.481 115.779L202.968 140.573C202.968 140.573 248.063 147.614 254.497 145.718C260.931 143.823 300.759 113.643 300.759 113.643L306.635 80.5392C298.186 80.5049 286.048 87.5374 280.849 93.6436Z" fill="white"/>
<path d="M280.849 93.6436L257.637 115.239C256.049 116.718 254.167 117.848 252.115 118.554C250.062 119.26 247.884 119.527 245.722 119.338L205.481 115.779L202.968 140.573C202.968 140.573 248.063 147.614 254.497 145.718C260.931 143.823 300.759 113.643 300.759 113.643L306.635 80.5392C298.186 80.5049 286.048 87.5374 280.849 93.6436Z" fill="#7459D9"/>
<path d="M434.681 418.271C434.681 432.721 396.337 444.445 349.046 444.445C301.754 444.445 263.41 432.721 263.41 418.271C263.41 416.881 262.732 403.888 263.41 402.559C269.809 390.038 306.301 392.087 349.046 392.087C390.427 392.087 426.695 390.629 434.681 402.559C435.822 404.266 434.681 416.461 434.681 418.271Z" fill="white"/>
<path d="M434.681 418.271C434.681 432.721 396.337 444.445 349.046 444.445C301.754 444.445 263.41 432.721 263.41 418.271C263.41 416.881 262.732 403.888 263.41 402.559C269.809 390.038 306.301 392.087 349.046 392.087C390.427 392.087 426.695 390.629 434.681 402.559C435.822 404.266 434.681 416.461 434.681 418.271Z" fill="url(#paint0_linear_408_3560)"/>
<path d="M349.046 428.733C396.341 428.733 434.681 417.015 434.681 402.559C434.681 388.103 396.341 376.384 349.046 376.384C301.75 376.384 263.41 388.103 263.41 402.559C263.41 417.015 301.75 428.733 349.046 428.733Z" fill="white"/>
<path d="M417.259 398.262C417.245 399.373 416.95 400.461 416.401 401.427C411.254 410.972 383.041 418.262 349.028 418.262C315.016 418.262 286.828 410.972 281.656 401.427C281.111 400.46 280.816 399.372 280.798 398.262C280.798 387.207 311.345 378.254 349.011 378.254C386.678 378.254 417.259 387.207 417.259 398.262Z" fill="url(#paint1_linear_408_3560)"/>
<path d="M416.419 401.427C411.272 410.972 383.058 418.262 349.046 418.262C315.033 418.262 286.845 410.972 281.673 401.427C286.82 391.882 315.033 384.575 349.046 384.575C383.058 384.575 411.254 391.882 416.419 401.427Z" fill="white"/>
<path d="M416.419 401.427C411.272 410.972 383.058 418.262 349.046 418.262C315.033 418.262 286.845 410.972 281.673 401.427C286.82 391.882 315.033 384.575 349.046 384.575C383.058 384.575 411.254 391.882 416.419 401.427Z" fill="url(#paint2_linear_408_3560)"/>
<path d="M449.882 379.978C449.882 394.437 411.538 406.152 364.246 406.152C316.955 406.152 278.61 394.437 278.61 379.978C278.61 378.589 277.933 365.596 278.61 364.266C285.01 351.745 321.501 353.803 364.246 353.803C405.627 353.803 441.896 352.345 449.882 364.266C451.023 365.973 449.882 378.211 449.882 379.978Z" fill="white"/>
<path d="M449.882 379.978C449.882 394.437 411.538 406.152 364.246 406.152C316.955 406.152 278.61 394.437 278.61 379.978C278.61 378.589 277.933 365.596 278.61 364.266C285.01 351.745 321.501 353.803 364.246 353.803C405.627 353.803 441.896 352.345 449.882 364.266C451.023 365.973 449.882 378.211 449.882 379.978Z" fill="url(#paint3_linear_408_3560)"/>
<path d="M364.246 390.441C411.541 390.441 449.882 378.722 449.882 364.266C449.882 349.81 411.541 338.092 364.246 338.092C316.951 338.092 278.61 349.81 278.61 364.266C278.61 378.722 316.951 390.441 364.246 390.441Z" fill="white"/>
<path d="M364.246 390.441C411.541 390.441 449.882 378.722 449.882 364.266C449.882 349.81 411.541 338.092 364.246 338.092C316.951 338.092 278.61 349.81 278.61 364.266C278.61 378.722 316.951 390.441 364.246 390.441Z" fill="url(#paint4_linear_408_3560)"/>
<path d="M432.46 359.978C432.442 361.085 432.147 362.17 431.602 363.134C426.455 372.679 398.233 379.978 364.22 379.978C330.208 379.978 302.029 372.679 296.856 363.134C296.308 362.172 296.012 361.086 295.998 359.978C295.998 348.923 326.537 339.961 364.203 339.961C401.87 339.961 432.46 348.923 432.46 359.978Z" fill="url(#paint5_linear_408_3560)"/>
<path d="M431.619 363.134C426.472 372.679 398.25 379.978 364.238 379.978C330.225 379.978 302.046 372.679 296.873 363.134C302.02 353.589 330.234 346.29 364.238 346.29C398.241 346.29 426.455 353.589 431.619 363.134Z" fill="url(#paint6_linear_408_3560)"/>
<path d="M424.671 345.947C424.671 360.407 386.335 372.122 339.043 372.122C291.752 372.122 253.408 360.407 253.408 345.947C253.408 344.566 252.73 331.565 253.408 330.244C259.807 317.723 296.298 319.773 339.043 319.773C380.425 319.773 416.693 318.315 424.671 330.244C425.812 331.942 424.671 344.138 424.671 345.947Z" fill="white"/>
<path d="M424.671 345.947C424.671 360.407 386.335 372.122 339.043 372.122C291.752 372.122 253.408 360.407 253.408 345.947C253.408 344.566 252.73 331.565 253.408 330.244C259.807 317.723 296.298 319.773 339.043 319.773C380.425 319.773 416.693 318.315 424.671 330.244C425.812 331.942 424.671 344.138 424.671 345.947Z" fill="url(#paint7_linear_408_3560)"/>
<path d="M339.043 356.419C386.339 356.419 424.679 344.7 424.679 330.244C424.679 315.788 386.339 304.07 339.043 304.07C291.748 304.07 253.408 315.788 253.408 330.244C253.408 344.7 291.748 356.419 339.043 356.419Z" fill="white"/>
<path d="M407.257 325.948C407.24 327.055 406.945 328.14 406.399 329.104C401.252 338.649 373.03 345.947 339.018 345.947C305.005 345.947 276.826 338.649 271.653 329.104C271.104 328.141 270.809 327.055 270.796 325.948C270.796 314.893 301.342 305.939 339.009 305.939C376.676 305.939 407.257 314.893 407.257 325.948Z" fill="url(#paint8_linear_408_3560)"/>
<path d="M406.416 329.104C401.269 338.649 373.047 345.947 339.035 345.947C305.022 345.947 276.843 338.649 271.671 329.104C276.817 319.558 305.022 312.26 339.035 312.26C373.047 312.26 401.252 319.558 406.416 329.104Z" fill="url(#paint9_linear_408_3560)"/>
<path d="M440.026 309.79C440.026 324.241 401.681 335.965 354.39 335.965C307.098 335.965 268.754 324.241 268.754 309.79C268.754 308.401 268.076 295.408 268.754 294.078C275.153 281.557 311.645 283.616 354.39 283.616C395.771 283.616 432.039 282.158 440.026 294.078C441.167 295.785 440.026 307.981 440.026 309.79Z" fill="white"/>
<path d="M440.026 309.79C440.026 324.241 401.681 335.965 354.39 335.965C307.098 335.965 268.754 324.241 268.754 309.79C268.754 308.401 268.076 295.408 268.754 294.078C275.153 281.557 311.645 283.616 354.39 283.616C395.771 283.616 432.039 282.158 440.026 294.078C441.166 295.785 440.026 307.981 440.026 309.79Z" fill="url(#paint10_linear_408_3560)"/>
<path d="M354.39 320.253C401.685 320.253 440.026 308.534 440.026 294.078C440.026 279.623 401.685 267.904 354.39 267.904C307.094 267.904 268.754 279.623 268.754 294.078C268.754 308.534 307.094 320.253 354.39 320.253Z" fill="white"/>
<path d="M354.39 320.253C401.685 320.253 440.026 308.534 440.026 294.078C440.026 279.623 401.685 267.904 354.39 267.904C307.094 267.904 268.754 279.623 268.754 294.078C268.754 308.534 307.094 320.253 354.39 320.253Z" fill="url(#paint11_linear_408_3560)"/>
<path d="M422.569 289.782C422.555 290.892 422.26 291.981 421.711 292.946C416.564 302.492 388.342 309.79 354.338 309.79C320.334 309.79 292.181 302.492 287.034 292.946C286.485 291.981 286.19 290.892 286.176 289.782C286.176 278.736 316.715 269.773 354.39 269.773C392.065 269.773 422.569 278.727 422.569 289.782Z" fill="url(#paint12_linear_408_3560)"/>
<path d="M421.763 292.946C416.616 302.492 388.394 309.79 354.39 309.79C320.386 309.79 292.181 302.492 287.034 292.946C292.181 283.401 320.395 276.103 354.407 276.103C388.419 276.103 416.564 283.401 421.763 292.946Z" fill="url(#paint13_linear_408_3560)"/>
<path d="M440.026 273.633C440.026 288.084 401.681 299.807 354.39 299.807C307.098 299.807 268.754 288.084 268.754 273.633C268.754 272.243 268.076 259.25 268.754 257.921C275.153 245.4 311.645 247.458 354.39 247.458C395.771 247.458 432.039 245.991 440.026 257.921C441.167 259.628 440.026 271.866 440.026 273.633Z" fill="white"/>
<path d="M440.026 273.633C440.026 288.084 401.681 299.807 354.39 299.807C307.098 299.807 268.754 288.084 268.754 273.633C268.754 272.243 268.076 259.25 268.754 257.921C275.153 245.4 311.645 247.458 354.39 247.458C395.771 247.458 432.039 245.991 440.026 257.921C441.166 259.628 440.026 271.866 440.026 273.633Z" fill="url(#paint14_linear_408_3560)"/>
<path d="M354.39 284.096C401.685 284.096 440.026 272.377 440.026 257.921C440.026 243.465 401.685 231.747 354.39 231.747C307.094 231.747 268.754 243.465 268.754 257.921C268.754 272.377 307.094 284.096 354.39 284.096Z" fill="white"/>
<path d="M354.39 284.096C401.685 284.096 440.026 272.377 440.026 257.921C440.026 243.465 401.685 231.747 354.39 231.747C307.094 231.747 268.754 243.465 268.754 257.921C268.754 272.377 307.094 284.096 354.39 284.096Z" fill="url(#paint15_linear_408_3560)"/>
<path d="M422.569 253.624C422.555 254.735 422.26 255.823 421.711 256.789C416.564 266.334 388.342 273.624 354.338 273.624C320.334 273.624 292.181 266.334 287.034 256.789C286.485 255.823 286.19 254.735 286.176 253.624C286.176 242.57 316.715 233.616 354.39 233.616C392.065 233.616 422.569 242.57 422.569 253.624Z" fill="url(#paint16_linear_408_3560)"/>
<path d="M421.763 256.789C416.616 266.334 388.394 273.624 354.39 273.624C320.386 273.624 292.181 266.334 287.034 256.789C292.181 247.244 320.395 239.937 354.407 239.937C388.419 239.937 416.564 247.244 421.763 256.789Z" fill="url(#paint17_linear_408_3560)"/>
<path d="M417.13 235.211C417.13 249.662 378.786 261.386 331.495 261.386C284.203 261.386 245.859 249.662 245.859 235.211C245.859 233.822 245.181 220.829 245.859 219.5C252.258 206.978 288.75 209.028 331.495 209.028C372.876 209.028 409.144 207.57 417.13 219.5C418.28 221.206 417.13 233.402 417.13 235.211Z" fill="white"/>
<path d="M417.13 235.211C417.13 249.662 378.786 261.386 331.495 261.386C284.203 261.386 245.859 249.662 245.859 235.211C245.859 233.822 245.181 220.829 245.859 219.5C252.258 206.978 288.75 209.028 331.495 209.028C372.876 209.028 409.144 207.57 417.13 219.5C418.28 221.206 417.13 233.402 417.13 235.211Z" fill="url(#paint18_linear_408_3560)"/>
<path d="M331.495 245.674C378.79 245.674 417.131 233.955 417.131 219.5C417.131 205.044 378.79 193.325 331.495 193.325C284.199 193.325 245.859 205.044 245.859 219.5C245.859 233.955 284.199 245.674 331.495 245.674Z" fill="white"/>
<path d="M399.717 215.203C399.702 216.313 399.407 217.402 398.859 218.368C393.712 227.913 365.499 235.203 331.486 235.203C297.474 235.203 269.286 227.913 264.113 218.368C263.568 217.4 263.274 216.313 263.255 215.203C263.255 204.148 293.802 195.195 331.469 195.195C369.136 195.195 399.717 204.114 399.717 215.203Z" fill="url(#paint19_linear_408_3560)"/>
<path d="M398.868 218.368C393.721 227.913 365.507 235.203 331.495 235.203C297.482 235.203 269.294 227.913 264.122 218.368C269.269 208.822 297.482 201.515 331.495 201.515C365.507 201.515 393.704 208.822 398.868 218.368Z" fill="white"/>
<path d="M398.868 218.368C393.721 227.913 365.507 235.203 331.495 235.203C297.482 235.203 269.294 227.913 264.122 218.368C269.269 208.822 297.482 201.515 331.495 201.515C365.507 201.515 393.704 208.822 398.868 218.368Z" fill="url(#paint20_linear_408_3560)"/>
<path opacity="0.19" d="M365.284 197.87C367.969 199.208 370.165 202.013 369.839 205.006C369.659 206.721 368.664 208.359 368.741 210.1C368.81 211.978 370.096 213.573 370.723 215.34C372.172 219.44 369.865 224.174 366.202 226.558C364.326 227.694 362.307 228.574 360.197 229.174C348.826 232.83 337.07 235.164 325.164 236.129C318.85 236.635 312.451 236.763 306.343 238.436C302.458 239.499 298.752 241.172 294.857 242.244C293.914 242.577 292.903 242.671 291.915 242.518C289.959 242.064 288.81 239.817 289.024 237.81C289.376 235.81 290.406 233.993 291.941 232.664C295.089 229.602 299.164 227.741 302.844 225.34C307.562 222.27 311.628 218.316 315.934 214.671C319.691 211.498 323.654 208.548 327.592 205.606C332.421 202.004 337.302 198.376 342.715 195.743C348.128 193.111 357.967 194.886 357.023 194.886C357.272 197.15 363.38 196.91 365.284 197.87Z" fill="url(#paint21_linear_408_3560)"/>
<path d="M286.176 170.555C286.176 170.555 213.382 164.44 211.323 203.299L205.782 212.381L245.859 235.211C245.859 235.211 242.522 225.657 251.649 221.009C260.776 216.361 297.611 214.097 303.315 203.299C309.02 192.502 286.176 170.555 286.176 170.555Z" fill="#2F235B"/>
<path d="M298.752 180.143C298.752 180.143 252.19 198.479 248.226 218.359C244.263 238.239 245.859 235.211 245.859 235.211L263.015 247.329L288.158 243.084C288.158 243.084 293.305 231.746 309.723 228.71C326.142 225.674 349.423 220.709 354.458 207.733C359.494 194.757 358.662 180.143 358.662 180.143H298.752Z" fill="#392B6D"/>
<path opacity="0.19" d="M159.957 512C247.02 512 317.598 498 317.598 480.731C317.598 463.462 247.02 449.462 159.957 449.462C72.8944 449.462 2.3161 463.462 2.3161 480.731C2.3161 498 72.8944 512 159.957 512Z" fill="url(#paint22_linear_408_3560)"/>
<path d="M277.684 478.132L264.096 482.103C261.065 482.984 257.883 483.217 254.756 482.789C251.629 482.361 248.626 481.281 245.944 479.618C243.261 477.956 240.958 475.748 239.183 473.139C237.408 470.529 236.202 467.576 235.642 464.471L225.168 407.825L277.744 387.765L291.778 454.419C292.844 459.42 291.985 464.638 289.373 469.034C286.76 473.429 282.586 476.678 277.684 478.132Z" fill="white"/>
<path d="M277.684 478.133L264.396 395.132L278.181 389.832L291.778 454.419C292.844 459.42 291.985 464.638 289.373 469.034C286.76 473.429 282.586 476.678 277.684 478.133Z" fill="url(#paint23_linear_408_3560)"/>
<path d="M119.588 469.376L105.477 470.457C102.326 470.687 99.1617 470.254 96.1881 469.187C93.2145 468.119 90.4977 466.44 88.2129 464.259C85.928 462.077 84.1259 459.441 82.9226 456.52C81.7193 453.599 81.1416 450.459 81.2266 447.301L82.5563 389.703L138.1 380.964L138.22 449.094C138.245 454.2 136.339 459.128 132.884 462.889C129.429 466.65 124.68 468.968 119.588 469.376Z" fill="white"/>
<path d="M119.588 469.376L123.534 385.407L138.117 383.065L138.229 449.102C138.251 454.209 136.343 459.135 132.886 462.895C129.43 466.655 124.68 468.97 119.588 469.376Z" fill="#7459D9"/>
<path d="M317.161 306.78C307.356 369.678 240.369 418.339 159.219 418.339C78.0699 418.339 11.0315 369.678 1.22668 306.78C11.0315 243.899 78.0099 195.238 159.219 195.238C240.429 195.238 307.356 243.899 317.161 306.78Z" fill="white"/>
<path d="M317.161 306.78C307.356 369.678 240.369 418.339 159.219 418.339C78.0699 418.339 11.0315 369.678 1.22668 306.78C11.0315 243.899 78.0099 195.238 159.219 195.238C240.429 195.238 307.356 243.899 317.161 306.78Z" fill="white"/>
<path d="M320.06 237.621C320.06 237.621 327.403 210.091 356.346 212.536C385.288 214.98 381.994 255.811 356.346 277.715C356.346 277.749 328.038 242.793 320.06 237.621Z" fill="url(#paint24_linear_408_3560)"/>
<path d="M320.06 237.621C320.06 237.621 327.403 210.091 356.346 212.536C385.288 214.98 381.994 255.811 356.346 277.715C356.346 277.749 328.038 242.793 320.06 237.621Z" fill="url(#paint25_linear_408_3560)"/>
<path d="M334.711 244.937C334.711 244.937 339.858 225.752 359.991 227.458C380.124 229.165 377.86 257.612 359.991 272.912C359.991 272.895 340.27 248.539 334.711 244.937Z" fill="white"/>
<path d="M334.711 244.937C334.711 244.937 339.858 225.752 359.991 227.458C380.124 229.165 377.86 257.612 359.991 272.912C359.991 272.895 340.27 248.539 334.711 244.937Z" fill="url(#paint26_linear_408_3560)"/>
<path d="M318.396 322.74C318.396 393.151 247.111 450.251 159.219 450.251C71.3275 450.251 -6.04316e-06 393.151 -6.04316e-06 322.74C-0.00368068 317.396 0.406437 312.06 1.22667 306.78C11.0315 369.678 78.0098 418.339 159.219 418.339C240.429 418.339 307.381 369.678 317.186 306.78C318.001 312.061 318.405 317.397 318.396 322.74Z" fill="url(#paint27_linear_408_3560)"/>
<path d="M318.396 322.74C318.396 393.151 247.12 450.251 159.219 450.251C71.3189 450.251 0 393.151 0 322.74C0.000606529 317.399 0.410701 312.066 1.22668 306.788C11.0315 369.678 78.0099 418.348 159.219 418.348C178.725 418.4 198.127 415.509 216.77 409.772C224.096 404.626 214.566 378.245 214.36 377.645L228.205 384.84L241.467 400.046C282.213 380.321 311.019 346.376 317.186 306.805C318 312.078 318.404 317.405 318.396 322.74Z" fill="#604BAF"/>
<path d="M413.545 337.766C413.558 352.159 410.425 366.381 404.366 379.437C388.068 414.6 351.851 438.999 309.758 438.999C295.697 439.045 281.771 436.258 268.81 430.807C255.85 425.355 244.12 417.349 234.321 407.267C216.156 388.679 205.978 363.727 205.962 337.74C205.962 281.823 252.438 236.541 309.758 236.541C367.077 236.541 413.545 281.849 413.545 337.766Z" fill="white"/>
<path d="M413.545 337.766C413.558 352.159 410.425 366.381 404.366 379.437C388.068 414.6 351.851 438.999 309.758 438.999C295.697 439.045 281.771 436.258 268.81 430.807C255.85 425.355 244.12 417.349 234.321 407.267C216.156 388.679 205.978 363.727 205.962 337.74C205.962 281.823 252.438 236.541 309.758 236.541C367.077 236.541 413.545 281.849 413.545 337.766Z" fill="url(#paint28_linear_408_3560)"/>
<path d="M331.598 325.544C335.762 325.544 339.138 322.143 339.138 317.946C339.138 313.749 335.762 310.347 331.598 310.347C327.433 310.347 324.057 313.749 324.057 317.946C324.057 322.143 327.433 325.544 331.598 325.544Z" fill="white"/>
<path d="M380.193 319.224C384.357 319.224 387.733 315.822 387.733 311.625C387.733 307.429 384.357 304.027 380.193 304.027C376.029 304.027 372.653 307.429 372.653 311.625C372.653 315.822 376.029 319.224 380.193 319.224Z" fill="white"/>
<path d="M331.598 325.544C335.762 325.544 339.138 322.143 339.138 317.946C339.138 313.749 335.762 310.347 331.598 310.347C327.433 310.347 324.057 313.749 324.057 317.946C324.057 322.143 327.433 325.544 331.598 325.544Z" fill="url(#paint29_linear_408_3560)"/>
<path d="M380.193 319.224C384.357 319.224 387.733 315.822 387.733 311.625C387.733 307.429 384.357 304.027 380.193 304.027C376.029 304.027 372.653 307.429 372.653 311.625C372.653 315.822 376.029 319.224 380.193 319.224Z" fill="url(#paint30_linear_408_3560)"/>
<path d="M390.658 330.459L398.705 374C395.83 375.409 392.777 376.419 389.629 377.002C373.879 379.926 359.202 372.036 356.852 359.343C354.501 346.651 365.361 333.932 381.111 330.982C384.254 330.372 387.467 330.196 390.658 330.459Z" fill="white"/>
<path d="M390.658 330.459L398.705 374C395.83 375.409 392.777 376.419 389.629 377.002C373.879 379.926 359.202 372.036 356.852 359.343C354.501 346.651 365.361 333.932 381.111 330.982C384.254 330.372 387.467 330.196 390.658 330.459Z" fill="url(#paint31_linear_408_3560)"/>
<path d="M398.12 374.212C404.499 373.041 407.873 362.313 405.657 350.252C403.441 338.191 396.473 329.364 390.094 330.536C383.715 331.707 380.34 342.434 382.557 354.495C384.773 366.556 391.741 375.384 398.12 374.212Z" fill="white"/>
<path d="M398.12 374.212C404.499 373.041 407.873 362.313 405.657 350.252C403.441 338.191 396.473 329.364 390.094 330.536C383.715 331.707 380.34 342.434 382.557 354.495C384.773 366.556 391.741 375.384 398.12 374.212Z" fill="url(#paint32_linear_408_3560)"/>
<path d="M393.275 351.067C394.484 355.304 394.793 358.932 393.961 359.172C393.129 359.412 391.465 356.179 390.255 351.942C389.046 347.705 388.737 344.086 389.569 343.846C390.401 343.606 392.065 346.839 393.275 351.067Z" fill="url(#paint33_linear_408_3560)"/>
<path d="M401.587 348.469C402.831 352.757 403.157 356.496 402.325 356.745C401.493 356.993 399.811 353.674 398.576 349.343C397.341 345.013 397.006 341.308 397.838 341.067C398.67 340.827 400.352 344.138 401.587 348.469Z" fill="url(#paint34_linear_408_3560)"/>
<path d="M404.503 377.619L404.366 379.438C388.068 414.6 351.851 438.999 309.758 438.999C295.697 439.045 281.771 436.258 268.81 430.807C255.85 425.355 244.12 417.349 234.321 407.267C234.321 407.267 242.256 395.827 300.459 405.638C358.662 415.449 404.503 377.619 404.503 377.619Z" fill="url(#paint35_linear_408_3560)"/>
<path d="M264.885 261.146C264.885 261.146 257.551 233.616 228.6 236.069C199.648 238.522 202.951 279.345 228.6 301.248C228.6 301.283 256.908 266.326 264.885 261.146Z" fill="url(#paint36_linear_408_3560)"/>
<path d="M264.885 261.146C264.885 261.146 257.551 233.616 228.6 236.069C199.648 238.522 202.951 279.345 228.6 301.248C228.6 301.283 256.908 266.326 264.885 261.146Z" fill="url(#paint37_linear_408_3560)"/>
<path d="M261.514 264.799C261.514 264.799 256.367 245.623 236.234 247.329C216.101 249.036 218.366 277.475 236.234 292.783C236.234 292.766 255.955 268.435 261.514 264.799Z" fill="white"/>
<path d="M261.514 264.799C261.514 264.799 256.367 245.623 236.234 247.329C216.101 249.036 218.366 277.475 236.234 292.783C236.234 292.766 255.955 268.435 261.514 264.799Z" fill="url(#paint38_linear_408_3560)"/>
<path d="M216.693 229.903L209.282 233.213L201.896 236.523C158.705 210.795 120.026 211.241 99.7126 214.131C94.6605 214.785 89.673 215.867 84.8038 217.364L106.344 208.788C106.344 208.788 118.79 203.599 152.185 205.538C194.544 207.973 216.693 229.903 216.693 229.903Z" fill="#3E326D"/>
<path d="M216.693 229.903L209.282 233.213L191.267 220.803C162.496 203.342 110.058 210.64 110.058 210.64L99.6697 214.131C94.6176 214.785 89.6301 215.867 84.7609 217.364L106.301 208.788C106.301 208.788 118.748 203.599 152.142 205.538C194.544 207.973 216.693 229.903 216.693 229.903Z" fill="white"/>
<path d="M216.693 229.903L209.282 233.213L191.267 220.803C162.496 203.342 110.058 210.64 110.058 210.64L99.6697 214.131C94.6176 214.785 89.6301 215.867 84.7609 217.364L106.301 208.788C106.301 208.788 118.748 203.599 152.142 205.538C194.544 207.973 216.693 229.903 216.693 229.903Z" fill="url(#paint39_linear_408_3560)"/>
<path d="M198.053 497.129L183.967 498.544C180.827 498.843 177.658 498.482 174.666 497.483C171.673 496.485 168.923 494.871 166.592 492.745C164.261 490.62 162.4 488.03 161.131 485.143C159.861 482.255 159.21 479.134 159.219 475.98V418.339L214.549 408.305L216.264 476.417C216.407 481.531 214.609 486.509 211.23 490.352C207.852 494.194 203.144 496.615 198.053 497.129ZM57.6625 482.155L43.5857 483.561C40.4416 483.865 37.2688 483.506 34.272 482.508C31.2752 481.51 28.5208 479.895 26.1866 477.767C23.8524 475.64 21.9901 473.046 20.7199 470.155C19.4497 467.264 18.7997 464.138 18.8119 460.98V348.906L74.1411 393.331L74.2698 398.691L75.8224 461.435C75.9646 466.541 74.1728 471.512 70.8056 475.354C67.4384 479.196 62.7442 481.625 57.6625 482.155Z" fill="white"/>
<path d="M57.6624 482.155C57.6624 482.155 60.9221 411.83 65.3828 404.043C69.8434 396.255 74.2955 398.691 74.2955 398.691L75.8482 461.435C75.9897 466.545 74.1944 471.52 70.8218 475.362C67.4493 479.205 62.7488 481.631 57.6624 482.155Z" fill="url(#paint40_linear_408_3560)"/>
<path d="M198.053 497.129L200.06 413.082L214.574 410.406L216.213 476.443C216.35 481.544 214.556 486.51 211.189 490.345C207.822 494.18 203.13 496.603 198.053 497.129Z" fill="url(#paint41_linear_408_3560)"/>
<path d="M283.886 136.756L282.462 167.794C282.462 167.794 283.912 184.749 298.177 186.473C312.443 188.196 358.696 180.143 358.696 180.143C358.696 180.143 361.836 125.564 358.696 113.06C355.556 100.556 355.608 83.4208 341.626 83.1378C334.617 82.992 316.286 79.2442 306.635 80.5649C301.594 81.2549 296.931 83.6174 293.394 87.2736C289.857 90.9298 287.65 95.6678 287.128 100.728C286.176 109.698 285.01 121.902 283.886 136.756Z" fill="white"/>
<path d="M283.886 136.756L282.462 167.794C282.462 167.794 283.912 184.749 298.177 186.473C312.443 188.196 358.696 180.143 358.696 180.143C358.696 180.143 361.836 125.564 358.696 113.06C355.556 100.556 355.608 83.4208 341.626 83.1378C334.617 82.992 316.286 79.2442 306.635 80.5649C301.594 81.2549 296.931 83.6174 293.394 87.2736C289.857 90.9298 287.65 95.6678 287.128 100.728C286.176 109.698 285.01 121.902 283.886 136.756Z" fill="#413377"/>
<path d="M334.034 93.9009C337.86 86.0708 348.702 84.9473 353.764 92.0398C356.929 96.4909 359.219 103.137 358.713 113.06C357.804 130.933 344.662 148.223 335.269 158.428C332.602 161.334 329.315 163.6 325.651 165.06C321.987 166.52 318.041 167.134 314.107 166.859L257.937 160.375L260.51 138.077L311.868 139.363L334.034 93.9009Z" fill="white"/>
<path d="M334.034 93.9009C337.86 86.0708 348.702 84.9473 353.764 92.0398C356.929 96.4909 359.219 103.137 358.713 113.06C357.804 130.933 344.662 148.223 335.269 158.428C332.602 161.334 329.315 163.6 325.651 165.06C321.987 166.52 318.041 167.134 314.107 166.859L257.937 160.375L260.51 138.077L311.868 139.363L334.034 93.9009Z" fill="white"/>
<path d="M334.034 93.9009C337.86 86.0708 348.702 84.9473 353.764 92.0398C356.929 96.4909 359.219 103.137 358.713 113.06C357.804 130.933 344.662 148.223 335.269 158.428C332.602 161.334 329.315 163.6 325.651 165.06C321.987 166.52 318.041 167.134 314.107 166.859L257.937 160.375L260.51 138.077L311.868 139.363L334.034 93.9009Z" fill="white"/>
<path d="M334.034 93.9009C337.86 86.0708 348.702 84.9473 353.764 92.0398C356.929 96.4909 359.219 103.137 358.713 113.06C357.804 130.933 344.662 148.223 335.269 158.428C332.603 161.334 329.315 163.6 325.651 165.06C321.987 166.52 318.041 167.134 314.107 166.859L257.937 160.375L260.51 138.077L311.868 139.363L334.034 93.9009Z" fill="#7459D9"/>
<path d="M170.766 121.782C168.398 122.923 165.867 124.518 165.31 127.099C167.377 127.115 169.439 126.905 171.46 126.473L166.082 132.022C165.754 132.282 165.536 132.655 165.473 133.068C165.473 133.969 166.7 134.235 167.592 134.158C170.586 133.924 173.553 133.413 176.453 132.631C176.659 134.046 174.488 134.612 174.008 135.959C173.579 137.142 174.729 138.403 175.955 138.643C177.209 138.741 178.469 138.572 179.653 138.146C183.676 137.176 187.888 137.743 192.022 137.854C196.157 137.966 200.6 137.485 203.8 134.844C204.548 134.284 205.124 133.527 205.464 132.657C205.686 131.759 205.733 130.828 205.602 129.912C205.439 127.34 207.163 121.945 206.314 119.792C205.507 117.777 201.81 116.362 199.888 116.045C188.059 114.064 175.115 119.724 170.766 121.782Z" fill="url(#paint42_linear_408_3560)"/>
<path d="M245.574 152.109C254.651 121.413 243.293 90.9969 220.204 84.1724C197.116 77.348 171.04 96.6997 161.963 127.396C152.886 158.092 164.244 188.508 187.333 195.332C210.422 202.157 236.497 182.805 245.574 152.109Z" fill="white"/>
<path d="M245.574 152.109C254.651 121.413 243.293 90.9969 220.204 84.1724C197.116 77.348 171.04 96.6997 161.963 127.396C152.886 158.092 164.244 188.508 187.333 195.332C210.422 202.157 236.497 182.805 245.574 152.109Z" fill="url(#paint43_linear_408_3560)"/>
<path d="M237.154 148.137C246.232 117.441 234.836 87.0136 211.702 80.1758C188.568 73.3379 162.456 92.6787 153.379 123.375C144.302 154.071 155.697 184.498 178.831 191.336C201.965 198.174 228.077 178.833 237.154 148.137Z" fill="white"/>
<path d="M237.154 148.137C246.232 117.441 234.836 87.0136 211.702 80.1758C188.568 73.3379 162.456 92.6787 153.379 123.375C144.302 154.071 155.697 184.498 178.831 191.336C201.965 198.174 228.077 178.833 237.154 148.137Z" fill="url(#paint44_linear_408_3560)"/>
<path d="M237.154 148.137C246.232 117.441 234.836 87.0136 211.702 80.1758C188.568 73.3379 162.456 92.6787 153.379 123.375C144.302 154.071 155.697 184.498 178.831 191.336C201.965 198.174 228.077 178.833 237.154 148.137Z" fill="url(#paint45_linear_408_3560)"/>
<path d="M223.821 144.458C215.998 170.444 195.411 187.15 177.843 181.781C177.225 181.593 176.616 181.378 176.024 181.147C159.725 174.62 152.674 150.092 160.206 125.041C168.029 99.0723 188.617 82.3573 206.185 87.7174C208.793 88.5164 211.241 89.7676 213.416 91.4138C225.769 100.728 230.461 122.391 223.821 144.458Z" fill="url(#paint46_linear_408_3560)"/>
<path d="M223.822 144.458C215.998 170.444 195.411 187.15 177.843 181.782C177.225 181.593 176.616 181.378 176.024 181.147C163.68 171.833 158.979 150.17 165.619 128.103C173.451 102.126 194.03 85.4106 211.598 90.7793C212.215 90.968 212.824 91.1824 213.416 91.414C225.769 100.728 230.461 122.391 223.822 144.458Z" fill="white"/>
<path d="M223.822 144.458C215.998 170.444 195.411 187.15 177.843 181.782C177.225 181.593 176.616 181.378 176.024 181.147C163.68 171.833 158.979 150.17 165.619 128.103C173.451 102.126 194.03 85.4106 211.598 90.7793C212.215 90.968 212.824 91.1824 213.416 91.414C225.769 100.728 230.461 122.391 223.822 144.458Z" fill="url(#paint47_linear_408_3560)"/>
<path d="M226.927 144.938C224.559 146.079 222.037 147.674 221.471 150.255C223.538 150.27 225.6 150.06 227.622 149.629L222.269 155.135C221.943 155.399 221.729 155.775 221.668 156.19C221.668 157.048 222.886 157.348 223.779 157.279C226.773 157.046 229.74 156.535 232.64 155.753C232.846 157.168 230.675 157.734 230.195 159.08C229.766 160.264 230.916 161.524 232.142 161.764C233.396 161.859 234.655 161.689 235.839 161.267C239.863 160.289 244.075 160.864 248.209 160.967C252.344 161.07 256.787 160.607 259.996 157.957C260.742 157.398 261.316 156.64 261.651 155.77C261.873 154.872 261.92 153.94 261.788 153.025C261.625 150.452 263.35 145.058 262.5 142.914C261.703 140.899 257.997 139.483 256.075 139.166C244.229 137.116 231.276 142.811 226.927 144.938Z" fill="url(#paint48_linear_408_3560)"/>
<path d="M160.755 106.345C161.255 109.124 161.613 111.926 161.827 114.741C162.093 118.866 157.735 116.148 157.735 116.148C157.735 116.148 160.309 119.441 159.786 121.293C159.262 123.146 156.715 121.293 156.715 121.293C156.715 121.293 157.976 124.021 157.675 125.744C157.375 127.468 153.978 126.07 153.978 126.07C153.978 126.07 155.84 128.266 155.471 130.238C155.102 132.211 152.494 131.756 152.494 131.756C152.494 131.756 147.682 129.046 149.063 125.17C150.444 121.293 148.351 115.256 150.633 114.106C152.914 112.957 154.356 108.103 156.775 107.597C158.143 107.324 159.477 106.904 160.755 106.345Z" fill="url(#paint49_linear_408_3560)"/>
<path d="M311.336 87.8376C312.394 88.4241 313.633 88.5953 314.81 88.3179C322.034 87.4305 329.058 85.3344 335.586 82.1173C333.262 75.7709 334.248 68.7469 333.691 61.9975C333.493 59.7333 332.833 57.1176 330.808 56.1914C329.307 55.5138 327.557 55.9941 326.048 56.6459C323.039 58.0236 320.365 60.0363 318.209 62.5457C316.053 65.0551 314.466 68.0016 313.558 71.1826C312.7 74.0127 312.811 77.0058 312.039 79.8446C311.413 82.1087 308.625 85.8736 311.336 87.8376Z" fill="url(#paint50_linear_408_3560)"/>
<path d="M296.47 26.6292C296.47 26.6292 290.954 56.5773 296.925 65.6338C302.895 74.6903 311.508 77.0745 320.086 70.7024C325.608 66.4299 330.535 61.4403 334.737 55.8655C334.737 55.8655 340.167 55.1108 342.097 50.4539C344.027 45.7971 338.555 43.2156 335.612 45.1538C332.67 47.0921 341.025 32.2295 337.388 30.4971C333.751 28.7647 316.2 3.13896 296.47 26.6292Z" fill="url(#paint51_linear_408_3560)"/>
<path d="M317.692 1.78385C314.759 1.5068 311.799 1.81582 308.986 2.69293C301.746 4.63973 294.651 8.1131 287.171 7.59853C285.696 7.49561 283.997 7.31551 282.951 8.37039C282.519 8.9033 282.269 9.5607 282.238 10.2461C282.207 10.9314 282.397 11.6086 282.779 12.1782C283.563 13.3 284.585 14.2344 285.773 14.914C284.057 15.7288 283.92 18.396 285.164 19.8454C286.408 21.2947 288.475 21.7407 290.38 21.7321C288.715 22.1095 288.398 24.6738 289.607 25.8916C290.817 27.1094 292.764 27.1866 294.42 26.7492C296.308 26.1088 298.143 25.3232 299.91 24.3993C305.057 22.1952 310.804 22.0838 316.371 22.4611C322.187 22.8556 328.595 24.0992 332.112 28.7818C333.172 30.2207 333.887 31.8842 334.201 33.6436C334.515 35.4029 334.419 37.2108 333.922 38.9274C332.816 42.6495 329.805 46.0028 330.345 49.8535C332.962 49.236 333.571 45.1623 336.187 44.5877C338.254 44.1246 340.039 43.9617 341.823 46.4659C342.363 47.2206 343.83 44.3648 344.396 43.6186C346.369 40.9428 348.377 38.1899 349.294 34.991C349.921 32.6911 349.963 30.2713 349.416 27.9513C348.869 25.6313 347.751 23.4846 346.163 21.7064C345.427 21.0342 344.809 20.2427 344.336 19.3651C344.055 18.3551 343.891 17.3164 343.847 16.2691C343.341 13.2159 340.793 10.9776 338.366 9.07363C334.305 5.88328 330.142 2.85874 325.876 0C324.941 2.31558 325.533 4.21092 323.303 4.11658C321.793 4.05655 319.52 2.02399 317.692 1.78385ZM333.27 65.3679C332.626 64.8033 332.149 64.0733 331.891 63.2569C331.632 62.4406 331.602 61.569 331.803 60.7367C332.227 59.0708 333.2 57.5963 334.566 56.5516C335.759 55.591 337.085 54.8081 338.503 54.2274C338.434 55.3509 332.867 65.0592 333.27 65.3679Z" fill="#000141"/>
<path d="M334.806 49.6821C334.859 49.0371 335.084 48.4181 335.458 47.8897C335.687 47.6713 335.959 47.502 336.256 47.3923C336.738 47.152 337.27 47.0286 337.808 47.0321C338.083 47.0427 338.35 47.1282 338.58 47.2793C338.809 47.4305 338.993 47.6415 339.112 47.8897C339.21 48.1643 339.245 48.4573 339.215 48.7473C339.117 49.9307 338.662 51.0566 337.91 51.9755C337.158 52.8945 336.144 53.5632 335.003 53.893C334.791 53.9612 334.563 53.9612 334.351 53.893C334.226 53.8342 334.113 53.7507 334.02 53.6476C333.927 53.5445 333.856 53.4238 333.811 53.2927C333.64 52.9827 333.547 52.6363 333.538 52.2827C333.529 51.929 333.605 51.5784 333.759 51.2601C334.154 50.6684 334.634 50.454 334.806 49.6821Z" fill="url(#paint52_linear_408_3560)"/>
<defs>
<linearGradient id="paint0_linear_408_3560" x1="280.146" y1="418.202" x2="452.215" y2="418.202" gradientUnits="userSpaceOnUse">
<stop/>
<stop offset="1" stop-opacity="0"/>
</linearGradient>
<linearGradient id="paint1_linear_408_3560" x1="349.414" y1="365.098" x2="349.132" y2="390.964" gradientUnits="userSpaceOnUse">
<stop stop-color="#68E1FD"/>
<stop offset="1" stop-color="#69B9EB"/>
</linearGradient>
<linearGradient id="paint2_linear_408_3560" x1="357.555" y1="430.921" x2="351.879" y2="411.246" gradientUnits="userSpaceOnUse">
<stop/>
<stop offset="0.84" stop-opacity="0"/>
</linearGradient>
<linearGradient id="paint3_linear_408_3560" x1="295.158" y1="379.918" x2="467.236" y2="379.918" gradientUnits="userSpaceOnUse">
<stop/>
<stop offset="1" stop-opacity="0"/>
</linearGradient>
<linearGradient id="paint4_linear_408_3560" x1="383.324" y1="390.183" x2="401.324" y2="414.638" gradientUnits="userSpaceOnUse">
<stop offset="0.32" stop-color="white" stop-opacity="0"/>
<stop offset="1" stop-color="white"/>
</linearGradient>
<linearGradient id="paint5_linear_408_3560" x1="400.317" y1="311.428" x2="380.645" y2="337.916" gradientUnits="userSpaceOnUse">
<stop/>
<stop offset="1" stop-opacity="0"/>
</linearGradient>
<linearGradient id="paint6_linear_408_3560" x1="407.986" y1="313.658" x2="360.381" y2="367.527" gradientUnits="userSpaceOnUse">
<stop/>
<stop offset="0.84" stop-opacity="0"/>
</linearGradient>
<linearGradient id="paint7_linear_408_3560" x1="393.884" y1="357.945" x2="416.967" y2="364.681" gradientUnits="userSpaceOnUse">
<stop/>
<stop offset="1" stop-opacity="0"/>
</linearGradient>
<linearGradient id="paint8_linear_408_3560" x1="339.412" y1="292.775" x2="339.121" y2="318.641" gradientUnits="userSpaceOnUse">
<stop stop-color="#68E1FD"/>
<stop offset="1" stop-color="#69B9EB"/>
</linearGradient>
<linearGradient id="paint9_linear_408_3560" x1="271.671" y1="329.104" x2="406.416" y2="329.104" gradientUnits="userSpaceOnUse">
<stop stop-color="#75A2AC"/>
<stop offset="1" stop-color="#69B9EB"/>
</linearGradient>
<linearGradient id="paint10_linear_408_3560" x1="289.324" y1="309.73" x2="461.394" y2="309.73" gradientUnits="userSpaceOnUse">
<stop/>
<stop offset="1" stop-opacity="0"/>
</linearGradient>
<linearGradient id="paint11_linear_408_3560" x1="373.819" y1="317.166" x2="397.249" y2="345.018" gradientUnits="userSpaceOnUse">
<stop offset="0.32" stop-color="white" stop-opacity="0"/>
<stop offset="1" stop-color="white"/>
</linearGradient>
<linearGradient id="paint12_linear_408_3560" x1="354.759" y1="256.618" x2="354.467" y2="282.483" gradientUnits="userSpaceOnUse">
<stop stop-color="#68E1FD"/>
<stop offset="1" stop-color="#69B9EB"/>
</linearGradient>
<linearGradient id="paint13_linear_408_3560" x1="376.273" y1="252.226" x2="358.968" y2="284.442" gradientUnits="userSpaceOnUse">
<stop stop-color="#7459D9"/>
<stop offset="0.84" stop-opacity="0.58"/>
</linearGradient>
<linearGradient id="paint14_linear_408_3560" x1="284.812" y1="273.564" x2="456.882" y2="273.564" gradientUnits="userSpaceOnUse">
<stop/>
<stop offset="1" stop-opacity="0"/>
</linearGradient>
<linearGradient id="paint15_linear_408_3560" x1="366.391" y1="279.37" x2="381.998" y2="307.255" gradientUnits="userSpaceOnUse">
<stop offset="0.32" stop-color="white" stop-opacity="0"/>
<stop offset="1" stop-color="white"/>
</linearGradient>
<linearGradient id="paint16_linear_408_3560" x1="352.443" y1="243.264" x2="358.65" y2="276.369" gradientUnits="userSpaceOnUse">
<stop/>
<stop offset="0.84" stop-opacity="0"/>
</linearGradient>
<linearGradient id="paint17_linear_408_3560" x1="353.215" y1="256.943" x2="423.057" y2="247.42" gradientUnits="userSpaceOnUse">
<stop/>
<stop offset="1" stop-opacity="0"/>
</linearGradient>
<linearGradient id="paint18_linear_408_3560" x1="281.493" y1="235.143" x2="453.562" y2="235.143" gradientUnits="userSpaceOnUse">
<stop/>
<stop offset="1" stop-opacity="0"/>
</linearGradient>
<linearGradient id="paint19_linear_408_3560" x1="341.471" y1="178.222" x2="325.437" y2="237.709" gradientUnits="userSpaceOnUse">
<stop/>
<stop offset="1" stop-opacity="0"/>
</linearGradient>
<linearGradient id="paint20_linear_408_3560" x1="326.253" y1="199.491" x2="339.184" y2="246.045" gradientUnits="userSpaceOnUse">
<stop offset="0.32" stop-color="white" stop-opacity="0"/>
<stop offset="1" stop-color="white"/>
</linearGradient>
<linearGradient id="paint21_linear_408_3560" x1="328.312" y1="218.453" x2="410.491" y2="218.453" gradientUnits="userSpaceOnUse">
<stop stop-color="#D5E6FF"/>
<stop offset="1" stop-color="#7459D9"/>
</linearGradient>
<linearGradient id="paint22_linear_408_3560" x1="159.974" y1="500.799" x2="159.923" y2="396.024" gradientUnits="userSpaceOnUse">
<stop stop-color="white"/>
<stop offset="1" stop-color="#1A7FC1"/>
</linearGradient>
<linearGradient id="paint23_linear_408_3560" x1="304.542" y1="561.45" x2="263.488" y2="364.108" gradientUnits="userSpaceOnUse">
<stop/>
<stop offset="1" stop-opacity="0"/>
</linearGradient>
<linearGradient id="paint24_linear_408_3560" x1="346.421" y1="297.989" x2="351.445" y2="147.991" gradientUnits="userSpaceOnUse">
<stop offset="0.02" stop-color="#68E1FD"/>
<stop offset="1" stop-color="white"/>
</linearGradient>
<linearGradient id="paint25_linear_408_3560" x1="348.351" y1="246.926" x2="348.694" y2="212.261" gradientUnits="userSpaceOnUse">
<stop offset="0.130208" stop-color="#7459D9"/>
<stop offset="1" stop-color="white"/>
</linearGradient>
<linearGradient id="paint26_linear_408_3560" x1="334.711" y1="250.125" x2="374.274" y2="250.125" gradientUnits="userSpaceOnUse">
<stop/>
<stop offset="1" stop-opacity="0"/>
</linearGradient>
<linearGradient id="paint27_linear_408_3560" x1="-6.04315e-06" y1="378.511" x2="318.396" y2="378.511" gradientUnits="userSpaceOnUse">
<stop stop-color="#68E1FD"/>
<stop offset="1" stop-color="#69B9EB"/>
</linearGradient>
<linearGradient id="paint28_linear_408_3560" x1="303.127" y1="404.334" x2="330.839" y2="125.906" gradientUnits="userSpaceOnUse">
<stop stop-color="white" stop-opacity="0"/>
<stop offset="0.54" stop-color="white"/>
</linearGradient>
<linearGradient id="paint29_linear_408_3560" x1="325.181" y1="304.001" x2="349.285" y2="356.406" gradientUnits="userSpaceOnUse">
<stop/>
<stop offset="1" stop-opacity="0"/>
</linearGradient>
<linearGradient id="paint30_linear_408_3560" x1="367.695" y1="284.447" x2="391.79" y2="336.852" gradientUnits="userSpaceOnUse">
<stop/>
<stop offset="1" stop-opacity="0"/>
</linearGradient>
<linearGradient id="paint31_linear_408_3560" x1="378.16" y1="378.451" x2="375.03" y2="301.591" gradientUnits="userSpaceOnUse">
<stop stop-color="white" stop-opacity="0"/>
<stop offset="0.67" stop-color="white"/>
</linearGradient>
<linearGradient id="paint32_linear_408_3560" x1="349.145" y1="281.128" x2="412.02" y2="380.702" gradientUnits="userSpaceOnUse">
<stop/>
<stop offset="1" stop-opacity="0"/>
</linearGradient>
<linearGradient id="paint33_linear_408_3560" x1="386.009" y1="324.918" x2="406.956" y2="421.711" gradientUnits="userSpaceOnUse">
<stop/>
<stop offset="1" stop-opacity="0"/>
</linearGradient>
<linearGradient id="paint34_linear_408_3560" x1="394.493" y1="323.083" x2="415.44" y2="419.876" gradientUnits="userSpaceOnUse">
<stop/>
<stop offset="1" stop-opacity="0"/>
</linearGradient>
<linearGradient id="paint35_linear_408_3560" x1="352.511" y1="551.468" x2="311.448" y2="354.125" gradientUnits="userSpaceOnUse">
<stop/>
<stop offset="1" stop-opacity="0"/>
</linearGradient>
<linearGradient id="paint36_linear_408_3560" x1="235.359" y1="294.267" x2="240.392" y2="144.269" gradientUnits="userSpaceOnUse">
<stop offset="0.02" stop-color="#68E1FD"/>
<stop offset="1" stop-color="white"/>
</linearGradient>
<linearGradient id="paint37_linear_408_3560" x1="234.724" y1="307.037" x2="239.878" y2="171.113" gradientUnits="userSpaceOnUse">
<stop stop-color="#7459D9"/>
<stop offset="0.54" stop-color="white"/>
</linearGradient>
<linearGradient id="paint38_linear_408_3560" x1="221.96" y1="269.996" x2="261.514" y2="269.996" gradientUnits="userSpaceOnUse">
<stop/>
<stop offset="1" stop-opacity="0"/>
</linearGradient>
<linearGradient id="paint39_linear_408_3560" x1="144.01" y1="187.467" x2="153.999" y2="241.284" gradientUnits="userSpaceOnUse">
<stop/>
<stop offset="1" stop-opacity="0"/>
</linearGradient>
<linearGradient id="paint40_linear_408_3560" x1="100.021" y1="604.006" x2="58.9585" y2="406.663" gradientUnits="userSpaceOnUse">
<stop/>
<stop offset="1" stop-opacity="0"/>
</linearGradient>
<linearGradient id="paint41_linear_408_3560" x1="231.876" y1="576.57" x2="190.814" y2="379.228" gradientUnits="userSpaceOnUse">
<stop/>
<stop offset="1" stop-opacity="0"/>
</linearGradient>
<linearGradient id="paint42_linear_408_3560" x1="165.31" y1="127.168" x2="206.579" y2="127.168" gradientUnits="userSpaceOnUse">
<stop stop-color="#ECC4D7"/>
<stop offset="0.42" stop-color="#EFD4D1"/>
<stop offset="1" stop-color="#F2EAC9"/>
</linearGradient>
<linearGradient id="paint43_linear_408_3560" x1="182.182" y1="134.258" x2="296.903" y2="163.464" gradientUnits="userSpaceOnUse">
<stop/>
<stop offset="1" stop-opacity="0"/>
</linearGradient>
<linearGradient id="paint44_linear_408_3560" x1="269.047" y1="102.825" x2="1.08487" y2="222.465" gradientUnits="userSpaceOnUse">
<stop offset="0.32" stop-color="white" stop-opacity="0"/>
<stop offset="0.54" stop-color="white"/>
</linearGradient>
<linearGradient id="paint45_linear_408_3560" x1="184.749" y1="140.706" x2="304.49" y2="84.2876" gradientUnits="userSpaceOnUse">
<stop offset="0.32" stop-color="white" stop-opacity="0"/>
<stop offset="0.54" stop-color="white"/>
</linearGradient>
<linearGradient id="paint46_linear_408_3560" x1="183.59" y1="128.403" x2="150.578" y2="103.499" gradientUnits="userSpaceOnUse">
<stop/>
<stop offset="1" stop-opacity="0"/>
</linearGradient>
<linearGradient id="paint47_linear_408_3560" x1="177.053" y1="109.458" x2="221.114" y2="176.413" gradientUnits="userSpaceOnUse">
<stop offset="0.32" stop-color="white" stop-opacity="0"/>
<stop offset="1" stop-color="white"/>
</linearGradient>
<linearGradient id="paint48_linear_408_3560" x1="221.471" y1="150.255" x2="262.741" y2="150.255" gradientUnits="userSpaceOnUse">
<stop stop-color="#ECC4D7"/>
<stop offset="0.42" stop-color="#EFD4D1"/>
<stop offset="1" stop-color="#F2EAC9"/>
</linearGradient>
<linearGradient id="paint49_linear_408_3560" x1="152.348" y1="108.292" x2="153.969" y2="113.892" gradientUnits="userSpaceOnUse">
<stop stop-color="#ECC4D7"/>
<stop offset="0.42" stop-color="#EFD4D1"/>
<stop offset="1" stop-color="#F2EAC9"/>
</linearGradient>
<linearGradient id="paint50_linear_408_3560" x1="312.408" y1="63.018" x2="331.533" y2="82.5762" gradientUnits="userSpaceOnUse">
<stop stop-color="#ECC4D7"/>
<stop offset="1" stop-color="#F2EAC9"/>
</linearGradient>
<linearGradient id="paint51_linear_408_3560" x1="291.229" y1="21.8694" x2="327.489" y2="58.9526" gradientUnits="userSpaceOnUse">
<stop stop-color="#ECC4D7"/>
<stop offset="1" stop-color="#F2EAC9"/>
</linearGradient>
<linearGradient id="paint52_linear_408_3560" x1="333.528" y1="50.4797" x2="339.224" y2="50.4797" gradientUnits="userSpaceOnUse">
<stop stop-color="#ECC4D7"/>
<stop offset="1" stop-color="#F2EAC9"/>
</linearGradient>
</defs>
</svg>
