<svg width="536" height="513" viewBox="0 0 536 513" fill="none" xmlns="http://www.w3.org/2000/svg">
<path d="M388.127 92.4972C329.89 104.072 285.779 149.334 229.533 167.584C143.45 194.791 19.2021 218.086 2.65203 313.377C-31.7465 511.441 277.89 542.779 386.429 460.212C525.73 354.245 424.034 240.064 518.122 154.734C587.91 91.439 429.152 80.8406 388.127 92.4972Z" fill="#E7F0FE"/>
<path d="M38.1417 139.072C49.7163 193.772 94.9788 235.202 113.228 288.031C140.436 368.884 163.73 485.584 259.022 501.129C457.086 533.438 488.423 242.612 405.857 140.667C299.89 9.82897 185.709 105.347 100.379 16.9747C37.0836 -48.574 26.4852 100.539 38.1417 139.072Z" fill="#E7F0FE"/>
<path d="M241.615 172.758C263.781 156.502 270.077 129.522 281.493 148.131C292.92 166.739 269.547 205.538 292.355 210.399C315.172 215.244 308.752 171.451 325.356 180.102C341.969 188.736 319.303 226.897 327.325 249.359C327.446 249.698 327.593 249.968 327.728 250.273C318.528 255.629 309.115 260.623 299.755 265.703C294.128 262.802 289.755 259.433 288.463 253.76C283.631 232.604 283.276 219.758 237.898 196.146C207.366 180.261 200.934 152.507 199.98 136.034C216.262 123.635 221.198 187.736 241.615 172.758Z" fill="#A0C5FF"/>
<path d="M199.978 136.034C200.932 152.507 207.366 180.261 237.897 196.146C283.275 219.758 283.63 232.603 288.461 253.76C289.753 259.435 294.126 262.802 299.753 265.703C293.92 268.871 288.113 272.083 282.406 275.459C275.634 264.282 237.148 264.428 226.429 249.272C213.061 230.355 240.789 215.59 231.004 208.032C221.22 200.474 175.513 170.021 195.517 141.023C197.093 138.738 198.576 137.101 199.978 136.034Z" fill="#5D74E4"/>
<path d="M57.124 436.297C62.8653 411.627 51.0789 388.988 70.2241 395.144C89.3761 401.291 96.3169 442.442 115.175 432.149C134.031 421.839 103.27 395.082 120.065 391.16C136.858 387.223 143.909 427.504 162.993 438.389C163.282 438.555 163.546 438.654 163.824 438.787C160.606 448.052 157.023 457.193 153.529 466.365C147.854 467.715 142.777 467.984 138.47 464.795C122.399 452.908 114.444 444.14 68.5589 454.877C37.6853 462.101 16.5371 446.564 5.98767 435.622C9.93068 417.18 51.8382 459.023 57.124 436.297Z" fill="#A0C5FF"/>
<path d="M5.98765 435.623C16.5387 446.564 37.687 462.102 68.5588 454.877C114.443 444.141 122.399 452.906 138.47 464.795C142.778 467.984 147.856 467.715 153.529 466.365C151.352 472.08 149.221 477.811 147.257 483.599C135.817 479.851 109.004 503.058 92.4182 498.897C71.7255 493.7 82.2459 466.735 70.8742 467.326C59.5007 467.916 9.2806 474.067 5.8648 441.79C5.59181 439.244 5.64641 437.21 5.98765 435.623Z" fill="#5D74E4"/>
<path d="M388.728 309.722C401.229 355.672 392.669 364.024 381.253 380.686C370.081 396.97 405.622 421.879 371.777 451.46L370.27 456.631C370.27 456.631 438.757 477.007 447.837 446.236C456.926 415.47 398.492 424.157 408.798 404.494C419.091 384.827 459.495 376.244 454.911 359.428C450.343 342.607 424.452 374.645 413.362 355.976C402.287 337.303 443.573 328.8 449.082 309.237C454.602 289.678 432.177 302.403 407.069 297.5C383.94 292.986 424.655 249.145 405.895 245.831C395.232 256.883 380.318 278.805 388.728 309.722Z" fill="#A0C5FF"/>
<path d="M345.162 335.414C340.671 356.517 379.869 392.201 354.097 395.907C328.315 399.607 332.729 429.112 332.729 429.112L371.778 451.46C405.624 421.877 370.082 396.97 381.254 380.687C392.671 364.024 401.231 355.674 388.729 309.722C380.318 278.805 395.233 256.883 405.895 245.831C404.281 245.544 402.225 245.563 399.666 245.93C367.211 250.55 375.242 301.045 376.248 312.51C377.257 323.976 349.657 314.328 345.162 335.414Z" fill="#5D74E4"/>
<path d="M78.1289 456.596C78.006 456.567 71.6556 455.043 64.3667 450.92C64.3496 450.882 64.3496 450.841 64.3258 450.809C63.4147 449.571 63.529 446.685 63.6979 444.607C65.5764 442.605 70.9031 436.416 70.1473 431.353C69.2311 425.224 58.1545 427.113 58.5111 432.624C58.8438 437.782 60.1934 440.688 62.553 444.482C62.4114 446.19 62.321 448.325 62.7407 449.966C56.4414 446.122 49.7446 440.337 45.9091 431.911C44.8854 429.66 43.7337 427.685 42.5087 425.931C43.5648 423.482 46.5404 415.732 44.0767 411.19C41.1232 405.744 31.3587 411.304 33.5751 416.361C33.7969 416.867 34.0221 417.326 34.249 417.778C30.0671 414.994 25.9296 413.752 22.9506 413.204C21.8501 412.282 15.1448 406.891 10.2122 408.048C4.82571 409.313 7.31504 419.039 12.1948 418.319C16.5302 417.679 18.9939 416.368 21.9729 414.204C25.2983 414.72 30.608 416.18 35.6907 420.27C37.1461 422.444 38.8131 424.041 40.9594 425.757C42.3756 427.651 43.6996 429.837 44.8598 432.387C46.1309 435.179 47.7109 437.678 49.4785 439.929C46.7349 439.236 42.7032 439.239 40.4817 439.311C38.0538 437.806 31.0738 433.908 26.3237 435.607C20.492 437.693 24.4896 448.198 29.8265 446.779C34.8462 445.446 37.4447 443.531 40.7325 440.454C44.6602 440.349 49.8863 440.625 51.0721 441.873C51.0891 441.891 51.113 441.898 51.1318 441.914C61.8262 453.888 77.6784 457.673 77.8729 457.717C78.134 457.779 78.3967 457.649 78.5144 457.419C78.5349 457.378 78.552 457.333 78.5622 457.286C78.6322 456.975 78.4377 456.668 78.1289 456.596Z" fill="#5D74E4"/>
<path d="M406.678 413.096C406.474 417.397 401.132 421.638 399.156 423.065C398.49 424.84 397.182 428.023 395.743 429.963C398.093 429.301 400.579 428.866 403.193 428.77C405.58 428.683 407.735 428.351 409.69 427.849C411.741 426.714 413.542 425.917 415.73 425.475C420.608 422.792 423.484 419.078 424.972 416.622C424.233 413.567 424.001 411.197 424.906 407.569C425.923 403.484 434.404 404.679 433.65 409.342C432.959 413.61 426.528 417.148 425.443 417.716C424.042 419.889 421.719 422.749 418.165 425.144C418.594 425.111 419.03 425.082 419.5 425.072C424.21 424.966 425.421 434.479 420.166 435.039C415.783 435.507 410.639 430.641 409.05 429.011C407.269 429.409 405.337 429.675 403.229 429.752C395.337 430.04 388.596 433.443 383.519 437.166C384.947 437.367 386.603 438.133 387.904 438.799C391.662 438.171 394.392 438.051 398.569 439.464C403.031 440.975 400.92 450.329 395.791 449.059C391.553 448.011 388.403 441.796 387.434 439.664C385.849 438.855 383.611 437.828 382.34 438.145C382.305 438.154 382.273 438.14 382.237 438.142C376.617 442.553 373.35 447.069 373.288 447.156C373.131 447.378 372.826 447.429 372.604 447.272C372.57 447.249 372.539 447.221 372.515 447.19C372.372 447.023 372.355 446.774 372.488 446.588C372.587 446.448 380.724 435.17 393.643 430.624C393.662 430.614 393.676 430.598 393.694 430.59C395.063 430.061 396.98 426.026 398.173 422.893C396.815 419.298 396.15 416.626 396.73 412.231C397.346 407.557 406.929 407.816 406.678 413.096Z" fill="#5D74E4"/>
<path d="M407.991 356.484C408.668 360.474 404.614 365.444 403.087 367.151C402.833 368.916 402.271 372.1 401.34 374.17C403.363 373.09 405.559 372.191 407.939 371.578C409.258 371.238 410.471 370.825 411.606 370.368C409.901 367.656 408.886 365.378 408.562 361.541C408.19 357.128 417.04 355.438 417.871 360.336C418.315 362.951 416.73 365.978 415.155 368.238C416.291 367.356 417.433 366.625 418.787 366.03C422.727 362.586 424.622 358.597 425.494 356.042C424.201 353.387 423.512 351.257 423.612 347.743C423.727 343.788 431.753 343.181 431.997 347.613C432.22 351.67 427.026 356.213 426.144 356.954C425.295 359.23 423.737 362.324 420.954 365.238C421.343 365.122 421.736 365.007 422.167 364.903C426.47 363.859 429.495 372.349 424.783 373.921C420.853 375.232 415.151 371.798 413.365 370.622C411.811 371.346 410.089 371.977 408.17 372.472C407.668 372.602 407.175 372.747 406.69 372.901C408.142 372.675 409.7 372.645 411.606 372.856C416.006 373.346 415.95 382.359 410.983 382.226C406.991 382.118 402.969 377.319 401.541 375.437C401.541 375.437 398.584 375.814 391.562 383.243C392.915 383.141 394.588 383.511 395.916 383.861C399.241 382.528 401.724 381.869 405.842 382.327C410.244 382.816 410.186 391.829 405.22 391.696C401.116 391.585 396.977 386.513 395.658 384.75C394.039 384.325 391.778 383.834 390.674 384.38C390.644 384.395 390.611 384.388 390.581 384.397C386.306 389.578 384.215 394.381 384.175 394.473C384.076 394.707 383.805 394.818 383.57 394.717C383.534 394.702 383.5 394.683 383.471 394.661C383.307 394.536 383.24 394.311 383.326 394.113C383.389 393.964 388.593 381.973 399.541 375.2C399.557 375.186 399.565 375.169 399.582 375.159C400.732 374.397 401.681 370.307 402.147 367.19C400.176 364.163 399.03 361.843 398.678 357.691C398.308 353.274 407.16 351.584 407.991 356.484Z" fill="white"/>
<path d="M248.253 194.812C248.253 194.812 187.088 218.758 173.857 237.601C160.625 256.445 149.907 302.054 175.989 304.417" fill="#7559DA"/>
<path opacity="0.25" d="M248.253 194.812C248.253 194.812 187.088 218.758 173.857 237.601C160.625 256.445 149.907 302.054 175.989 304.417C202.072 306.783 248.253 194.812 248.253 194.812Z" fill="#7459D9"/>
<path d="M386.426 460.21C378.306 473.466 366.967 484.158 353.966 491.937C353.539 492.197 353.102 492.458 352.667 492.69C277.642 536.492 142.679 497.349 129.187 475.045C132.916 196.459 348.204 44.5842 382.084 380.384C384.505 404.443 386.008 431.009 386.426 460.21Z" fill="#413377"/>
<path opacity="0.1" d="M245.25 211.918C245.293 223.397 256.921 229.71 271.22 226.018C285.52 222.327 297.078 210.03 297.033 198.551C296.989 187.072 285.363 180.759 271.063 184.45C256.764 188.142 245.206 200.439 245.25 211.918Z" fill="#201135"/>
<path d="M250.644 206.883C250.681 216.817 260.744 222.28 273.121 219.086C285.498 215.891 295.5 205.248 295.462 195.313C295.424 185.379 285.361 179.916 272.985 183.111C260.61 186.304 250.606 196.948 250.644 206.883Z" fill="#000141"/>
<path d="M259.992 204.77C266.474 209.291 285.259 200.258 289.574 193.636C290.826 191.714 289.359 189.743 289.043 184.475C288.414 173.473 287.436 156.458 287.436 156.009L260.222 169.744L260.106 187.871C260.108 187.871 256.527 202.354 259.992 204.77Z" fill="#FECECC"/>
<path opacity="0.1" d="M260.108 187.871L260.224 188.202C260.224 188.202 263.305 185.601 269.449 183.48C275.61 181.343 288.862 185.601 288.862 185.601L289.045 184.475C288.415 173.473 287.438 156.458 287.438 156.009L260.224 169.744L260.108 187.871Z" fill="#201135"/>
<path d="M243.193 90.4524C243.193 90.4524 229.35 111.4 239.289 127.731C249.228 144.062 307.083 133.056 307.083 133.056C307.083 133.056 333.348 97.4344 309.922 87.138C309.922 87.138 300.458 67.4926 285.431 69.5048C259.509 72.9761 243.193 90.4524 243.193 90.4524Z" fill="#000141"/>
<path d="M247.214 183.942C254.539 189.06 296.006 159.044 303.061 149.862C303.855 148.827 304.484 147.419 304.993 145.726C313.065 145.711 322.381 133.457 318.142 125.204C315.177 119.422 309.83 120.949 306.701 122.538C306.312 110.987 304.948 100.397 304.948 100.397C302.911 86.0459 243.38 86.0459 241.343 100.397C241.343 100.396 225.278 168.614 247.214 183.942Z" fill="#FECECC"/>
<path opacity="0.1" d="M311.705 124.081C314.131 124.069 318.183 126.868 315.75 132.906C313.319 138.944 308.625 141.468 308.625 141.468C308.625 141.468 315.221 135.872 314.334 131.001C313.449 126.129 309.651 124.091 311.705 124.081Z" fill="#201135"/>
<path d="M306.791 121.847C306.791 121.847 306.404 130.563 301.167 130.602C299.291 130.615 298.484 101.768 296.098 101.763C284.053 101.739 260.591 101.07 242.161 99.6241C216.733 97.629 247.308 62.4665 274.554 64.052C287.009 64.7757 299.959 71.1722 305.286 86.0766C309.149 96.8815 306.525 109.878 306.791 121.847Z" fill="#000141"/>
<path opacity="0.05" d="M282.717 136.87C283.034 138.755 280.982 140.671 278.134 141.151C275.286 141.63 272.718 140.494 272.401 138.611C272.084 136.729 274.135 134.812 276.984 134.331C279.833 133.851 282.398 134.988 282.717 136.87Z" fill="#000141"/>
<path opacity="0.05" d="M250.451 137.05C250.768 138.932 248.717 140.849 245.868 141.328C243.02 141.809 240.453 140.671 240.137 138.789C239.82 136.906 241.872 134.99 244.72 134.51C247.567 134.029 250.132 135.165 250.451 137.05Z" fill="#000141"/>
<path d="M251.818 119.345C251.541 119.345 251.273 119.201 251.127 118.945C250.997 118.723 247.916 113.632 240.364 116.981C239.958 117.158 239.489 116.978 239.313 116.575C239.135 116.174 239.315 115.703 239.717 115.523C248.622 111.574 252.469 118.085 252.507 118.15C252.725 118.532 252.592 119.019 252.21 119.237C252.087 119.311 251.951 119.345 251.818 119.345Z" fill="#000141"/>
<path d="M267.264 119.486C267.165 119.486 267.066 119.468 266.97 119.428C266.561 119.266 266.361 118.804 266.525 118.396C266.554 118.324 269.449 111.376 279.919 113.617C280.349 113.708 280.622 114.133 280.529 114.563C280.437 114.991 280.019 115.269 279.584 115.175C270.412 113.207 268.026 118.927 268.004 118.985C267.88 119.295 267.579 119.486 267.264 119.486Z" fill="#000141"/>
<path d="M258.195 139.42C257.921 139.42 257.649 139.381 257.383 139.304C255.696 138.813 254.981 136.91 254.952 136.831C254.865 136.594 254.896 136.333 255.032 136.121C257.888 131.735 257.129 125.811 257.122 125.753C257.064 125.316 257.37 124.915 257.805 124.857C258.252 124.794 258.642 125.105 258.7 125.54C258.736 125.799 259.502 131.797 256.603 136.615C256.832 137.031 257.26 137.611 257.835 137.777C258.371 137.927 259.028 137.719 259.78 137.142C260.13 136.876 260.63 136.942 260.896 137.29C261.164 137.64 261.098 138.139 260.748 138.407C259.864 139.082 259.009 139.42 258.195 139.42Z" fill="#000141"/>
<path d="M244.066 154.519C244.066 154.519 252.005 160.552 262.978 158.2C264.288 162.836 250.084 170.888 244.066 154.519Z" fill="#FCFAF7"/>
<path d="M249.402 125.765C249.402 128.247 248.025 130.259 246.329 130.259C244.631 130.259 243.254 128.247 243.254 125.765C243.254 123.285 244.631 121.273 246.329 121.273C248.025 121.273 249.402 123.285 249.402 125.765Z" fill="#000141"/>
<path d="M277.056 125.765C277.056 128.247 275.68 130.259 273.983 130.259C272.285 130.259 270.91 128.247 270.91 125.765C270.91 123.285 272.285 121.273 273.983 121.273C275.682 121.273 277.056 123.285 277.056 125.765Z" fill="#000141"/>
<path opacity="0.05" d="M253.043 168.138C252.222 167.951 251.717 167.708 251.664 167.681C251.466 167.584 251.386 167.346 251.483 167.148C251.58 166.952 251.819 166.87 252.015 166.966C252.046 166.983 255.279 168.515 258.98 166.541C259.178 166.444 259.417 166.515 259.519 166.706C259.622 166.901 259.548 167.142 259.356 167.246C256.783 168.618 254.449 168.459 253.043 168.138Z" fill="#000141"/>
<path opacity="0.25" d="M386.426 460.21C378.306 473.466 366.967 484.158 353.966 491.937C353.539 492.197 353.102 492.458 352.667 492.69C350.004 488.05 347.842 483.899 347.387 482.331C344.947 473.855 351.348 465.66 354.003 458.011C362.744 432.81 286.8 453.805 280.676 472.722C258.823 477.243 166.899 491.139 156.506 468.768C173.682 462.206 192.65 466.057 210.514 466.67C231.077 467.097 254.462 466.883 271.249 453.414C284.065 441.413 290.041 414.124 285.595 397.415C280.343 385.163 263.899 387.547 253.59 382.48C276.975 370.274 274.293 360.751 303.58 352.221C319.021 345.929 305.474 327.669 304.249 316.402C302.718 297.075 298.663 275.17 307.868 257.237C316.276 298.811 345.83 331.623 367.702 366.395C370.7 372.614 375.943 377.376 382.085 380.383C384.505 404.443 386.008 431.009 386.426 460.21Z" fill="#211452"/>
<path d="M62.582 189.74C62.582 190.588 63.2696 191.277 64.1193 191.277C64.969 191.277 65.6566 190.59 65.6566 189.74C65.6566 188.891 64.969 188.202 64.1193 188.202C63.2696 188.202 62.582 188.89 62.582 189.74Z" fill="#E7F0FE"/>
<path d="M50.7991 189.74C50.7991 190.588 51.4867 191.277 52.3364 191.277C53.1843 191.277 53.8736 190.59 53.8736 189.74C53.8736 188.891 53.186 188.202 52.3364 188.202C51.4867 188.202 50.7991 188.89 50.7991 189.74Z" fill="#E7F0FE"/>
<path d="M39.0161 189.74C39.0161 190.588 39.7037 191.277 40.5534 191.277C41.4014 191.277 42.0907 190.59 42.0907 189.74C42.0907 188.891 41.4031 188.202 40.5534 188.202C39.7037 188.202 39.0161 188.89 39.0161 189.74Z" fill="#E7F0FE"/>
<path d="M27.2332 189.74C27.2332 190.588 27.9207 191.277 28.7704 191.277C29.6184 191.277 30.3077 190.59 30.3077 189.74C30.3077 188.891 29.6201 188.202 28.7704 188.202C27.9207 188.202 27.2332 188.89 27.2332 189.74Z" fill="#E7F0FE"/>
<path d="M68.7397 196.373C68.7397 197.222 69.4273 197.911 70.277 197.911C71.1249 197.911 71.8142 197.223 71.8142 196.373C71.8142 195.525 71.1267 194.836 70.277 194.836C69.429 194.836 68.7397 195.525 68.7397 196.373Z" fill="#E7F0FE"/>
<path d="M56.9584 196.373C56.9584 197.222 57.646 197.911 58.4957 197.911C59.3437 197.911 60.033 197.223 60.033 196.373C60.033 195.525 59.3454 194.836 58.4957 194.836C57.646 194.836 56.9584 195.525 56.9584 196.373Z" fill="#E7F0FE"/>
<path d="M45.1755 196.373C45.1755 197.222 45.8631 197.911 46.7128 197.911C47.5607 197.911 48.25 197.223 48.25 196.373C48.25 195.525 47.5624 194.836 46.7128 194.836C45.8631 194.836 45.1755 195.525 45.1755 196.373Z" fill="#E7F0FE"/>
<path d="M33.3925 196.373C33.3925 197.222 34.0801 197.911 34.9298 197.911C35.7778 197.911 36.4671 197.223 36.4671 196.373C36.4671 195.525 35.7795 194.836 34.9298 194.836C34.0801 194.836 33.3925 195.525 33.3925 196.373Z" fill="#E7F0FE"/>
<path d="M419.173 481.465C419.914 481.465 420.516 480.864 420.516 480.122C420.516 479.38 419.914 478.779 419.173 478.779C418.431 478.779 417.83 479.38 417.83 480.122C417.83 480.864 418.431 481.465 419.173 481.465Z" fill="#E7F0FE"/>
<path d="M408.871 481.465C409.612 481.465 410.214 480.864 410.214 480.122C410.214 479.38 409.612 478.779 408.871 478.779C408.129 478.779 407.528 479.38 407.528 480.122C407.528 480.864 408.129 481.465 408.871 481.465Z" fill="#E7F0FE"/>
<path d="M398.571 481.465C399.312 481.465 399.913 480.864 399.913 480.122C399.913 479.38 399.312 478.779 398.571 478.779C397.829 478.779 397.228 479.38 397.228 480.122C397.228 480.864 397.829 481.465 398.571 481.465Z" fill="#E7F0FE"/>
<path d="M386.926 480.122C386.926 480.864 387.528 481.465 388.27 481.465C389.013 481.465 389.613 480.863 389.613 480.122C389.613 479.38 389.011 478.779 388.27 478.779C387.526 478.779 386.926 479.38 386.926 480.122Z" fill="#E7F0FE"/>
<path d="M423.215 485.923C423.215 486.665 423.817 487.266 424.558 487.266C425.3 487.266 425.9 486.664 425.9 485.923C425.9 485.181 425.298 484.58 424.558 484.58C423.815 484.578 423.215 485.181 423.215 485.923Z" fill="#E7F0FE"/>
<path d="M412.913 485.923C412.913 486.665 413.515 487.266 414.256 487.266C414.998 487.266 415.598 486.664 415.598 485.923C415.598 485.181 414.996 484.58 414.256 484.58C413.515 484.578 412.913 485.181 412.913 485.923Z" fill="#E7F0FE"/>
<path d="M402.611 485.923C402.611 486.665 403.213 487.266 403.954 487.266C404.696 487.266 405.296 486.664 405.296 485.923C405.296 485.181 404.694 484.58 403.954 484.58C403.213 484.578 402.611 485.181 402.611 485.923Z" fill="#E7F0FE"/>
<path d="M392.311 485.923C392.311 486.665 392.913 487.266 393.653 487.266C394.396 487.266 394.996 486.664 394.996 485.923C394.996 485.181 394.394 484.58 393.653 484.58C392.911 484.578 392.311 485.181 392.311 485.923Z" fill="#E7F0FE"/>
<path d="M435.859 247.031C436.523 247.031 437.061 246.493 437.061 245.829C437.061 245.165 436.523 244.628 435.859 244.628C435.196 244.628 434.658 245.165 434.658 245.829C434.66 246.493 435.197 247.031 435.859 247.031Z" fill="white"/>
<path d="M435.859 256.24C436.523 256.24 437.061 255.702 437.061 255.038C437.061 254.375 436.523 253.837 435.859 253.837C435.196 253.837 434.658 254.375 434.658 255.038C434.66 255.702 435.197 256.24 435.859 256.24Z" fill="white"/>
<path d="M435.859 265.449C436.523 265.449 437.061 264.912 437.061 264.248C437.061 263.584 436.523 263.046 435.859 263.046C435.196 263.046 434.658 263.584 434.658 264.248C434.66 264.912 435.197 265.449 435.859 265.449Z" fill="white"/>
<path d="M435.859 274.658C436.523 274.658 437.061 274.121 437.061 273.457C437.061 272.793 436.523 272.255 435.859 272.255C435.196 272.255 434.658 272.793 434.658 273.457C434.66 274.121 435.197 274.658 435.859 274.658Z" fill="white"/>
<path d="M441.041 242.216C441.705 242.216 442.242 241.679 442.242 241.015C442.242 240.351 441.705 239.813 441.041 239.813C440.377 239.813 439.84 240.351 439.84 241.015C439.842 241.679 440.379 242.216 441.041 242.216Z" fill="white"/>
<path d="M441.041 251.425C441.705 251.425 442.242 250.888 442.242 250.224C442.242 249.56 441.705 249.022 441.041 249.022C440.377 249.022 439.84 249.56 439.84 250.224C439.842 250.888 440.379 251.425 441.041 251.425Z" fill="white"/>
<path d="M441.041 260.635C441.705 260.635 442.242 260.097 442.242 259.433C442.242 258.769 441.705 258.232 441.041 258.232C440.377 258.232 439.84 258.769 439.84 259.433C439.842 260.097 440.379 260.635 441.041 260.635Z" fill="white"/>
<path d="M441.041 269.844C441.705 269.844 442.242 269.306 442.242 268.642C442.242 267.978 441.705 267.441 441.041 267.441C440.377 267.441 439.84 267.978 439.84 268.642C439.842 269.306 440.379 269.844 441.041 269.844Z" fill="white"/>
<path d="M31.688 288.777C31.688 288.777 33.3994 287.706 37.5301 285.374C41.6607 283.043 45.4229 274.89 47.5693 276.111C49.7157 277.331 48.7329 289.339 43.7542 293.375C38.7773 297.41 32.1163 292.435 31.688 288.777Z" fill="#EAB2B2"/>
<path d="M286.37 430.566C286.37 430.566 286.056 428.57 285.102 423.923C284.148 419.276 287.828 411.086 285.499 410.266C283.171 409.447 274.759 418.073 274.983 424.478C275.204 430.883 283.329 432.644 286.37 430.566Z" fill="#EAB2B2"/>
<path d="M300.854 347.447C300.42 489.363 112.725 534.882 45.9432 413.683C22.966 373.68 23.8054 317.884 48.3814 278.554C116.075 161.912 301.533 211.532 300.854 347.447Z" fill="#A0C5FF"/>
<path opacity="0.1" d="M277.97 271.786C276.197 278.551 277.76 285.333 280.099 291.771C281.28 295.022 282.59 298.229 283.645 301.526C284.633 304.617 285.438 307.783 286.192 310.938C287.704 317.268 289.014 324.088 287.453 330.533C286.119 336.038 282.962 340.733 280.797 345.903C279.611 348.736 278.818 351.699 278.601 354.767C278.364 358.121 278.903 361.544 279.286 364.872C280.031 371.361 280.903 378.024 279.649 384.506C278.439 390.759 275.08 396.644 269.982 400.528C265.044 404.29 258.997 406.122 253.183 408.036C251.649 408.541 250.053 408.981 248.593 409.671C247.356 410.256 246.115 410.838 244.884 411.435C242.804 412.444 240.707 413.48 238.801 414.797C235.489 417.088 233.585 420.175 233.227 424.211C232.768 429.386 234.16 434.451 235.049 439.5C235.622 442.761 235.854 446.117 233.667 448.856C232.379 450.469 230.652 451.679 228.91 452.754C226.475 454.256 223.903 455.568 221.306 456.766C216.378 459.038 211.159 460.898 206.658 463.985C202.07 467.132 198.818 471.611 197.924 477.166C197.806 477.901 197.735 478.639 197.682 479.378C253.266 465.596 300.639 418.66 300.855 347.447C301.002 317.862 292.328 292.368 277.97 271.786Z" fill="#000141"/>
<path d="M246.496 429.756C291.502 384.738 291.502 311.75 246.497 266.733C201.493 221.716 128.525 221.716 83.5195 266.734C38.514 311.752 38.5135 384.74 83.5183 429.757C128.523 474.775 201.491 474.774 246.496 429.756Z" fill="#5D74E4"/>
<path d="M60.2428 349.031C60.0415 314.379 76.6701 283.567 102.457 264.339C110.139 258.605 118.634 253.913 127.726 250.456C131.804 248.886 135.993 247.59 140.296 246.553C148.035 244.667 156.092 243.66 164.392 243.612C175.235 243.549 185.701 245.127 195.547 248.128C238.294 261.134 269.507 300.763 269.782 347.807C269.878 364.178 266.213 379.666 259.611 393.497C251.519 410.468 238.994 424.92 223.519 435.359C219.886 437.812 216.109 440.042 212.161 442.019C203.681 446.303 194.513 449.487 184.878 451.33C178.644 452.527 172.205 453.172 165.614 453.211C107.76 453.547 60.5807 406.904 60.2428 349.031Z" fill="white"/>
<path d="M269.782 347.802C269.876 364.179 266.214 379.664 259.608 393.491C251.516 410.463 238.99 424.916 223.522 435.363C219.891 437.808 216.105 440.046 212.162 442.012C203.684 446.299 194.51 449.484 184.877 451.325C184.493 451.399 184.107 451.47 183.711 451.533C186.987 449.806 190.151 447.891 193.208 445.831C208.687 435.385 221.212 420.931 229.304 403.96C235.899 390.131 239.572 374.648 239.468 358.281C239.197 311.228 207.98 271.605 165.237 258.598C155.385 255.601 144.921 254.019 134.082 254.082C127.934 254.123 121.922 254.676 116.075 255.726C119.82 253.738 123.72 251.969 127.726 250.451C131.804 248.891 135.996 247.59 140.292 246.549C148.032 244.667 156.093 243.656 164.394 243.615C175.233 243.552 185.699 245.124 195.549 248.131C238.294 261.136 269.511 300.76 269.782 347.802Z" fill="#E7F0FE"/>
<path d="M70.5944 359.276C70.5739 359.095 70.5483 358.918 70.5278 358.737C70.5074 358.558 70.4937 358.377 70.4749 358.198L67.9156 358.481L68.0351 359.558L70.5944 359.276Z" fill="#A0C5FF"/>
<path d="M220.908 425.179L222.422 427.239L223.295 426.598L221.778 424.534C221.49 424.749 221.2 424.966 220.908 425.179Z" fill="#A0C5FF"/>
<path d="M73.9521 349.32L73.9453 348.236L67.3782 348.273L67.385 349.359L73.9521 349.321V349.32Z" fill="#A0C5FF"/>
<path d="M228.641 418.914L230.361 420.803L231.162 420.073L229.437 418.18C229.175 418.426 228.909 418.672 228.641 418.914Z" fill="#A0C5FF"/>
<path d="M72.0122 328.486L69.5058 327.968L69.2874 329.029L71.7904 329.546C71.8603 329.193 71.9371 328.84 72.0122 328.486Z" fill="#A0C5FF"/>
<path d="M72.263 369.088C72.2238 368.912 72.1794 368.736 72.1402 368.561C72.1009 368.383 72.0685 368.206 72.031 368.028L69.5161 368.578L69.7464 369.637L72.263 369.088Z" fill="#A0C5FF"/>
<path d="M86.0405 405.672L86.682 406.546L88.7431 405.029C88.5264 404.738 88.3098 404.45 88.0982 404.158L86.0405 405.672Z" fill="#A0C5FF"/>
<path d="M107.646 427.272L108.528 427.903L110.021 425.823C109.726 425.614 109.431 425.406 109.137 425.195L107.646 427.272Z" fill="#A0C5FF"/>
<path d="M116.156 263.677L115.221 264.224L118.539 269.895L119.474 269.347L116.156 263.677Z" fill="#A0C5FF"/>
<path d="M99.702 420.841L100.512 421.563L102.213 419.65C101.942 419.412 101.671 419.174 101.401 418.933L99.702 420.841Z" fill="#A0C5FF"/>
<path d="M92.4745 413.615L93.2048 414.417L95.097 412.692C94.8513 412.427 94.6056 412.162 94.3633 411.893L92.4745 413.615Z" fill="#A0C5FF"/>
<path d="M235.677 411.874L237.586 413.574L238.308 412.763L236.395 411.06C236.156 411.331 235.919 411.604 235.677 411.874Z" fill="#A0C5FF"/>
<path d="M70.4562 338.319L67.9088 338.066L67.8013 339.145L70.3453 339.397C70.3794 339.037 70.4186 338.679 70.4562 338.319Z" fill="#A0C5FF"/>
<path d="M74.2541 319.904C74.3616 319.559 74.4742 319.214 74.5868 318.873C74.5868 318.871 74.5868 318.871 74.5868 318.871L72.1487 318.094L71.8194 319.127L74.2541 319.904Z" fill="#A0C5FF"/>
<path d="M241.939 404.136L244.015 405.626L244.648 404.745L242.568 403.252C242.358 403.547 242.15 403.844 241.939 404.136Z" fill="#A0C5FF"/>
<path d="M85.614 303.634L86.1514 302.692L80.4442 299.441L80.1047 300.038L79.9067 300.383L85.614 303.634Z" fill="#A0C5FF"/>
<path d="M255.25 318.333C255.307 318.506 255.358 318.678 255.414 318.851L257.858 318.04L257.516 317.011L255.073 317.82C255.131 317.992 255.194 318.161 255.25 318.333Z" fill="#A0C5FF"/>
<path d="M78.1511 309.578L75.8068 308.551L75.3717 309.544L77.7126 310.57C77.8559 310.237 78.0044 309.908 78.1511 309.578Z" fill="#A0C5FF"/>
<path d="M257.76 327.404C257.799 327.58 257.844 327.756 257.881 327.933C257.921 328.111 257.953 328.287 257.991 328.464L260.506 327.915L260.273 326.855L257.76 327.404Z" fill="#A0C5FF"/>
<path d="M118.281 429.217L116.22 432.837L117.161 433.373L120.412 427.664L119.47 427.128L118.281 429.217Z" fill="#A0C5FF"/>
<path d="M135.645 438.696L134.868 441.135L135.901 441.464L136.677 439.029C136.332 438.921 135.988 438.807 135.645 438.696Z" fill="#A0C5FF"/>
<path d="M124.647 259.324L124.287 259.486L125.348 261.832C125.513 261.757 125.674 261.677 125.839 261.604C126.005 261.529 126.17 261.46 126.336 261.387L125.274 259.04L124.647 259.324Z" fill="#A0C5FF"/>
<path d="M259.429 337.216C259.449 337.397 259.477 337.574 259.495 337.754C259.516 337.934 259.53 338.114 259.548 338.295L262.108 338.01L261.988 336.931L259.429 337.216Z" fill="#A0C5FF"/>
<path d="M109.115 271.313L107.602 269.255L106.728 269.896L108.245 271.96C108.533 271.743 108.822 271.525 109.115 271.313Z" fill="#A0C5FF"/>
<path d="M126.354 435.131L125.326 437.476L126.319 437.913V437.911L126.888 436.612L127.346 435.569C127.013 435.426 126.684 435.276 126.354 435.131Z" fill="#A0C5FF"/>
<path d="M86.6889 394.719L86.1412 393.782L80.4732 397.101L81.0192 398.036H81.0209L86.6889 394.719Z" fill="#A0C5FF"/>
<path d="M88.0828 292.356L86.0064 290.866L85.3734 291.747L87.4533 293.238C87.6648 292.945 87.8713 292.648 88.0828 292.356Z" fill="#A0C5FF"/>
<path d="M94.3462 284.618L92.437 282.918L91.717 283.727L93.6296 285.431C93.8668 285.159 94.1039 284.888 94.3462 284.618Z" fill="#A0C5FF"/>
<path d="M133.785 255.714L134.594 258.158C134.766 258.1 134.935 258.037 135.107 257.981C135.28 257.923 135.452 257.873 135.624 257.817L134.814 255.373L133.785 255.714Z" fill="#A0C5FF"/>
<path d="M74.7728 378.159C74.7165 377.987 74.6653 377.814 74.609 377.642L72.1658 378.453L72.507 379.482L74.9503 378.673C74.8906 378.5 74.8291 378.331 74.7728 378.159Z" fill="#A0C5FF"/>
<path d="M78.3916 387.429C78.3166 387.264 78.2483 387.098 78.1749 386.931L75.8289 387.993L76.2759 388.981L78.622 387.919C78.5452 387.757 78.4684 387.595 78.3916 387.429Z" fill="#A0C5FF"/>
<path d="M101.383 277.578L99.6628 275.689L98.8608 276.419L100.586 278.312C100.849 278.066 101.113 277.821 101.383 277.578Z" fill="#A0C5FF"/>
<path d="M255.769 376.589C255.662 376.935 255.547 377.276 255.436 377.621L257.875 378.398L258.204 377.365V377.363L255.769 376.589Z" fill="#A0C5FF"/>
<path d="M244.408 392.857L243.87 393.799L249.579 397.052L249.828 396.615L250.115 396.11L244.408 392.857Z" fill="#A0C5FF"/>
<path d="M243.983 290.82L243.341 289.946L241.278 291.464C241.495 291.754 241.712 292.042 241.925 292.336L243.983 290.82Z" fill="#A0C5FF"/>
<path d="M203.703 258.581L203.59 258.837L202.678 260.921C203.009 261.064 203.338 261.213 203.669 261.36L204.696 259.015L203.703 258.581Z" fill="#A0C5FF"/>
<path d="M144.74 443.779L145.802 443.997L146.319 441.493C145.964 441.422 145.611 441.345 145.257 441.27L144.74 443.779Z" fill="#A0C5FF"/>
<path d="M211.459 426.6L210.522 427.148L213.84 432.819L214.776 432.271L211.459 426.6Z" fill="#A0C5FF"/>
<path d="M220.002 270.668C220.297 270.876 220.593 271.084 220.886 271.298L222.375 269.221L221.495 268.589L220.002 270.668Z" fill="#A0C5FF"/>
<path d="M227.808 276.843C228.079 277.082 228.351 277.319 228.62 277.561L230.32 275.651L229.509 274.929L227.808 276.843Z" fill="#A0C5FF"/>
<path d="M259.565 358.174L262.113 358.426L262.22 357.346L259.676 357.094C259.642 357.454 259.605 357.814 259.565 358.174Z" fill="#A0C5FF"/>
<path d="M256.071 347.171V347.173L256.076 348.256L262.645 348.217L262.638 347.133L256.071 347.171Z" fill="#A0C5FF"/>
<path d="M258.011 368.006L260.517 368.523L260.738 367.461L258.235 366.944C258.163 367.299 258.086 367.651 258.011 368.006Z" fill="#A0C5FF"/>
<path d="M251.87 386.914L254.215 387.941L254.65 386.948L252.309 385.922C252.167 386.253 252.019 386.585 251.87 386.914Z" fill="#A0C5FF"/>
<path d="M249.002 298.456L243.333 301.774L243.88 302.711L249.55 299.391L249.002 298.456Z" fill="#A0C5FF"/>
<path d="M251.401 308.571C251.476 308.737 251.557 308.897 251.63 309.063C251.703 309.228 251.773 309.394 251.847 309.559L254.193 308.498L253.746 307.51L251.401 308.571Z" fill="#A0C5FF"/>
<path d="M234.926 283.799C235.172 284.065 235.418 284.33 235.66 284.598L237.549 282.877L236.818 282.075L234.926 283.799Z" fill="#A0C5FF"/>
<path d="M184.222 252.494L183.705 254.997C184.06 255.069 184.413 255.146 184.766 255.221L185.283 252.714L184.222 252.494Z" fill="#A0C5FF"/>
<path d="M175.501 442.756C175.322 442.777 175.141 442.79 174.962 442.809L175.245 445.367L176.324 445.248L176.039 442.69C175.86 442.71 175.68 442.737 175.501 442.756Z" fill="#A0C5FF"/>
<path d="M204.675 434.66C204.512 434.735 204.35 434.815 204.186 434.888C204.02 434.963 203.853 435.032 203.688 435.105L204.749 437.452L205.128 437.279L205.737 437.005L204.675 434.66Z" fill="#A0C5FF"/>
<path d="M155.087 442.826L154.834 445.374L155.912 445.482L156.165 442.939C155.805 442.905 155.447 442.864 155.087 442.826Z" fill="#A0C5FF"/>
<path d="M185.32 441.142C185.143 441.181 184.966 441.213 184.788 441.251L185.338 443.767L186.397 443.534L185.848 441.019C185.67 441.06 185.496 441.102 185.32 441.142Z" fill="#A0C5FF"/>
<path d="M193.346 257.463C193.691 257.571 194.034 257.685 194.379 257.796L195.155 255.357L194.123 255.028L193.346 257.463Z" fill="#A0C5FF"/>
<path d="M144.684 252.726L143.625 252.958L144.174 255.473C144.35 255.432 144.524 255.39 144.701 255.35C144.879 255.311 145.054 255.279 145.232 255.241L144.684 252.726Z" fill="#A0C5FF"/>
<path d="M195.428 438.333C195.256 438.391 195.088 438.454 194.916 438.51C194.744 438.566 194.571 438.618 194.399 438.674L195.208 441.118L196.237 440.776L195.428 438.333Z" fill="#A0C5FF"/>
<path d="M153.7 251.243L153.983 253.801C154.162 253.78 154.341 253.755 154.52 253.734C154.699 253.714 154.88 253.7 155.059 253.681L154.776 251.121L153.7 251.243Z" fill="#A0C5FF"/>
<path d="M173.857 253.553C174.217 253.588 174.577 253.627 174.935 253.664C174.935 253.664 174.935 253.664 174.937 253.664L175.189 251.116L174.111 251.009L173.857 253.553Z" fill="#A0C5FF"/>
<path d="M209.612 268.828L210.553 269.364L211.28 268.086L213.804 263.655L212.862 263.119L209.612 268.828Z" fill="#A0C5FF"/>
<path d="M166.088 439.336L165.005 439.343L165.043 445.913L166.126 445.907L166.088 439.336Z" fill="#A0C5FF"/>
<path d="M164.988 250.59L163.902 250.596L163.941 257.167L165.026 257.16L164.988 250.59Z" fill="#A0C5FF"/>
<path d="M171.973 348.207C171.993 351.9 169.018 354.911 165.326 354.933C161.633 354.955 158.622 351.979 158.601 348.285C158.579 344.592 161.555 341.58 165.249 341.559C168.941 341.537 171.951 344.514 171.973 348.207Z" fill="#5D74E4"/>
<path d="M210.352 291.221L165.324 344.713L168.948 348.289L221.939 302.649L224.667 288.289L210.352 291.221Z" fill="#5D74E4"/>
<path d="M166.515 353.31C168.305 352.946 169.821 351.608 170.296 349.717C170.956 347.092 169.364 344.428 166.74 343.768C164.116 343.107 161.452 344.7 160.792 347.324C160.308 349.25 161.043 351.19 162.502 352.351L146.516 398.422L150.069 408.527L158.064 401.4L166.515 353.31Z" fill="#A0C5FF"/>
<path d="M380.272 321.719C380.272 321.719 418.907 410.215 380.33 417.071C341.753 423.928 322.993 344.398 322.993 344.398L380.272 321.719Z" fill="#FECECC"/>
<path d="M280.673 453.809C285.022 456.198 357.011 442.618 388.676 413.574C420.343 384.53 361.266 365.9 340.319 378.398C319.371 390.896 281.444 428.519 281.444 428.519C281.444 428.519 267.112 446.361 280.673 453.809Z" fill="#FECECC"/>
<path opacity="0.5" d="M339.151 439.367C337.895 439.258 336.629 439.491 335.409 439.77C333.775 440.142 332.174 440.587 330.504 440.783C326.501 441.254 322.462 440.863 318.451 441.176C316.464 441.329 314.551 441.71 312.647 442.297C311.057 442.787 309.492 443.355 307.909 443.862C304.757 444.869 301.338 445.786 298.014 445.192C296.431 444.908 294.841 444.267 293.643 443.169C292.662 442.27 292.097 441.08 291.951 439.764C291.652 437.093 292.705 434.419 291.937 431.779C291.152 429.082 288.977 427.186 286.619 425.831C286.104 425.536 285.576 425.265 285.044 425.007C282.764 427.214 281.447 428.521 281.447 428.521C281.447 428.521 267.114 446.362 280.676 453.81C283.375 455.292 312.114 450.626 341.106 439.932C340.505 439.619 339.845 439.428 339.151 439.367Z" fill="#EAB2B2"/>
<path opacity="0.5" d="M387.895 346.582C386.37 352.561 382.295 357.399 376.87 360.278C371.599 363.075 365.643 363.519 359.789 363.681C357.642 363.741 355.489 363.736 353.346 363.895C352.212 363.978 351.069 364.103 349.959 364.374C349.101 364.584 348.154 364.878 347.511 365.516C346.26 366.758 346.638 368.552 348.021 369.463C349.472 370.419 351.33 370.735 353.014 371.005C355.615 371.423 358.238 371.798 360.802 372.413C363.906 373.153 367.264 374.336 369.512 376.713C371.263 378.562 372.041 381.031 371.94 383.54C371.899 384.538 371.836 385.609 371.469 386.549C371.4 386.726 371.319 386.924 371.183 387.064C371.075 387.175 371.087 387.162 371.009 387.158C370.623 387.139 370.144 386.743 369.838 386.544C369.007 385.998 368.252 385.353 367.441 384.781C366.182 383.893 364.602 383.303 363.189 382.712C359.767 381.282 356.245 379.959 352.65 379.036C349.146 378.137 345.554 377.567 341.942 377.347C339.396 377.191 336.846 377.237 334.297 377.166C326.731 360.236 322.993 344.398 322.993 344.398L380.272 321.719C380.272 321.719 384.297 330.944 388.451 343.662C388.316 344.645 388.141 345.621 387.895 346.582Z" fill="#EAB2B2"/>
<path d="M323.452 213.307C323.452 213.307 410.343 315.895 392.326 340.384C374.31 364.872 334.73 364.331 320.719 353.453C306.708 342.573 292.954 197.09 323.452 213.307Z" fill="#7459D9"/>
<path opacity="0.1" d="M310.377 267.415C312.836 274.254 315.745 280.952 319.277 287.31C320.918 290.264 322.698 293.145 324.651 295.903C326.431 298.415 328.42 300.722 330.441 303.04C332.068 304.909 333.609 306.849 334.532 309.175C335.685 312.085 335.967 315.371 335.665 318.465C335.315 322.04 334.382 325.547 334.305 329.154C334.268 330.923 334.437 332.705 334.957 334.403C335.37 335.752 336.1 337.016 336.854 338.201C340.113 343.317 345.058 347.313 350.26 350.327C352.877 351.842 355.629 353.141 358.484 354.141C360.753 354.936 363.138 355.614 365.542 355.827C367.639 356.013 369.755 355.999 371.87 355.921C353.109 363.633 330.582 361.113 320.72 353.453C312.41 347 304.646 292.993 306.071 253.502C307.306 258.199 308.736 262.846 310.377 267.415Z" fill="#7459D9"/>
<path d="M29.7958 285.658C29.7958 285.658 68.0811 293.409 67.4481 300.7C67.1512 304.11 54.005 302.629 43.8122 300.972C56.2009 303.451 66.7178 307.008 64.6841 310.415C63.1195 313.034 51.932 311.633 41.7255 310.387C48.6441 311.879 62.7782 315.366 61.9951 318.354C60.6643 323.423 46.4517 320.59 36.897 318.468C42.4984 320.119 56.9106 324.297 56.2231 327.038C55.6139 329.464 52.2749 330.915 40.2702 328.202C33.2645 326.618 33.1843 328.01 30.1405 326.664C27.7911 325.626 25.242 324.81 23.761 323.042C16.6223 314.531 23.8822 287.151 29.7958 285.658Z" fill="#FECECC"/>
<path opacity="0.5" d="M55.1584 327.224C55.259 325.899 51.4781 324.078 51.0225 324.208C51.0225 324.208 50.1302 327.5 50.2343 328.13C50.3366 328.76 55.0577 328.548 55.1584 327.224Z" fill="#E7F0FE"/>
<path opacity="0.5" d="M61.026 318.697C61.1283 317.373 57.344 315.552 56.8885 315.68C56.8885 315.68 55.9978 318.972 56.1019 319.602C56.206 320.231 60.927 320.022 61.026 318.697Z" fill="#E7F0FE"/>
<path opacity="0.5" d="M63.7678 309.281C63.8685 307.957 60.0858 306.134 59.632 306.264C59.632 306.264 58.7397 309.556 58.8454 310.186C58.9478 310.816 63.6671 310.604 63.7678 309.281Z" fill="#E7F0FE"/>
<path opacity="0.5" d="M66.2435 299.968C66.3459 298.644 62.5632 296.823 62.1077 296.952C62.1077 296.952 61.2153 300.245 61.3194 300.874C61.4218 301.504 66.1445 301.292 66.2435 299.968Z" fill="#E7F0FE"/>
<path opacity="0.25" d="M38.3865 318.897L26.8083 313.837C26.8083 313.837 23.2594 317.134 25.6856 321.947C25.6856 321.947 20.1559 317.543 23.7644 303.585C27.3765 289.626 29.4273 288.231 29.4273 288.231C29.4273 288.231 28.3302 292.58 30.6728 295.777C31.1949 296.492 43.6365 300.883 42.8397 300.697C42.0446 300.511 30.4664 298.343 30.4664 298.343L28.982 304.262L40.1695 309.792L28.2466 306.558L27.1871 311.655L38.3865 318.897Z" fill="#EAB2B2"/>
<path d="M284.433 425.765C284.433 425.765 245.96 419.005 243.891 426.026C242.923 429.308 255.703 432.728 265.798 434.908C253.358 432.694 242.27 432.167 242.921 436.08C243.423 439.091 254.35 441.869 264.307 444.438C257.322 443.301 242.889 441.386 242.529 444.455C241.918 449.66 256.185 452.21 265.853 453.724C260.036 453.215 245.093 451.843 244.733 454.645C244.416 457.127 246.994 459.697 259.163 461.554C266.264 462.638 265.829 463.964 269.154 463.82C271.72 463.711 274.39 463.883 276.416 462.778C286.163 457.456 289.395 429.313 284.433 425.765Z" fill="#FECECC"/>
<path opacity="0.5" d="M245.653 455.205C246.042 453.935 250.227 453.621 250.604 453.906C250.604 453.906 250.234 457.296 249.907 457.845C249.582 458.395 245.264 456.475 245.653 455.205Z" fill="#E7F0FE"/>
<path opacity="0.5" d="M243.302 445.124C243.691 443.854 247.876 443.54 248.255 443.825C248.255 443.825 247.883 447.216 247.555 447.764C247.23 448.312 242.911 446.392 243.302 445.124Z" fill="#E7F0FE"/>
<path opacity="0.5" d="M244.184 435.355C244.573 434.085 248.76 433.769 249.135 434.056C249.135 434.056 248.765 437.447 248.436 437.995C248.112 438.545 243.795 436.625 244.184 435.355Z" fill="#E7F0FE"/>
<path opacity="0.5" d="M245.278 425.782C245.667 424.512 249.852 424.198 250.229 424.485C250.229 424.485 249.859 427.876 249.531 428.424C249.207 428.972 244.887 427.05 245.278 425.782Z" fill="#E7F0FE"/>
<path opacity="0.25" d="M264.307 453.575L276.933 453.09C276.933 453.09 279.033 457.456 275.018 461.05C275.018 461.05 281.775 458.97 283.507 444.656C285.238 430.342 283.836 428.294 283.836 428.294C283.836 428.294 283.27 432.743 279.924 434.863C279.176 435.338 265.991 434.885 266.8 435.003C267.607 435.121 279.178 437.329 279.178 437.329L278.4 443.383L265.967 444.448L278.246 445.789L277.373 450.921L264.307 453.575Z" fill="#EAB2B2"/>
<path d="M448.436 221.028L426.056 192.238L372.503 115.16H448.436V221.028Z" fill="#5D74E4"/>
<path d="M440.338 112.98H364.404V124.473H440.338V112.98Z" fill="#5D74E4"/>
<path d="M440.336 222.908C440.336 222.908 444.387 215.525 448.436 221.028C448.436 216.165 440.336 177.996 440.336 177.996V222.908Z" fill="#5D74E4"/>
<path d="M440.338 124.473H364.404V222.909H440.338V124.473Z" fill="#A0C5FF"/>
<path d="M440.336 112.98L439.999 124.473L448.436 126.18V115.16L440.336 112.98Z" fill="#1732AC"/>
<path d="M440.336 124.473H364.402C364.402 124.473 365.477 170.004 343.203 201.017C356.018 213.29 391.77 217.384 420.697 209.868C431.002 207.19 440.336 124.473 440.336 124.473Z" fill="white"/>
<path d="M379.258 135.944H383.085V137.678H379.258V141.098H377.028V132.549H383.457V134.283H379.258V135.944Z" fill="#5D74E4"/>
<path d="M392.642 141.098H390.214C390.016 140.49 389.891 139.995 389.818 139.388C389.707 138.446 389.335 137.901 388.765 137.864C388.518 137.852 388.306 137.852 388.059 137.852H387.562V141.098H385.332V132.549H388.726C389.258 132.549 389.605 132.561 390.064 132.611C391.302 132.759 392.381 133.367 392.381 134.879C392.381 135.957 391.799 136.676 390.659 137.009C391.551 137.331 391.872 137.988 391.997 139.016C392.109 139.983 392.307 140.591 392.642 141.098ZM388.368 136.241C388.603 136.241 388.801 136.241 388.961 136.229C389.531 136.179 390.052 135.981 390.052 135.263C390.052 134.544 389.594 134.346 389.024 134.297C388.862 134.285 388.664 134.285 388.429 134.285H387.562V136.242H388.368V136.241Z" fill="#5D74E4"/>
<path d="M394.467 141.098V132.549H396.697V141.098H394.467Z" fill="#5D74E4"/>
<path d="M406.982 136.712C406.982 139.388 405.346 140.825 403.365 141.048C402.932 141.098 402.734 141.098 402.275 141.098H399.042V132.549H402.275C402.734 132.549 402.932 132.549 403.365 132.599C405.346 132.82 406.982 134.036 406.982 136.712ZM404.653 136.749C404.653 135.225 403.885 134.408 402.77 134.309C402.485 134.283 402.287 134.283 401.964 134.283H401.27V139.362H401.964C402.287 139.362 402.485 139.362 402.77 139.336C403.884 139.239 404.653 138.273 404.653 136.749Z" fill="#5D74E4"/>
<path d="M410.927 138.881L410.209 141.099H407.842L410.927 132.551H413.652L416.736 141.099H414.309L413.59 138.881H410.927ZM411.471 137.145H413.056L412.263 134.519L411.471 137.145Z" fill="#5D74E4"/>
<path d="M421.449 141.098H419.219V137.828L416.209 132.549H418.712L420.396 135.932L422.019 132.549H424.459L421.449 137.828V141.098Z" fill="#5D74E4"/>
<path d="M392.638 179.085V184.57H371.684V181.515L380.183 173.523C384.216 169.722 385.587 167.841 385.587 165.257C385.587 163.22 384.45 162.083 382.532 162.083C380.495 162.083 379.477 163.377 379.204 166.196L379.164 166.587H372.114L372.154 166.196C372.741 160.242 376.501 156.912 383.119 156.912C389.425 156.912 392.949 159.929 392.949 164.983C392.949 168.155 391.5 170.586 386.291 175.6L382.688 179.087H392.638V179.085Z" fill="#000141"/>
<path d="M421.265 176.539C421.265 181.71 417.035 185.118 410.22 185.118C403.367 185.118 399.371 181.788 398.823 176.382L398.784 175.989H405.834L405.912 176.382C406.305 178.262 407.636 179.947 409.948 179.947C412.375 179.947 413.902 178.576 413.902 176.735C413.902 174.422 412.218 173.248 409.398 173.13L408.34 173.091V168.546L409.398 168.468C411.983 168.272 413.275 166.862 413.275 165.02C413.275 163.257 412.217 162.16 410.26 162.16C408.183 162.16 407.322 163.844 407.165 165.607L407.125 166H400.075L400.115 165.607C400.584 161.063 403.954 156.989 410.964 156.989C417.584 156.989 420.639 160.358 420.639 164.198C420.639 167.37 419.033 169.487 415.508 170.349C419.345 171.093 421.265 173.052 421.265 176.539Z" fill="#000141"/>
<path d="M62.2801 167.645C54.0904 167.645 47.426 160.98 47.426 152.787V117.739C47.426 109.547 54.0886 102.88 62.2801 102.88H190.391C198.581 102.88 205.245 109.545 205.245 117.739V152.787C205.245 160.979 198.583 167.645 190.391 167.645H62.2801Z" fill="#E7F0FE"/>
<path d="M62.2801 105.999H190.391C196.873 105.999 202.128 111.255 202.128 117.739V152.787C202.128 159.27 196.873 164.527 190.391 164.527H62.2801C55.7982 164.527 50.5432 159.27 50.5432 152.787V117.739C50.5432 111.255 55.7982 105.999 62.2801 105.999Z" fill="white"/>
<path d="M50.5432 125.963V117.737C50.5432 111.253 55.7982 105.997 62.2801 105.997H190.391C196.873 105.997 202.128 111.253 202.128 117.737V125.963H50.5432Z" fill="#5D74E4"/>
<path d="M78.8062 118.863L78.0811 121.104H75.6924L78.8062 112.472H81.5583L84.6738 121.104H82.222L81.4969 118.865H78.8062V118.863ZM79.3556 117.112H80.956L80.1558 114.46L79.3556 117.112Z" fill="white"/>
<path d="M93.1639 115.273C93.1639 116.974 92.0258 117.863 90.7752 118.013C90.3128 118.063 89.9613 118.077 89.4239 118.077H88.4241V121.104H86.1719V112.472H89.4239C89.9613 112.472 90.3128 112.484 90.7752 112.535C92.0258 112.684 93.1639 113.571 93.1639 115.273ZM90.8127 115.273C90.8127 114.622 90.4749 114.284 89.8999 114.235C89.7378 114.223 89.5365 114.223 89.2993 114.223H88.4241V116.326H89.2993C89.5365 116.326 89.7378 116.326 89.8999 116.314C90.4749 116.262 90.8127 115.923 90.8127 115.273Z" fill="white"/>
<path d="M101.908 115.273C101.908 116.974 100.77 117.863 99.5195 118.013C99.0571 118.063 98.7056 118.077 98.1681 118.077H97.1683V121.104H94.9161V112.472H98.1681C98.7056 112.472 99.0571 112.484 99.5195 112.535C100.77 112.684 101.908 113.571 101.908 115.273ZM99.557 115.273C99.557 114.622 99.2192 114.284 98.6442 114.235C98.4821 114.223 98.2808 114.223 98.0436 114.223H97.1683V116.326H98.0436C98.2808 116.326 98.4821 116.326 98.6442 116.314C99.2192 116.262 99.557 115.923 99.557 115.273Z" fill="white"/>
<path d="M112.164 116.788C112.164 119.553 110.437 121.28 107.748 121.28C105.059 121.28 103.333 119.553 103.333 116.788C103.333 114.011 105.059 112.296 107.748 112.296C110.437 112.296 112.164 114.01 112.164 116.788ZM109.864 116.788C109.864 114.948 109.05 113.948 107.75 113.948C106.45 113.948 105.636 114.948 105.636 116.788C105.636 118.614 106.45 119.628 107.75 119.628C109.05 119.628 109.864 118.614 109.864 116.788Z" fill="white"/>
<path d="M114.205 121.104V112.472H116.457V121.104H114.205Z" fill="white"/>
<path d="M124.135 121.104L120.995 115.399C121.07 116.274 121.07 117.037 121.07 117.537V121.103H118.82V112.47H121.621L124.899 118.426C124.836 117.551 124.824 116.662 124.824 116.162V112.47H127.076V121.103H124.135V121.104Z" fill="white"/>
<path d="M133.665 114.223V121.104H131.415V114.223H128.613V112.472H136.469V114.223H133.665Z" fill="white"/>
<path d="M147.9 121.104H145.65V117.476C145.65 116.725 145.65 115.612 145.675 114.735C145.525 115.61 145.274 116.711 145.075 117.476L144.124 121.104H141.811L140.847 117.476C140.647 116.725 140.396 115.612 140.258 114.735C140.284 115.61 140.284 116.723 140.284 117.476V121.104H138.032V112.472H141.546L143.01 118.915L144.472 112.472H147.9V121.104Z" fill="white"/>
<path d="M156.882 121.104H150.265V112.472H156.757V114.223H152.517V115.899H156.506V117.65H152.517V119.351H156.882V121.104Z" fill="white"/>
<path d="M164.261 121.104L161.122 115.399C161.197 116.274 161.197 117.037 161.197 117.537V121.103H158.944V112.47H161.746L165.022 118.426C164.959 117.551 164.947 116.662 164.947 116.162V112.47H167.199V121.103H164.261V121.104Z" fill="white"/>
<path d="M173.792 114.223V121.104H171.54V114.223H168.738V112.472H176.593V114.223H173.792Z" fill="white"/>
<path d="M81.5839 133.95C75.6907 133.95 70.9134 138.729 70.9134 144.624C70.9134 150.519 75.6907 155.297 81.5839 155.297C87.4771 155.297 92.2544 150.519 92.2544 144.624C92.2544 138.729 87.4771 133.95 81.5839 133.95ZM81.5839 153.541C76.6581 153.541 72.6588 149.551 72.6588 144.624C72.6588 139.697 76.6581 135.706 81.5839 135.706C86.5097 135.706 90.4988 139.697 90.4988 144.624C90.4988 149.551 86.5097 153.541 81.5839 153.541Z" fill="#A0C5FF"/>
<path d="M82.983 144.624C82.983 145.4 82.3551 146.028 81.5788 146.028C80.8025 146.028 80.1729 145.4 80.1729 144.624C80.1729 143.847 80.8025 143.219 81.5788 143.219C82.3551 143.219 82.983 143.847 82.983 144.624Z" fill="#A0C5FF"/>
<path d="M81.5788 137.063C81.0823 137.063 80.6779 137.466 80.6779 137.964V144.223C80.6779 144.721 81.0806 145.124 81.5788 145.124C82.077 145.124 82.4797 144.721 82.4797 144.223V137.964C82.4797 137.466 82.077 137.063 81.5788 137.063Z" fill="#A0C5FF"/>
<path d="M86.8441 139.642C86.4927 139.29 85.9228 139.29 85.5713 139.642L81.1472 144.067C80.7957 144.419 80.7957 144.989 81.1472 145.34C81.4986 145.692 82.0685 145.692 82.42 145.34L86.8441 140.915C87.1973 140.563 87.1973 139.993 86.8441 139.642Z" fill="#A0C5FF"/>
<path d="M132.724 136.427H104.65C103.959 136.427 103.319 136.899 103.208 137.58C103.067 138.449 103.734 139.2 104.577 139.2H132.725C133.491 139.2 134.112 138.579 134.112 137.812C134.111 137.048 133.49 136.427 132.724 136.427Z" fill="#A0C5FF"/>
<path d="M186.341 136.427H137.382C136.616 136.427 135.994 137.048 135.994 137.814C135.994 138.58 136.616 139.202 137.382 139.202H186.416C187.259 139.202 187.924 138.451 187.784 137.582C187.672 136.899 187.032 136.427 186.341 136.427Z" fill="#A0C5FF"/>
<path d="M144.826 143.236H104.65C103.959 143.236 103.319 143.709 103.208 144.39C103.067 145.258 103.734 146.009 104.577 146.009H144.827C145.593 146.009 146.215 145.388 146.215 144.622C146.213 143.857 145.592 143.236 144.826 143.236Z" fill="#A0C5FF"/>
<path d="M144.826 150.046H104.65C103.959 150.046 103.319 150.517 103.208 151.199C103.067 152.068 103.734 152.819 104.577 152.819H144.827C145.593 152.819 146.215 152.198 146.215 151.431C146.213 150.667 145.592 150.046 144.826 150.046Z" fill="#A0C5FF"/>
<path d="M186.339 143.236H149.482C148.716 143.236 148.095 143.857 148.095 144.624C148.095 145.39 148.716 146.011 149.482 146.011H186.414C187.257 146.011 187.924 145.26 187.782 144.392C187.672 143.709 187.03 143.236 186.339 143.236Z" fill="#A0C5FF"/>
</svg>
